M48
; DRILL file {KiCad 9.0.7} date 2026-03-10T16:34:59+0100
; FORMAT={-:-/ absolute / metric / decimal}
; #@! TF.CreationDate,2026-03-10T16:34:59+01:00
; #@! TF.GenerationSoftware,Kicad,Pcbnew,9.0.7
; #@! TF.FileFunction,MixedPlating,1,2
FMAT,2
METRIC
; #@! TA.AperFunction,Plated,PTH,ViaDrill
T1C0.300
; #@! TA.AperFunction,Plated,PTH,ComponentDrill
T2C0.750
; #@! TA.AperFunction,Plated,PTH,ComponentDrill
T3C0.800
; #@! TA.AperFunction,Plated,PTH,ComponentDrill
T4C0.813
; #@! TA.AperFunction,Plated,PTH,ComponentDrill
T5C0.950
; #@! TA.AperFunction,Plated,PTH,ComponentDrill
T6C1.000
; #@! TA.AperFunction,NonPlated,NPTH,ComponentDrill
T7C2.500
%
G90
G05
T1
X86.437Y-90.965
X87.453Y-92.997
X89.231Y-87.282
X94.819Y-89.695
X95.073Y-90.965
X96.343Y-90.965
X97.867Y-89.187
X98.121Y-94.267
X101.296Y-111.539
X101.677Y-114.587
X107.068Y-88.425
X107.068Y-98.839
X111.71Y-114.333
X112.338Y-112.562
X112.853Y-113.444
X114.123Y-70.645
X114.25Y-111.158
X114.631Y-112.555
X115.393Y-108.618
X116.586Y-111.158
X116.79Y-110.269
X116.917Y-61.374
X117.171Y-99.601
X117.425Y-94.775
X117.933Y-60.739
X117.933Y-117.127
X118.187Y-59.469
X120.219Y-114.587
X120.981Y-93.505
X121.451Y-110.269
X122.251Y-111.069
X123.902Y-108.618
X125.553Y-108.491
X128.601Y-111.539
X129.617Y-73.693
X132.982Y-88.447
X132.982Y-98.861
X138.253Y-107.475
X142.275Y-99.885
X143.443Y-96.625
X145.111Y-63.025
X146.254Y-59.977
X151.334Y-112.428
X152.717Y-112.339
X163.78Y-109.126
X167.018Y-88.467
X167.018Y-98.881
X175.103Y-97.823
X176.607Y-101.506
X177.623Y-62.009
X180.925Y-96.934
X181.814Y-92.108
X182.957Y-108.745
X189.307Y-72.931
X192.809Y-88.473
X192.809Y-98.887
X199.213Y-107.221
X201.753Y-98.315
X202.261Y-90.203
X202.769Y-97.315
X207.595Y-90.711
X211.913Y-113.571
X212.167Y-115.984
T2
X149.937Y-78.287
X151.207Y-80.537
X152.437Y-78.237
T3
X91.096Y-66.073
X91.096Y-73.185
X93.596Y-66.073
X93.596Y-73.185
X113.334Y-82.897
X119.161Y-91.22
X139.255Y-82.931
X145.082Y-91.254
X146.889Y-77.757
X146.889Y-87.917
X149.937Y-73.693
X149.937Y-82.837
X149.937Y-92.997
X150.001Y-67.343
X152.437Y-73.693
X152.501Y-67.343
X155.525Y-81.059
X155.525Y-91.219
X173.264Y-83.091
X179.092Y-91.414
X199.115Y-82.987
X204.942Y-91.31
X210.135Y-75.979
X210.135Y-86.139
X214.199Y-75.979
X214.199Y-86.139
T4
X87.707Y-96.299
X87.707Y-98.839
X87.707Y-101.379
X87.707Y-103.919
X87.707Y-106.459
X87.707Y-108.999
X87.707Y-111.539
X87.707Y-114.079
X95.327Y-96.299
X95.327Y-98.839
X95.327Y-101.379
X95.327Y-103.919
X95.327Y-106.459
X95.327Y-108.999
X95.327Y-111.539
X95.327Y-114.079
X104.782Y-87.155
X104.782Y-89.695
X104.782Y-92.235
X104.782Y-94.775
X104.782Y-97.315
X104.782Y-99.855
X104.782Y-102.395
X104.782Y-104.935
X112.402Y-87.155
X112.402Y-89.695
X112.402Y-92.235
X112.402Y-94.775
X112.402Y-97.315
X112.402Y-99.855
X112.402Y-102.395
X112.402Y-104.935
X130.633Y-87.155
X130.633Y-89.695
X130.633Y-92.235
X130.633Y-94.775
X130.633Y-97.315
X130.633Y-99.855
X130.633Y-102.395
X130.633Y-104.935
X138.253Y-87.155
X138.253Y-89.695
X138.253Y-92.235
X138.253Y-94.775
X138.253Y-97.315
X138.253Y-99.855
X138.253Y-102.395
X138.253Y-104.935
X164.669Y-87.176
X164.669Y-89.716
X164.669Y-92.256
X164.669Y-94.796
X164.669Y-97.336
X164.669Y-99.876
X164.669Y-102.416
X164.669Y-104.956
X172.289Y-87.176
X172.289Y-89.716
X172.289Y-92.256
X172.289Y-94.796
X172.289Y-97.336
X172.289Y-99.876
X172.289Y-102.416
X172.289Y-104.956
X190.459Y-87.182
X190.459Y-89.722
X190.459Y-92.262
X190.459Y-94.802
X190.459Y-97.342
X190.459Y-99.882
X190.459Y-102.422
X190.459Y-104.962
X198.079Y-87.182
X198.079Y-89.722
X198.079Y-92.262
X198.079Y-94.802
X198.079Y-97.342
X198.079Y-99.882
X198.079Y-102.422
X198.079Y-104.962
X207.849Y-96.045
X207.849Y-98.585
X207.849Y-101.125
X207.849Y-103.665
X207.849Y-106.205
X207.849Y-108.745
X207.849Y-111.285
X207.849Y-113.825
X215.469Y-96.045
X215.469Y-98.585
X215.469Y-101.125
X215.469Y-103.665
X215.469Y-106.205
X215.469Y-108.745
X215.469Y-111.285
X215.469Y-113.825
T5
X85.929Y-65.685
X85.929Y-68.185
X85.929Y-70.685
X85.929Y-73.185
X85.929Y-75.685
X85.929Y-78.185
X85.929Y-80.685
X85.929Y-83.185
X85.929Y-85.685
T6
X98.49Y-73.144
X98.679Y-68.819
X100.147Y-77.143
X100.678Y-64.98
X103.338Y-80.068
X104.112Y-62.344
X108.338Y-61.407
X112.565Y-62.344
X113.338Y-80.068
X115.999Y-64.98
X116.53Y-77.143
X117.998Y-68.819
X118.187Y-73.144
X124.404Y-73.185
X124.593Y-68.861
X126.06Y-77.185
X126.592Y-65.021
X129.252Y-80.109
X130.026Y-62.386
X134.252Y-61.449
X138.478Y-62.386
X139.252Y-80.109
X141.912Y-65.021
X142.444Y-77.185
X143.911Y-68.861
X144.1Y-73.185
X158.416Y-73.185
X158.605Y-68.86
X160.073Y-77.184
X160.604Y-65.021
X163.264Y-80.109
X164.038Y-62.385
X168.264Y-61.448
X172.49Y-62.385
X173.264Y-80.109
X175.925Y-65.021
X176.456Y-77.184
X177.924Y-68.86
X178.112Y-73.185
X184.227Y-73.185
X184.415Y-68.86
X185.883Y-77.184
X186.414Y-65.021
X189.075Y-80.109
X189.848Y-62.385
X194.075Y-61.448
X198.301Y-62.385
X199.075Y-80.109
X201.735Y-65.021
X202.266Y-77.184
X203.734Y-68.86
X203.923Y-73.185
X211.659Y-90.457
X212.421Y-66.915
X212.421Y-71.915
X214.159Y-90.457
T7
X86.707Y-59.669
X157.207Y-114.669
X215.707Y-59.669
M30
