%TF.GenerationSoftware,KiCad,Pcbnew,9.0.7*%
%TF.CreationDate,2026-03-10T16:35:04+01:00*%
%TF.ProjectId,Digitronove hodiny LV,44696769-7472-46f6-9e6f-766520686f64,rev?*%
%TF.SameCoordinates,Original*%
%TF.FileFunction,Legend,Bot*%
%TF.FilePolarity,Positive*%
%FSLAX46Y46*%
G04 Gerber Fmt 4.6, Leading zero omitted, Abs format (unit mm)*
G04 Created by KiCad (PCBNEW 9.0.7) date 2026-03-10 16:35:04*
%MOMM*%
%LPD*%
G01*
G04 APERTURE LIST*
%ADD10C,0.000000*%
%ADD11C,0.150000*%
%ADD12C,0.120000*%
%ADD13C,0.127000*%
%ADD14C,0.152400*%
G04 APERTURE END LIST*
D10*
G36*
X173763031Y-109852675D02*
G01*
X173768886Y-109853003D01*
X173774813Y-109853608D01*
X173780885Y-109854472D01*
X173787173Y-109855579D01*
X173793749Y-109856910D01*
X173800687Y-109858449D01*
X173815934Y-109862081D01*
X173802704Y-109914998D01*
X173710100Y-109862081D01*
X173717983Y-109859574D01*
X173725359Y-109857482D01*
X173732302Y-109855788D01*
X173738882Y-109854473D01*
X173745173Y-109853522D01*
X173751247Y-109852917D01*
X173757175Y-109852640D01*
X173763031Y-109852675D01*
G37*
G36*
X176567600Y-113830831D02*
G01*
X176532357Y-113859718D01*
X176519104Y-113870836D01*
X176506239Y-113882172D01*
X176493721Y-113893743D01*
X176481507Y-113905572D01*
X176469557Y-113917679D01*
X176457830Y-113930083D01*
X176446283Y-113942805D01*
X176434876Y-113955865D01*
X176417118Y-113977178D01*
X176381958Y-114020078D01*
X176348053Y-114063443D01*
X176315642Y-114107521D01*
X176300071Y-114129905D01*
X176284964Y-114152561D01*
X176270350Y-114175521D01*
X176256258Y-114198814D01*
X176242720Y-114222473D01*
X176229764Y-114246528D01*
X176217421Y-114271011D01*
X176205721Y-114295953D01*
X176194693Y-114321384D01*
X176184368Y-114347337D01*
X176170725Y-114386456D01*
X176165791Y-114400058D01*
X176161101Y-114413598D01*
X176156649Y-114427119D01*
X176152427Y-114440665D01*
X176148429Y-114454278D01*
X176144647Y-114468002D01*
X176141075Y-114481881D01*
X176137704Y-114495958D01*
X176131299Y-114550576D01*
X176126961Y-114604734D01*
X176124732Y-114658424D01*
X176124653Y-114711639D01*
X176126768Y-114764373D01*
X176131118Y-114816617D01*
X176137745Y-114868364D01*
X176146692Y-114919607D01*
X176158001Y-114970338D01*
X176171714Y-115020551D01*
X176187872Y-115070238D01*
X176206520Y-115119391D01*
X176227697Y-115168003D01*
X176251447Y-115216067D01*
X176277812Y-115263575D01*
X176306834Y-115310520D01*
X176349374Y-115368554D01*
X176395654Y-115423798D01*
X176445396Y-115476245D01*
X176498321Y-115525884D01*
X176554152Y-115572709D01*
X176612610Y-115616710D01*
X176673418Y-115657880D01*
X176736296Y-115696209D01*
X176800969Y-115731689D01*
X176867156Y-115764313D01*
X176934581Y-115794070D01*
X177002964Y-115820954D01*
X177072029Y-115844955D01*
X177141497Y-115866066D01*
X177211089Y-115884277D01*
X177280528Y-115899581D01*
X177307607Y-115904813D01*
X177362177Y-115915251D01*
X177396868Y-115921057D01*
X177404671Y-115922470D01*
X177412198Y-115924004D01*
X177419488Y-115925725D01*
X177426576Y-115927700D01*
X177433499Y-115929996D01*
X177440293Y-115932681D01*
X177446996Y-115935822D01*
X177453643Y-115939487D01*
X177460272Y-115943743D01*
X177466919Y-115948656D01*
X177473620Y-115954295D01*
X177480413Y-115960726D01*
X177368512Y-115963070D01*
X177256919Y-115962318D01*
X177145843Y-115957514D01*
X177090564Y-115953292D01*
X177035493Y-115947699D01*
X176980655Y-115940613D01*
X176926077Y-115931915D01*
X176871785Y-115921486D01*
X176817806Y-115909205D01*
X176764164Y-115894954D01*
X176710887Y-115878612D01*
X176658001Y-115860060D01*
X176605531Y-115839177D01*
X176580830Y-115828435D01*
X176545328Y-115812692D01*
X176510214Y-115796451D01*
X176475397Y-115779588D01*
X176458072Y-115770885D01*
X176440786Y-115761979D01*
X176387899Y-115729903D01*
X176336924Y-115696006D01*
X176287903Y-115660295D01*
X176240875Y-115622774D01*
X176195880Y-115583447D01*
X176152959Y-115542319D01*
X176112152Y-115499395D01*
X176073498Y-115454680D01*
X176037038Y-115408178D01*
X176002811Y-115359894D01*
X175970859Y-115309833D01*
X175941221Y-115257999D01*
X175913937Y-115204397D01*
X175889047Y-115149032D01*
X175866592Y-115091908D01*
X175846611Y-115033031D01*
X175836209Y-114984711D01*
X175828102Y-114935999D01*
X175822290Y-114886999D01*
X175818774Y-114837820D01*
X175817553Y-114788566D01*
X175818629Y-114739345D01*
X175822002Y-114690263D01*
X175827671Y-114641427D01*
X175835637Y-114592943D01*
X175845901Y-114544917D01*
X175858463Y-114497457D01*
X175873323Y-114450667D01*
X175890482Y-114404656D01*
X175909939Y-114359529D01*
X175931695Y-114315393D01*
X175955751Y-114272354D01*
X175983280Y-114231283D01*
X176012332Y-114191507D01*
X176042888Y-114153110D01*
X176074927Y-114116177D01*
X176108428Y-114080791D01*
X176143371Y-114047035D01*
X176179736Y-114014993D01*
X176217502Y-113984750D01*
X176256648Y-113956390D01*
X176297154Y-113929995D01*
X176339000Y-113905650D01*
X176382164Y-113883438D01*
X176426627Y-113863443D01*
X176472368Y-113845750D01*
X176519366Y-113830442D01*
X176567600Y-113817602D01*
X176567600Y-113830831D01*
G37*
G36*
X173900768Y-107963705D02*
G01*
X173931672Y-107998095D01*
X173961500Y-108033718D01*
X173990191Y-108070501D01*
X174017685Y-108108370D01*
X174043920Y-108147252D01*
X174068834Y-108187072D01*
X174092367Y-108227758D01*
X174114458Y-108269235D01*
X174135045Y-108311430D01*
X174154066Y-108354269D01*
X174171462Y-108397678D01*
X174187170Y-108441584D01*
X174201129Y-108485913D01*
X174213279Y-108530591D01*
X174223558Y-108575545D01*
X174228730Y-108604551D01*
X174231485Y-108618838D01*
X174234444Y-108633023D01*
X174237676Y-108647139D01*
X174241251Y-108661216D01*
X174245238Y-108675289D01*
X174249706Y-108689388D01*
X174254499Y-108697425D01*
X174256546Y-108700693D01*
X174258444Y-108703515D01*
X174260255Y-108705934D01*
X174261147Y-108707005D01*
X174262041Y-108707991D01*
X174262944Y-108708897D01*
X174263865Y-108709727D01*
X174264810Y-108710489D01*
X174265787Y-108711185D01*
X174266806Y-108711823D01*
X174267872Y-108712406D01*
X174268995Y-108712940D01*
X174270182Y-108713431D01*
X174271440Y-108713884D01*
X174272777Y-108714303D01*
X174275722Y-108715062D01*
X174279078Y-108715751D01*
X174282907Y-108716410D01*
X174292235Y-108717810D01*
X174351620Y-108720200D01*
X174412072Y-108724703D01*
X174473321Y-108731351D01*
X174535095Y-108740180D01*
X174597120Y-108751224D01*
X174659125Y-108764516D01*
X174720838Y-108780092D01*
X174781987Y-108797984D01*
X174842300Y-108818228D01*
X174901505Y-108840857D01*
X174959329Y-108865907D01*
X175015501Y-108893409D01*
X175069749Y-108923400D01*
X175121800Y-108955914D01*
X175171383Y-108990983D01*
X175218225Y-109028644D01*
X175240983Y-109050456D01*
X175261926Y-109072196D01*
X175281113Y-109093962D01*
X175298606Y-109115852D01*
X175314466Y-109137964D01*
X175328753Y-109160395D01*
X175341528Y-109183245D01*
X175352852Y-109206610D01*
X175362784Y-109230589D01*
X175371387Y-109255280D01*
X175378720Y-109280781D01*
X175384845Y-109307190D01*
X175389822Y-109334605D01*
X175393712Y-109363123D01*
X175396575Y-109392844D01*
X175398473Y-109423865D01*
X175399223Y-109450808D01*
X175400286Y-109477615D01*
X175401682Y-109504419D01*
X175403434Y-109531352D01*
X175410270Y-109550648D01*
X175417869Y-109569030D01*
X175426202Y-109586568D01*
X175435240Y-109603332D01*
X175444957Y-109619391D01*
X175455325Y-109634814D01*
X175466315Y-109649673D01*
X175477899Y-109664036D01*
X175490051Y-109677974D01*
X175502741Y-109691555D01*
X175515943Y-109704851D01*
X175529628Y-109717930D01*
X175543768Y-109730862D01*
X175558335Y-109743717D01*
X175588642Y-109769477D01*
X175601794Y-109780187D01*
X175612000Y-109788649D01*
X175616240Y-109792279D01*
X175620035Y-109795638D01*
X175623482Y-109798823D01*
X175626676Y-109801930D01*
X175629715Y-109805056D01*
X175632696Y-109808299D01*
X175635716Y-109811755D01*
X175638871Y-109815521D01*
X175645977Y-109824370D01*
X175654788Y-109835623D01*
X175656061Y-109848367D01*
X175656998Y-109860754D01*
X175657587Y-109872829D01*
X175657816Y-109884633D01*
X175657675Y-109896210D01*
X175657151Y-109907602D01*
X175656233Y-109918853D01*
X175654909Y-109930005D01*
X175653168Y-109941102D01*
X175650998Y-109952186D01*
X175648389Y-109963301D01*
X175645327Y-109974488D01*
X175641801Y-109985792D01*
X175637801Y-109997255D01*
X175633314Y-110008921D01*
X175628329Y-110020831D01*
X175617245Y-110036868D01*
X175607034Y-110052103D01*
X175597678Y-110066933D01*
X175593314Y-110074322D01*
X175589156Y-110081759D01*
X175585201Y-110089294D01*
X175581448Y-110096978D01*
X175577893Y-110104860D01*
X175574534Y-110112990D01*
X175571369Y-110121418D01*
X175568395Y-110130194D01*
X175565610Y-110139367D01*
X175563010Y-110148989D01*
X175559162Y-110165286D01*
X175555044Y-110181392D01*
X175550630Y-110197305D01*
X175545896Y-110213019D01*
X175540814Y-110228533D01*
X175535360Y-110243843D01*
X175529508Y-110258946D01*
X175523231Y-110273838D01*
X175516504Y-110288516D01*
X175509301Y-110302976D01*
X175501597Y-110317216D01*
X175493365Y-110331233D01*
X175484579Y-110345022D01*
X175475215Y-110358581D01*
X175465245Y-110371906D01*
X175454645Y-110384995D01*
X175425058Y-110411833D01*
X175395265Y-110435556D01*
X175365208Y-110456359D01*
X175334832Y-110474437D01*
X175304081Y-110489985D01*
X175272897Y-110503199D01*
X175241225Y-110514273D01*
X175209009Y-110523402D01*
X175176192Y-110530782D01*
X175142718Y-110536607D01*
X175108530Y-110541073D01*
X175073573Y-110544374D01*
X175037790Y-110546705D01*
X175001125Y-110548262D01*
X174924923Y-110549833D01*
X174900725Y-110549998D01*
X174904412Y-110636965D01*
X174905734Y-110680914D01*
X174905806Y-110724878D01*
X174905162Y-110746796D01*
X174903951Y-110768634D01*
X174902089Y-110790365D01*
X174899492Y-110811960D01*
X174896074Y-110833393D01*
X174891752Y-110854635D01*
X174886440Y-110875659D01*
X174880055Y-110896437D01*
X174863445Y-110930337D01*
X174845157Y-110962150D01*
X174825276Y-110992006D01*
X174803884Y-111020034D01*
X174781065Y-111046363D01*
X174756901Y-111071123D01*
X174731477Y-111094443D01*
X174704876Y-111116452D01*
X174677180Y-111137280D01*
X174648473Y-111157055D01*
X174618839Y-111175908D01*
X174588360Y-111193968D01*
X174557120Y-111211363D01*
X174525203Y-111228224D01*
X174459667Y-111260859D01*
X174305995Y-111334985D01*
X174229854Y-111373540D01*
X174192277Y-111393604D01*
X174155152Y-111414350D01*
X174118571Y-111435897D01*
X174082623Y-111458363D01*
X174047402Y-111481866D01*
X174012998Y-111506524D01*
X173979503Y-111532457D01*
X173947008Y-111559781D01*
X173915606Y-111588616D01*
X173885387Y-111619080D01*
X173856952Y-111653675D01*
X173830480Y-111688389D01*
X173805980Y-111723300D01*
X173783457Y-111758485D01*
X173762922Y-111794020D01*
X173744381Y-111829984D01*
X173727843Y-111866452D01*
X173713315Y-111903502D01*
X173700805Y-111941211D01*
X173690321Y-111979656D01*
X173681872Y-112018914D01*
X173675464Y-112059063D01*
X173671107Y-112100179D01*
X173668807Y-112142339D01*
X173668573Y-112185621D01*
X173670413Y-112230102D01*
X173682373Y-112196402D01*
X173695453Y-112163614D01*
X173709615Y-112131711D01*
X173724823Y-112100669D01*
X173758227Y-112041061D01*
X173795367Y-111984582D01*
X173835949Y-111931025D01*
X173879674Y-111880181D01*
X173926247Y-111831845D01*
X173975371Y-111785809D01*
X174026750Y-111741864D01*
X174080087Y-111699805D01*
X174135086Y-111659423D01*
X174191450Y-111620511D01*
X174248883Y-111582862D01*
X174307089Y-111546269D01*
X174424630Y-111475419D01*
X174550704Y-111400702D01*
X174611823Y-111362434D01*
X174641687Y-111342636D01*
X174671003Y-111322230D01*
X174699711Y-111301092D01*
X174727747Y-111279097D01*
X174755050Y-111256121D01*
X174781559Y-111232038D01*
X174807210Y-111206725D01*
X174831942Y-111180057D01*
X174855693Y-111151910D01*
X174878401Y-111122159D01*
X174890012Y-111105418D01*
X174901718Y-111089201D01*
X174913630Y-111073453D01*
X174925857Y-111058118D01*
X174938508Y-111043139D01*
X174945027Y-111035767D01*
X174951693Y-111028462D01*
X174958519Y-111021219D01*
X174965520Y-111014031D01*
X174972710Y-111006890D01*
X174980101Y-110999789D01*
X175000327Y-111028828D01*
X175019709Y-111058128D01*
X175038318Y-111087726D01*
X175056224Y-111117660D01*
X175073498Y-111147970D01*
X175090211Y-111178693D01*
X175106433Y-111209867D01*
X175122236Y-111241532D01*
X175143811Y-111286697D01*
X175182641Y-111370300D01*
X175219281Y-111454258D01*
X175253724Y-111538717D01*
X175285962Y-111623825D01*
X175315986Y-111709729D01*
X175343786Y-111796576D01*
X175369356Y-111884511D01*
X175392685Y-111973683D01*
X175403434Y-112018435D01*
X175403788Y-111959382D01*
X175402431Y-111901666D01*
X175399356Y-111845154D01*
X175394557Y-111789716D01*
X175388024Y-111735221D01*
X175379753Y-111681538D01*
X175369736Y-111628535D01*
X175357965Y-111576082D01*
X175344433Y-111524047D01*
X175329134Y-111472299D01*
X175312061Y-111420708D01*
X175293206Y-111369141D01*
X175272562Y-111317468D01*
X175250123Y-111265558D01*
X175225881Y-111213280D01*
X175199829Y-111160503D01*
X175178538Y-111118852D01*
X175204996Y-111105623D01*
X175261658Y-111162124D01*
X175318679Y-111216667D01*
X175376146Y-111269346D01*
X175434143Y-111320256D01*
X175492757Y-111369491D01*
X175552072Y-111417144D01*
X175612173Y-111463310D01*
X175673147Y-111508083D01*
X175735078Y-111551557D01*
X175798051Y-111593826D01*
X175862153Y-111634984D01*
X175927468Y-111675126D01*
X175994081Y-111714345D01*
X176062079Y-111752735D01*
X176202568Y-111827407D01*
X176325120Y-111891181D01*
X176446407Y-111956777D01*
X176566300Y-112024471D01*
X176684674Y-112094537D01*
X176801401Y-112167253D01*
X176916355Y-112242892D01*
X177029408Y-112321731D01*
X177140433Y-112404045D01*
X177189371Y-112441768D01*
X177293772Y-112524493D01*
X177395155Y-112612080D01*
X177493289Y-112704270D01*
X177587947Y-112800807D01*
X177678899Y-112901434D01*
X177765916Y-113005891D01*
X177848769Y-113113923D01*
X177927228Y-113225272D01*
X178001065Y-113339679D01*
X178070050Y-113456889D01*
X178133955Y-113576642D01*
X178192550Y-113698681D01*
X178245605Y-113822750D01*
X178292893Y-113948590D01*
X178334183Y-114075944D01*
X178369247Y-114204555D01*
X178384287Y-114269265D01*
X178392070Y-114301553D01*
X178400305Y-114333733D01*
X178411479Y-114375950D01*
X178421662Y-114417679D01*
X178430789Y-114459153D01*
X178438797Y-114500606D01*
X178445620Y-114542272D01*
X178451194Y-114584384D01*
X178455454Y-114627176D01*
X178458337Y-114670883D01*
X178459371Y-114703956D01*
X178474615Y-114700873D01*
X178490126Y-114697036D01*
X178521828Y-114687222D01*
X178554240Y-114674763D01*
X178587122Y-114659906D01*
X178620235Y-114642900D01*
X178653340Y-114623992D01*
X178686199Y-114603432D01*
X178718571Y-114581467D01*
X178750219Y-114558346D01*
X178780903Y-114534316D01*
X178810384Y-114509626D01*
X178838423Y-114484523D01*
X178864782Y-114459257D01*
X178889221Y-114434075D01*
X178911501Y-114409226D01*
X178931383Y-114384957D01*
X178948850Y-114359998D01*
X178971995Y-114326173D01*
X178993803Y-114292548D01*
X179014262Y-114259026D01*
X179033356Y-114225514D01*
X179051072Y-114191915D01*
X179067395Y-114158136D01*
X179082312Y-114124081D01*
X179095808Y-114089654D01*
X179107868Y-114054762D01*
X179118479Y-114019309D01*
X179127626Y-113983199D01*
X179135296Y-113946339D01*
X179141473Y-113908632D01*
X179146145Y-113869985D01*
X179149295Y-113830301D01*
X179150912Y-113789486D01*
X179151422Y-113750629D01*
X179151574Y-113726341D01*
X179151076Y-113702531D01*
X179149919Y-113679155D01*
X179148098Y-113656164D01*
X179145605Y-113633513D01*
X179142433Y-113611156D01*
X179138576Y-113589045D01*
X179134026Y-113567134D01*
X179128777Y-113545377D01*
X179122822Y-113523727D01*
X179116154Y-113502138D01*
X179108766Y-113480563D01*
X179100651Y-113458956D01*
X179091803Y-113437271D01*
X179082215Y-113415460D01*
X179071879Y-113393477D01*
X179058818Y-113367810D01*
X178959094Y-113237872D01*
X178917108Y-113184291D01*
X178878955Y-113137025D01*
X178843574Y-113095115D01*
X178809900Y-113057602D01*
X178776871Y-113023528D01*
X178743424Y-112991935D01*
X178708498Y-112961863D01*
X178671027Y-112932354D01*
X178629951Y-112902450D01*
X178584206Y-112871192D01*
X178532729Y-112837622D01*
X178474458Y-112800780D01*
X178333281Y-112713451D01*
X178126388Y-112584864D01*
X178023846Y-112518799D01*
X177923203Y-112450160D01*
X177873899Y-112414549D01*
X177825436Y-112377902D01*
X177777934Y-112340090D01*
X177731516Y-112300981D01*
X177686303Y-112260445D01*
X177642418Y-112218352D01*
X177599982Y-112174571D01*
X177559116Y-112128971D01*
X177533329Y-112097810D01*
X177500546Y-112057691D01*
X177468877Y-112016315D01*
X177438453Y-111973747D01*
X177409398Y-111930055D01*
X177381842Y-111885305D01*
X177355911Y-111839563D01*
X177331732Y-111792895D01*
X177309434Y-111745369D01*
X177289143Y-111697050D01*
X177270988Y-111648004D01*
X177255094Y-111598299D01*
X177241591Y-111548000D01*
X177230604Y-111497174D01*
X177222262Y-111445887D01*
X177216692Y-111394206D01*
X177214021Y-111342197D01*
X177214125Y-111285777D01*
X177215937Y-111229697D01*
X177219583Y-111174039D01*
X177225187Y-111118884D01*
X177232876Y-111064311D01*
X177242773Y-111010402D01*
X177255005Y-110957237D01*
X177269695Y-110904895D01*
X177286969Y-110853459D01*
X177306952Y-110803008D01*
X177329770Y-110753623D01*
X177355547Y-110705384D01*
X177384408Y-110658372D01*
X177416479Y-110612668D01*
X177451883Y-110568351D01*
X177490748Y-110525503D01*
X177520100Y-110497081D01*
X177544421Y-110473361D01*
X177568813Y-110450655D01*
X177593337Y-110428931D01*
X177618058Y-110408154D01*
X177643039Y-110388292D01*
X177668343Y-110369311D01*
X177694033Y-110351178D01*
X177720172Y-110333859D01*
X177746823Y-110317321D01*
X177774051Y-110301531D01*
X177801917Y-110286454D01*
X177830486Y-110272058D01*
X177859820Y-110258309D01*
X177889982Y-110245174D01*
X177921036Y-110232620D01*
X177953045Y-110220612D01*
X177996350Y-110206039D01*
X178030886Y-110195012D01*
X178066256Y-110185384D01*
X178102352Y-110177123D01*
X178139063Y-110170201D01*
X178176279Y-110164588D01*
X178213891Y-110160253D01*
X178251789Y-110157167D01*
X178289862Y-110155299D01*
X178328000Y-110154621D01*
X178366095Y-110155102D01*
X178404036Y-110156711D01*
X178441713Y-110159420D01*
X178479016Y-110163198D01*
X178515835Y-110168016D01*
X178552061Y-110173843D01*
X178587584Y-110180650D01*
X178638520Y-110194587D01*
X178688188Y-110210694D01*
X178736556Y-110228955D01*
X178783591Y-110249351D01*
X178829262Y-110271866D01*
X178873535Y-110296482D01*
X178916378Y-110323181D01*
X178957760Y-110351947D01*
X178997647Y-110382762D01*
X179036007Y-110415609D01*
X179072808Y-110450470D01*
X179108018Y-110487328D01*
X179141604Y-110526166D01*
X179173534Y-110566966D01*
X179203775Y-110609711D01*
X179232295Y-110654384D01*
X179247485Y-110685703D01*
X179261425Y-110717254D01*
X179274064Y-110749029D01*
X179285348Y-110781023D01*
X179295226Y-110813227D01*
X179303643Y-110845636D01*
X179310549Y-110878242D01*
X179315890Y-110911037D01*
X179319613Y-110944017D01*
X179321666Y-110977172D01*
X179321996Y-111010497D01*
X179320550Y-111043984D01*
X179317277Y-111077626D01*
X179312122Y-111111417D01*
X179305035Y-111145349D01*
X179295961Y-111179416D01*
X179287068Y-111204271D01*
X179277736Y-111228607D01*
X179267889Y-111252390D01*
X179257453Y-111275583D01*
X179246354Y-111298150D01*
X179234516Y-111320054D01*
X179221867Y-111341260D01*
X179208330Y-111361730D01*
X179193833Y-111381430D01*
X179178300Y-111400322D01*
X179161656Y-111418371D01*
X179143828Y-111435540D01*
X179134446Y-111443783D01*
X179124741Y-111451793D01*
X179114701Y-111459565D01*
X179104320Y-111467094D01*
X179093586Y-111474376D01*
X179082491Y-111481406D01*
X179071025Y-111488181D01*
X179059179Y-111494694D01*
X179038720Y-111503843D01*
X179018434Y-111512218D01*
X178998284Y-111519778D01*
X178978234Y-111526483D01*
X178958247Y-111532294D01*
X178938288Y-111537169D01*
X178918321Y-111541070D01*
X178898308Y-111543954D01*
X178878213Y-111545783D01*
X178858001Y-111546516D01*
X178837635Y-111546113D01*
X178817078Y-111544534D01*
X178796295Y-111541738D01*
X178775249Y-111537685D01*
X178753903Y-111532335D01*
X178732223Y-111525649D01*
X178719305Y-111519784D01*
X178706805Y-111513656D01*
X178694726Y-111507234D01*
X178683075Y-111500490D01*
X178671857Y-111493393D01*
X178661075Y-111485913D01*
X178650737Y-111478020D01*
X178640845Y-111469683D01*
X178631407Y-111460874D01*
X178622426Y-111451561D01*
X178613907Y-111441715D01*
X178605857Y-111431306D01*
X178598279Y-111420303D01*
X178591179Y-111408677D01*
X178584562Y-111396398D01*
X178578433Y-111383435D01*
X178576778Y-111363011D01*
X178576190Y-111353772D01*
X178575824Y-111345067D01*
X178575722Y-111336811D01*
X178575929Y-111328919D01*
X178576492Y-111321304D01*
X178577453Y-111313881D01*
X178578859Y-111306564D01*
X178580753Y-111299269D01*
X178583181Y-111291909D01*
X178586187Y-111284398D01*
X178589817Y-111276652D01*
X178594114Y-111268585D01*
X178599124Y-111260110D01*
X178604892Y-111251143D01*
X178619493Y-111234824D01*
X178633491Y-111218855D01*
X178640181Y-111210888D01*
X178646621Y-111202871D01*
X178652776Y-111194759D01*
X178658614Y-111186506D01*
X178664101Y-111178067D01*
X178669205Y-111169394D01*
X178673891Y-111160443D01*
X178678127Y-111151169D01*
X178681879Y-111141524D01*
X178685114Y-111131463D01*
X178687799Y-111120941D01*
X178689900Y-111109912D01*
X178689760Y-111094408D01*
X178689181Y-111079795D01*
X178688129Y-111065982D01*
X178686574Y-111052879D01*
X178684481Y-111040395D01*
X178681818Y-111028440D01*
X178678554Y-111016922D01*
X178674655Y-111005752D01*
X178670089Y-110994839D01*
X178664824Y-110984093D01*
X178658827Y-110973422D01*
X178652065Y-110962736D01*
X178644507Y-110951946D01*
X178636119Y-110940959D01*
X178626870Y-110929687D01*
X178616726Y-110918037D01*
X178603009Y-110905420D01*
X178589224Y-110893861D01*
X178575337Y-110883321D01*
X178561313Y-110873761D01*
X178547117Y-110865143D01*
X178532713Y-110857428D01*
X178518068Y-110850576D01*
X178503145Y-110844551D01*
X178487910Y-110839312D01*
X178472329Y-110834822D01*
X178456365Y-110831041D01*
X178439985Y-110827930D01*
X178423153Y-110825452D01*
X178405834Y-110823568D01*
X178387993Y-110822238D01*
X178369596Y-110821425D01*
X178337828Y-110821195D01*
X178323098Y-110821141D01*
X178308465Y-110821254D01*
X178293902Y-110821577D01*
X178279384Y-110822151D01*
X178264885Y-110823020D01*
X178250379Y-110824224D01*
X178235842Y-110825807D01*
X178221246Y-110827810D01*
X178202733Y-110833963D01*
X178184646Y-110840778D01*
X178166991Y-110848250D01*
X178149771Y-110856375D01*
X178132993Y-110865147D01*
X178116661Y-110874563D01*
X178100781Y-110884618D01*
X178085356Y-110895307D01*
X178070393Y-110906626D01*
X178055896Y-110918570D01*
X178041871Y-110931134D01*
X178028321Y-110944313D01*
X178015253Y-110958104D01*
X178002671Y-110972501D01*
X177990581Y-110987500D01*
X177978987Y-111003097D01*
X177963741Y-111029718D01*
X177950235Y-111056731D01*
X177938421Y-111084111D01*
X177928251Y-111111835D01*
X177919677Y-111139881D01*
X177912651Y-111168223D01*
X177907125Y-111196839D01*
X177903051Y-111225705D01*
X177900381Y-111254797D01*
X177899067Y-111284093D01*
X177899061Y-111313568D01*
X177900316Y-111343198D01*
X177902782Y-111372962D01*
X177906413Y-111402834D01*
X177911160Y-111432791D01*
X177916975Y-111462810D01*
X178012064Y-111599964D01*
X178052289Y-111656407D01*
X178089080Y-111706052D01*
X178123524Y-111749868D01*
X178156705Y-111788824D01*
X178189708Y-111823890D01*
X178223619Y-111856034D01*
X178259523Y-111886225D01*
X178298505Y-111915432D01*
X178341650Y-111944624D01*
X178390044Y-111974769D01*
X178444771Y-112006837D01*
X178506918Y-112041798D01*
X178657808Y-112124269D01*
X178839502Y-112231342D01*
X178929822Y-112286316D01*
X179018733Y-112343393D01*
X179062413Y-112372989D01*
X179105443Y-112403433D01*
X179147724Y-112434833D01*
X179189158Y-112467296D01*
X179229645Y-112500929D01*
X179269086Y-112535839D01*
X179307382Y-112572135D01*
X179344433Y-112609923D01*
X179372183Y-112640206D01*
X179427228Y-112699171D01*
X179480006Y-112759661D01*
X179530337Y-112821678D01*
X179578039Y-112885223D01*
X179622933Y-112950297D01*
X179664837Y-113016901D01*
X179703570Y-113085038D01*
X179738952Y-113154707D01*
X179770802Y-113225911D01*
X179798939Y-113298650D01*
X179823183Y-113372925D01*
X179843353Y-113448739D01*
X179859267Y-113526092D01*
X179870745Y-113604985D01*
X179877607Y-113685420D01*
X179879672Y-113767398D01*
X179879229Y-113808359D01*
X179879068Y-113849321D01*
X179878716Y-113920654D01*
X179877769Y-113956082D01*
X179876007Y-113991386D01*
X179873205Y-114026593D01*
X179869139Y-114061730D01*
X179866561Y-114079279D01*
X179863582Y-114096821D01*
X179860175Y-114114358D01*
X179856311Y-114131894D01*
X179848433Y-114161560D01*
X179839901Y-114193408D01*
X179830970Y-114225139D01*
X179821642Y-114256749D01*
X179811916Y-114288236D01*
X179801795Y-114319599D01*
X179791277Y-114350834D01*
X179780365Y-114381940D01*
X179769058Y-114412914D01*
X179729161Y-114502242D01*
X179684588Y-114588134D01*
X179635550Y-114670611D01*
X179582259Y-114749694D01*
X179524929Y-114825403D01*
X179463771Y-114897759D01*
X179398999Y-114966783D01*
X179330823Y-115032495D01*
X179259457Y-115094917D01*
X179185113Y-115154069D01*
X179108003Y-115209973D01*
X179028340Y-115262648D01*
X178946336Y-115312115D01*
X178862203Y-115358397D01*
X178776154Y-115401512D01*
X178688401Y-115441482D01*
X178657097Y-115454570D01*
X178641543Y-115461228D01*
X178626071Y-115468030D01*
X178610689Y-115475028D01*
X178595410Y-115482273D01*
X178580245Y-115489815D01*
X178565204Y-115497706D01*
X178552026Y-115508503D01*
X178539974Y-115518688D01*
X178534368Y-115523692D01*
X178529043Y-115528713D01*
X178523997Y-115533806D01*
X178519231Y-115539030D01*
X178514743Y-115544439D01*
X178510534Y-115550092D01*
X178506602Y-115556044D01*
X178502949Y-115562351D01*
X178499572Y-115569072D01*
X178496472Y-115576261D01*
X178493648Y-115583977D01*
X178491100Y-115592274D01*
X178490719Y-115611560D01*
X178489979Y-115630705D01*
X178488876Y-115649746D01*
X178487407Y-115668719D01*
X178485565Y-115687661D01*
X178483348Y-115706609D01*
X178480750Y-115725599D01*
X178477768Y-115744667D01*
X178467639Y-115796189D01*
X178458392Y-115839293D01*
X178447777Y-115881362D01*
X178435803Y-115922588D01*
X178422481Y-115963166D01*
X178407824Y-116003289D01*
X178391840Y-116043150D01*
X178374542Y-116082943D01*
X178355941Y-116122862D01*
X178337828Y-116159991D01*
X178285677Y-116267843D01*
X178274163Y-116291455D01*
X178371046Y-116290908D01*
X178468771Y-116292210D01*
X178566985Y-116295590D01*
X178665332Y-116301280D01*
X178763459Y-116309509D01*
X178861010Y-116320510D01*
X178957633Y-116334510D01*
X179052972Y-116351743D01*
X179081142Y-116357601D01*
X179129105Y-116367629D01*
X179177002Y-116377969D01*
X179207646Y-116384886D01*
X179242519Y-116392529D01*
X179250795Y-116394500D01*
X179258908Y-116396604D01*
X179266864Y-116398896D01*
X179274669Y-116401431D01*
X179282331Y-116404262D01*
X179289856Y-116407445D01*
X179297250Y-116411034D01*
X179304520Y-116415083D01*
X179311674Y-116419647D01*
X179318716Y-116424781D01*
X179325655Y-116430540D01*
X179332496Y-116436977D01*
X179333426Y-116457544D01*
X179333659Y-116464882D01*
X179333736Y-116471289D01*
X179333659Y-116477542D01*
X179333426Y-116484415D01*
X179332496Y-116503122D01*
X179301353Y-116516298D01*
X179270189Y-116528921D01*
X179238931Y-116540929D01*
X179207506Y-116552259D01*
X179175842Y-116562850D01*
X179143865Y-116572638D01*
X179111503Y-116581562D01*
X179078683Y-116589559D01*
X179049516Y-116595882D01*
X179008848Y-116604512D01*
X178968146Y-116612641D01*
X178927396Y-116620292D01*
X178886585Y-116627488D01*
X178804727Y-116640607D01*
X178722464Y-116652181D01*
X178692535Y-116656085D01*
X178538681Y-116675271D01*
X178384685Y-116691983D01*
X178230464Y-116706494D01*
X178075932Y-116719078D01*
X177998770Y-116724825D01*
X177921631Y-116730877D01*
X177664068Y-116750242D01*
X177406710Y-116765742D01*
X177149460Y-116777739D01*
X176892217Y-116786597D01*
X176377358Y-116796344D01*
X175861345Y-116797885D01*
X175530908Y-116797325D01*
X175206436Y-116796964D01*
X175104073Y-116796813D01*
X174887262Y-116795910D01*
X174670668Y-116792552D01*
X174562424Y-116789425D01*
X174454201Y-116785050D01*
X174345987Y-116779217D01*
X174237772Y-116771713D01*
X174199579Y-116768533D01*
X174078445Y-116757875D01*
X174018395Y-116751388D01*
X173958689Y-116743495D01*
X173899329Y-116733718D01*
X173869779Y-116727975D01*
X173840315Y-116721583D01*
X173810939Y-116714482D01*
X173781649Y-116706612D01*
X173752446Y-116697915D01*
X173723330Y-116688330D01*
X173736525Y-116679581D01*
X173742051Y-116676009D01*
X173747036Y-116672905D01*
X173751609Y-116670218D01*
X173755900Y-116667896D01*
X173760038Y-116665889D01*
X173764154Y-116664146D01*
X173768376Y-116662616D01*
X173772834Y-116661249D01*
X173777658Y-116659993D01*
X173782977Y-116658798D01*
X173788921Y-116657612D01*
X173795620Y-116656385D01*
X173811800Y-116653604D01*
X173855621Y-116648643D01*
X173844519Y-116627547D01*
X173834342Y-116606885D01*
X173825106Y-116586571D01*
X173816829Y-116566520D01*
X173809527Y-116546647D01*
X173803219Y-116526867D01*
X173797921Y-116507094D01*
X173793652Y-116487244D01*
X173790427Y-116467231D01*
X173788265Y-116446970D01*
X173787182Y-116426376D01*
X173787197Y-116405365D01*
X173788326Y-116383850D01*
X173790586Y-116361746D01*
X173793995Y-116338969D01*
X173798571Y-116315434D01*
X173810258Y-116291342D01*
X173822631Y-116267763D01*
X173835720Y-116244751D01*
X173849555Y-116222360D01*
X173864166Y-116200645D01*
X173879583Y-116179660D01*
X173895836Y-116159460D01*
X173912954Y-116140098D01*
X173930967Y-116121629D01*
X173949906Y-116104108D01*
X173969801Y-116087588D01*
X173990681Y-116072123D01*
X174012576Y-116057769D01*
X174035516Y-116044580D01*
X174059531Y-116032609D01*
X174084652Y-116021911D01*
X174096896Y-116017835D01*
X174109013Y-116013655D01*
X174121024Y-116009354D01*
X174132954Y-116004915D01*
X174144825Y-116000321D01*
X174156659Y-115995555D01*
X174168482Y-115990598D01*
X174180314Y-115985434D01*
X174192158Y-115977924D01*
X174196990Y-115974724D01*
X174201185Y-115971770D01*
X174204812Y-115968966D01*
X174207938Y-115966219D01*
X174209334Y-115964838D01*
X174210631Y-115963435D01*
X174211836Y-115962000D01*
X174212959Y-115960519D01*
X174214007Y-115958983D01*
X174214989Y-115957378D01*
X174215913Y-115955693D01*
X174216789Y-115953916D01*
X174218427Y-115950040D01*
X174219970Y-115945656D01*
X174221487Y-115940670D01*
X174223045Y-115934987D01*
X174226554Y-115921155D01*
X174234306Y-115871636D01*
X174241329Y-115827945D01*
X174244704Y-115806080D01*
X174247954Y-115784191D01*
X174252605Y-115752013D01*
X174257367Y-115719852D01*
X174270167Y-115632421D01*
X174282326Y-115544899D01*
X174297169Y-115435047D01*
X174314973Y-115294459D01*
X174329691Y-115154206D01*
X174341487Y-115014123D01*
X174350527Y-114874041D01*
X174356978Y-114733796D01*
X174361004Y-114593219D01*
X174362773Y-114452146D01*
X174362449Y-114310407D01*
X174361947Y-114266928D01*
X174361342Y-114219013D01*
X174360819Y-114195163D01*
X174360022Y-114171358D01*
X174358852Y-114147577D01*
X174357215Y-114123800D01*
X174355012Y-114100007D01*
X174352148Y-114076177D01*
X174334883Y-114001532D01*
X174315074Y-113930536D01*
X174292646Y-113862967D01*
X174267528Y-113798604D01*
X174239645Y-113737225D01*
X174208925Y-113678609D01*
X174175294Y-113622534D01*
X174138681Y-113568779D01*
X174099011Y-113517123D01*
X174056212Y-113467343D01*
X174010210Y-113419218D01*
X173960933Y-113372527D01*
X173908307Y-113327048D01*
X173852260Y-113282560D01*
X173792718Y-113238841D01*
X173729609Y-113195669D01*
X173603504Y-113112702D01*
X173540584Y-113070326D01*
X173478472Y-113026724D01*
X173447889Y-113004315D01*
X173417711Y-112981422D01*
X173388006Y-112957985D01*
X173358842Y-112933946D01*
X173330285Y-112909246D01*
X173302404Y-112883824D01*
X173275267Y-112857623D01*
X173248940Y-112830582D01*
X173220621Y-112798956D01*
X173182736Y-112756081D01*
X173147244Y-112712695D01*
X173114018Y-112668757D01*
X173082929Y-112624225D01*
X173053849Y-112579056D01*
X173026651Y-112533208D01*
X173001206Y-112486640D01*
X172977387Y-112439310D01*
X172955064Y-112391175D01*
X172934112Y-112342194D01*
X172914400Y-112292325D01*
X172895802Y-112241526D01*
X172878190Y-112189755D01*
X172861434Y-112136969D01*
X172829983Y-112028189D01*
X172823746Y-112005206D01*
X172823101Y-112100084D01*
X172822920Y-112139151D01*
X172822541Y-112185679D01*
X172822544Y-112208863D01*
X172822825Y-112232013D01*
X172823496Y-112255143D01*
X172824668Y-112278269D01*
X172826454Y-112301405D01*
X172828965Y-112324566D01*
X172836975Y-112362393D01*
X172847518Y-112416654D01*
X172867982Y-112503329D01*
X172892635Y-112586094D01*
X172921371Y-112665150D01*
X172954081Y-112740699D01*
X172990657Y-112812944D01*
X173030994Y-112882085D01*
X173074982Y-112948324D01*
X173122515Y-113011864D01*
X173173486Y-113072905D01*
X173227786Y-113131649D01*
X173285308Y-113188299D01*
X173345946Y-113243056D01*
X173409591Y-113296121D01*
X173476136Y-113347696D01*
X173545473Y-113397984D01*
X173617496Y-113447185D01*
X173686980Y-113493951D01*
X173755658Y-113542330D01*
X173789426Y-113567317D01*
X173822670Y-113592938D01*
X173855281Y-113619272D01*
X173887153Y-113646394D01*
X173918178Y-113674384D01*
X173948247Y-113703317D01*
X173977254Y-113733271D01*
X174005091Y-113764323D01*
X174031650Y-113796551D01*
X174056823Y-113830031D01*
X174080504Y-113864842D01*
X174102583Y-113901059D01*
X174122747Y-113945564D01*
X174139409Y-113990273D01*
X174152739Y-114035169D01*
X174162910Y-114080232D01*
X174170091Y-114125444D01*
X174174455Y-114170786D01*
X174176172Y-114216240D01*
X174175414Y-114261787D01*
X174172352Y-114307408D01*
X174167157Y-114353085D01*
X174159999Y-114398798D01*
X174151052Y-114444529D01*
X174140485Y-114490260D01*
X174128469Y-114535971D01*
X174115176Y-114581645D01*
X174100778Y-114627262D01*
X174082545Y-114683626D01*
X174064785Y-114740111D01*
X174047472Y-114796734D01*
X174030581Y-114853517D01*
X174018505Y-114894952D01*
X173991000Y-114989641D01*
X173977858Y-115037148D01*
X173965453Y-115084869D01*
X173952894Y-115135456D01*
X173939779Y-115185816D01*
X173925969Y-115235985D01*
X173911328Y-115286000D01*
X173899534Y-115325781D01*
X173888198Y-115365603D01*
X173866825Y-115445456D01*
X173847064Y-115525724D01*
X173828769Y-115606575D01*
X173809084Y-115697701D01*
X173781626Y-115822718D01*
X173775122Y-115852465D01*
X173768865Y-115881074D01*
X173754159Y-115954188D01*
X173739176Y-116033274D01*
X173722226Y-116115464D01*
X173712487Y-116156826D01*
X173701623Y-116197889D01*
X173689424Y-116238293D01*
X173675679Y-116277681D01*
X173660177Y-116315694D01*
X173642706Y-116351973D01*
X173623056Y-116386159D01*
X173612348Y-116402356D01*
X173601016Y-116417896D01*
X173589034Y-116432733D01*
X173576375Y-116446822D01*
X173563013Y-116460120D01*
X173548922Y-116472582D01*
X173524892Y-116489893D01*
X173515016Y-116497650D01*
X173505032Y-116505078D01*
X173494938Y-116512194D01*
X173484732Y-116519015D01*
X173474412Y-116525560D01*
X173463976Y-116531844D01*
X173453424Y-116537886D01*
X173442753Y-116543701D01*
X173421048Y-116554725D01*
X173398848Y-116565054D01*
X173376138Y-116574824D01*
X173352906Y-116584174D01*
X173313990Y-116596849D01*
X173273670Y-116607845D01*
X173232154Y-116617134D01*
X173189651Y-116624685D01*
X173146368Y-116630470D01*
X173102513Y-116634460D01*
X173058294Y-116636626D01*
X173013919Y-116636940D01*
X172969595Y-116635371D01*
X172925530Y-116631892D01*
X172881933Y-116626473D01*
X172839010Y-116619085D01*
X172796970Y-116609700D01*
X172756021Y-116598288D01*
X172716370Y-116584820D01*
X172678225Y-116569268D01*
X172664156Y-116560384D01*
X172650490Y-116551059D01*
X172637258Y-116541287D01*
X172624494Y-116531062D01*
X172612229Y-116520379D01*
X172600496Y-116509230D01*
X172589326Y-116497609D01*
X172578753Y-116485512D01*
X172568807Y-116472932D01*
X172559522Y-116459862D01*
X172550928Y-116446297D01*
X172543060Y-116432231D01*
X172535948Y-116417657D01*
X172529625Y-116402570D01*
X172524124Y-116386963D01*
X172519475Y-116370831D01*
X172515943Y-116336035D01*
X172514567Y-116318686D01*
X172513548Y-116301392D01*
X172512956Y-116284166D01*
X172512862Y-116267025D01*
X172513337Y-116249982D01*
X172514454Y-116233054D01*
X172516284Y-116216255D01*
X172518897Y-116199600D01*
X172522365Y-116183106D01*
X172526759Y-116166786D01*
X172532152Y-116150656D01*
X172538613Y-116134732D01*
X172546215Y-116119028D01*
X172555029Y-116103560D01*
X172572392Y-116079789D01*
X172587866Y-116058819D01*
X172603929Y-116039111D01*
X172620588Y-116020624D01*
X172637852Y-116003313D01*
X172655728Y-115987134D01*
X172674223Y-115972044D01*
X172693344Y-115958000D01*
X172713099Y-115944956D01*
X172733496Y-115932871D01*
X172754541Y-115921700D01*
X172776242Y-115911400D01*
X172798607Y-115901927D01*
X172821644Y-115893236D01*
X172845358Y-115885286D01*
X172869759Y-115878032D01*
X172894853Y-115871430D01*
X172922365Y-115865494D01*
X172949800Y-115859307D01*
X172977189Y-115852916D01*
X173004562Y-115846366D01*
X173011138Y-115842370D01*
X173017134Y-115838362D01*
X173022595Y-115834314D01*
X173027566Y-115830196D01*
X173032093Y-115825980D01*
X173036220Y-115821638D01*
X173039993Y-115817141D01*
X173043456Y-115812461D01*
X173046654Y-115807569D01*
X173049633Y-115802437D01*
X173052438Y-115797035D01*
X173055113Y-115791336D01*
X173057704Y-115785312D01*
X173060256Y-115778932D01*
X173065421Y-115764996D01*
X173074273Y-115736657D01*
X173087163Y-115694448D01*
X173098826Y-115651995D01*
X173109421Y-115609322D01*
X173119106Y-115566450D01*
X173128036Y-115523403D01*
X173136371Y-115480205D01*
X173151882Y-115393442D01*
X173156956Y-115363761D01*
X173171311Y-115277748D01*
X173178157Y-115234692D01*
X173184742Y-115191587D01*
X173194163Y-115127289D01*
X173204898Y-115052421D01*
X173214123Y-114977836D01*
X173221852Y-114903402D01*
X173228102Y-114828988D01*
X173232889Y-114754460D01*
X173236229Y-114679687D01*
X173238137Y-114604536D01*
X173238630Y-114528876D01*
X173238187Y-114456439D01*
X173238027Y-114384001D01*
X173237193Y-114220851D01*
X173234955Y-114139801D01*
X173230638Y-114059067D01*
X173223593Y-113978621D01*
X173218844Y-113938497D01*
X173213169Y-113898436D01*
X173206488Y-113858433D01*
X173198718Y-113818486D01*
X173189779Y-113778590D01*
X173179590Y-113738743D01*
X173167704Y-113698539D01*
X173146689Y-113630488D01*
X173123819Y-113563285D01*
X173098902Y-113497015D01*
X173071752Y-113431762D01*
X173057279Y-113399543D01*
X173042177Y-113367609D01*
X173026422Y-113335973D01*
X173009990Y-113304643D01*
X172992858Y-113273630D01*
X172975001Y-113242945D01*
X172956397Y-113212599D01*
X172937021Y-113182602D01*
X172889643Y-113108378D01*
X172845924Y-113033763D01*
X172805777Y-112958686D01*
X172769114Y-112883077D01*
X172735848Y-112806868D01*
X172705893Y-112729987D01*
X172679160Y-112652366D01*
X172655563Y-112573934D01*
X172635015Y-112494622D01*
X172617428Y-112414359D01*
X172602715Y-112333077D01*
X172590789Y-112250705D01*
X172581562Y-112167173D01*
X172574948Y-112082413D01*
X172570859Y-111996353D01*
X172569209Y-111908924D01*
X172569085Y-111881182D01*
X172569086Y-111835403D01*
X172569784Y-111789983D01*
X172571238Y-111744825D01*
X172573507Y-111699829D01*
X172576653Y-111654899D01*
X172580736Y-111609934D01*
X172585815Y-111564838D01*
X172591951Y-111519512D01*
X172598851Y-111476039D01*
X172618188Y-111364385D01*
X172640768Y-111253093D01*
X172666259Y-111142233D01*
X172694326Y-111031871D01*
X172724638Y-110922075D01*
X172756861Y-110812914D01*
X172790663Y-110704454D01*
X172825710Y-110596765D01*
X172850256Y-110523313D01*
X172876663Y-110444165D01*
X172897552Y-110381562D01*
X172916867Y-110318981D01*
X172934722Y-110256307D01*
X172951231Y-110193423D01*
X172966510Y-110130214D01*
X172980674Y-110066564D01*
X172993836Y-110002357D01*
X173006112Y-109937477D01*
X173054712Y-109690366D01*
X173082106Y-109568078D01*
X173111796Y-109446715D01*
X173143958Y-109326335D01*
X173178766Y-109207000D01*
X173216396Y-109088767D01*
X173257022Y-108971697D01*
X173300821Y-108855850D01*
X173347966Y-108741284D01*
X173398634Y-108628059D01*
X173452999Y-108516236D01*
X173511236Y-108405872D01*
X173573521Y-108297029D01*
X173640029Y-108189765D01*
X173710934Y-108084141D01*
X173734079Y-108051339D01*
X173756189Y-108019571D01*
X173777331Y-107990257D01*
X173796028Y-107964064D01*
X173800414Y-107959718D01*
X173804633Y-107955769D01*
X173808726Y-107952196D01*
X173812734Y-107948980D01*
X173816696Y-107946098D01*
X173820653Y-107943531D01*
X173824646Y-107941258D01*
X173828715Y-107939258D01*
X173832900Y-107937511D01*
X173837242Y-107935996D01*
X173841781Y-107934692D01*
X173846558Y-107933579D01*
X173851613Y-107932636D01*
X173856986Y-107931843D01*
X173862719Y-107931179D01*
X173868850Y-107930623D01*
X173900768Y-107963705D01*
G37*
G36*
X175375823Y-112988508D02*
G01*
X175387341Y-113005937D01*
X175398271Y-113023383D01*
X175408585Y-113041006D01*
X175418256Y-113058964D01*
X175422841Y-113068120D01*
X175427254Y-113077419D01*
X175431492Y-113086882D01*
X175435552Y-113096529D01*
X175439429Y-113106381D01*
X175443121Y-113116456D01*
X175416663Y-113103227D01*
X175390205Y-113129685D01*
X175381058Y-113101676D01*
X175369534Y-113065193D01*
X175360727Y-113039231D01*
X175358890Y-113033534D01*
X175357287Y-113028036D01*
X175355960Y-113022677D01*
X175354956Y-113017399D01*
X175354316Y-113012141D01*
X175354085Y-113006844D01*
X175354137Y-113004163D01*
X175354307Y-113001450D01*
X175354602Y-112998698D01*
X175355026Y-112995899D01*
X175355586Y-112993046D01*
X175356286Y-112990131D01*
X175357132Y-112987147D01*
X175358130Y-112984087D01*
X175359284Y-112980943D01*
X175360602Y-112977708D01*
X175362087Y-112974375D01*
X175363746Y-112970935D01*
X175375823Y-112988508D01*
G37*
G36*
X174706930Y-109265905D02*
G01*
X174722670Y-109267486D01*
X174737575Y-109269853D01*
X174751751Y-109273004D01*
X174765302Y-109276936D01*
X174778333Y-109281647D01*
X174790951Y-109287134D01*
X174803259Y-109293394D01*
X174815365Y-109300425D01*
X174827371Y-109308224D01*
X174839385Y-109316789D01*
X174851511Y-109326116D01*
X174863855Y-109336204D01*
X174876521Y-109347049D01*
X174889615Y-109358649D01*
X174901012Y-109372327D01*
X174911080Y-109386354D01*
X174919892Y-109400716D01*
X174927522Y-109415396D01*
X174934044Y-109430380D01*
X174939531Y-109445651D01*
X174944056Y-109461193D01*
X174947693Y-109476992D01*
X174950515Y-109493031D01*
X174952597Y-109509295D01*
X174954011Y-109525769D01*
X174954831Y-109542436D01*
X174955131Y-109559280D01*
X174954983Y-109576288D01*
X174953642Y-109610727D01*
X174937999Y-109610310D01*
X174922667Y-109609079D01*
X174907631Y-109607065D01*
X174892878Y-109604296D01*
X174878394Y-109600803D01*
X174864165Y-109596615D01*
X174850178Y-109591763D01*
X174836418Y-109586275D01*
X174822872Y-109580182D01*
X174809527Y-109573514D01*
X174796367Y-109566299D01*
X174783380Y-109558569D01*
X174770552Y-109550353D01*
X174757868Y-109541680D01*
X174745315Y-109532580D01*
X174732880Y-109523084D01*
X174719549Y-109510406D01*
X174706576Y-109497169D01*
X174694021Y-109483396D01*
X174681946Y-109469112D01*
X174670410Y-109454341D01*
X174659474Y-109439109D01*
X174649200Y-109423439D01*
X174639646Y-109407356D01*
X174630874Y-109390885D01*
X174622945Y-109374050D01*
X174615919Y-109356875D01*
X174609857Y-109339386D01*
X174604819Y-109321606D01*
X174600865Y-109303560D01*
X174598057Y-109285273D01*
X174596454Y-109266768D01*
X174629321Y-109265838D01*
X174672522Y-109265115D01*
X174690249Y-109265114D01*
X174706930Y-109265905D01*
G37*
G36*
X173758319Y-109850993D02*
G01*
X173761815Y-109851314D01*
X173765606Y-109851806D01*
X173769794Y-109852459D01*
X173779766Y-109854197D01*
X173915815Y-109870377D01*
X173965139Y-109875316D01*
X174009201Y-109878573D01*
X174053407Y-109880464D01*
X174103159Y-109881306D01*
X174240921Y-109881098D01*
X174298527Y-109882461D01*
X174355769Y-109884636D01*
X174412717Y-109887864D01*
X174469438Y-109892386D01*
X174526000Y-109898443D01*
X174582472Y-109906274D01*
X174638921Y-109916122D01*
X174695415Y-109928227D01*
X174744456Y-109941456D01*
X174778227Y-109950126D01*
X174785914Y-109952232D01*
X174793360Y-109954431D01*
X174800592Y-109956781D01*
X174807642Y-109959340D01*
X174814539Y-109962167D01*
X174821313Y-109965321D01*
X174827993Y-109968859D01*
X174834610Y-109972841D01*
X174841193Y-109977325D01*
X174847772Y-109982369D01*
X174854377Y-109988032D01*
X174861038Y-109994373D01*
X174832309Y-110000545D01*
X174761609Y-110012978D01*
X174690007Y-110023653D01*
X174617713Y-110032345D01*
X174544936Y-110038827D01*
X174471886Y-110042875D01*
X174398770Y-110044261D01*
X174325800Y-110042761D01*
X174253183Y-110038148D01*
X174181130Y-110030196D01*
X174109849Y-110018680D01*
X174039550Y-110003374D01*
X173970441Y-109984051D01*
X173902733Y-109960486D01*
X173836634Y-109932453D01*
X173772353Y-109899727D01*
X173710100Y-109862081D01*
X173723259Y-109857725D01*
X173728698Y-109855983D01*
X173733513Y-109854516D01*
X173737806Y-109853314D01*
X173741680Y-109852363D01*
X173745235Y-109851654D01*
X173748575Y-109851174D01*
X173751800Y-109850911D01*
X173755014Y-109850854D01*
X173758319Y-109850993D01*
G37*
G36*
X174583226Y-110655831D02*
G01*
X174555259Y-110700328D01*
X174525430Y-110743565D01*
X174493860Y-110785574D01*
X174460669Y-110826386D01*
X174425977Y-110866035D01*
X174389904Y-110904553D01*
X174352570Y-110941972D01*
X174314095Y-110978324D01*
X174274599Y-111013641D01*
X174234203Y-111047957D01*
X174193027Y-111081302D01*
X174151190Y-111113709D01*
X174108814Y-111145211D01*
X174066017Y-111175840D01*
X173979644Y-111234607D01*
X173873428Y-111304249D01*
X173820161Y-111339964D01*
X173767527Y-111376772D01*
X173741622Y-111395701D01*
X173716084Y-111415042D01*
X173690982Y-111434841D01*
X173666386Y-111455146D01*
X173642365Y-111476002D01*
X173618989Y-111497455D01*
X173596328Y-111519552D01*
X173574450Y-111542340D01*
X173551351Y-111568643D01*
X173502841Y-111622054D01*
X173454612Y-111675717D01*
X173432288Y-111700935D01*
X173429718Y-111694290D01*
X173427520Y-111688057D01*
X173425684Y-111682173D01*
X173424201Y-111676576D01*
X173423061Y-111671204D01*
X173422254Y-111665996D01*
X173421772Y-111660891D01*
X173421605Y-111655825D01*
X173421744Y-111650737D01*
X173422178Y-111645565D01*
X173422900Y-111640248D01*
X173423899Y-111634723D01*
X173425165Y-111628929D01*
X173426691Y-111622804D01*
X173430479Y-111609313D01*
X173458005Y-111548770D01*
X173487875Y-111490235D01*
X173520046Y-111433688D01*
X173554473Y-111379112D01*
X173591111Y-111326491D01*
X173629916Y-111275806D01*
X173670844Y-111227040D01*
X173713850Y-111180175D01*
X173758890Y-111135193D01*
X173805920Y-111092078D01*
X173854894Y-111050811D01*
X173905769Y-111011376D01*
X173958500Y-110973754D01*
X174013043Y-110937928D01*
X174069354Y-110903880D01*
X174127388Y-110871593D01*
X174203352Y-110830846D01*
X174392378Y-110728352D01*
X174487396Y-110678005D01*
X174535187Y-110653422D01*
X174583226Y-110629373D01*
X174583226Y-110655831D01*
G37*
G36*
X173462027Y-111591769D02*
G01*
X173464534Y-111599649D01*
X173466420Y-111606290D01*
X173467179Y-111609387D01*
X173467841Y-111612465D01*
X173468426Y-111615620D01*
X173468952Y-111618950D01*
X173469908Y-111626521D01*
X173470864Y-111635952D01*
X173471975Y-111648018D01*
X173463462Y-111658160D01*
X173456731Y-111666054D01*
X173453840Y-111669351D01*
X173451162Y-111672319D01*
X173448621Y-111675036D01*
X173446137Y-111677577D01*
X173443634Y-111680022D01*
X173441034Y-111682448D01*
X173438260Y-111684932D01*
X173435233Y-111687551D01*
X173428115Y-111693507D01*
X173419059Y-111700935D01*
X173422473Y-111666302D01*
X173423374Y-111658446D01*
X173424431Y-111650848D01*
X173425713Y-111643473D01*
X173427290Y-111636291D01*
X173429229Y-111629268D01*
X173431600Y-111622373D01*
X173434472Y-111615573D01*
X173436117Y-111612199D01*
X173437913Y-111608836D01*
X173439868Y-111605481D01*
X173441992Y-111602130D01*
X173444292Y-111598778D01*
X173446778Y-111595422D01*
X173449457Y-111592058D01*
X173452340Y-111588681D01*
X173455433Y-111585287D01*
X173458746Y-111581873D01*
X173462027Y-111591769D01*
G37*
G36*
X176913729Y-112716635D02*
G01*
X176946285Y-112731983D01*
X176975263Y-112745542D01*
X177004163Y-112759268D01*
X176977704Y-112812185D01*
X176858642Y-112719581D01*
X176885100Y-112706352D01*
X176913729Y-112716635D01*
G37*
G36*
X176105941Y-116005838D02*
G01*
X176143497Y-116010803D01*
X176161862Y-116014362D01*
X176179880Y-116018662D01*
X176197501Y-116023720D01*
X176214670Y-116029553D01*
X176231336Y-116036180D01*
X176247445Y-116043617D01*
X176262946Y-116051883D01*
X176277785Y-116060994D01*
X176291910Y-116070969D01*
X176305269Y-116081824D01*
X176317808Y-116093578D01*
X176329475Y-116106247D01*
X176292241Y-116108995D01*
X176274168Y-116110796D01*
X176256416Y-116112935D01*
X176238952Y-116115454D01*
X176221743Y-116118393D01*
X176204758Y-116121793D01*
X176187964Y-116125694D01*
X176171328Y-116130137D01*
X176154820Y-116135163D01*
X176138406Y-116140813D01*
X176122054Y-116147126D01*
X176105732Y-116154145D01*
X176089408Y-116161908D01*
X176073049Y-116170458D01*
X176056624Y-116179835D01*
X176042482Y-116194815D01*
X176029198Y-116209873D01*
X176016771Y-116225051D01*
X176005200Y-116240393D01*
X175994484Y-116255938D01*
X175984621Y-116271729D01*
X175975610Y-116287808D01*
X175967451Y-116304217D01*
X175960142Y-116320997D01*
X175953683Y-116338191D01*
X175948072Y-116355840D01*
X175943308Y-116373986D01*
X175939391Y-116392671D01*
X175936318Y-116411936D01*
X175934089Y-116431824D01*
X175932704Y-116452376D01*
X175932600Y-116476664D01*
X175919371Y-116476664D01*
X175899527Y-116440283D01*
X175893628Y-116425501D01*
X175888483Y-116410347D01*
X175884089Y-116394871D01*
X175880440Y-116379124D01*
X175877532Y-116363156D01*
X175875361Y-116347018D01*
X175873922Y-116330760D01*
X175873211Y-116314433D01*
X175873222Y-116298087D01*
X175873953Y-116281773D01*
X175875397Y-116265541D01*
X175877551Y-116249441D01*
X175880410Y-116233525D01*
X175883969Y-116217842D01*
X175888224Y-116202444D01*
X175893171Y-116187380D01*
X175906142Y-116159164D01*
X175893621Y-116163341D01*
X175881606Y-116167565D01*
X175869978Y-116171923D01*
X175858621Y-116176505D01*
X175847416Y-116181400D01*
X175836246Y-116186697D01*
X175824993Y-116192484D01*
X175813538Y-116198851D01*
X175800662Y-116210194D01*
X175788629Y-116221637D01*
X175777399Y-116233214D01*
X175766934Y-116244960D01*
X175757193Y-116256910D01*
X175748139Y-116269100D01*
X175739731Y-116281562D01*
X175731930Y-116294333D01*
X175724697Y-116307446D01*
X175717993Y-116320937D01*
X175711778Y-116334841D01*
X175706014Y-116349191D01*
X175700660Y-116364024D01*
X175695678Y-116379372D01*
X175691029Y-116395273D01*
X175686672Y-116411759D01*
X175681246Y-116436977D01*
X175668017Y-116436977D01*
X175663368Y-116424874D01*
X175659224Y-116413076D01*
X175655562Y-116401531D01*
X175652359Y-116390189D01*
X175649593Y-116379002D01*
X175647241Y-116367918D01*
X175645281Y-116356887D01*
X175643691Y-116345860D01*
X175642447Y-116334787D01*
X175641528Y-116323617D01*
X175640910Y-116312300D01*
X175640571Y-116300787D01*
X175640642Y-116276971D01*
X175641559Y-116251768D01*
X175646628Y-116237610D01*
X175652278Y-116223787D01*
X175658495Y-116210304D01*
X175665264Y-116197166D01*
X175672573Y-116184379D01*
X175680407Y-116171946D01*
X175688752Y-116159873D01*
X175697595Y-116148165D01*
X175706921Y-116136826D01*
X175716718Y-116125862D01*
X175726971Y-116115277D01*
X175737667Y-116105076D01*
X175748791Y-116095265D01*
X175760331Y-116085847D01*
X175772271Y-116076829D01*
X175784599Y-116068214D01*
X175813772Y-116053446D01*
X175845560Y-116040312D01*
X175879542Y-116028949D01*
X175915298Y-116019499D01*
X175952405Y-116012101D01*
X175990444Y-116006897D01*
X176028994Y-116004024D01*
X176067633Y-116003625D01*
X176105941Y-116005838D01*
G37*
G36*
X175191516Y-108368143D02*
G01*
X175188813Y-108434696D01*
X175183976Y-108500837D01*
X175177320Y-108566705D01*
X175169163Y-108632437D01*
X175159821Y-108698172D01*
X175138850Y-108830206D01*
X175130072Y-108830183D01*
X175126431Y-108830129D01*
X175123192Y-108830024D01*
X175120283Y-108829850D01*
X175117631Y-108829590D01*
X175115162Y-108829228D01*
X175112805Y-108828746D01*
X175110487Y-108828128D01*
X175108135Y-108827355D01*
X175105677Y-108826411D01*
X175103039Y-108825279D01*
X175100149Y-108823942D01*
X175096934Y-108822382D01*
X175089241Y-108818527D01*
X175062460Y-108804181D01*
X175035320Y-108790500D01*
X175007845Y-108777469D01*
X174980056Y-108765078D01*
X174951977Y-108753313D01*
X174923630Y-108742160D01*
X174866221Y-108721644D01*
X174808009Y-108703425D01*
X174749174Y-108687403D01*
X174689895Y-108673473D01*
X174630354Y-108661534D01*
X174611623Y-108658363D01*
X174594645Y-108655266D01*
X174586669Y-108653635D01*
X174578958Y-108651891D01*
X174571456Y-108649990D01*
X174564106Y-108647887D01*
X174556849Y-108645539D01*
X174549628Y-108642901D01*
X174542386Y-108639930D01*
X174535065Y-108636582D01*
X174527609Y-108632813D01*
X174519959Y-108628579D01*
X174512059Y-108623836D01*
X174503850Y-108618539D01*
X174555236Y-108586404D01*
X174607179Y-108555330D01*
X174659662Y-108525269D01*
X174712666Y-108496176D01*
X174766171Y-108468004D01*
X174820160Y-108440705D01*
X174874615Y-108414234D01*
X174929515Y-108388544D01*
X174960257Y-108374627D01*
X174988647Y-108362055D01*
X175016915Y-108350539D01*
X175045199Y-108340033D01*
X175073640Y-108330490D01*
X175102378Y-108321866D01*
X175131551Y-108314113D01*
X175161301Y-108307186D01*
X175191767Y-108301039D01*
X175191516Y-108368143D01*
G37*
G36*
X175375947Y-112983317D02*
G01*
X175386286Y-112994922D01*
X175391242Y-113001257D01*
X175396314Y-113008386D01*
X175407580Y-113026344D01*
X175421635Y-113051432D01*
X175440030Y-113086286D01*
X175496038Y-113195831D01*
X175522141Y-113255324D01*
X175545149Y-113315911D01*
X175565075Y-113377460D01*
X175581932Y-113439838D01*
X175595733Y-113502915D01*
X175606491Y-113566558D01*
X175614219Y-113630637D01*
X175618931Y-113695019D01*
X175620639Y-113759572D01*
X175619356Y-113824165D01*
X175615096Y-113888667D01*
X175607873Y-113952946D01*
X175597698Y-114016869D01*
X175584585Y-114080306D01*
X175568547Y-114143125D01*
X175549598Y-114205194D01*
X175539808Y-114233907D01*
X175513727Y-114309084D01*
X175486502Y-114383772D01*
X175458285Y-114458093D01*
X175429227Y-114532167D01*
X175384020Y-114646256D01*
X175339668Y-114760667D01*
X175296638Y-114875574D01*
X175255397Y-114991151D01*
X175239723Y-115037165D01*
X175223378Y-115084211D01*
X175215602Y-115107711D01*
X175208331Y-115131301D01*
X175201748Y-115155061D01*
X175196032Y-115179068D01*
X175193557Y-115191189D01*
X175191366Y-115203402D01*
X175189483Y-115215716D01*
X175187930Y-115228142D01*
X175187747Y-115240051D01*
X175187846Y-115251280D01*
X175188264Y-115261899D01*
X175189038Y-115271975D01*
X175190206Y-115281577D01*
X175191805Y-115290773D01*
X175193874Y-115299632D01*
X175196449Y-115308221D01*
X175199567Y-115316610D01*
X175203267Y-115324866D01*
X175207586Y-115333058D01*
X175212561Y-115341254D01*
X175218230Y-115349522D01*
X175224630Y-115357932D01*
X175231799Y-115366550D01*
X175239774Y-115375446D01*
X175265354Y-115401071D01*
X175293805Y-115429606D01*
X175324059Y-115459672D01*
X175398970Y-115533939D01*
X175436754Y-115570596D01*
X175475011Y-115606686D01*
X175513932Y-115642021D01*
X175553710Y-115676413D01*
X175594535Y-115709674D01*
X175615400Y-115725823D01*
X175636598Y-115741619D01*
X175652004Y-115752351D01*
X175657338Y-115756160D01*
X175661790Y-115759460D01*
X175665884Y-115762648D01*
X175670142Y-115766123D01*
X175675089Y-115770280D01*
X175681246Y-115775518D01*
X175681246Y-115801976D01*
X175602787Y-115807045D01*
X175563522Y-115810003D01*
X175524337Y-115813664D01*
X175485309Y-115818345D01*
X175446516Y-115824362D01*
X175427233Y-115827970D01*
X175408037Y-115832030D01*
X175388938Y-115836581D01*
X175369947Y-115841664D01*
X175350574Y-115850358D01*
X175331721Y-115859686D01*
X175313410Y-115869657D01*
X175295662Y-115880283D01*
X175278498Y-115891572D01*
X175261940Y-115903535D01*
X175246007Y-115916182D01*
X175230721Y-115929523D01*
X175216104Y-115943567D01*
X175202175Y-115958326D01*
X175188957Y-115973808D01*
X175176469Y-115990024D01*
X175164734Y-116006984D01*
X175153772Y-116024697D01*
X175143604Y-116043174D01*
X175134251Y-116062425D01*
X175130097Y-116078354D01*
X175126582Y-116094426D01*
X175123721Y-116110614D01*
X175121527Y-116126886D01*
X175120013Y-116143214D01*
X175119192Y-116159567D01*
X175119079Y-116175915D01*
X175119685Y-116192229D01*
X175121026Y-116208478D01*
X175123114Y-116224633D01*
X175125962Y-116240664D01*
X175129584Y-116256541D01*
X175133993Y-116272235D01*
X175139204Y-116287715D01*
X175145228Y-116302951D01*
X175152079Y-116317914D01*
X175161124Y-116327389D01*
X175169944Y-116336077D01*
X175178606Y-116344029D01*
X175187178Y-116351296D01*
X175195727Y-116357931D01*
X175204321Y-116363985D01*
X175213026Y-116369510D01*
X175221911Y-116374556D01*
X175231042Y-116379176D01*
X175240487Y-116383421D01*
X175250314Y-116387343D01*
X175260589Y-116390993D01*
X175271380Y-116394422D01*
X175282754Y-116397683D01*
X175294779Y-116400826D01*
X175307522Y-116403903D01*
X175320070Y-116406248D01*
X175329885Y-116408167D01*
X175337782Y-116409892D01*
X175341265Y-116410754D01*
X175344574Y-116411655D01*
X175347811Y-116412624D01*
X175351076Y-116413690D01*
X175354472Y-116414882D01*
X175358101Y-116416228D01*
X175366462Y-116419504D01*
X175376975Y-116423747D01*
X175385942Y-116443835D01*
X175389062Y-116451053D01*
X175391687Y-116457421D01*
X175394126Y-116463714D01*
X175396691Y-116470707D01*
X175403434Y-116489893D01*
X175289564Y-116499298D01*
X175242203Y-116503122D01*
X175197802Y-116506634D01*
X175153496Y-116509657D01*
X175109246Y-116512170D01*
X175065014Y-116514152D01*
X175020762Y-116515582D01*
X174976450Y-116516439D01*
X174932041Y-116516702D01*
X174887497Y-116516352D01*
X174895707Y-116488728D01*
X174903170Y-116461127D01*
X174909925Y-116433536D01*
X174916015Y-116405941D01*
X174926364Y-116350688D01*
X174934548Y-116295263D01*
X174940898Y-116239562D01*
X174945746Y-116183478D01*
X174949422Y-116126909D01*
X174952259Y-116069747D01*
X174956513Y-115984220D01*
X174961953Y-115899152D01*
X174968672Y-115814441D01*
X174976762Y-115729986D01*
X174986318Y-115645685D01*
X174997432Y-115561437D01*
X175010196Y-115477138D01*
X175024704Y-115392688D01*
X175029710Y-115365414D01*
X175046007Y-115279506D01*
X175063469Y-115194001D01*
X175082066Y-115108849D01*
X175101765Y-115023998D01*
X175122534Y-114939397D01*
X175144341Y-114854997D01*
X175167154Y-114770745D01*
X175190940Y-114686592D01*
X175246939Y-114486995D01*
X175273414Y-114386932D01*
X175298653Y-114286605D01*
X175322490Y-114185946D01*
X175344763Y-114084890D01*
X175365305Y-113983370D01*
X175383952Y-113881319D01*
X175390205Y-113844060D01*
X175403711Y-113756616D01*
X175414919Y-113666283D01*
X175423047Y-113574063D01*
X175425712Y-113527559D01*
X175427313Y-113480959D01*
X175427753Y-113434389D01*
X175426934Y-113387974D01*
X175424758Y-113341840D01*
X175421127Y-113296112D01*
X175415944Y-113250914D01*
X175409111Y-113206374D01*
X175400529Y-113162615D01*
X175390101Y-113119763D01*
X175360336Y-113032947D01*
X175357120Y-113021160D01*
X175355871Y-113016289D01*
X175354866Y-113011979D01*
X175354111Y-113008139D01*
X175353612Y-113004678D01*
X175353459Y-113003061D01*
X175353372Y-113001505D01*
X175353352Y-112999999D01*
X175353398Y-112998530D01*
X175353512Y-112997088D01*
X175353694Y-112995661D01*
X175353944Y-112994239D01*
X175354264Y-112992809D01*
X175354655Y-112991360D01*
X175355115Y-112989881D01*
X175356251Y-112986787D01*
X175357678Y-112983436D01*
X175359399Y-112979738D01*
X175363746Y-112970935D01*
X175375947Y-112983317D01*
G37*
G36*
X176900774Y-112712427D02*
G01*
X176916381Y-112718677D01*
X176924146Y-112721895D01*
X176931877Y-112725189D01*
X176939570Y-112728571D01*
X176947219Y-112732051D01*
X176972744Y-112744385D01*
X177046436Y-112780740D01*
X177118670Y-112818799D01*
X177189358Y-112858648D01*
X177258416Y-112900376D01*
X177325758Y-112944070D01*
X177391296Y-112989819D01*
X177454946Y-113037709D01*
X177516621Y-113087828D01*
X177576236Y-113140265D01*
X177633703Y-113195106D01*
X177688938Y-113252439D01*
X177741855Y-113312351D01*
X177792367Y-113374932D01*
X177840388Y-113440267D01*
X177885833Y-113508446D01*
X177928615Y-113579554D01*
X177943433Y-113605935D01*
X177970346Y-113655035D01*
X177995850Y-113704754D01*
X178019928Y-113755068D01*
X178042561Y-113805955D01*
X178063731Y-113857389D01*
X178083419Y-113909349D01*
X178101608Y-113961809D01*
X178118278Y-114014747D01*
X178133412Y-114068139D01*
X178146991Y-114121961D01*
X178158997Y-114176189D01*
X178169412Y-114230800D01*
X178178216Y-114285771D01*
X178185393Y-114341077D01*
X178190923Y-114396695D01*
X178194788Y-114452602D01*
X178181559Y-114452602D01*
X178167738Y-114412439D01*
X178153572Y-114372572D01*
X178138987Y-114332976D01*
X178123910Y-114293627D01*
X178108266Y-114254501D01*
X178091982Y-114215574D01*
X178074984Y-114176822D01*
X178057199Y-114138222D01*
X178036038Y-114094587D01*
X177991715Y-114006128D01*
X177945364Y-113919476D01*
X177896879Y-113834526D01*
X177846155Y-113751168D01*
X177793086Y-113669296D01*
X177737567Y-113588803D01*
X177679492Y-113509580D01*
X177618757Y-113431521D01*
X177600384Y-113408543D01*
X177582106Y-113385490D01*
X177561368Y-113359404D01*
X177540426Y-113333608D01*
X177519210Y-113308127D01*
X177497649Y-113282990D01*
X177475674Y-113258224D01*
X177453215Y-113233857D01*
X177430203Y-113209915D01*
X177406567Y-113186426D01*
X177374579Y-113156143D01*
X177316502Y-113101525D01*
X177257832Y-113047932D01*
X177198530Y-112995300D01*
X177138556Y-112943566D01*
X177077870Y-112892666D01*
X177016433Y-112842536D01*
X176954205Y-112793114D01*
X176891146Y-112744334D01*
X176858642Y-112719581D01*
X176885100Y-112706352D01*
X176900774Y-112712427D01*
G37*
G36*
X173780649Y-108305461D02*
G01*
X173784186Y-108309127D01*
X173787230Y-108312521D01*
X173788683Y-108314268D01*
X173790154Y-108316129D01*
X173793332Y-108320434D01*
X173797139Y-108325922D01*
X173808130Y-108342381D01*
X173824740Y-108373552D01*
X173838687Y-108404496D01*
X173850117Y-108435267D01*
X173859179Y-108465916D01*
X173866018Y-108496497D01*
X173870782Y-108527061D01*
X173873618Y-108557663D01*
X173874672Y-108588354D01*
X173874092Y-108619188D01*
X173872024Y-108650216D01*
X173868615Y-108681493D01*
X173864013Y-108713069D01*
X173858364Y-108744999D01*
X173851815Y-108777335D01*
X173836605Y-108843435D01*
X173826732Y-108884934D01*
X173818036Y-108926062D01*
X173810508Y-108966996D01*
X173804137Y-109007910D01*
X173798915Y-109048982D01*
X173794832Y-109090385D01*
X173791878Y-109132295D01*
X173790044Y-109174888D01*
X173789476Y-109213852D01*
X173780656Y-109205631D01*
X173772259Y-109197530D01*
X173764264Y-109189505D01*
X173756652Y-109181510D01*
X173749402Y-109173501D01*
X173742494Y-109165433D01*
X173735907Y-109157261D01*
X173729623Y-109148941D01*
X173723619Y-109140426D01*
X173717877Y-109131674D01*
X173712376Y-109122638D01*
X173707095Y-109113273D01*
X173702015Y-109103536D01*
X173697116Y-109093381D01*
X173692376Y-109082764D01*
X173687777Y-109071638D01*
X173673716Y-109032708D01*
X173661373Y-108993219D01*
X173650785Y-108953253D01*
X173641991Y-108912891D01*
X173635028Y-108872217D01*
X173629937Y-108831312D01*
X173626754Y-108790258D01*
X173625519Y-108749138D01*
X173626269Y-108708034D01*
X173629044Y-108667027D01*
X173633882Y-108626201D01*
X173640821Y-108585637D01*
X173649900Y-108545417D01*
X173661157Y-108505624D01*
X173674631Y-108466340D01*
X173690360Y-108427647D01*
X173711754Y-108382068D01*
X173749788Y-108301039D01*
X173776246Y-108301039D01*
X173780649Y-108305461D01*
G37*
G36*
X173053802Y-116018300D02*
G01*
X173078845Y-116020562D01*
X173103513Y-116024295D01*
X173127631Y-116029538D01*
X173151024Y-116036330D01*
X173173518Y-116044711D01*
X173194937Y-116054722D01*
X173205188Y-116060351D01*
X173215106Y-116066401D01*
X173224667Y-116072879D01*
X173233850Y-116079789D01*
X173215127Y-116085287D01*
X173196596Y-116091023D01*
X173178238Y-116097036D01*
X173160032Y-116103369D01*
X173141958Y-116110061D01*
X173123996Y-116117154D01*
X173106127Y-116124689D01*
X173088330Y-116132706D01*
X173076681Y-116142154D01*
X173065872Y-116151913D01*
X173055855Y-116161984D01*
X173046579Y-116172366D01*
X173037996Y-116183062D01*
X173030056Y-116194072D01*
X173022710Y-116205396D01*
X173015908Y-116217035D01*
X173009601Y-116228991D01*
X173003739Y-116241262D01*
X172998273Y-116253852D01*
X172993154Y-116266759D01*
X172988333Y-116279985D01*
X172983759Y-116293530D01*
X172975158Y-116321583D01*
X172969267Y-116344372D01*
X172960529Y-116331185D01*
X172956983Y-116325679D01*
X172953930Y-116320734D01*
X172951328Y-116316226D01*
X172949132Y-116312033D01*
X172947301Y-116308031D01*
X172945793Y-116304097D01*
X172944565Y-116300108D01*
X172943573Y-116295940D01*
X172942777Y-116291471D01*
X172942132Y-116286578D01*
X172941597Y-116281136D01*
X172941129Y-116275024D01*
X172940225Y-116260295D01*
X172941155Y-116209600D01*
X172941879Y-116158595D01*
X172942809Y-116119477D01*
X172924962Y-116129038D01*
X172907909Y-116138503D01*
X172891514Y-116148090D01*
X172875640Y-116158016D01*
X172867856Y-116163174D01*
X172860152Y-116168499D01*
X172852511Y-116174017D01*
X172844915Y-116179756D01*
X172837349Y-116185743D01*
X172829794Y-116192006D01*
X172822233Y-116198571D01*
X172814651Y-116205466D01*
X172804417Y-116216439D01*
X172794113Y-116227322D01*
X172773315Y-116248869D01*
X172752309Y-116270212D01*
X172731142Y-116291455D01*
X172730262Y-116238514D01*
X172730211Y-116225305D01*
X172730313Y-116212093D01*
X172730609Y-116198868D01*
X172731142Y-116185623D01*
X172736960Y-116174399D01*
X172743007Y-116163557D01*
X172749300Y-116153091D01*
X172755856Y-116142994D01*
X172762691Y-116133260D01*
X172769821Y-116123883D01*
X172777262Y-116114856D01*
X172785031Y-116106174D01*
X172793144Y-116097830D01*
X172801618Y-116089818D01*
X172810469Y-116082132D01*
X172819714Y-116074765D01*
X172829368Y-116067712D01*
X172839449Y-116060965D01*
X172849971Y-116054520D01*
X172860953Y-116048370D01*
X172882698Y-116040299D01*
X172905467Y-116033380D01*
X172929086Y-116027654D01*
X172953379Y-116023160D01*
X172978172Y-116019938D01*
X173003291Y-116018028D01*
X173028559Y-116017469D01*
X173053802Y-116018300D01*
G37*
D11*
X210589339Y-80892724D02*
X210113148Y-80559391D01*
X210589339Y-80321296D02*
X209589339Y-80321296D01*
X209589339Y-80321296D02*
X209589339Y-80702248D01*
X209589339Y-80702248D02*
X209636958Y-80797486D01*
X209636958Y-80797486D02*
X209684577Y-80845105D01*
X209684577Y-80845105D02*
X209779815Y-80892724D01*
X209779815Y-80892724D02*
X209922672Y-80892724D01*
X209922672Y-80892724D02*
X210017910Y-80845105D01*
X210017910Y-80845105D02*
X210065529Y-80797486D01*
X210065529Y-80797486D02*
X210113148Y-80702248D01*
X210113148Y-80702248D02*
X210113148Y-80321296D01*
X210017910Y-81464153D02*
X209970291Y-81368915D01*
X209970291Y-81368915D02*
X209922672Y-81321296D01*
X209922672Y-81321296D02*
X209827434Y-81273677D01*
X209827434Y-81273677D02*
X209779815Y-81273677D01*
X209779815Y-81273677D02*
X209684577Y-81321296D01*
X209684577Y-81321296D02*
X209636958Y-81368915D01*
X209636958Y-81368915D02*
X209589339Y-81464153D01*
X209589339Y-81464153D02*
X209589339Y-81654629D01*
X209589339Y-81654629D02*
X209636958Y-81749867D01*
X209636958Y-81749867D02*
X209684577Y-81797486D01*
X209684577Y-81797486D02*
X209779815Y-81845105D01*
X209779815Y-81845105D02*
X209827434Y-81845105D01*
X209827434Y-81845105D02*
X209922672Y-81797486D01*
X209922672Y-81797486D02*
X209970291Y-81749867D01*
X209970291Y-81749867D02*
X210017910Y-81654629D01*
X210017910Y-81654629D02*
X210017910Y-81464153D01*
X210017910Y-81464153D02*
X210065529Y-81368915D01*
X210065529Y-81368915D02*
X210113148Y-81321296D01*
X210113148Y-81321296D02*
X210208386Y-81273677D01*
X210208386Y-81273677D02*
X210398862Y-81273677D01*
X210398862Y-81273677D02*
X210494100Y-81321296D01*
X210494100Y-81321296D02*
X210541720Y-81368915D01*
X210541720Y-81368915D02*
X210589339Y-81464153D01*
X210589339Y-81464153D02*
X210589339Y-81654629D01*
X210589339Y-81654629D02*
X210541720Y-81749867D01*
X210541720Y-81749867D02*
X210494100Y-81797486D01*
X210494100Y-81797486D02*
X210398862Y-81845105D01*
X210398862Y-81845105D02*
X210208386Y-81845105D01*
X210208386Y-81845105D02*
X210113148Y-81797486D01*
X210113148Y-81797486D02*
X210065529Y-81749867D01*
X210065529Y-81749867D02*
X210017910Y-81654629D01*
X208557339Y-80773676D02*
X208557339Y-80202248D01*
X208557339Y-80487962D02*
X207557339Y-80487962D01*
X207557339Y-80487962D02*
X207700196Y-80392724D01*
X207700196Y-80392724D02*
X207795434Y-80297486D01*
X207795434Y-80297486D02*
X207843053Y-80202248D01*
X208557339Y-81202248D02*
X207557339Y-81202248D01*
X207557339Y-81202248D02*
X208271624Y-81535581D01*
X208271624Y-81535581D02*
X207557339Y-81868914D01*
X207557339Y-81868914D02*
X208557339Y-81868914D01*
X203189186Y-96984971D02*
X203236805Y-97032591D01*
X203236805Y-97032591D02*
X203379662Y-97080210D01*
X203379662Y-97080210D02*
X203474900Y-97080210D01*
X203474900Y-97080210D02*
X203617757Y-97032591D01*
X203617757Y-97032591D02*
X203712995Y-96937352D01*
X203712995Y-96937352D02*
X203760614Y-96842114D01*
X203760614Y-96842114D02*
X203808233Y-96651638D01*
X203808233Y-96651638D02*
X203808233Y-96508781D01*
X203808233Y-96508781D02*
X203760614Y-96318305D01*
X203760614Y-96318305D02*
X203712995Y-96223067D01*
X203712995Y-96223067D02*
X203617757Y-96127829D01*
X203617757Y-96127829D02*
X203474900Y-96080210D01*
X203474900Y-96080210D02*
X203379662Y-96080210D01*
X203379662Y-96080210D02*
X203236805Y-96127829D01*
X203236805Y-96127829D02*
X203189186Y-96175448D01*
X202332043Y-96080210D02*
X202522519Y-96080210D01*
X202522519Y-96080210D02*
X202617757Y-96127829D01*
X202617757Y-96127829D02*
X202665376Y-96175448D01*
X202665376Y-96175448D02*
X202760614Y-96318305D01*
X202760614Y-96318305D02*
X202808233Y-96508781D01*
X202808233Y-96508781D02*
X202808233Y-96889733D01*
X202808233Y-96889733D02*
X202760614Y-96984971D01*
X202760614Y-96984971D02*
X202712995Y-97032591D01*
X202712995Y-97032591D02*
X202617757Y-97080210D01*
X202617757Y-97080210D02*
X202427281Y-97080210D01*
X202427281Y-97080210D02*
X202332043Y-97032591D01*
X202332043Y-97032591D02*
X202284424Y-96984971D01*
X202284424Y-96984971D02*
X202236805Y-96889733D01*
X202236805Y-96889733D02*
X202236805Y-96651638D01*
X202236805Y-96651638D02*
X202284424Y-96556400D01*
X202284424Y-96556400D02*
X202332043Y-96508781D01*
X202332043Y-96508781D02*
X202427281Y-96461162D01*
X202427281Y-96461162D02*
X202617757Y-96461162D01*
X202617757Y-96461162D02*
X202712995Y-96508781D01*
X202712995Y-96508781D02*
X202760614Y-96556400D01*
X202760614Y-96556400D02*
X202808233Y-96651638D01*
X215635186Y-116724971D02*
X215682805Y-116772591D01*
X215682805Y-116772591D02*
X215825662Y-116820210D01*
X215825662Y-116820210D02*
X215920900Y-116820210D01*
X215920900Y-116820210D02*
X216063757Y-116772591D01*
X216063757Y-116772591D02*
X216158995Y-116677352D01*
X216158995Y-116677352D02*
X216206614Y-116582114D01*
X216206614Y-116582114D02*
X216254233Y-116391638D01*
X216254233Y-116391638D02*
X216254233Y-116248781D01*
X216254233Y-116248781D02*
X216206614Y-116058305D01*
X216206614Y-116058305D02*
X216158995Y-115963067D01*
X216158995Y-115963067D02*
X216063757Y-115867829D01*
X216063757Y-115867829D02*
X215920900Y-115820210D01*
X215920900Y-115820210D02*
X215825662Y-115820210D01*
X215825662Y-115820210D02*
X215682805Y-115867829D01*
X215682805Y-115867829D02*
X215635186Y-115915448D01*
X215301852Y-115820210D02*
X214682805Y-115820210D01*
X214682805Y-115820210D02*
X215016138Y-116201162D01*
X215016138Y-116201162D02*
X214873281Y-116201162D01*
X214873281Y-116201162D02*
X214778043Y-116248781D01*
X214778043Y-116248781D02*
X214730424Y-116296400D01*
X214730424Y-116296400D02*
X214682805Y-116391638D01*
X214682805Y-116391638D02*
X214682805Y-116629733D01*
X214682805Y-116629733D02*
X214730424Y-116724971D01*
X214730424Y-116724971D02*
X214778043Y-116772591D01*
X214778043Y-116772591D02*
X214873281Y-116820210D01*
X214873281Y-116820210D02*
X215158995Y-116820210D01*
X215158995Y-116820210D02*
X215254233Y-116772591D01*
X215254233Y-116772591D02*
X215301852Y-116724971D01*
X219030100Y-69248724D02*
X219077720Y-69201105D01*
X219077720Y-69201105D02*
X219125339Y-69058248D01*
X219125339Y-69058248D02*
X219125339Y-68963010D01*
X219125339Y-68963010D02*
X219077720Y-68820153D01*
X219077720Y-68820153D02*
X218982481Y-68724915D01*
X218982481Y-68724915D02*
X218887243Y-68677296D01*
X218887243Y-68677296D02*
X218696767Y-68629677D01*
X218696767Y-68629677D02*
X218553910Y-68629677D01*
X218553910Y-68629677D02*
X218363434Y-68677296D01*
X218363434Y-68677296D02*
X218268196Y-68724915D01*
X218268196Y-68724915D02*
X218172958Y-68820153D01*
X218172958Y-68820153D02*
X218125339Y-68963010D01*
X218125339Y-68963010D02*
X218125339Y-69058248D01*
X218125339Y-69058248D02*
X218172958Y-69201105D01*
X218172958Y-69201105D02*
X218220577Y-69248724D01*
X218553910Y-69820153D02*
X218506291Y-69724915D01*
X218506291Y-69724915D02*
X218458672Y-69677296D01*
X218458672Y-69677296D02*
X218363434Y-69629677D01*
X218363434Y-69629677D02*
X218315815Y-69629677D01*
X218315815Y-69629677D02*
X218220577Y-69677296D01*
X218220577Y-69677296D02*
X218172958Y-69724915D01*
X218172958Y-69724915D02*
X218125339Y-69820153D01*
X218125339Y-69820153D02*
X218125339Y-70010629D01*
X218125339Y-70010629D02*
X218172958Y-70105867D01*
X218172958Y-70105867D02*
X218220577Y-70153486D01*
X218220577Y-70153486D02*
X218315815Y-70201105D01*
X218315815Y-70201105D02*
X218363434Y-70201105D01*
X218363434Y-70201105D02*
X218458672Y-70153486D01*
X218458672Y-70153486D02*
X218506291Y-70105867D01*
X218506291Y-70105867D02*
X218553910Y-70010629D01*
X218553910Y-70010629D02*
X218553910Y-69820153D01*
X218553910Y-69820153D02*
X218601529Y-69724915D01*
X218601529Y-69724915D02*
X218649148Y-69677296D01*
X218649148Y-69677296D02*
X218744386Y-69629677D01*
X218744386Y-69629677D02*
X218934862Y-69629677D01*
X218934862Y-69629677D02*
X219030100Y-69677296D01*
X219030100Y-69677296D02*
X219077720Y-69724915D01*
X219077720Y-69724915D02*
X219125339Y-69820153D01*
X219125339Y-69820153D02*
X219125339Y-70010629D01*
X219125339Y-70010629D02*
X219077720Y-70105867D01*
X219077720Y-70105867D02*
X219030100Y-70153486D01*
X219030100Y-70153486D02*
X218934862Y-70201105D01*
X218934862Y-70201105D02*
X218744386Y-70201105D01*
X218744386Y-70201105D02*
X218649148Y-70153486D01*
X218649148Y-70153486D02*
X218601529Y-70105867D01*
X218601529Y-70105867D02*
X218553910Y-70010629D01*
X205958672Y-67558248D02*
X206625339Y-67558248D01*
X205577720Y-67320153D02*
X206292005Y-67082058D01*
X206292005Y-67082058D02*
X206292005Y-67701105D01*
X206530100Y-68082058D02*
X206577720Y-68129677D01*
X206577720Y-68129677D02*
X206625339Y-68082058D01*
X206625339Y-68082058D02*
X206577720Y-68034439D01*
X206577720Y-68034439D02*
X206530100Y-68082058D01*
X206530100Y-68082058D02*
X206625339Y-68082058D01*
X205625339Y-68463010D02*
X205625339Y-69129676D01*
X205625339Y-69129676D02*
X206625339Y-68701105D01*
X205958672Y-70272534D02*
X206958672Y-70272534D01*
X206482481Y-70748724D02*
X206577720Y-70796343D01*
X206577720Y-70796343D02*
X206625339Y-70891581D01*
X206482481Y-70272534D02*
X206577720Y-70320153D01*
X206577720Y-70320153D02*
X206625339Y-70415391D01*
X206625339Y-70415391D02*
X206625339Y-70605867D01*
X206625339Y-70605867D02*
X206577720Y-70701105D01*
X206577720Y-70701105D02*
X206482481Y-70748724D01*
X206482481Y-70748724D02*
X205958672Y-70748724D01*
X206101529Y-71653486D02*
X206101529Y-71320153D01*
X206625339Y-71320153D02*
X205625339Y-71320153D01*
X205625339Y-71320153D02*
X205625339Y-71796343D01*
X201751668Y-87545698D02*
X202332933Y-87545617D01*
X202079426Y-88013785D02*
X202898578Y-87440208D01*
X202898578Y-87440208D02*
X202680073Y-87128150D01*
X202680073Y-87128150D02*
X202586439Y-87077449D01*
X202586439Y-87077449D02*
X202520119Y-87065755D01*
X202520119Y-87065755D02*
X202414791Y-87081374D01*
X202414791Y-87081374D02*
X202297770Y-87163314D01*
X202297770Y-87163314D02*
X202247068Y-87256947D01*
X202247068Y-87256947D02*
X202235374Y-87323268D01*
X202235374Y-87323268D02*
X202250993Y-87428595D01*
X202250993Y-87428595D02*
X202469499Y-87740653D01*
X202274301Y-86714690D02*
X202285995Y-86648370D01*
X202285995Y-86648370D02*
X202270376Y-86543042D01*
X202270376Y-86543042D02*
X202133810Y-86348006D01*
X202133810Y-86348006D02*
X202040176Y-86297304D01*
X202040176Y-86297304D02*
X201973856Y-86285610D01*
X201973856Y-86285610D02*
X201868528Y-86301229D01*
X201868528Y-86301229D02*
X201790514Y-86355856D01*
X201790514Y-86355856D02*
X201700805Y-86476802D01*
X201700805Y-86476802D02*
X201560476Y-87272647D01*
X201560476Y-87272647D02*
X201205405Y-86765553D01*
X203753368Y-86633855D02*
X204081126Y-87101941D01*
X203917247Y-86867898D02*
X204736399Y-86294322D01*
X204736399Y-86294322D02*
X204674004Y-86454276D01*
X204674004Y-86454276D02*
X204650616Y-86586916D01*
X204650616Y-86586916D02*
X204666235Y-86692244D01*
X204217449Y-85553184D02*
X204162823Y-85475170D01*
X204162823Y-85475170D02*
X204069189Y-85424468D01*
X204069189Y-85424468D02*
X204002869Y-85412774D01*
X204002869Y-85412774D02*
X203897541Y-85428393D01*
X203897541Y-85428393D02*
X203714199Y-85498639D01*
X203714199Y-85498639D02*
X203519163Y-85635204D01*
X203519163Y-85635204D02*
X203390447Y-85783464D01*
X203390447Y-85783464D02*
X203339746Y-85877098D01*
X203339746Y-85877098D02*
X203328052Y-85943418D01*
X203328052Y-85943418D02*
X203343671Y-86048746D01*
X203343671Y-86048746D02*
X203398297Y-86126760D01*
X203398297Y-86126760D02*
X203491931Y-86177462D01*
X203491931Y-86177462D02*
X203558251Y-86189156D01*
X203558251Y-86189156D02*
X203663579Y-86173537D01*
X203663579Y-86173537D02*
X203846921Y-86103291D01*
X203846921Y-86103291D02*
X204041957Y-85966726D01*
X204041957Y-85966726D02*
X204170673Y-85818466D01*
X204170673Y-85818466D02*
X204221374Y-85724832D01*
X204221374Y-85724832D02*
X204233068Y-85658512D01*
X204233068Y-85658512D02*
X204217449Y-85553184D01*
X202961286Y-85502645D02*
X203780438Y-84929068D01*
X203218718Y-85206125D02*
X202742781Y-85190587D01*
X203288882Y-84808202D02*
X203195330Y-85338766D01*
X97646100Y-112896724D02*
X97693720Y-112849105D01*
X97693720Y-112849105D02*
X97741339Y-112706248D01*
X97741339Y-112706248D02*
X97741339Y-112611010D01*
X97741339Y-112611010D02*
X97693720Y-112468153D01*
X97693720Y-112468153D02*
X97598481Y-112372915D01*
X97598481Y-112372915D02*
X97503243Y-112325296D01*
X97503243Y-112325296D02*
X97312767Y-112277677D01*
X97312767Y-112277677D02*
X97169910Y-112277677D01*
X97169910Y-112277677D02*
X96979434Y-112325296D01*
X96979434Y-112325296D02*
X96884196Y-112372915D01*
X96884196Y-112372915D02*
X96788958Y-112468153D01*
X96788958Y-112468153D02*
X96741339Y-112611010D01*
X96741339Y-112611010D02*
X96741339Y-112706248D01*
X96741339Y-112706248D02*
X96788958Y-112849105D01*
X96788958Y-112849105D02*
X96836577Y-112896724D01*
X96836577Y-113277677D02*
X96788958Y-113325296D01*
X96788958Y-113325296D02*
X96741339Y-113420534D01*
X96741339Y-113420534D02*
X96741339Y-113658629D01*
X96741339Y-113658629D02*
X96788958Y-113753867D01*
X96788958Y-113753867D02*
X96836577Y-113801486D01*
X96836577Y-113801486D02*
X96931815Y-113849105D01*
X96931815Y-113849105D02*
X97027053Y-113849105D01*
X97027053Y-113849105D02*
X97169910Y-113801486D01*
X97169910Y-113801486D02*
X97741339Y-113230058D01*
X97741339Y-113230058D02*
X97741339Y-113849105D01*
X86907339Y-75352057D02*
X87621624Y-75352057D01*
X87621624Y-75352057D02*
X87764481Y-75304438D01*
X87764481Y-75304438D02*
X87859720Y-75209200D01*
X87859720Y-75209200D02*
X87907339Y-75066343D01*
X87907339Y-75066343D02*
X87907339Y-74971105D01*
X87002577Y-75780629D02*
X86954958Y-75828248D01*
X86954958Y-75828248D02*
X86907339Y-75923486D01*
X86907339Y-75923486D02*
X86907339Y-76161581D01*
X86907339Y-76161581D02*
X86954958Y-76256819D01*
X86954958Y-76256819D02*
X87002577Y-76304438D01*
X87002577Y-76304438D02*
X87097815Y-76352057D01*
X87097815Y-76352057D02*
X87193053Y-76352057D01*
X87193053Y-76352057D02*
X87335910Y-76304438D01*
X87335910Y-76304438D02*
X87907339Y-75733010D01*
X87907339Y-75733010D02*
X87907339Y-76352057D01*
X145161339Y-81765962D02*
X145161339Y-81194534D01*
X145161339Y-81480248D02*
X144161339Y-81480248D01*
X144161339Y-81480248D02*
X144304196Y-81385010D01*
X144304196Y-81385010D02*
X144399434Y-81289772D01*
X144399434Y-81289772D02*
X144447053Y-81194534D01*
X144589910Y-82337391D02*
X144542291Y-82242153D01*
X144542291Y-82242153D02*
X144494672Y-82194534D01*
X144494672Y-82194534D02*
X144399434Y-82146915D01*
X144399434Y-82146915D02*
X144351815Y-82146915D01*
X144351815Y-82146915D02*
X144256577Y-82194534D01*
X144256577Y-82194534D02*
X144208958Y-82242153D01*
X144208958Y-82242153D02*
X144161339Y-82337391D01*
X144161339Y-82337391D02*
X144161339Y-82527867D01*
X144161339Y-82527867D02*
X144208958Y-82623105D01*
X144208958Y-82623105D02*
X144256577Y-82670724D01*
X144256577Y-82670724D02*
X144351815Y-82718343D01*
X144351815Y-82718343D02*
X144399434Y-82718343D01*
X144399434Y-82718343D02*
X144494672Y-82670724D01*
X144494672Y-82670724D02*
X144542291Y-82623105D01*
X144542291Y-82623105D02*
X144589910Y-82527867D01*
X144589910Y-82527867D02*
X144589910Y-82337391D01*
X144589910Y-82337391D02*
X144637529Y-82242153D01*
X144637529Y-82242153D02*
X144685148Y-82194534D01*
X144685148Y-82194534D02*
X144780386Y-82146915D01*
X144780386Y-82146915D02*
X144970862Y-82146915D01*
X144970862Y-82146915D02*
X145066100Y-82194534D01*
X145066100Y-82194534D02*
X145113720Y-82242153D01*
X145113720Y-82242153D02*
X145161339Y-82337391D01*
X145161339Y-82337391D02*
X145161339Y-82527867D01*
X145161339Y-82527867D02*
X145113720Y-82623105D01*
X145113720Y-82623105D02*
X145066100Y-82670724D01*
X145066100Y-82670724D02*
X144970862Y-82718343D01*
X144970862Y-82718343D02*
X144780386Y-82718343D01*
X144780386Y-82718343D02*
X144685148Y-82670724D01*
X144685148Y-82670724D02*
X144637529Y-82623105D01*
X144637529Y-82623105D02*
X144589910Y-82527867D01*
X144161339Y-83337391D02*
X144161339Y-83432629D01*
X144161339Y-83432629D02*
X144208958Y-83527867D01*
X144208958Y-83527867D02*
X144256577Y-83575486D01*
X144256577Y-83575486D02*
X144351815Y-83623105D01*
X144351815Y-83623105D02*
X144542291Y-83670724D01*
X144542291Y-83670724D02*
X144780386Y-83670724D01*
X144780386Y-83670724D02*
X144970862Y-83623105D01*
X144970862Y-83623105D02*
X145066100Y-83575486D01*
X145066100Y-83575486D02*
X145113720Y-83527867D01*
X145113720Y-83527867D02*
X145161339Y-83432629D01*
X145161339Y-83432629D02*
X145161339Y-83337391D01*
X145161339Y-83337391D02*
X145113720Y-83242153D01*
X145113720Y-83242153D02*
X145066100Y-83194534D01*
X145066100Y-83194534D02*
X144970862Y-83146915D01*
X144970862Y-83146915D02*
X144780386Y-83099296D01*
X144780386Y-83099296D02*
X144542291Y-83099296D01*
X144542291Y-83099296D02*
X144351815Y-83146915D01*
X144351815Y-83146915D02*
X144256577Y-83194534D01*
X144256577Y-83194534D02*
X144208958Y-83242153D01*
X144208958Y-83242153D02*
X144161339Y-83337391D01*
X145161339Y-84099296D02*
X144161339Y-84099296D01*
X144780386Y-84194534D02*
X145161339Y-84480248D01*
X144494672Y-84480248D02*
X144875624Y-84099296D01*
X147343339Y-82670724D02*
X146867148Y-82337391D01*
X147343339Y-82099296D02*
X146343339Y-82099296D01*
X146343339Y-82099296D02*
X146343339Y-82480248D01*
X146343339Y-82480248D02*
X146390958Y-82575486D01*
X146390958Y-82575486D02*
X146438577Y-82623105D01*
X146438577Y-82623105D02*
X146533815Y-82670724D01*
X146533815Y-82670724D02*
X146676672Y-82670724D01*
X146676672Y-82670724D02*
X146771910Y-82623105D01*
X146771910Y-82623105D02*
X146819529Y-82575486D01*
X146819529Y-82575486D02*
X146867148Y-82480248D01*
X146867148Y-82480248D02*
X146867148Y-82099296D01*
X146343339Y-83004058D02*
X146343339Y-83670724D01*
X146343339Y-83670724D02*
X147343339Y-83242153D01*
X118157753Y-86447535D02*
X118485511Y-86915621D01*
X118321632Y-86681578D02*
X119140784Y-86108002D01*
X119140784Y-86108002D02*
X119078389Y-86267956D01*
X119078389Y-86267956D02*
X119055001Y-86400596D01*
X119055001Y-86400596D02*
X119070620Y-86505924D01*
X118621834Y-85366864D02*
X118567208Y-85288850D01*
X118567208Y-85288850D02*
X118473574Y-85238148D01*
X118473574Y-85238148D02*
X118407254Y-85226454D01*
X118407254Y-85226454D02*
X118301926Y-85242073D01*
X118301926Y-85242073D02*
X118118584Y-85312319D01*
X118118584Y-85312319D02*
X117923548Y-85448884D01*
X117923548Y-85448884D02*
X117794832Y-85597144D01*
X117794832Y-85597144D02*
X117744131Y-85690778D01*
X117744131Y-85690778D02*
X117732437Y-85757098D01*
X117732437Y-85757098D02*
X117748056Y-85862426D01*
X117748056Y-85862426D02*
X117802682Y-85940440D01*
X117802682Y-85940440D02*
X117896316Y-85991142D01*
X117896316Y-85991142D02*
X117962636Y-86002836D01*
X117962636Y-86002836D02*
X118067964Y-85987217D01*
X118067964Y-85987217D02*
X118251306Y-85916971D01*
X118251306Y-85916971D02*
X118446342Y-85780406D01*
X118446342Y-85780406D02*
X118575058Y-85632146D01*
X118575058Y-85632146D02*
X118625759Y-85538512D01*
X118625759Y-85538512D02*
X118637453Y-85472192D01*
X118637453Y-85472192D02*
X118621834Y-85366864D01*
X117365671Y-85316325D02*
X118184823Y-84742748D01*
X117623103Y-85019805D02*
X117147166Y-85004267D01*
X117693267Y-84621882D02*
X117599715Y-85152446D01*
X115970543Y-87455845D02*
X116551808Y-87455764D01*
X116298301Y-87923932D02*
X117117453Y-87350355D01*
X117117453Y-87350355D02*
X116898948Y-87038297D01*
X116898948Y-87038297D02*
X116805314Y-86987596D01*
X116805314Y-86987596D02*
X116738994Y-86975902D01*
X116738994Y-86975902D02*
X116633666Y-86991521D01*
X116633666Y-86991521D02*
X116516645Y-87073461D01*
X116516645Y-87073461D02*
X116465943Y-87167094D01*
X116465943Y-87167094D02*
X116454249Y-87233415D01*
X116454249Y-87233415D02*
X116469868Y-87338742D01*
X116469868Y-87338742D02*
X116688374Y-87650800D01*
X116270745Y-86141131D02*
X116543877Y-86531203D01*
X116543877Y-86531203D02*
X116181118Y-86843342D01*
X116181118Y-86843342D02*
X116192812Y-86777022D01*
X116192812Y-86777022D02*
X116177193Y-86671694D01*
X116177193Y-86671694D02*
X116040627Y-86476658D01*
X116040627Y-86476658D02*
X115946993Y-86425957D01*
X115946993Y-86425957D02*
X115880673Y-86414263D01*
X115880673Y-86414263D02*
X115775345Y-86429882D01*
X115775345Y-86429882D02*
X115580309Y-86566447D01*
X115580309Y-86566447D02*
X115529608Y-86660081D01*
X115529608Y-86660081D02*
X115517914Y-86726401D01*
X115517914Y-86726401D02*
X115533533Y-86831729D01*
X115533533Y-86831729D02*
X115670099Y-87026765D01*
X115670099Y-87026765D02*
X115763732Y-87077467D01*
X115763732Y-87077467D02*
X115830053Y-87089161D01*
X144078697Y-86617855D02*
X144406455Y-87085941D01*
X144242576Y-86851898D02*
X145061728Y-86278322D01*
X145061728Y-86278322D02*
X144999333Y-86438276D01*
X144999333Y-86438276D02*
X144975945Y-86570916D01*
X144975945Y-86570916D02*
X144991564Y-86676244D01*
X144542778Y-85537184D02*
X144488152Y-85459170D01*
X144488152Y-85459170D02*
X144394518Y-85408468D01*
X144394518Y-85408468D02*
X144328198Y-85396774D01*
X144328198Y-85396774D02*
X144222870Y-85412393D01*
X144222870Y-85412393D02*
X144039528Y-85482639D01*
X144039528Y-85482639D02*
X143844492Y-85619204D01*
X143844492Y-85619204D02*
X143715776Y-85767464D01*
X143715776Y-85767464D02*
X143665075Y-85861098D01*
X143665075Y-85861098D02*
X143653381Y-85927418D01*
X143653381Y-85927418D02*
X143669000Y-86032746D01*
X143669000Y-86032746D02*
X143723626Y-86110760D01*
X143723626Y-86110760D02*
X143817260Y-86161462D01*
X143817260Y-86161462D02*
X143883580Y-86173156D01*
X143883580Y-86173156D02*
X143988908Y-86157537D01*
X143988908Y-86157537D02*
X144172250Y-86087291D01*
X144172250Y-86087291D02*
X144367286Y-85950726D01*
X144367286Y-85950726D02*
X144496002Y-85802466D01*
X144496002Y-85802466D02*
X144546703Y-85708832D01*
X144546703Y-85708832D02*
X144558397Y-85642512D01*
X144558397Y-85642512D02*
X144542778Y-85537184D01*
X143286615Y-85486645D02*
X144105767Y-84913068D01*
X143544047Y-85190125D02*
X143068110Y-85174587D01*
X143614211Y-84792202D02*
X143520659Y-85322766D01*
X141891487Y-87489806D02*
X142472752Y-87489725D01*
X142219245Y-87957893D02*
X143038397Y-87384316D01*
X143038397Y-87384316D02*
X142819892Y-87072258D01*
X142819892Y-87072258D02*
X142726258Y-87021557D01*
X142726258Y-87021557D02*
X142659938Y-87009863D01*
X142659938Y-87009863D02*
X142554610Y-87025482D01*
X142554610Y-87025482D02*
X142437589Y-87107422D01*
X142437589Y-87107422D02*
X142386887Y-87201055D01*
X142386887Y-87201055D02*
X142375193Y-87267376D01*
X142375193Y-87267376D02*
X142390812Y-87372703D01*
X142390812Y-87372703D02*
X142609318Y-87684761D01*
X141945952Y-86405291D02*
X141399850Y-86787676D01*
X142394576Y-86381822D02*
X141946033Y-86986556D01*
X141946033Y-86986556D02*
X141590962Y-86479462D01*
X213241853Y-92712210D02*
X213241853Y-93426495D01*
X213241853Y-93426495D02*
X213289472Y-93569352D01*
X213289472Y-93569352D02*
X213384710Y-93664591D01*
X213384710Y-93664591D02*
X213527567Y-93712210D01*
X213527567Y-93712210D02*
X213622805Y-93712210D01*
X212241853Y-93712210D02*
X212813281Y-93712210D01*
X212527567Y-93712210D02*
X212527567Y-92712210D01*
X212527567Y-92712210D02*
X212622805Y-92855067D01*
X212622805Y-92855067D02*
X212718043Y-92950305D01*
X212718043Y-92950305D02*
X212813281Y-92997924D01*
X116514100Y-96132724D02*
X116561720Y-96085105D01*
X116561720Y-96085105D02*
X116609339Y-95942248D01*
X116609339Y-95942248D02*
X116609339Y-95847010D01*
X116609339Y-95847010D02*
X116561720Y-95704153D01*
X116561720Y-95704153D02*
X116466481Y-95608915D01*
X116466481Y-95608915D02*
X116371243Y-95561296D01*
X116371243Y-95561296D02*
X116180767Y-95513677D01*
X116180767Y-95513677D02*
X116037910Y-95513677D01*
X116037910Y-95513677D02*
X115847434Y-95561296D01*
X115847434Y-95561296D02*
X115752196Y-95608915D01*
X115752196Y-95608915D02*
X115656958Y-95704153D01*
X115656958Y-95704153D02*
X115609339Y-95847010D01*
X115609339Y-95847010D02*
X115609339Y-95942248D01*
X115609339Y-95942248D02*
X115656958Y-96085105D01*
X115656958Y-96085105D02*
X115704577Y-96132724D01*
X115942672Y-96989867D02*
X116609339Y-96989867D01*
X115561720Y-96751772D02*
X116276005Y-96513677D01*
X116276005Y-96513677D02*
X116276005Y-97132724D01*
X158349339Y-85067962D02*
X158349339Y-84496534D01*
X158349339Y-84782248D02*
X157349339Y-84782248D01*
X157349339Y-84782248D02*
X157492196Y-84687010D01*
X157492196Y-84687010D02*
X157587434Y-84591772D01*
X157587434Y-84591772D02*
X157635053Y-84496534D01*
X157777910Y-85639391D02*
X157730291Y-85544153D01*
X157730291Y-85544153D02*
X157682672Y-85496534D01*
X157682672Y-85496534D02*
X157587434Y-85448915D01*
X157587434Y-85448915D02*
X157539815Y-85448915D01*
X157539815Y-85448915D02*
X157444577Y-85496534D01*
X157444577Y-85496534D02*
X157396958Y-85544153D01*
X157396958Y-85544153D02*
X157349339Y-85639391D01*
X157349339Y-85639391D02*
X157349339Y-85829867D01*
X157349339Y-85829867D02*
X157396958Y-85925105D01*
X157396958Y-85925105D02*
X157444577Y-85972724D01*
X157444577Y-85972724D02*
X157539815Y-86020343D01*
X157539815Y-86020343D02*
X157587434Y-86020343D01*
X157587434Y-86020343D02*
X157682672Y-85972724D01*
X157682672Y-85972724D02*
X157730291Y-85925105D01*
X157730291Y-85925105D02*
X157777910Y-85829867D01*
X157777910Y-85829867D02*
X157777910Y-85639391D01*
X157777910Y-85639391D02*
X157825529Y-85544153D01*
X157825529Y-85544153D02*
X157873148Y-85496534D01*
X157873148Y-85496534D02*
X157968386Y-85448915D01*
X157968386Y-85448915D02*
X158158862Y-85448915D01*
X158158862Y-85448915D02*
X158254100Y-85496534D01*
X158254100Y-85496534D02*
X158301720Y-85544153D01*
X158301720Y-85544153D02*
X158349339Y-85639391D01*
X158349339Y-85639391D02*
X158349339Y-85829867D01*
X158349339Y-85829867D02*
X158301720Y-85925105D01*
X158301720Y-85925105D02*
X158254100Y-85972724D01*
X158254100Y-85972724D02*
X158158862Y-86020343D01*
X158158862Y-86020343D02*
X157968386Y-86020343D01*
X157968386Y-86020343D02*
X157873148Y-85972724D01*
X157873148Y-85972724D02*
X157825529Y-85925105D01*
X157825529Y-85925105D02*
X157777910Y-85829867D01*
X157349339Y-86639391D02*
X157349339Y-86734629D01*
X157349339Y-86734629D02*
X157396958Y-86829867D01*
X157396958Y-86829867D02*
X157444577Y-86877486D01*
X157444577Y-86877486D02*
X157539815Y-86925105D01*
X157539815Y-86925105D02*
X157730291Y-86972724D01*
X157730291Y-86972724D02*
X157968386Y-86972724D01*
X157968386Y-86972724D02*
X158158862Y-86925105D01*
X158158862Y-86925105D02*
X158254100Y-86877486D01*
X158254100Y-86877486D02*
X158301720Y-86829867D01*
X158301720Y-86829867D02*
X158349339Y-86734629D01*
X158349339Y-86734629D02*
X158349339Y-86639391D01*
X158349339Y-86639391D02*
X158301720Y-86544153D01*
X158301720Y-86544153D02*
X158254100Y-86496534D01*
X158254100Y-86496534D02*
X158158862Y-86448915D01*
X158158862Y-86448915D02*
X157968386Y-86401296D01*
X157968386Y-86401296D02*
X157730291Y-86401296D01*
X157730291Y-86401296D02*
X157539815Y-86448915D01*
X157539815Y-86448915D02*
X157444577Y-86496534D01*
X157444577Y-86496534D02*
X157396958Y-86544153D01*
X157396958Y-86544153D02*
X157349339Y-86639391D01*
X158349339Y-87401296D02*
X157349339Y-87401296D01*
X157968386Y-87496534D02*
X158349339Y-87782248D01*
X157682672Y-87782248D02*
X158063624Y-87401296D01*
X155979339Y-85972724D02*
X155503148Y-85639391D01*
X155979339Y-85401296D02*
X154979339Y-85401296D01*
X154979339Y-85401296D02*
X154979339Y-85782248D01*
X154979339Y-85782248D02*
X155026958Y-85877486D01*
X155026958Y-85877486D02*
X155074577Y-85925105D01*
X155074577Y-85925105D02*
X155169815Y-85972724D01*
X155169815Y-85972724D02*
X155312672Y-85972724D01*
X155312672Y-85972724D02*
X155407910Y-85925105D01*
X155407910Y-85925105D02*
X155455529Y-85877486D01*
X155455529Y-85877486D02*
X155503148Y-85782248D01*
X155503148Y-85782248D02*
X155503148Y-85401296D01*
X154979339Y-86829867D02*
X154979339Y-86639391D01*
X154979339Y-86639391D02*
X155026958Y-86544153D01*
X155026958Y-86544153D02*
X155074577Y-86496534D01*
X155074577Y-86496534D02*
X155217434Y-86401296D01*
X155217434Y-86401296D02*
X155407910Y-86353677D01*
X155407910Y-86353677D02*
X155788862Y-86353677D01*
X155788862Y-86353677D02*
X155884100Y-86401296D01*
X155884100Y-86401296D02*
X155931720Y-86448915D01*
X155931720Y-86448915D02*
X155979339Y-86544153D01*
X155979339Y-86544153D02*
X155979339Y-86734629D01*
X155979339Y-86734629D02*
X155931720Y-86829867D01*
X155931720Y-86829867D02*
X155884100Y-86877486D01*
X155884100Y-86877486D02*
X155788862Y-86925105D01*
X155788862Y-86925105D02*
X155550767Y-86925105D01*
X155550767Y-86925105D02*
X155455529Y-86877486D01*
X155455529Y-86877486D02*
X155407910Y-86829867D01*
X155407910Y-86829867D02*
X155360291Y-86734629D01*
X155360291Y-86734629D02*
X155360291Y-86544153D01*
X155360291Y-86544153D02*
X155407910Y-86448915D01*
X155407910Y-86448915D02*
X155455529Y-86401296D01*
X155455529Y-86401296D02*
X155550767Y-86353677D01*
X214653339Y-80892724D02*
X214177148Y-80559391D01*
X214653339Y-80321296D02*
X213653339Y-80321296D01*
X213653339Y-80321296D02*
X213653339Y-80702248D01*
X213653339Y-80702248D02*
X213700958Y-80797486D01*
X213700958Y-80797486D02*
X213748577Y-80845105D01*
X213748577Y-80845105D02*
X213843815Y-80892724D01*
X213843815Y-80892724D02*
X213986672Y-80892724D01*
X213986672Y-80892724D02*
X214081910Y-80845105D01*
X214081910Y-80845105D02*
X214129529Y-80797486D01*
X214129529Y-80797486D02*
X214177148Y-80702248D01*
X214177148Y-80702248D02*
X214177148Y-80321296D01*
X214653339Y-81368915D02*
X214653339Y-81559391D01*
X214653339Y-81559391D02*
X214605720Y-81654629D01*
X214605720Y-81654629D02*
X214558100Y-81702248D01*
X214558100Y-81702248D02*
X214415243Y-81797486D01*
X214415243Y-81797486D02*
X214224767Y-81845105D01*
X214224767Y-81845105D02*
X213843815Y-81845105D01*
X213843815Y-81845105D02*
X213748577Y-81797486D01*
X213748577Y-81797486D02*
X213700958Y-81749867D01*
X213700958Y-81749867D02*
X213653339Y-81654629D01*
X213653339Y-81654629D02*
X213653339Y-81464153D01*
X213653339Y-81464153D02*
X213700958Y-81368915D01*
X213700958Y-81368915D02*
X213748577Y-81321296D01*
X213748577Y-81321296D02*
X213843815Y-81273677D01*
X213843815Y-81273677D02*
X214081910Y-81273677D01*
X214081910Y-81273677D02*
X214177148Y-81321296D01*
X214177148Y-81321296D02*
X214224767Y-81368915D01*
X214224767Y-81368915D02*
X214272386Y-81464153D01*
X214272386Y-81464153D02*
X214272386Y-81654629D01*
X214272386Y-81654629D02*
X214224767Y-81749867D01*
X214224767Y-81749867D02*
X214177148Y-81797486D01*
X214177148Y-81797486D02*
X214081910Y-81845105D01*
X211220815Y-102325866D02*
X211220815Y-102859200D01*
X211220815Y-102859200D02*
X212020815Y-102516342D01*
X211487481Y-103506819D02*
X212020815Y-103506819D01*
X211182720Y-103316343D02*
X211754148Y-103125866D01*
X211754148Y-103125866D02*
X211754148Y-103621105D01*
X212020815Y-103925867D02*
X211220815Y-103925867D01*
X211601767Y-103925867D02*
X211601767Y-104383010D01*
X212020815Y-104383010D02*
X211220815Y-104383010D01*
X211944624Y-105221105D02*
X211982720Y-105183009D01*
X211982720Y-105183009D02*
X212020815Y-105068724D01*
X212020815Y-105068724D02*
X212020815Y-104992533D01*
X212020815Y-104992533D02*
X211982720Y-104878247D01*
X211982720Y-104878247D02*
X211906529Y-104802057D01*
X211906529Y-104802057D02*
X211830339Y-104763962D01*
X211830339Y-104763962D02*
X211677958Y-104725866D01*
X211677958Y-104725866D02*
X211563672Y-104725866D01*
X211563672Y-104725866D02*
X211411291Y-104763962D01*
X211411291Y-104763962D02*
X211335100Y-104802057D01*
X211335100Y-104802057D02*
X211258910Y-104878247D01*
X211258910Y-104878247D02*
X211220815Y-104992533D01*
X211220815Y-104992533D02*
X211220815Y-105068724D01*
X211220815Y-105068724D02*
X211258910Y-105183009D01*
X211258910Y-105183009D02*
X211297005Y-105221105D01*
X211220815Y-105944914D02*
X211220815Y-105563962D01*
X211220815Y-105563962D02*
X211601767Y-105525866D01*
X211601767Y-105525866D02*
X211563672Y-105563962D01*
X211563672Y-105563962D02*
X211525577Y-105640152D01*
X211525577Y-105640152D02*
X211525577Y-105830628D01*
X211525577Y-105830628D02*
X211563672Y-105906819D01*
X211563672Y-105906819D02*
X211601767Y-105944914D01*
X211601767Y-105944914D02*
X211677958Y-105983009D01*
X211677958Y-105983009D02*
X211868434Y-105983009D01*
X211868434Y-105983009D02*
X211944624Y-105944914D01*
X211944624Y-105944914D02*
X211982720Y-105906819D01*
X211982720Y-105906819D02*
X212020815Y-105830628D01*
X212020815Y-105830628D02*
X212020815Y-105640152D01*
X212020815Y-105640152D02*
X211982720Y-105563962D01*
X211982720Y-105563962D02*
X211944624Y-105525866D01*
X212020815Y-106363962D02*
X212020815Y-106516343D01*
X212020815Y-106516343D02*
X211982720Y-106592533D01*
X211982720Y-106592533D02*
X211944624Y-106630629D01*
X211944624Y-106630629D02*
X211830339Y-106706819D01*
X211830339Y-106706819D02*
X211677958Y-106744914D01*
X211677958Y-106744914D02*
X211373196Y-106744914D01*
X211373196Y-106744914D02*
X211297005Y-106706819D01*
X211297005Y-106706819D02*
X211258910Y-106668724D01*
X211258910Y-106668724D02*
X211220815Y-106592533D01*
X211220815Y-106592533D02*
X211220815Y-106440152D01*
X211220815Y-106440152D02*
X211258910Y-106363962D01*
X211258910Y-106363962D02*
X211297005Y-106325867D01*
X211297005Y-106325867D02*
X211373196Y-106287771D01*
X211373196Y-106287771D02*
X211563672Y-106287771D01*
X211563672Y-106287771D02*
X211639862Y-106325867D01*
X211639862Y-106325867D02*
X211677958Y-106363962D01*
X211677958Y-106363962D02*
X211716053Y-106440152D01*
X211716053Y-106440152D02*
X211716053Y-106592533D01*
X211716053Y-106592533D02*
X211677958Y-106668724D01*
X211677958Y-106668724D02*
X211639862Y-106706819D01*
X211639862Y-106706819D02*
X211563672Y-106744914D01*
X211220815Y-107468724D02*
X211220815Y-107087772D01*
X211220815Y-107087772D02*
X211601767Y-107049676D01*
X211601767Y-107049676D02*
X211563672Y-107087772D01*
X211563672Y-107087772D02*
X211525577Y-107163962D01*
X211525577Y-107163962D02*
X211525577Y-107354438D01*
X211525577Y-107354438D02*
X211563672Y-107430629D01*
X211563672Y-107430629D02*
X211601767Y-107468724D01*
X211601767Y-107468724D02*
X211677958Y-107506819D01*
X211677958Y-107506819D02*
X211868434Y-107506819D01*
X211868434Y-107506819D02*
X211944624Y-107468724D01*
X211944624Y-107468724D02*
X211982720Y-107430629D01*
X211982720Y-107430629D02*
X212020815Y-107354438D01*
X212020815Y-107354438D02*
X212020815Y-107163962D01*
X212020815Y-107163962D02*
X211982720Y-107087772D01*
X211982720Y-107087772D02*
X211944624Y-107049676D01*
X92445186Y-77608971D02*
X92492805Y-77656591D01*
X92492805Y-77656591D02*
X92635662Y-77704210D01*
X92635662Y-77704210D02*
X92730900Y-77704210D01*
X92730900Y-77704210D02*
X92873757Y-77656591D01*
X92873757Y-77656591D02*
X92968995Y-77561352D01*
X92968995Y-77561352D02*
X93016614Y-77466114D01*
X93016614Y-77466114D02*
X93064233Y-77275638D01*
X93064233Y-77275638D02*
X93064233Y-77132781D01*
X93064233Y-77132781D02*
X93016614Y-76942305D01*
X93016614Y-76942305D02*
X92968995Y-76847067D01*
X92968995Y-76847067D02*
X92873757Y-76751829D01*
X92873757Y-76751829D02*
X92730900Y-76704210D01*
X92730900Y-76704210D02*
X92635662Y-76704210D01*
X92635662Y-76704210D02*
X92492805Y-76751829D01*
X92492805Y-76751829D02*
X92445186Y-76799448D01*
X91492805Y-77704210D02*
X92064233Y-77704210D01*
X91778519Y-77704210D02*
X91778519Y-76704210D01*
X91778519Y-76704210D02*
X91873757Y-76847067D01*
X91873757Y-76847067D02*
X91968995Y-76942305D01*
X91968995Y-76942305D02*
X92064233Y-76989924D01*
X176773186Y-98508971D02*
X176820805Y-98556591D01*
X176820805Y-98556591D02*
X176963662Y-98604210D01*
X176963662Y-98604210D02*
X177058900Y-98604210D01*
X177058900Y-98604210D02*
X177201757Y-98556591D01*
X177201757Y-98556591D02*
X177296995Y-98461352D01*
X177296995Y-98461352D02*
X177344614Y-98366114D01*
X177344614Y-98366114D02*
X177392233Y-98175638D01*
X177392233Y-98175638D02*
X177392233Y-98032781D01*
X177392233Y-98032781D02*
X177344614Y-97842305D01*
X177344614Y-97842305D02*
X177296995Y-97747067D01*
X177296995Y-97747067D02*
X177201757Y-97651829D01*
X177201757Y-97651829D02*
X177058900Y-97604210D01*
X177058900Y-97604210D02*
X176963662Y-97604210D01*
X176963662Y-97604210D02*
X176820805Y-97651829D01*
X176820805Y-97651829D02*
X176773186Y-97699448D01*
X175868424Y-97604210D02*
X176344614Y-97604210D01*
X176344614Y-97604210D02*
X176392233Y-98080400D01*
X176392233Y-98080400D02*
X176344614Y-98032781D01*
X176344614Y-98032781D02*
X176249376Y-97985162D01*
X176249376Y-97985162D02*
X176011281Y-97985162D01*
X176011281Y-97985162D02*
X175916043Y-98032781D01*
X175916043Y-98032781D02*
X175868424Y-98080400D01*
X175868424Y-98080400D02*
X175820805Y-98175638D01*
X175820805Y-98175638D02*
X175820805Y-98413733D01*
X175820805Y-98413733D02*
X175868424Y-98508971D01*
X175868424Y-98508971D02*
X175916043Y-98556591D01*
X175916043Y-98556591D02*
X176011281Y-98604210D01*
X176011281Y-98604210D02*
X176249376Y-98604210D01*
X176249376Y-98604210D02*
X176344614Y-98556591D01*
X176344614Y-98556591D02*
X176392233Y-98508971D01*
X178088294Y-86641771D02*
X178416052Y-87109857D01*
X178252173Y-86875814D02*
X179071325Y-86302238D01*
X179071325Y-86302238D02*
X179008930Y-86462192D01*
X179008930Y-86462192D02*
X178985542Y-86594832D01*
X178985542Y-86594832D02*
X179001161Y-86700160D01*
X178552375Y-85561100D02*
X178497749Y-85483086D01*
X178497749Y-85483086D02*
X178404115Y-85432384D01*
X178404115Y-85432384D02*
X178337795Y-85420690D01*
X178337795Y-85420690D02*
X178232467Y-85436309D01*
X178232467Y-85436309D02*
X178049125Y-85506555D01*
X178049125Y-85506555D02*
X177854089Y-85643120D01*
X177854089Y-85643120D02*
X177725373Y-85791380D01*
X177725373Y-85791380D02*
X177674672Y-85885014D01*
X177674672Y-85885014D02*
X177662978Y-85951334D01*
X177662978Y-85951334D02*
X177678597Y-86056662D01*
X177678597Y-86056662D02*
X177733223Y-86134676D01*
X177733223Y-86134676D02*
X177826857Y-86185378D01*
X177826857Y-86185378D02*
X177893177Y-86197072D01*
X177893177Y-86197072D02*
X177998505Y-86181453D01*
X177998505Y-86181453D02*
X178181847Y-86111207D01*
X178181847Y-86111207D02*
X178376883Y-85974642D01*
X178376883Y-85974642D02*
X178505599Y-85826382D01*
X178505599Y-85826382D02*
X178556300Y-85732748D01*
X178556300Y-85732748D02*
X178567994Y-85666428D01*
X178567994Y-85666428D02*
X178552375Y-85561100D01*
X177296212Y-85510561D02*
X178115364Y-84936984D01*
X177553644Y-85214041D02*
X177077707Y-85198503D01*
X177623808Y-84816118D02*
X177530256Y-85346682D01*
X175901084Y-87650081D02*
X176482349Y-87650000D01*
X176228842Y-88118168D02*
X177047994Y-87544591D01*
X177047994Y-87544591D02*
X176829489Y-87232533D01*
X176829489Y-87232533D02*
X176735855Y-87181832D01*
X176735855Y-87181832D02*
X176669535Y-87170138D01*
X176669535Y-87170138D02*
X176564207Y-87185757D01*
X176564207Y-87185757D02*
X176447186Y-87267697D01*
X176447186Y-87267697D02*
X176396484Y-87361330D01*
X176396484Y-87361330D02*
X176384790Y-87427651D01*
X176384790Y-87427651D02*
X176400409Y-87532978D01*
X176400409Y-87532978D02*
X176618915Y-87845036D01*
X176529044Y-86803454D02*
X176173973Y-86296360D01*
X176173973Y-86296360D02*
X176053107Y-86787916D01*
X176053107Y-86787916D02*
X175971168Y-86670894D01*
X175971168Y-86670894D02*
X175877534Y-86620193D01*
X175877534Y-86620193D02*
X175811214Y-86608499D01*
X175811214Y-86608499D02*
X175705886Y-86624118D01*
X175705886Y-86624118D02*
X175510850Y-86760683D01*
X175510850Y-86760683D02*
X175460149Y-86854317D01*
X175460149Y-86854317D02*
X175448455Y-86920637D01*
X175448455Y-86920637D02*
X175464074Y-87025965D01*
X175464074Y-87025965D02*
X175627953Y-87260009D01*
X175627953Y-87260009D02*
X175721586Y-87310710D01*
X175721586Y-87310710D02*
X175787907Y-87322404D01*
X91078815Y-102584866D02*
X91078815Y-103118200D01*
X91078815Y-103118200D02*
X91878815Y-102775342D01*
X91345481Y-103765819D02*
X91878815Y-103765819D01*
X91040720Y-103575343D02*
X91612148Y-103384866D01*
X91612148Y-103384866D02*
X91612148Y-103880105D01*
X91878815Y-104184867D02*
X91078815Y-104184867D01*
X91459767Y-104184867D02*
X91459767Y-104642010D01*
X91878815Y-104642010D02*
X91078815Y-104642010D01*
X91802624Y-105480105D02*
X91840720Y-105442009D01*
X91840720Y-105442009D02*
X91878815Y-105327724D01*
X91878815Y-105327724D02*
X91878815Y-105251533D01*
X91878815Y-105251533D02*
X91840720Y-105137247D01*
X91840720Y-105137247D02*
X91764529Y-105061057D01*
X91764529Y-105061057D02*
X91688339Y-105022962D01*
X91688339Y-105022962D02*
X91535958Y-104984866D01*
X91535958Y-104984866D02*
X91421672Y-104984866D01*
X91421672Y-104984866D02*
X91269291Y-105022962D01*
X91269291Y-105022962D02*
X91193100Y-105061057D01*
X91193100Y-105061057D02*
X91116910Y-105137247D01*
X91116910Y-105137247D02*
X91078815Y-105251533D01*
X91078815Y-105251533D02*
X91078815Y-105327724D01*
X91078815Y-105327724D02*
X91116910Y-105442009D01*
X91116910Y-105442009D02*
X91155005Y-105480105D01*
X91078815Y-106203914D02*
X91078815Y-105822962D01*
X91078815Y-105822962D02*
X91459767Y-105784866D01*
X91459767Y-105784866D02*
X91421672Y-105822962D01*
X91421672Y-105822962D02*
X91383577Y-105899152D01*
X91383577Y-105899152D02*
X91383577Y-106089628D01*
X91383577Y-106089628D02*
X91421672Y-106165819D01*
X91421672Y-106165819D02*
X91459767Y-106203914D01*
X91459767Y-106203914D02*
X91535958Y-106242009D01*
X91535958Y-106242009D02*
X91726434Y-106242009D01*
X91726434Y-106242009D02*
X91802624Y-106203914D01*
X91802624Y-106203914D02*
X91840720Y-106165819D01*
X91840720Y-106165819D02*
X91878815Y-106089628D01*
X91878815Y-106089628D02*
X91878815Y-105899152D01*
X91878815Y-105899152D02*
X91840720Y-105822962D01*
X91840720Y-105822962D02*
X91802624Y-105784866D01*
X91878815Y-106622962D02*
X91878815Y-106775343D01*
X91878815Y-106775343D02*
X91840720Y-106851533D01*
X91840720Y-106851533D02*
X91802624Y-106889629D01*
X91802624Y-106889629D02*
X91688339Y-106965819D01*
X91688339Y-106965819D02*
X91535958Y-107003914D01*
X91535958Y-107003914D02*
X91231196Y-107003914D01*
X91231196Y-107003914D02*
X91155005Y-106965819D01*
X91155005Y-106965819D02*
X91116910Y-106927724D01*
X91116910Y-106927724D02*
X91078815Y-106851533D01*
X91078815Y-106851533D02*
X91078815Y-106699152D01*
X91078815Y-106699152D02*
X91116910Y-106622962D01*
X91116910Y-106622962D02*
X91155005Y-106584867D01*
X91155005Y-106584867D02*
X91231196Y-106546771D01*
X91231196Y-106546771D02*
X91421672Y-106546771D01*
X91421672Y-106546771D02*
X91497862Y-106584867D01*
X91497862Y-106584867D02*
X91535958Y-106622962D01*
X91535958Y-106622962D02*
X91574053Y-106699152D01*
X91574053Y-106699152D02*
X91574053Y-106851533D01*
X91574053Y-106851533D02*
X91535958Y-106927724D01*
X91535958Y-106927724D02*
X91497862Y-106965819D01*
X91497862Y-106965819D02*
X91421672Y-107003914D01*
X91078815Y-107727724D02*
X91078815Y-107346772D01*
X91078815Y-107346772D02*
X91459767Y-107308676D01*
X91459767Y-107308676D02*
X91421672Y-107346772D01*
X91421672Y-107346772D02*
X91383577Y-107422962D01*
X91383577Y-107422962D02*
X91383577Y-107613438D01*
X91383577Y-107613438D02*
X91421672Y-107689629D01*
X91421672Y-107689629D02*
X91459767Y-107727724D01*
X91459767Y-107727724D02*
X91535958Y-107765819D01*
X91535958Y-107765819D02*
X91726434Y-107765819D01*
X91726434Y-107765819D02*
X91802624Y-107727724D01*
X91802624Y-107727724D02*
X91840720Y-107689629D01*
X91840720Y-107689629D02*
X91878815Y-107613438D01*
X91878815Y-107613438D02*
X91878815Y-107422962D01*
X91878815Y-107422962D02*
X91840720Y-107346772D01*
X91840720Y-107346772D02*
X91802624Y-107308676D01*
X92445186Y-62368971D02*
X92492805Y-62416591D01*
X92492805Y-62416591D02*
X92635662Y-62464210D01*
X92635662Y-62464210D02*
X92730900Y-62464210D01*
X92730900Y-62464210D02*
X92873757Y-62416591D01*
X92873757Y-62416591D02*
X92968995Y-62321352D01*
X92968995Y-62321352D02*
X93016614Y-62226114D01*
X93016614Y-62226114D02*
X93064233Y-62035638D01*
X93064233Y-62035638D02*
X93064233Y-61892781D01*
X93064233Y-61892781D02*
X93016614Y-61702305D01*
X93016614Y-61702305D02*
X92968995Y-61607067D01*
X92968995Y-61607067D02*
X92873757Y-61511829D01*
X92873757Y-61511829D02*
X92730900Y-61464210D01*
X92730900Y-61464210D02*
X92635662Y-61464210D01*
X92635662Y-61464210D02*
X92492805Y-61511829D01*
X92492805Y-61511829D02*
X92445186Y-61559448D01*
X91968995Y-62464210D02*
X91778519Y-62464210D01*
X91778519Y-62464210D02*
X91683281Y-62416591D01*
X91683281Y-62416591D02*
X91635662Y-62368971D01*
X91635662Y-62368971D02*
X91540424Y-62226114D01*
X91540424Y-62226114D02*
X91492805Y-62035638D01*
X91492805Y-62035638D02*
X91492805Y-61654686D01*
X91492805Y-61654686D02*
X91540424Y-61559448D01*
X91540424Y-61559448D02*
X91588043Y-61511829D01*
X91588043Y-61511829D02*
X91683281Y-61464210D01*
X91683281Y-61464210D02*
X91873757Y-61464210D01*
X91873757Y-61464210D02*
X91968995Y-61511829D01*
X91968995Y-61511829D02*
X92016614Y-61559448D01*
X92016614Y-61559448D02*
X92064233Y-61654686D01*
X92064233Y-61654686D02*
X92064233Y-61892781D01*
X92064233Y-61892781D02*
X92016614Y-61988019D01*
X92016614Y-61988019D02*
X91968995Y-62035638D01*
X91968995Y-62035638D02*
X91873757Y-62083257D01*
X91873757Y-62083257D02*
X91683281Y-62083257D01*
X91683281Y-62083257D02*
X91588043Y-62035638D01*
X91588043Y-62035638D02*
X91540424Y-61988019D01*
X91540424Y-61988019D02*
X91492805Y-61892781D01*
X140064100Y-96132724D02*
X140111720Y-96085105D01*
X140111720Y-96085105D02*
X140159339Y-95942248D01*
X140159339Y-95942248D02*
X140159339Y-95847010D01*
X140159339Y-95847010D02*
X140111720Y-95704153D01*
X140111720Y-95704153D02*
X140016481Y-95608915D01*
X140016481Y-95608915D02*
X139921243Y-95561296D01*
X139921243Y-95561296D02*
X139730767Y-95513677D01*
X139730767Y-95513677D02*
X139587910Y-95513677D01*
X139587910Y-95513677D02*
X139397434Y-95561296D01*
X139397434Y-95561296D02*
X139302196Y-95608915D01*
X139302196Y-95608915D02*
X139206958Y-95704153D01*
X139206958Y-95704153D02*
X139159339Y-95847010D01*
X139159339Y-95847010D02*
X139159339Y-95942248D01*
X139159339Y-95942248D02*
X139206958Y-96085105D01*
X139206958Y-96085105D02*
X139254577Y-96132724D01*
X139159339Y-96466058D02*
X139159339Y-97132724D01*
X139159339Y-97132724D02*
X140159339Y-96704153D01*
X152661339Y-87274152D02*
X152661339Y-86702724D01*
X152661339Y-86988438D02*
X151661339Y-86988438D01*
X151661339Y-86988438D02*
X151804196Y-86893200D01*
X151804196Y-86893200D02*
X151899434Y-86797962D01*
X151899434Y-86797962D02*
X151947053Y-86702724D01*
X151661339Y-87893200D02*
X151661339Y-87988438D01*
X151661339Y-87988438D02*
X151708958Y-88083676D01*
X151708958Y-88083676D02*
X151756577Y-88131295D01*
X151756577Y-88131295D02*
X151851815Y-88178914D01*
X151851815Y-88178914D02*
X152042291Y-88226533D01*
X152042291Y-88226533D02*
X152280386Y-88226533D01*
X152280386Y-88226533D02*
X152470862Y-88178914D01*
X152470862Y-88178914D02*
X152566100Y-88131295D01*
X152566100Y-88131295D02*
X152613720Y-88083676D01*
X152613720Y-88083676D02*
X152661339Y-87988438D01*
X152661339Y-87988438D02*
X152661339Y-87893200D01*
X152661339Y-87893200D02*
X152613720Y-87797962D01*
X152613720Y-87797962D02*
X152566100Y-87750343D01*
X152566100Y-87750343D02*
X152470862Y-87702724D01*
X152470862Y-87702724D02*
X152280386Y-87655105D01*
X152280386Y-87655105D02*
X152042291Y-87655105D01*
X152042291Y-87655105D02*
X151851815Y-87702724D01*
X151851815Y-87702724D02*
X151756577Y-87750343D01*
X151756577Y-87750343D02*
X151708958Y-87797962D01*
X151708958Y-87797962D02*
X151661339Y-87893200D01*
X152661339Y-88655105D02*
X151661339Y-88655105D01*
X152280386Y-88750343D02*
X152661339Y-89036057D01*
X151994672Y-89036057D02*
X152375624Y-88655105D01*
X150391339Y-87750724D02*
X149915148Y-87417391D01*
X150391339Y-87179296D02*
X149391339Y-87179296D01*
X149391339Y-87179296D02*
X149391339Y-87560248D01*
X149391339Y-87560248D02*
X149438958Y-87655486D01*
X149438958Y-87655486D02*
X149486577Y-87703105D01*
X149486577Y-87703105D02*
X149581815Y-87750724D01*
X149581815Y-87750724D02*
X149724672Y-87750724D01*
X149724672Y-87750724D02*
X149819910Y-87703105D01*
X149819910Y-87703105D02*
X149867529Y-87655486D01*
X149867529Y-87655486D02*
X149915148Y-87560248D01*
X149915148Y-87560248D02*
X149915148Y-87179296D01*
X150391339Y-88703105D02*
X150391339Y-88131677D01*
X150391339Y-88417391D02*
X149391339Y-88417391D01*
X149391339Y-88417391D02*
X149534196Y-88322153D01*
X149534196Y-88322153D02*
X149629434Y-88226915D01*
X149629434Y-88226915D02*
X149677053Y-88131677D01*
D12*
%TO.C,R8*%
X210134520Y-77019391D02*
X210134520Y-77789391D01*
X210134520Y-85099391D02*
X210134520Y-84329391D01*
X211504520Y-84329391D02*
X208764520Y-84329391D01*
X208764520Y-77789391D01*
X211504520Y-77789391D01*
X211504520Y-84329391D01*
%TO.C,C6*%
X202311268Y-93865391D02*
X203733772Y-93865391D01*
X202311268Y-95685391D02*
X203733772Y-95685391D01*
%TO.C,C3*%
X216179772Y-115455391D02*
X214757268Y-115455391D01*
X216179772Y-117275391D02*
X214757268Y-117275391D01*
%TO.C,C8*%
X211180520Y-65695391D02*
X208942520Y-65695391D01*
X211180520Y-65735391D02*
X208900520Y-65735391D01*
X211180520Y-65775391D02*
X208859520Y-65775391D01*
X211180520Y-65815391D02*
X208819520Y-65815391D01*
X211180520Y-65855391D02*
X208780520Y-65855391D01*
X211180520Y-65895391D02*
X208742520Y-65895391D01*
X211180520Y-65935391D02*
X208704520Y-65935391D01*
X211180520Y-65975391D02*
X208668520Y-65975391D01*
X211180520Y-66015391D02*
X208632520Y-66015391D01*
X211180520Y-66055391D02*
X208597520Y-66055391D01*
X211180520Y-66095391D02*
X208562520Y-66095391D01*
X211180520Y-66135391D02*
X208529520Y-66135391D01*
X211180520Y-66175391D02*
X208496520Y-66175391D01*
X211180520Y-66215391D02*
X208463520Y-66215391D01*
X211180520Y-66255391D02*
X208432520Y-66255391D01*
X211180520Y-66295391D02*
X208400520Y-66295391D01*
X211180520Y-66335391D02*
X208370520Y-66335391D01*
X211180520Y-66375391D02*
X208340520Y-66375391D01*
X211180520Y-66415391D02*
X208311520Y-66415391D01*
X211180520Y-66455391D02*
X208282520Y-66455391D01*
X211180520Y-66495391D02*
X208254520Y-66495391D01*
X211180520Y-66535391D02*
X208227520Y-66535391D01*
X211180520Y-66575391D02*
X208200520Y-66575391D01*
X211180520Y-66615391D02*
X208173520Y-66615391D01*
X211180520Y-66655391D02*
X208148520Y-66655391D01*
X211180520Y-66695391D02*
X208122520Y-66695391D01*
X211180520Y-66735391D02*
X208097520Y-66735391D01*
X211180520Y-66775391D02*
X208073520Y-66775391D01*
X211180520Y-66815391D02*
X208049520Y-66815391D01*
X211180520Y-66855391D02*
X208026520Y-66855391D01*
X211180520Y-66895391D02*
X208003520Y-66895391D01*
X211180520Y-66935391D02*
X207981520Y-66935391D01*
X211180520Y-66975391D02*
X207959520Y-66975391D01*
X211180520Y-67015391D02*
X207937520Y-67015391D01*
X211180520Y-67055391D02*
X207916520Y-67055391D01*
X211180520Y-67095391D02*
X207896520Y-67095391D01*
X211180520Y-67135391D02*
X207876520Y-67135391D01*
X211180520Y-67175391D02*
X207856520Y-67175391D01*
X211180520Y-67215391D02*
X207837520Y-67215391D01*
X211180520Y-67255391D02*
X207818520Y-67255391D01*
X211180520Y-67295391D02*
X207800520Y-67295391D01*
X211180520Y-67335391D02*
X207782520Y-67335391D01*
X211180520Y-67375391D02*
X207764520Y-67375391D01*
X211180520Y-67415391D02*
X207747520Y-67415391D01*
X211180520Y-67455391D02*
X207730520Y-67455391D01*
X211180520Y-67495391D02*
X207714520Y-67495391D01*
X211180520Y-67535391D02*
X207698520Y-67535391D01*
X211180520Y-67575391D02*
X207682520Y-67575391D01*
X211180520Y-67615391D02*
X207667520Y-67615391D01*
X211180520Y-67655391D02*
X207652520Y-67655391D01*
X211180520Y-67695391D02*
X207638520Y-67695391D01*
X211180520Y-67735391D02*
X207623520Y-67735391D01*
X211180520Y-67775391D02*
X207610520Y-67775391D01*
X211180520Y-67815391D02*
X207596520Y-67815391D01*
X211180520Y-67855391D02*
X207583520Y-67855391D01*
X211180520Y-67895391D02*
X207571520Y-67895391D01*
X211180520Y-67935391D02*
X207559520Y-67935391D01*
X211180520Y-67975391D02*
X207547520Y-67975391D01*
X211180520Y-68015391D02*
X207535520Y-68015391D01*
X211180520Y-68055391D02*
X207524520Y-68055391D01*
X211180520Y-68095391D02*
X207513520Y-68095391D01*
X211180520Y-68135391D02*
X207503520Y-68135391D01*
X213019520Y-64335391D02*
X211821520Y-64335391D01*
X213282520Y-64375391D02*
X211558520Y-64375391D01*
X213482520Y-64415391D02*
X211358520Y-64415391D01*
X213650520Y-64455391D02*
X211190520Y-64455391D01*
X213797520Y-64495391D02*
X211043520Y-64495391D01*
X213929520Y-64535391D02*
X210911520Y-64535391D01*
X214050520Y-64575391D02*
X210790520Y-64575391D01*
X214162520Y-64615391D02*
X210678520Y-64615391D01*
X214266520Y-64655391D02*
X210574520Y-64655391D01*
X214364520Y-64695391D02*
X210476520Y-64695391D01*
X214457520Y-64735391D02*
X210383520Y-64735391D01*
X214544520Y-64775391D02*
X210296520Y-64775391D01*
X214628520Y-64815391D02*
X210212520Y-64815391D01*
X214708520Y-64855391D02*
X210132520Y-64855391D01*
X214785520Y-64895391D02*
X210055520Y-64895391D01*
X214859520Y-64935391D02*
X209981520Y-64935391D01*
X214930520Y-64975391D02*
X209910520Y-64975391D01*
X214998520Y-65015391D02*
X209842520Y-65015391D01*
X215064520Y-65055391D02*
X209776520Y-65055391D01*
X215128520Y-65095391D02*
X209712520Y-65095391D01*
X215190520Y-65135391D02*
X209650520Y-65135391D01*
X215250520Y-65175391D02*
X209590520Y-65175391D01*
X215295520Y-74895037D02*
X215295520Y-73895037D01*
X215308520Y-65215391D02*
X209532520Y-65215391D01*
X215365520Y-65255391D02*
X209475520Y-65255391D01*
X215420520Y-65295391D02*
X209420520Y-65295391D01*
X215473520Y-65335391D02*
X209367520Y-65335391D01*
X215525520Y-65375391D02*
X209315520Y-65375391D01*
X215576520Y-65415391D02*
X209264520Y-65415391D01*
X215625520Y-65455391D02*
X209215520Y-65455391D01*
X215674520Y-65495391D02*
X209166520Y-65495391D01*
X215721520Y-65535391D02*
X209119520Y-65535391D01*
X215767520Y-65575391D02*
X209073520Y-65575391D01*
X215795520Y-74395037D02*
X214795520Y-74395037D01*
X215811520Y-65615391D02*
X209029520Y-65615391D01*
X215855520Y-65655391D02*
X208985520Y-65655391D01*
X215898520Y-65695391D02*
X213660520Y-65695391D01*
X215940520Y-65735391D02*
X213660520Y-65735391D01*
X215981520Y-65775391D02*
X213660520Y-65775391D01*
X216021520Y-65815391D02*
X213660520Y-65815391D01*
X216060520Y-65855391D02*
X213660520Y-65855391D01*
X216098520Y-65895391D02*
X213660520Y-65895391D01*
X216136520Y-65935391D02*
X213660520Y-65935391D01*
X216172520Y-65975391D02*
X213660520Y-65975391D01*
X216208520Y-66015391D02*
X213660520Y-66015391D01*
X216243520Y-66055391D02*
X213660520Y-66055391D01*
X216278520Y-66095391D02*
X213660520Y-66095391D01*
X216311520Y-66135391D02*
X213660520Y-66135391D01*
X216344520Y-66175391D02*
X213660520Y-66175391D01*
X216377520Y-66215391D02*
X213660520Y-66215391D01*
X216408520Y-66255391D02*
X213660520Y-66255391D01*
X216440520Y-66295391D02*
X213660520Y-66295391D01*
X216470520Y-66335391D02*
X213660520Y-66335391D01*
X216500520Y-66375391D02*
X213660520Y-66375391D01*
X216529520Y-66415391D02*
X213660520Y-66415391D01*
X216558520Y-66455391D02*
X213660520Y-66455391D01*
X216586520Y-66495391D02*
X213660520Y-66495391D01*
X216613520Y-66535391D02*
X213660520Y-66535391D01*
X216640520Y-66575391D02*
X213660520Y-66575391D01*
X216667520Y-66615391D02*
X213660520Y-66615391D01*
X216692520Y-66655391D02*
X213660520Y-66655391D01*
X216718520Y-66695391D02*
X213660520Y-66695391D01*
X216743520Y-66735391D02*
X213660520Y-66735391D01*
X216767520Y-66775391D02*
X213660520Y-66775391D01*
X216791520Y-66815391D02*
X213660520Y-66815391D01*
X216814520Y-66855391D02*
X213660520Y-66855391D01*
X216837520Y-66895391D02*
X213660520Y-66895391D01*
X216859520Y-66935391D02*
X213660520Y-66935391D01*
X216881520Y-66975391D02*
X213660520Y-66975391D01*
X216903520Y-67015391D02*
X213660520Y-67015391D01*
X216924520Y-67055391D02*
X213660520Y-67055391D01*
X216944520Y-67095391D02*
X213660520Y-67095391D01*
X216964520Y-67135391D02*
X213660520Y-67135391D01*
X216984520Y-67175391D02*
X213660520Y-67175391D01*
X217003520Y-67215391D02*
X213660520Y-67215391D01*
X217022520Y-67255391D02*
X213660520Y-67255391D01*
X217040520Y-67295391D02*
X213660520Y-67295391D01*
X217058520Y-67335391D02*
X213660520Y-67335391D01*
X217076520Y-67375391D02*
X213660520Y-67375391D01*
X217093520Y-67415391D02*
X213660520Y-67415391D01*
X217110520Y-67455391D02*
X213660520Y-67455391D01*
X217126520Y-67495391D02*
X213660520Y-67495391D01*
X217142520Y-67535391D02*
X213660520Y-67535391D01*
X217158520Y-67575391D02*
X213660520Y-67575391D01*
X217173520Y-67615391D02*
X213660520Y-67615391D01*
X217188520Y-67655391D02*
X213660520Y-67655391D01*
X217202520Y-67695391D02*
X213660520Y-67695391D01*
X217217520Y-67735391D02*
X213660520Y-67735391D01*
X217230520Y-67775391D02*
X213660520Y-67775391D01*
X217244520Y-67815391D02*
X213660520Y-67815391D01*
X217257520Y-67855391D02*
X213660520Y-67855391D01*
X217269520Y-67895391D02*
X213660520Y-67895391D01*
X217281520Y-67935391D02*
X213660520Y-67935391D01*
X217293520Y-67975391D02*
X213660520Y-67975391D01*
X217305520Y-68015391D02*
X213660520Y-68015391D01*
X217316520Y-68055391D02*
X213660520Y-68055391D01*
X217327520Y-68095391D02*
X213660520Y-68095391D01*
X217337520Y-68135391D02*
X213660520Y-68135391D01*
X217348520Y-68175391D02*
X207492520Y-68175391D01*
X217357520Y-68215391D02*
X207483520Y-68215391D01*
X217367520Y-68255391D02*
X207473520Y-68255391D01*
X217376520Y-68295391D02*
X207464520Y-68295391D01*
X217385520Y-68335391D02*
X207455520Y-68335391D01*
X217393520Y-68375391D02*
X207447520Y-68375391D01*
X217401520Y-68415391D02*
X207439520Y-68415391D01*
X217409520Y-68455391D02*
X207431520Y-68455391D01*
X217417520Y-68495391D02*
X207423520Y-68495391D01*
X217424520Y-68535391D02*
X207416520Y-68535391D01*
X217431520Y-68575391D02*
X207409520Y-68575391D01*
X217437520Y-68615391D02*
X207403520Y-68615391D01*
X217443520Y-68655391D02*
X207397520Y-68655391D01*
X217449520Y-68695391D02*
X207391520Y-68695391D01*
X217455520Y-68735391D02*
X207385520Y-68735391D01*
X217460520Y-68775391D02*
X207380520Y-68775391D01*
X217465520Y-68815391D02*
X207375520Y-68815391D01*
X217469520Y-68855391D02*
X207371520Y-68855391D01*
X217474520Y-68895391D02*
X207366520Y-68895391D01*
X217477520Y-68935391D02*
X207363520Y-68935391D01*
X217481520Y-68975391D02*
X207359520Y-68975391D01*
X217484520Y-69015391D02*
X207356520Y-69015391D01*
X217487520Y-69055391D02*
X207353520Y-69055391D01*
X217490520Y-69095391D02*
X207350520Y-69095391D01*
X217492520Y-69135391D02*
X207348520Y-69135391D01*
X217494520Y-69175391D02*
X207346520Y-69175391D01*
X217496520Y-69215391D02*
X207344520Y-69215391D01*
X217497520Y-69255391D02*
X207343520Y-69255391D01*
X217499520Y-69295391D02*
X207341520Y-69295391D01*
X217499520Y-69335391D02*
X207341520Y-69335391D01*
X217500520Y-69375391D02*
X207340520Y-69375391D01*
X217500520Y-69415391D02*
X207340520Y-69415391D01*
X217540520Y-69415391D02*
G75*
G02*
X207300520Y-69415391I-5120000J0D01*
G01*
X207300520Y-69415391D02*
G75*
G02*
X217540520Y-69415391I5120000J0D01*
G01*
%TO.C,R2*%
X199711390Y-83838926D02*
X200153044Y-84469673D01*
X204345888Y-90457675D02*
X203904235Y-89826928D01*
X205026473Y-89041128D02*
X202781996Y-90612727D01*
X199030806Y-85255473D01*
X201275283Y-83683874D01*
X205026473Y-89041128D01*
%TO.C,C2*%
X98226520Y-112352139D02*
X98226520Y-113774643D01*
X100046520Y-112352139D02*
X100046520Y-113774643D01*
%TO.C,J2*%
X84718520Y-63575391D02*
X84718520Y-87795391D01*
X84718520Y-87795391D02*
X85928520Y-87795391D01*
X85928520Y-63075391D02*
X85928520Y-63575391D01*
X85928520Y-63575391D02*
X84718520Y-63575391D01*
X85928520Y-87795391D02*
X85928520Y-88295391D01*
X86038520Y-62775391D02*
X88538520Y-62775391D01*
X86738520Y-63075391D02*
X86738520Y-64075391D01*
X86738520Y-64075391D02*
X88238520Y-64075391D01*
X86738520Y-87295391D02*
X88238520Y-87295391D01*
X86738520Y-88295391D02*
X86738520Y-87295391D01*
X88538520Y-62775391D02*
X88538520Y-65275391D01*
X84218520Y-63075391D02*
X88238520Y-63075391D01*
X88238520Y-88295391D01*
X84218520Y-88295391D01*
X84218520Y-63075391D01*
%TO.C,R7*%
X146888520Y-78797391D02*
X146888520Y-79567391D01*
X146888520Y-86877391D02*
X146888520Y-86107391D01*
X145518520Y-79567391D02*
X148258520Y-79567391D01*
X148258520Y-86107391D01*
X145518520Y-86107391D01*
X145518520Y-79567391D01*
%TO.C,R5*%
X113930265Y-83749073D02*
X114371919Y-84379820D01*
X118564763Y-90367822D02*
X118123109Y-89737075D01*
X119245348Y-88951275D02*
X117000871Y-90522874D01*
X113249681Y-85165620D01*
X115494158Y-83594020D01*
X119245348Y-88951275D01*
%TO.C,R4*%
X139851209Y-83783034D02*
X140292863Y-84413781D01*
X144485707Y-90401783D02*
X144044053Y-89771036D01*
X145166292Y-88985236D02*
X142921815Y-90556835D01*
X139170625Y-85199581D01*
X141415102Y-83627981D01*
X145166292Y-88985236D01*
%TO.C,J1*%
X208748520Y-87847391D02*
X211248520Y-87847391D01*
X208748520Y-90347391D02*
X208748520Y-87847391D01*
X209048520Y-89647391D02*
X210048520Y-89647391D01*
X209048520Y-90457391D02*
X209548520Y-90457391D01*
X209548520Y-90457391D02*
X209548520Y-91667391D01*
X209548520Y-91667391D02*
X216268520Y-91667391D01*
X210048520Y-89647391D02*
X210048520Y-88147391D01*
X215768520Y-89647391D02*
X215768520Y-88147391D01*
X216268520Y-90457391D02*
X216768520Y-90457391D01*
X216268520Y-91667391D02*
X216268520Y-90457391D01*
X216768520Y-89647391D02*
X215768520Y-89647391D01*
X209048520Y-92167391D02*
X216768520Y-92167391D01*
X216768520Y-88147391D01*
X209048520Y-88147391D01*
X209048520Y-92167391D01*
%TO.C,C4*%
X115244520Y-95588139D02*
X115244520Y-97010643D01*
X117064520Y-95588139D02*
X117064520Y-97010643D01*
%TO.C,R6*%
X155524520Y-82099391D02*
X155524520Y-82869391D01*
X155524520Y-90179391D02*
X155524520Y-89409391D01*
X154154520Y-82869391D02*
X156894520Y-82869391D01*
X156894520Y-89409391D01*
X154154520Y-89409391D01*
X154154520Y-82869391D01*
%TO.C,R9*%
X214198520Y-77019391D02*
X214198520Y-77789391D01*
X214198520Y-85099391D02*
X214198520Y-84329391D01*
X215568520Y-84329391D02*
X212828520Y-84329391D01*
X212828520Y-77789391D01*
X215568520Y-77789391D01*
X215568520Y-84329391D01*
D13*
%TO.C,U1*%
X208737520Y-115095391D02*
X208737520Y-114635391D01*
D14*
X208737520Y-115095391D02*
X210642520Y-115095391D01*
X214579520Y-115095391D02*
X212674520Y-115095391D01*
D13*
X214579520Y-115095391D02*
X214579520Y-114635391D01*
D14*
X210642520Y-115095391D02*
G75*
G02*
X212674520Y-115095391I1016000J0D01*
G01*
D12*
%TO.C,C1*%
X88845900Y-75024391D02*
X89475900Y-75024391D01*
X89160900Y-75339391D02*
X89160900Y-74709391D01*
X92346141Y-76415391D02*
X92346141Y-69955391D01*
X92386141Y-76415391D02*
X92386141Y-69955391D01*
X92426141Y-76414391D02*
X92426141Y-69956391D01*
X92466141Y-76413391D02*
X92466141Y-69957391D01*
X92506141Y-76411391D02*
X92506141Y-69959391D01*
X92546141Y-76409391D02*
X92546141Y-69961391D01*
X92586141Y-72145391D02*
X92586141Y-69964391D01*
X92586141Y-76406391D02*
X92586141Y-74225391D01*
X92626141Y-72145391D02*
X92626141Y-69967391D01*
X92626141Y-76403391D02*
X92626141Y-74225391D01*
X92666141Y-72145391D02*
X92666141Y-69971391D01*
X92666141Y-76399391D02*
X92666141Y-74225391D01*
X92706141Y-72145391D02*
X92706141Y-69975391D01*
X92706141Y-76395391D02*
X92706141Y-74225391D01*
X92746141Y-72145391D02*
X92746141Y-69980391D01*
X92746141Y-76390391D02*
X92746141Y-74225391D01*
X92786141Y-72145391D02*
X92786141Y-69985391D01*
X92786141Y-76385391D02*
X92786141Y-74225391D01*
X92826141Y-72145391D02*
X92826141Y-69990391D01*
X92826141Y-76380391D02*
X92826141Y-74225391D01*
X92866141Y-72145391D02*
X92866141Y-69997391D01*
X92866141Y-76373391D02*
X92866141Y-74225391D01*
X92906141Y-72145391D02*
X92906141Y-70003391D01*
X92906141Y-76367391D02*
X92906141Y-74225391D01*
X92946141Y-72145391D02*
X92946141Y-70011391D01*
X92946141Y-76359391D02*
X92946141Y-74225391D01*
X92986141Y-72145391D02*
X92986141Y-70018391D01*
X92986141Y-76352391D02*
X92986141Y-74225391D01*
X93026141Y-72145391D02*
X93026141Y-70026391D01*
X93026141Y-76344391D02*
X93026141Y-74225391D01*
X93066141Y-72145391D02*
X93066141Y-70035391D01*
X93066141Y-76335391D02*
X93066141Y-74225391D01*
X93106141Y-72145391D02*
X93106141Y-70045391D01*
X93106141Y-76325391D02*
X93106141Y-74225391D01*
X93146141Y-72145391D02*
X93146141Y-70054391D01*
X93146141Y-76316391D02*
X93146141Y-74225391D01*
X93186141Y-72145391D02*
X93186141Y-70065391D01*
X93186141Y-76305391D02*
X93186141Y-74225391D01*
X93226141Y-72145391D02*
X93226141Y-70076391D01*
X93226141Y-76294391D02*
X93226141Y-74225391D01*
X93266141Y-72145391D02*
X93266141Y-70087391D01*
X93266141Y-76283391D02*
X93266141Y-74225391D01*
X93306141Y-72145391D02*
X93306141Y-70099391D01*
X93306141Y-76271391D02*
X93306141Y-74225391D01*
X93346141Y-72145391D02*
X93346141Y-70112391D01*
X93346141Y-76258391D02*
X93346141Y-74225391D01*
X93386141Y-72145391D02*
X93386141Y-70125391D01*
X93386141Y-76245391D02*
X93386141Y-74225391D01*
X93426141Y-72145391D02*
X93426141Y-70138391D01*
X93426141Y-76232391D02*
X93426141Y-74225391D01*
X93466141Y-72145391D02*
X93466141Y-70153391D01*
X93466141Y-76217391D02*
X93466141Y-74225391D01*
X93506141Y-72145391D02*
X93506141Y-70168391D01*
X93506141Y-76202391D02*
X93506141Y-74225391D01*
X93546141Y-72145391D02*
X93546141Y-70183391D01*
X93546141Y-76187391D02*
X93546141Y-74225391D01*
X93586141Y-72145391D02*
X93586141Y-70199391D01*
X93586141Y-76171391D02*
X93586141Y-74225391D01*
X93626141Y-72145391D02*
X93626141Y-70216391D01*
X93626141Y-76154391D02*
X93626141Y-74225391D01*
X93666141Y-72145391D02*
X93666141Y-70233391D01*
X93666141Y-76137391D02*
X93666141Y-74225391D01*
X93706141Y-72145391D02*
X93706141Y-70251391D01*
X93706141Y-76119391D02*
X93706141Y-74225391D01*
X93746141Y-72145391D02*
X93746141Y-70270391D01*
X93746141Y-76100391D02*
X93746141Y-74225391D01*
X93786141Y-72145391D02*
X93786141Y-70289391D01*
X93786141Y-76081391D02*
X93786141Y-74225391D01*
X93826141Y-72145391D02*
X93826141Y-70309391D01*
X93826141Y-76061391D02*
X93826141Y-74225391D01*
X93866141Y-72145391D02*
X93866141Y-70330391D01*
X93866141Y-76040391D02*
X93866141Y-74225391D01*
X93906141Y-72145391D02*
X93906141Y-70351391D01*
X93906141Y-76019391D02*
X93906141Y-74225391D01*
X93946141Y-72145391D02*
X93946141Y-70373391D01*
X93946141Y-75997391D02*
X93946141Y-74225391D01*
X93986141Y-72145391D02*
X93986141Y-70396391D01*
X93986141Y-75974391D02*
X93986141Y-74225391D01*
X94026141Y-72145391D02*
X94026141Y-70420391D01*
X94026141Y-75950391D02*
X94026141Y-74225391D01*
X94066141Y-72145391D02*
X94066141Y-70444391D01*
X94066141Y-75926391D02*
X94066141Y-74225391D01*
X94106141Y-72145391D02*
X94106141Y-70469391D01*
X94106141Y-75901391D02*
X94106141Y-74225391D01*
X94146141Y-72145391D02*
X94146141Y-70495391D01*
X94146141Y-75875391D02*
X94146141Y-74225391D01*
X94186141Y-72145391D02*
X94186141Y-70522391D01*
X94186141Y-75848391D02*
X94186141Y-74225391D01*
X94226141Y-72145391D02*
X94226141Y-70549391D01*
X94226141Y-75821391D02*
X94226141Y-74225391D01*
X94266141Y-72145391D02*
X94266141Y-70578391D01*
X94266141Y-75792391D02*
X94266141Y-74225391D01*
X94306141Y-72145391D02*
X94306141Y-70608391D01*
X94306141Y-75762391D02*
X94306141Y-74225391D01*
X94346141Y-72145391D02*
X94346141Y-70638391D01*
X94346141Y-75732391D02*
X94346141Y-74225391D01*
X94386141Y-72145391D02*
X94386141Y-70669391D01*
X94386141Y-75701391D02*
X94386141Y-74225391D01*
X94426141Y-72145391D02*
X94426141Y-70702391D01*
X94426141Y-75668391D02*
X94426141Y-74225391D01*
X94466141Y-72145391D02*
X94466141Y-70735391D01*
X94466141Y-75635391D02*
X94466141Y-74225391D01*
X94506141Y-72145391D02*
X94506141Y-70770391D01*
X94506141Y-75600391D02*
X94506141Y-74225391D01*
X94546141Y-72145391D02*
X94546141Y-70806391D01*
X94546141Y-75564391D02*
X94546141Y-74225391D01*
X94586141Y-72145391D02*
X94586141Y-70843391D01*
X94586141Y-75527391D02*
X94586141Y-74225391D01*
X94626141Y-72145391D02*
X94626141Y-70881391D01*
X94626141Y-75489391D02*
X94626141Y-74225391D01*
X94666141Y-75449391D02*
X94666141Y-70921391D01*
X94706141Y-75408391D02*
X94706141Y-70962391D01*
X94746141Y-75366391D02*
X94746141Y-71004391D01*
X94786141Y-75322391D02*
X94786141Y-71048391D01*
X94826141Y-75276391D02*
X94826141Y-71094391D01*
X94866141Y-75229391D02*
X94866141Y-71141391D01*
X94906141Y-75180391D02*
X94906141Y-71190391D01*
X94946141Y-75128391D02*
X94946141Y-71242391D01*
X94986141Y-75075391D02*
X94986141Y-71295391D01*
X95026141Y-75019391D02*
X95026141Y-71351391D01*
X95066141Y-74960391D02*
X95066141Y-71410391D01*
X95106141Y-74899391D02*
X95106141Y-71471391D01*
X95146141Y-74834391D02*
X95146141Y-71536391D01*
X95186141Y-74766391D02*
X95186141Y-71604391D01*
X95226141Y-74694391D02*
X95226141Y-71676391D01*
X95266141Y-74617391D02*
X95266141Y-71753391D01*
X95306141Y-74535391D02*
X95306141Y-71835391D01*
X95346141Y-74446391D02*
X95346141Y-71924391D01*
X95386141Y-74350391D02*
X95386141Y-72020391D01*
X95426141Y-74243391D02*
X95426141Y-72127391D01*
X95466141Y-74124391D02*
X95466141Y-72246391D01*
X95506141Y-73986391D02*
X95506141Y-72384391D01*
X95546141Y-73818391D02*
X95546141Y-72552391D01*
X95586141Y-73587391D02*
X95586141Y-72783391D01*
X95616141Y-73185391D02*
G75*
G02*
X89076141Y-73185391I-3270000J0D01*
G01*
X89076141Y-73185391D02*
G75*
G02*
X95616141Y-73185391I3270000J0D01*
G01*
%TO.C,C5*%
X175895268Y-95389391D02*
X177317772Y-95389391D01*
X175895268Y-97209391D02*
X177317772Y-97209391D01*
%TO.C,R3*%
X173860806Y-83943309D02*
X174302460Y-84574057D01*
X178495304Y-90562057D02*
X178053650Y-89931311D01*
X179175888Y-89145512D02*
X176931412Y-90717110D01*
X173180221Y-85359855D01*
X175424698Y-83788257D01*
X179175888Y-89145512D01*
D13*
%TO.C,U2*%
X88595520Y-115349391D02*
X88595520Y-114889391D01*
D14*
X88595520Y-115349391D02*
X90500520Y-115349391D01*
X94437520Y-115349391D02*
X92532520Y-115349391D01*
D13*
X94437520Y-115349391D02*
X94437520Y-114889391D01*
D14*
X90500520Y-115349391D02*
G75*
G02*
X92532520Y-115349391I1016000J0D01*
G01*
D12*
%TO.C,C9*%
X88845900Y-67912391D02*
X89475900Y-67912391D01*
X89160900Y-68227391D02*
X89160900Y-67597391D01*
X92346141Y-69303391D02*
X92346141Y-62843391D01*
X92386141Y-69303391D02*
X92386141Y-62843391D01*
X92426141Y-69302391D02*
X92426141Y-62844391D01*
X92466141Y-69301391D02*
X92466141Y-62845391D01*
X92506141Y-69299391D02*
X92506141Y-62847391D01*
X92546141Y-69297391D02*
X92546141Y-62849391D01*
X92586141Y-65033391D02*
X92586141Y-62852391D01*
X92586141Y-69294391D02*
X92586141Y-67113391D01*
X92626141Y-65033391D02*
X92626141Y-62855391D01*
X92626141Y-69291391D02*
X92626141Y-67113391D01*
X92666141Y-65033391D02*
X92666141Y-62859391D01*
X92666141Y-69287391D02*
X92666141Y-67113391D01*
X92706141Y-65033391D02*
X92706141Y-62863391D01*
X92706141Y-69283391D02*
X92706141Y-67113391D01*
X92746141Y-65033391D02*
X92746141Y-62868391D01*
X92746141Y-69278391D02*
X92746141Y-67113391D01*
X92786141Y-65033391D02*
X92786141Y-62873391D01*
X92786141Y-69273391D02*
X92786141Y-67113391D01*
X92826141Y-65033391D02*
X92826141Y-62878391D01*
X92826141Y-69268391D02*
X92826141Y-67113391D01*
X92866141Y-65033391D02*
X92866141Y-62885391D01*
X92866141Y-69261391D02*
X92866141Y-67113391D01*
X92906141Y-65033391D02*
X92906141Y-62891391D01*
X92906141Y-69255391D02*
X92906141Y-67113391D01*
X92946141Y-65033391D02*
X92946141Y-62899391D01*
X92946141Y-69247391D02*
X92946141Y-67113391D01*
X92986141Y-65033391D02*
X92986141Y-62906391D01*
X92986141Y-69240391D02*
X92986141Y-67113391D01*
X93026141Y-65033391D02*
X93026141Y-62914391D01*
X93026141Y-69232391D02*
X93026141Y-67113391D01*
X93066141Y-65033391D02*
X93066141Y-62923391D01*
X93066141Y-69223391D02*
X93066141Y-67113391D01*
X93106141Y-65033391D02*
X93106141Y-62933391D01*
X93106141Y-69213391D02*
X93106141Y-67113391D01*
X93146141Y-65033391D02*
X93146141Y-62942391D01*
X93146141Y-69204391D02*
X93146141Y-67113391D01*
X93186141Y-65033391D02*
X93186141Y-62953391D01*
X93186141Y-69193391D02*
X93186141Y-67113391D01*
X93226141Y-65033391D02*
X93226141Y-62964391D01*
X93226141Y-69182391D02*
X93226141Y-67113391D01*
X93266141Y-65033391D02*
X93266141Y-62975391D01*
X93266141Y-69171391D02*
X93266141Y-67113391D01*
X93306141Y-65033391D02*
X93306141Y-62987391D01*
X93306141Y-69159391D02*
X93306141Y-67113391D01*
X93346141Y-65033391D02*
X93346141Y-63000391D01*
X93346141Y-69146391D02*
X93346141Y-67113391D01*
X93386141Y-65033391D02*
X93386141Y-63013391D01*
X93386141Y-69133391D02*
X93386141Y-67113391D01*
X93426141Y-65033391D02*
X93426141Y-63026391D01*
X93426141Y-69120391D02*
X93426141Y-67113391D01*
X93466141Y-65033391D02*
X93466141Y-63041391D01*
X93466141Y-69105391D02*
X93466141Y-67113391D01*
X93506141Y-65033391D02*
X93506141Y-63056391D01*
X93506141Y-69090391D02*
X93506141Y-67113391D01*
X93546141Y-65033391D02*
X93546141Y-63071391D01*
X93546141Y-69075391D02*
X93546141Y-67113391D01*
X93586141Y-65033391D02*
X93586141Y-63087391D01*
X93586141Y-69059391D02*
X93586141Y-67113391D01*
X93626141Y-65033391D02*
X93626141Y-63104391D01*
X93626141Y-69042391D02*
X93626141Y-67113391D01*
X93666141Y-65033391D02*
X93666141Y-63121391D01*
X93666141Y-69025391D02*
X93666141Y-67113391D01*
X93706141Y-65033391D02*
X93706141Y-63139391D01*
X93706141Y-69007391D02*
X93706141Y-67113391D01*
X93746141Y-65033391D02*
X93746141Y-63158391D01*
X93746141Y-68988391D02*
X93746141Y-67113391D01*
X93786141Y-65033391D02*
X93786141Y-63177391D01*
X93786141Y-68969391D02*
X93786141Y-67113391D01*
X93826141Y-65033391D02*
X93826141Y-63197391D01*
X93826141Y-68949391D02*
X93826141Y-67113391D01*
X93866141Y-65033391D02*
X93866141Y-63218391D01*
X93866141Y-68928391D02*
X93866141Y-67113391D01*
X93906141Y-65033391D02*
X93906141Y-63239391D01*
X93906141Y-68907391D02*
X93906141Y-67113391D01*
X93946141Y-65033391D02*
X93946141Y-63261391D01*
X93946141Y-68885391D02*
X93946141Y-67113391D01*
X93986141Y-65033391D02*
X93986141Y-63284391D01*
X93986141Y-68862391D02*
X93986141Y-67113391D01*
X94026141Y-65033391D02*
X94026141Y-63308391D01*
X94026141Y-68838391D02*
X94026141Y-67113391D01*
X94066141Y-65033391D02*
X94066141Y-63332391D01*
X94066141Y-68814391D02*
X94066141Y-67113391D01*
X94106141Y-65033391D02*
X94106141Y-63357391D01*
X94106141Y-68789391D02*
X94106141Y-67113391D01*
X94146141Y-65033391D02*
X94146141Y-63383391D01*
X94146141Y-68763391D02*
X94146141Y-67113391D01*
X94186141Y-65033391D02*
X94186141Y-63410391D01*
X94186141Y-68736391D02*
X94186141Y-67113391D01*
X94226141Y-65033391D02*
X94226141Y-63437391D01*
X94226141Y-68709391D02*
X94226141Y-67113391D01*
X94266141Y-65033391D02*
X94266141Y-63466391D01*
X94266141Y-68680391D02*
X94266141Y-67113391D01*
X94306141Y-65033391D02*
X94306141Y-63496391D01*
X94306141Y-68650391D02*
X94306141Y-67113391D01*
X94346141Y-65033391D02*
X94346141Y-63526391D01*
X94346141Y-68620391D02*
X94346141Y-67113391D01*
X94386141Y-65033391D02*
X94386141Y-63557391D01*
X94386141Y-68589391D02*
X94386141Y-67113391D01*
X94426141Y-65033391D02*
X94426141Y-63590391D01*
X94426141Y-68556391D02*
X94426141Y-67113391D01*
X94466141Y-65033391D02*
X94466141Y-63623391D01*
X94466141Y-68523391D02*
X94466141Y-67113391D01*
X94506141Y-65033391D02*
X94506141Y-63658391D01*
X94506141Y-68488391D02*
X94506141Y-67113391D01*
X94546141Y-65033391D02*
X94546141Y-63694391D01*
X94546141Y-68452391D02*
X94546141Y-67113391D01*
X94586141Y-65033391D02*
X94586141Y-63731391D01*
X94586141Y-68415391D02*
X94586141Y-67113391D01*
X94626141Y-65033391D02*
X94626141Y-63769391D01*
X94626141Y-68377391D02*
X94626141Y-67113391D01*
X94666141Y-68337391D02*
X94666141Y-63809391D01*
X94706141Y-68296391D02*
X94706141Y-63850391D01*
X94746141Y-68254391D02*
X94746141Y-63892391D01*
X94786141Y-68210391D02*
X94786141Y-63936391D01*
X94826141Y-68164391D02*
X94826141Y-63982391D01*
X94866141Y-68117391D02*
X94866141Y-64029391D01*
X94906141Y-68068391D02*
X94906141Y-64078391D01*
X94946141Y-68016391D02*
X94946141Y-64130391D01*
X94986141Y-67963391D02*
X94986141Y-64183391D01*
X95026141Y-67907391D02*
X95026141Y-64239391D01*
X95066141Y-67848391D02*
X95066141Y-64298391D01*
X95106141Y-67787391D02*
X95106141Y-64359391D01*
X95146141Y-67722391D02*
X95146141Y-64424391D01*
X95186141Y-67654391D02*
X95186141Y-64492391D01*
X95226141Y-67582391D02*
X95226141Y-64564391D01*
X95266141Y-67505391D02*
X95266141Y-64641391D01*
X95306141Y-67423391D02*
X95306141Y-64723391D01*
X95346141Y-67334391D02*
X95346141Y-64812391D01*
X95386141Y-67238391D02*
X95386141Y-64908391D01*
X95426141Y-67131391D02*
X95426141Y-65015391D01*
X95466141Y-67012391D02*
X95466141Y-65134391D01*
X95506141Y-66874391D02*
X95506141Y-65272391D01*
X95546141Y-66706391D02*
X95546141Y-65440391D01*
X95586141Y-66475391D02*
X95586141Y-65671391D01*
X95616141Y-66073391D02*
G75*
G02*
X89076141Y-66073391I-3270000J0D01*
G01*
X89076141Y-66073391D02*
G75*
G02*
X95616141Y-66073391I3270000J0D01*
G01*
%TO.C,C7*%
X140644520Y-95588139D02*
X140644520Y-97010643D01*
X142464520Y-95588139D02*
X142464520Y-97010643D01*
%TO.C,R1*%
X149936520Y-83877391D02*
X149936520Y-84647391D01*
X149936520Y-91957391D02*
X149936520Y-91187391D01*
X148566520Y-84647391D02*
X151306520Y-84647391D01*
X151306520Y-91187391D01*
X148566520Y-91187391D01*
X148566520Y-84647391D01*
%TD*%
M02*
