%TF.GenerationSoftware,KiCad,Pcbnew,9.0.7*%
%TF.CreationDate,2026-03-10T16:35:04+01:00*%
%TF.ProjectId,Digitronove hodiny LV,44696769-7472-46f6-9e6f-766520686f64,rev?*%
%TF.SameCoordinates,Original*%
%TF.FileFunction,Soldermask,Bot*%
%TF.FilePolarity,Negative*%
%FSLAX46Y46*%
G04 Gerber Fmt 4.6, Leading zero omitted, Abs format (unit mm)*
G04 Created by KiCad (PCBNEW 9.0.7) date 2026-03-10 16:35:04*
%MOMM*%
%LPD*%
G01*
G04 APERTURE LIST*
G04 Aperture macros list*
%AMRoundRect*
0 Rectangle with rounded corners*
0 $1 Rounding radius*
0 $2 $3 $4 $5 $6 $7 $8 $9 X,Y pos of 4 corners*
0 Add a 4 corners polygon primitive as box body*
4,1,4,$2,$3,$4,$5,$6,$7,$8,$9,$2,$3,0*
0 Add four circle primitives for the rounded corners*
1,1,$1+$1,$2,$3*
1,1,$1+$1,$4,$5*
1,1,$1+$1,$6,$7*
1,1,$1+$1,$8,$9*
0 Add four rect primitives between the rounded corners*
20,1,$1+$1,$2,$3,$4,$5,0*
20,1,$1+$1,$4,$5,$6,$7,0*
20,1,$1+$1,$6,$7,$8,$9,0*
20,1,$1+$1,$8,$9,$2,$3,0*%
G04 Aperture macros list end*
%ADD10R,1.050000X1.500000*%
%ADD11O,1.500000X1.050000*%
%ADD12O,1.050000X1.500000*%
%ADD13O,2.845600X1.524800*%
%ADD14C,2.000000*%
%ADD15C,2.500000*%
%ADD16C,1.600000*%
%ADD17RoundRect,0.250000X-0.412500X-0.650000X0.412500X-0.650000X0.412500X0.650000X-0.412500X0.650000X0*%
%ADD18RoundRect,0.250000X0.412500X0.650000X-0.412500X0.650000X-0.412500X-0.650000X0.412500X-0.650000X0*%
%ADD19RoundRect,0.250000X0.750000X-0.750000X0.750000X0.750000X-0.750000X0.750000X-0.750000X-0.750000X0*%
%ADD20RoundRect,0.250000X-0.650000X0.412500X-0.650000X-0.412500X0.650000X-0.412500X0.650000X0.412500X0*%
%ADD21RoundRect,0.250000X-0.725000X0.600000X-0.725000X-0.600000X0.725000X-0.600000X0.725000X0.600000X0*%
%ADD22O,1.950000X1.700000*%
%ADD23RoundRect,0.250000X-0.600000X-0.750000X0.600000X-0.750000X0.600000X0.750000X-0.600000X0.750000X0*%
%ADD24O,1.700000X2.000000*%
%ADD25RoundRect,0.250000X-0.550000X-0.550000X0.550000X-0.550000X0.550000X0.550000X-0.550000X0.550000X0*%
G04 APERTURE END LIST*
D10*
%TO.C,Q1*%
X149936520Y-78287391D03*
D11*
X151206520Y-80537391D03*
D12*
X152436520Y-78237391D03*
%TD*%
D13*
%TO.C,U6*%
X112402442Y-104935391D03*
X112402442Y-102395391D03*
X112402442Y-99855391D03*
X112402442Y-97315391D03*
X112402442Y-94775391D03*
X112402442Y-92235391D03*
X112402442Y-89695391D03*
X112402442Y-87155391D03*
X104782442Y-87155391D03*
X104782442Y-89695391D03*
X104782442Y-92235391D03*
X104782442Y-94775391D03*
X104782442Y-97315391D03*
X104782442Y-99855391D03*
X104782442Y-102395391D03*
X104782442Y-104935391D03*
%TD*%
D14*
%TO.C,U7*%
X189074598Y-80108744D03*
X185883078Y-77184254D03*
X184226520Y-73184972D03*
X184415340Y-68860300D03*
X186414154Y-65020614D03*
X189848415Y-62385412D03*
X194074598Y-61448490D03*
X198300781Y-62385412D03*
X201735042Y-65020614D03*
X203733856Y-68860300D03*
X203922676Y-73184972D03*
X202266118Y-77184254D03*
X199074598Y-80108744D03*
%TD*%
D15*
%TO.C,H1*%
X86706520Y-59669391D03*
%TD*%
D16*
%TO.C,NE2*%
X150001408Y-67343391D03*
X152501408Y-67343391D03*
%TD*%
D14*
%TO.C,U10*%
X103338442Y-80067645D03*
X100146922Y-77143155D03*
X98490364Y-73143873D03*
X98679184Y-68819201D03*
X100677998Y-64979515D03*
X104112259Y-62344313D03*
X108338442Y-61407391D03*
X112564625Y-62344313D03*
X115998886Y-64979515D03*
X117997700Y-68819201D03*
X118186520Y-73143873D03*
X116529962Y-77143155D03*
X113338442Y-80067645D03*
%TD*%
D15*
%TO.C,H2*%
X215706520Y-59669391D03*
%TD*%
D16*
%TO.C,NE1*%
X152436520Y-73693391D03*
X149936520Y-73693391D03*
%TD*%
D13*
%TO.C,U3*%
X198079333Y-104961812D03*
X198079333Y-102421812D03*
X198079333Y-99881812D03*
X198079333Y-97341812D03*
X198079333Y-94801812D03*
X198079333Y-92261812D03*
X198079333Y-89721812D03*
X198079333Y-87181812D03*
X190459333Y-87181812D03*
X190459333Y-89721812D03*
X190459333Y-92261812D03*
X190459333Y-94801812D03*
X190459333Y-97341812D03*
X190459333Y-99881812D03*
X190459333Y-102421812D03*
X190459333Y-104961812D03*
%TD*%
%TO.C,U5*%
X138252520Y-104935391D03*
X138252520Y-102395391D03*
X138252520Y-99855391D03*
X138252520Y-97315391D03*
X138252520Y-94775391D03*
X138252520Y-92235391D03*
X138252520Y-89695391D03*
X138252520Y-87155391D03*
X130632520Y-87155391D03*
X130632520Y-89695391D03*
X130632520Y-92235391D03*
X130632520Y-94775391D03*
X130632520Y-97315391D03*
X130632520Y-99855391D03*
X130632520Y-102395391D03*
X130632520Y-104935391D03*
%TD*%
D15*
%TO.C,H3*%
X157206520Y-114669391D03*
%TD*%
D14*
%TO.C,U8*%
X163264287Y-80108744D03*
X160072767Y-77184254D03*
X158416209Y-73184972D03*
X158605029Y-68860300D03*
X160603843Y-65020614D03*
X164038104Y-62385412D03*
X168264287Y-61448490D03*
X172490470Y-62385412D03*
X175924731Y-65020614D03*
X177923545Y-68860300D03*
X178112365Y-73184972D03*
X176455807Y-77184254D03*
X173264287Y-80108744D03*
%TD*%
D13*
%TO.C,U4*%
X172288560Y-104955531D03*
X172288560Y-102415531D03*
X172288560Y-99875531D03*
X172288560Y-97335531D03*
X172288560Y-94795531D03*
X172288560Y-92255531D03*
X172288560Y-89715531D03*
X172288560Y-87175531D03*
X164668560Y-87175531D03*
X164668560Y-89715531D03*
X164668560Y-92255531D03*
X164668560Y-94795531D03*
X164668560Y-97335531D03*
X164668560Y-99875531D03*
X164668560Y-102415531D03*
X164668560Y-104955531D03*
%TD*%
D14*
%TO.C,U9*%
X129252000Y-80109163D03*
X126060480Y-77184673D03*
X124403922Y-73185391D03*
X124592742Y-68860719D03*
X126591556Y-65021033D03*
X130025817Y-62385831D03*
X134252000Y-61448909D03*
X138478183Y-62385831D03*
X141912444Y-65021033D03*
X143911258Y-68860719D03*
X144100078Y-73185391D03*
X142443520Y-77184673D03*
X139252000Y-80109163D03*
%TD*%
D16*
%TO.C,R8*%
X210134520Y-86139391D03*
X210134520Y-75979391D03*
%TD*%
D17*
%TO.C,C6*%
X201460020Y-94775391D03*
X204585020Y-94775391D03*
%TD*%
D18*
%TO.C,C3*%
X217031020Y-116365391D03*
X213906020Y-116365391D03*
%TD*%
D19*
%TO.C,C8*%
X212420520Y-71915391D03*
D14*
X212420520Y-66915391D03*
%TD*%
D16*
%TO.C,R2*%
X199114871Y-82987008D03*
X204942408Y-91309593D03*
%TD*%
D20*
%TO.C,C2*%
X99136520Y-111500891D03*
X99136520Y-114625891D03*
%TD*%
D21*
%TO.C,J2*%
X85928520Y-65685391D03*
D22*
X85928520Y-68185391D03*
X85928520Y-70685391D03*
X85928520Y-73185391D03*
X85928520Y-75685391D03*
X85928520Y-78185391D03*
X85928520Y-80685391D03*
X85928520Y-83185391D03*
X85928520Y-85685391D03*
%TD*%
D16*
%TO.C,R7*%
X146888520Y-77757391D03*
X146888520Y-87917391D03*
%TD*%
%TO.C,R5*%
X113333746Y-82897155D03*
X119161283Y-91219740D03*
%TD*%
%TO.C,R4*%
X139254690Y-82931116D03*
X145082227Y-91253701D03*
%TD*%
D23*
%TO.C,J1*%
X211658520Y-90457391D03*
D24*
X214158520Y-90457391D03*
%TD*%
D20*
%TO.C,C4*%
X116154520Y-94736891D03*
X116154520Y-97861891D03*
%TD*%
D16*
%TO.C,R6*%
X155524520Y-81059391D03*
X155524520Y-91219391D03*
%TD*%
%TO.C,R9*%
X214198520Y-86139391D03*
X214198520Y-75979391D03*
%TD*%
D13*
%TO.C,U1*%
X207848520Y-113825391D03*
X207848520Y-111285391D03*
X207848520Y-108745391D03*
X207848520Y-106205391D03*
X207848520Y-103665391D03*
X207848520Y-101125391D03*
X207848520Y-98585391D03*
X207848520Y-96045391D03*
X215468520Y-96045391D03*
X215468520Y-98585391D03*
X215468520Y-101125391D03*
X215468520Y-103665391D03*
X215468520Y-106205391D03*
X215468520Y-108745391D03*
X215468520Y-111285391D03*
X215468520Y-113825391D03*
%TD*%
D25*
%TO.C,C1*%
X91096141Y-73185391D03*
D16*
X93596141Y-73185391D03*
%TD*%
D17*
%TO.C,C5*%
X175044020Y-96299391D03*
X178169020Y-96299391D03*
%TD*%
D16*
%TO.C,R3*%
X173264287Y-83091391D03*
X179091824Y-91413976D03*
%TD*%
D13*
%TO.C,U2*%
X87706520Y-114079391D03*
X87706520Y-111539391D03*
X87706520Y-108999391D03*
X87706520Y-106459391D03*
X87706520Y-103919391D03*
X87706520Y-101379391D03*
X87706520Y-98839391D03*
X87706520Y-96299391D03*
X95326520Y-96299391D03*
X95326520Y-98839391D03*
X95326520Y-101379391D03*
X95326520Y-103919391D03*
X95326520Y-106459391D03*
X95326520Y-108999391D03*
X95326520Y-111539391D03*
X95326520Y-114079391D03*
%TD*%
D25*
%TO.C,C9*%
X91096141Y-66073391D03*
D16*
X93596141Y-66073391D03*
%TD*%
D20*
%TO.C,C7*%
X141554520Y-94736891D03*
X141554520Y-97861891D03*
%TD*%
D16*
%TO.C,R1*%
X149936520Y-82837391D03*
X149936520Y-92997391D03*
%TD*%
M02*
