%TF.GenerationSoftware,KiCad,Pcbnew,9.0.7*%
%TF.CreationDate,2026-03-10T16:35:04+01:00*%
%TF.ProjectId,Digitronove hodiny LV,44696769-7472-46f6-9e6f-766520686f64,rev?*%
%TF.SameCoordinates,Original*%
%TF.FileFunction,Legend,Top*%
%TF.FilePolarity,Positive*%
%FSLAX46Y46*%
G04 Gerber Fmt 4.6, Leading zero omitted, Abs format (unit mm)*
G04 Created by KiCad (PCBNEW 9.0.7) date 2026-03-10 16:35:04*
%MOMM*%
%LPD*%
G01*
G04 APERTURE LIST*
%ADD10C,0.000000*%
%ADD11C,0.150000*%
%ADD12C,0.100000*%
%ADD13C,0.120000*%
%ADD14C,0.152400*%
G04 APERTURE END LIST*
D10*
G36*
X153337029Y-88022580D02*
G01*
X153345125Y-88025841D01*
X153352783Y-88029180D01*
X153360025Y-88032603D01*
X153366872Y-88036119D01*
X153373345Y-88039733D01*
X153379467Y-88043452D01*
X153385259Y-88047284D01*
X153390742Y-88051235D01*
X153395939Y-88055312D01*
X153400870Y-88059522D01*
X153405557Y-88063872D01*
X153410023Y-88068368D01*
X153414288Y-88073017D01*
X153418374Y-88077827D01*
X153426095Y-88087954D01*
X153433360Y-88098805D01*
X153440342Y-88110433D01*
X153447213Y-88122893D01*
X153461313Y-88150530D01*
X153477043Y-88182154D01*
X153504645Y-88239508D01*
X153533125Y-88297741D01*
X153577209Y-88396786D01*
X153615166Y-88496781D01*
X153647136Y-88597620D01*
X153673256Y-88699200D01*
X153693664Y-88801415D01*
X153708499Y-88904161D01*
X153717898Y-89007334D01*
X153722000Y-89110828D01*
X153720944Y-89214539D01*
X153714867Y-89318363D01*
X153703908Y-89422194D01*
X153688204Y-89525928D01*
X153667895Y-89629461D01*
X153643117Y-89732687D01*
X153614011Y-89835502D01*
X153580712Y-89937802D01*
X153558997Y-89988728D01*
X153535641Y-90039454D01*
X153510677Y-90089862D01*
X153484138Y-90139832D01*
X153456057Y-90189246D01*
X153426467Y-90237985D01*
X153395401Y-90285930D01*
X153362893Y-90332963D01*
X153328975Y-90378963D01*
X153293680Y-90423813D01*
X153257042Y-90467394D01*
X153219093Y-90509587D01*
X153179867Y-90550273D01*
X153139396Y-90589333D01*
X153097714Y-90626648D01*
X153054853Y-90662099D01*
X153001936Y-90711391D01*
X152925131Y-90769338D01*
X152847449Y-90818578D01*
X152768863Y-90862888D01*
X152689347Y-90902419D01*
X152608872Y-90937322D01*
X152527411Y-90967747D01*
X152444936Y-90993847D01*
X152361422Y-91015770D01*
X152276839Y-91033670D01*
X152191161Y-91047697D01*
X152104361Y-91058001D01*
X152016410Y-91064734D01*
X151927282Y-91068047D01*
X151836950Y-91068091D01*
X151745385Y-91065016D01*
X151652561Y-91058974D01*
X151597516Y-91049279D01*
X151543460Y-91037317D01*
X151490322Y-91023235D01*
X151438032Y-91007184D01*
X151386519Y-90989310D01*
X151335711Y-90969762D01*
X151285539Y-90948688D01*
X151235930Y-90926237D01*
X151186814Y-90902556D01*
X151138120Y-90877793D01*
X151041716Y-90825617D01*
X150946149Y-90770894D01*
X150850853Y-90714809D01*
X150787405Y-90679058D01*
X150756237Y-90662703D01*
X150725287Y-90647472D01*
X150694442Y-90633450D01*
X150663590Y-90620719D01*
X150632615Y-90609362D01*
X150601406Y-90599462D01*
X150569847Y-90591103D01*
X150537827Y-90584369D01*
X150505231Y-90579341D01*
X150471946Y-90576104D01*
X150437858Y-90574740D01*
X150402855Y-90575334D01*
X150366821Y-90577967D01*
X150329645Y-90582724D01*
X150307008Y-90591200D01*
X150285548Y-90600002D01*
X150265187Y-90609196D01*
X150245848Y-90618848D01*
X150227452Y-90629023D01*
X150209921Y-90639787D01*
X150193179Y-90651208D01*
X150177145Y-90663350D01*
X150161743Y-90676280D01*
X150146895Y-90690064D01*
X150132522Y-90704767D01*
X150118547Y-90720456D01*
X150104891Y-90737197D01*
X150091477Y-90755056D01*
X150078226Y-90774098D01*
X150065061Y-90794391D01*
X150060257Y-90814294D01*
X150056015Y-90834102D01*
X150052305Y-90853833D01*
X150049096Y-90873505D01*
X150046357Y-90893138D01*
X150044060Y-90912750D01*
X150040663Y-90951989D01*
X150038663Y-90991372D01*
X150037816Y-91031049D01*
X150037877Y-91071172D01*
X150038603Y-91111891D01*
X149985686Y-91111891D01*
X149985686Y-91058974D01*
X149932770Y-91058974D01*
X149916073Y-91037982D01*
X149900159Y-91016904D01*
X149885055Y-90995696D01*
X149870784Y-90974316D01*
X149857374Y-90952721D01*
X149844850Y-90930866D01*
X149833239Y-90908709D01*
X149822564Y-90886207D01*
X149812854Y-90863316D01*
X149804132Y-90839993D01*
X149796425Y-90816194D01*
X149789760Y-90791877D01*
X149784160Y-90766998D01*
X149779654Y-90741514D01*
X149776265Y-90715382D01*
X149774020Y-90688557D01*
X149769059Y-90636984D01*
X149767571Y-90590692D01*
X149768414Y-90544768D01*
X149771542Y-90499256D01*
X149776909Y-90454201D01*
X149784469Y-90409647D01*
X149794175Y-90365639D01*
X149805982Y-90322220D01*
X149819842Y-90279435D01*
X149835711Y-90237328D01*
X149853540Y-90195944D01*
X149873286Y-90155327D01*
X149894900Y-90115521D01*
X149916264Y-90080016D01*
X150726520Y-90080016D01*
X150819744Y-90088801D01*
X150984963Y-90105971D01*
X151149432Y-90125619D01*
X151231475Y-90136651D01*
X151313439Y-90148639D01*
X151395360Y-90161694D01*
X151477275Y-90175928D01*
X151552934Y-90188208D01*
X151627743Y-90198240D01*
X151701737Y-90205843D01*
X151774950Y-90210834D01*
X151847417Y-90213030D01*
X151919171Y-90212250D01*
X151990247Y-90208312D01*
X152060679Y-90201032D01*
X152130501Y-90190229D01*
X152199748Y-90175720D01*
X152268454Y-90157323D01*
X152336652Y-90134856D01*
X152404378Y-90108137D01*
X152471665Y-90076983D01*
X152538548Y-90041211D01*
X152605061Y-90000641D01*
X152655291Y-89969221D01*
X152693610Y-89942454D01*
X152729961Y-89914422D01*
X152764479Y-89885177D01*
X152797299Y-89854773D01*
X152828556Y-89823261D01*
X152858384Y-89790694D01*
X152886918Y-89757125D01*
X152914294Y-89722606D01*
X152940646Y-89687190D01*
X152966109Y-89650929D01*
X152990818Y-89613875D01*
X153014907Y-89576081D01*
X153061768Y-89498484D01*
X153107770Y-89418558D01*
X153054853Y-89392099D01*
X153021156Y-89424540D01*
X152987881Y-89457418D01*
X152955018Y-89490709D01*
X152922561Y-89524391D01*
X152857520Y-89568391D01*
X152861263Y-89542991D01*
X152855235Y-89568391D01*
X152854031Y-89573463D01*
X152821957Y-89601402D01*
X152815651Y-89604246D01*
X152809522Y-89607505D01*
X152803379Y-89611288D01*
X152797031Y-89615704D01*
X152790289Y-89620864D01*
X152782960Y-89626877D01*
X152774854Y-89633852D01*
X152765780Y-89641898D01*
X152743968Y-89661644D01*
X152663830Y-89715153D01*
X152581025Y-89761539D01*
X152495809Y-89801336D01*
X152408439Y-89835076D01*
X152319172Y-89863293D01*
X152228264Y-89886522D01*
X152135974Y-89905296D01*
X152042557Y-89920149D01*
X151948270Y-89931615D01*
X151853370Y-89940226D01*
X151662761Y-89951023D01*
X151285491Y-89961858D01*
X151213340Y-89965701D01*
X151142428Y-89971465D01*
X151072462Y-89979278D01*
X151003148Y-89989268D01*
X150934190Y-90001562D01*
X150865296Y-90016290D01*
X150796170Y-90033579D01*
X150726520Y-90053558D01*
X150726520Y-90080016D01*
X149916264Y-90080016D01*
X149918337Y-90076570D01*
X149933586Y-90053558D01*
X149943550Y-90038520D01*
X149970494Y-90001413D01*
X149999122Y-89965295D01*
X150087573Y-89873030D01*
X150179740Y-89788837D01*
X150212578Y-89762516D01*
X150964645Y-89762516D01*
X151001710Y-89773035D01*
X151039848Y-89781690D01*
X151119023Y-89793666D01*
X151201527Y-89798972D01*
X151286722Y-89798137D01*
X151373967Y-89791689D01*
X151462623Y-89780154D01*
X151552048Y-89764062D01*
X151641603Y-89743940D01*
X151730648Y-89720316D01*
X151818543Y-89693717D01*
X151904647Y-89664673D01*
X151988321Y-89633711D01*
X152068924Y-89601359D01*
X152145816Y-89568144D01*
X152218357Y-89534595D01*
X152285908Y-89501240D01*
X152309918Y-89487123D01*
X152333489Y-89472640D01*
X152356646Y-89457795D01*
X152379414Y-89442590D01*
X152401818Y-89427030D01*
X152423885Y-89411118D01*
X152467105Y-89378250D01*
X152509276Y-89344012D01*
X152550601Y-89308432D01*
X152591281Y-89271535D01*
X152631520Y-89233349D01*
X152578603Y-89206891D01*
X152525686Y-89233349D01*
X152476520Y-89286266D01*
X152469126Y-89294864D01*
X152453450Y-89298756D01*
X152438150Y-89302938D01*
X152423184Y-89307400D01*
X152408512Y-89312133D01*
X152394090Y-89317128D01*
X152379877Y-89322377D01*
X152351910Y-89333598D01*
X152324276Y-89345726D01*
X152296640Y-89358688D01*
X152268666Y-89372413D01*
X152240019Y-89386828D01*
X152202305Y-89404098D01*
X152164510Y-89420402D01*
X152126623Y-89435805D01*
X152088629Y-89450367D01*
X152012266Y-89477220D01*
X151935315Y-89501460D01*
X151857669Y-89523587D01*
X151779221Y-89544098D01*
X151699863Y-89563492D01*
X151619488Y-89582268D01*
X151423114Y-89628812D01*
X151352278Y-89646432D01*
X151289443Y-89663102D01*
X151226937Y-89680933D01*
X151157084Y-89702037D01*
X150964645Y-89762516D01*
X150212578Y-89762516D01*
X150275403Y-89712159D01*
X150374342Y-89642439D01*
X150476338Y-89579121D01*
X150581171Y-89521649D01*
X150688622Y-89469465D01*
X150798470Y-89422014D01*
X150910497Y-89378738D01*
X151024483Y-89339082D01*
X151140208Y-89302489D01*
X151257452Y-89268403D01*
X151495621Y-89205523D01*
X151737233Y-89145990D01*
X151899522Y-89103544D01*
X152062358Y-89054616D01*
X152143365Y-89027317D01*
X152223770Y-88997912D01*
X152303325Y-88966240D01*
X152381785Y-88932138D01*
X152458903Y-88895446D01*
X152534432Y-88856001D01*
X152608126Y-88813641D01*
X152679738Y-88768205D01*
X152749022Y-88719530D01*
X152815732Y-88667456D01*
X152879620Y-88611820D01*
X152940441Y-88552461D01*
X152952109Y-88541408D01*
X152957034Y-88536936D01*
X152961524Y-88533101D01*
X152963646Y-88531408D01*
X152965708Y-88529856D01*
X152967725Y-88528438D01*
X152969715Y-88527150D01*
X152971692Y-88525984D01*
X152973673Y-88524934D01*
X152975675Y-88523995D01*
X152977713Y-88523160D01*
X152979803Y-88522423D01*
X152981962Y-88521778D01*
X152984205Y-88521219D01*
X152986549Y-88520740D01*
X152989010Y-88520334D01*
X152991604Y-88519996D01*
X152997255Y-88519497D01*
X153003630Y-88519195D01*
X153010859Y-88519040D01*
X153028395Y-88518974D01*
X153048135Y-88477013D01*
X153064443Y-88446328D01*
X153081253Y-88415976D01*
X153098495Y-88385903D01*
X153116102Y-88356056D01*
X153152134Y-88296825D01*
X153188798Y-88237855D01*
X153229532Y-88173185D01*
X153244053Y-88149660D01*
X153256718Y-88128546D01*
X153269058Y-88107246D01*
X153282604Y-88083164D01*
X153319436Y-88016266D01*
X153337029Y-88022580D01*
G37*
G36*
X151471832Y-87620342D02*
G01*
X151489679Y-87620917D01*
X151507167Y-87622048D01*
X151524371Y-87623774D01*
X151541367Y-87626132D01*
X151558233Y-87629161D01*
X151575043Y-87632898D01*
X151591874Y-87637380D01*
X151608803Y-87642647D01*
X151625906Y-87648735D01*
X151643259Y-87655682D01*
X151660938Y-87663528D01*
X151679020Y-87672308D01*
X151682275Y-87692100D01*
X151684601Y-87707861D01*
X151685415Y-87714715D01*
X151685996Y-87721142D01*
X151686345Y-87727337D01*
X151686461Y-87733493D01*
X151686345Y-87739804D01*
X151685996Y-87746463D01*
X151685415Y-87753666D01*
X151684601Y-87761605D01*
X151682275Y-87780466D01*
X151679020Y-87804599D01*
X151652665Y-87824882D01*
X151631891Y-87840670D01*
X151614838Y-87853201D01*
X151599645Y-87863717D01*
X151584452Y-87873458D01*
X151567399Y-87883664D01*
X151546625Y-87895576D01*
X151520270Y-87910433D01*
X151523286Y-87954439D01*
X151524779Y-87972649D01*
X151526415Y-87988796D01*
X151528313Y-88003228D01*
X151530587Y-88016293D01*
X151533355Y-88028342D01*
X151536732Y-88039722D01*
X151540835Y-88050782D01*
X151545780Y-88061872D01*
X151551683Y-88073340D01*
X151558661Y-88085534D01*
X151566830Y-88098804D01*
X151576306Y-88113499D01*
X151599645Y-88148558D01*
X151625972Y-88153704D01*
X151652279Y-88158025D01*
X151678596Y-88161672D01*
X151704950Y-88164794D01*
X151757885Y-88170059D01*
X151811312Y-88175016D01*
X151811312Y-88280849D01*
X151795490Y-88288195D01*
X151779558Y-88294505D01*
X151763519Y-88299839D01*
X151747375Y-88304257D01*
X151731130Y-88307817D01*
X151714788Y-88310579D01*
X151698352Y-88312602D01*
X151681825Y-88313945D01*
X151665210Y-88314667D01*
X151648511Y-88314827D01*
X151631730Y-88314485D01*
X151614872Y-88313700D01*
X151580936Y-88311035D01*
X151546728Y-88307308D01*
X151480435Y-88267866D01*
X151414437Y-88227933D01*
X151394980Y-88233681D01*
X151379783Y-88238436D01*
X151373394Y-88240636D01*
X151367605Y-88242819D01*
X151362261Y-88245065D01*
X151357207Y-88247450D01*
X151352287Y-88250052D01*
X151347348Y-88252948D01*
X151342233Y-88256216D01*
X151336788Y-88259934D01*
X151324286Y-88269028D01*
X151308603Y-88280849D01*
X151292972Y-88288172D01*
X151277140Y-88294629D01*
X151261124Y-88300245D01*
X151244941Y-88305042D01*
X151228609Y-88309045D01*
X151212145Y-88312277D01*
X151195566Y-88314760D01*
X151178889Y-88316519D01*
X151162131Y-88317577D01*
X151145310Y-88317957D01*
X151128443Y-88317682D01*
X151111548Y-88316776D01*
X151094640Y-88315262D01*
X151077738Y-88313164D01*
X151060859Y-88310505D01*
X151044020Y-88307308D01*
X151008764Y-88275598D01*
X150996435Y-88264156D01*
X150985987Y-88254003D01*
X150976178Y-88243899D01*
X150965769Y-88232603D01*
X150953518Y-88218875D01*
X150938186Y-88201474D01*
X150999991Y-88185971D01*
X151080400Y-88165094D01*
X151160395Y-88144630D01*
X151184308Y-88138618D01*
X151194173Y-88135963D01*
X151202883Y-88133397D01*
X151210614Y-88130807D01*
X151217547Y-88128083D01*
X151223858Y-88125115D01*
X151229727Y-88121793D01*
X151235332Y-88118005D01*
X151240851Y-88113642D01*
X151246462Y-88108592D01*
X151252343Y-88102746D01*
X151258674Y-88095993D01*
X151265633Y-88088221D01*
X151282145Y-88069183D01*
X151284627Y-88020812D01*
X151285248Y-88003448D01*
X151285455Y-87988151D01*
X151285248Y-87973062D01*
X151284627Y-87956319D01*
X151282145Y-87910433D01*
X151149853Y-87857516D01*
X151142539Y-87811318D01*
X151135698Y-87765045D01*
X151129319Y-87718705D01*
X151123395Y-87672308D01*
X151128402Y-87667610D01*
X151133649Y-87663276D01*
X151139121Y-87659290D01*
X151144809Y-87655638D01*
X151150698Y-87652303D01*
X151156777Y-87649272D01*
X151163034Y-87646530D01*
X151169457Y-87644060D01*
X151182751Y-87639880D01*
X151196561Y-87636613D01*
X151210791Y-87634138D01*
X151225343Y-87632334D01*
X151240120Y-87631082D01*
X151255024Y-87630261D01*
X151284826Y-87629433D01*
X151313969Y-87628886D01*
X151328051Y-87628418D01*
X151341676Y-87627659D01*
X151395316Y-87622853D01*
X151434751Y-87620712D01*
X151453548Y-87620287D01*
X151471832Y-87620342D01*
G37*
G36*
X151723151Y-89197951D02*
G01*
X151716227Y-89211439D01*
X151713268Y-89216961D01*
X151710542Y-89221825D01*
X151707972Y-89226147D01*
X151705478Y-89230042D01*
X151702985Y-89233627D01*
X151700414Y-89237018D01*
X151697688Y-89240332D01*
X151694729Y-89243684D01*
X151687805Y-89250971D01*
X151679020Y-89259808D01*
X151639335Y-89260421D01*
X151599644Y-89260635D01*
X151559954Y-89260434D01*
X151520270Y-89259808D01*
X151520270Y-89206891D01*
X151547959Y-89199477D01*
X151561164Y-89196330D01*
X151574046Y-89193533D01*
X151586685Y-89191066D01*
X151599158Y-89188911D01*
X151611543Y-89187049D01*
X151623918Y-89185463D01*
X151648951Y-89183039D01*
X151674882Y-89181492D01*
X151702336Y-89180673D01*
X151731936Y-89180433D01*
X151723151Y-89197951D01*
G37*
G36*
X152358463Y-87687162D02*
G01*
X152430098Y-87692483D01*
X152501067Y-87702234D01*
X152571324Y-87716353D01*
X152640826Y-87734779D01*
X152709526Y-87757450D01*
X152777381Y-87784306D01*
X152844346Y-87815284D01*
X152910376Y-87850324D01*
X152975427Y-87889365D01*
X153039453Y-87932344D01*
X153081311Y-87963349D01*
X153071163Y-87967253D01*
X153061077Y-87970694D01*
X153041070Y-87976253D01*
X153021260Y-87980163D01*
X153001615Y-87982557D01*
X152982102Y-87983569D01*
X152962690Y-87983333D01*
X152943347Y-87981984D01*
X152924041Y-87979655D01*
X152904741Y-87976480D01*
X152885414Y-87972594D01*
X152846555Y-87963225D01*
X152767119Y-87941852D01*
X152661871Y-87918349D01*
X152556411Y-87898600D01*
X152450700Y-87882106D01*
X152344704Y-87868372D01*
X152238387Y-87856897D01*
X152131712Y-87847185D01*
X151917145Y-87831058D01*
X151917145Y-87751683D01*
X151991844Y-87729140D01*
X152066144Y-87711395D01*
X152140001Y-87698386D01*
X152213369Y-87690052D01*
X152286205Y-87686331D01*
X152358463Y-87687162D01*
G37*
G36*
X153059897Y-84973177D02*
G01*
X153086901Y-85052650D01*
X153109523Y-85132551D01*
X153127879Y-85212829D01*
X153142086Y-85293433D01*
X153152258Y-85374313D01*
X153158512Y-85455418D01*
X153160965Y-85536697D01*
X153159732Y-85618100D01*
X153154929Y-85699576D01*
X153146672Y-85781074D01*
X153135077Y-85862544D01*
X153120261Y-85943935D01*
X153102340Y-86025196D01*
X153081428Y-86106277D01*
X153057643Y-86187127D01*
X153050817Y-86211531D01*
X153044631Y-86234993D01*
X153039219Y-86257868D01*
X153034713Y-86280511D01*
X153032841Y-86291856D01*
X153031245Y-86303276D01*
X153029941Y-86314815D01*
X153028947Y-86326517D01*
X153028279Y-86338428D01*
X153027953Y-86350590D01*
X153027986Y-86363049D01*
X153028395Y-86375849D01*
X153035465Y-86387273D01*
X153042674Y-86398331D01*
X153050026Y-86409057D01*
X153057526Y-86419485D01*
X153065176Y-86429647D01*
X153072981Y-86439578D01*
X153080945Y-86449310D01*
X153089071Y-86458876D01*
X153105824Y-86477647D01*
X153123273Y-86496157D01*
X153141447Y-86514674D01*
X153160376Y-86533463D01*
X153200498Y-86576920D01*
X153238208Y-86623188D01*
X153273495Y-86672010D01*
X153306351Y-86723130D01*
X153336765Y-86776291D01*
X153364726Y-86831235D01*
X153390224Y-86887706D01*
X153413250Y-86945448D01*
X153433794Y-87004203D01*
X153451844Y-87063715D01*
X153467391Y-87123726D01*
X153480425Y-87183981D01*
X153490936Y-87244223D01*
X153498914Y-87304194D01*
X153504348Y-87363637D01*
X153507228Y-87422297D01*
X153506298Y-87521826D01*
X153505575Y-87622388D01*
X153504645Y-87698766D01*
X153425270Y-87698766D01*
X153379982Y-87632031D01*
X153334939Y-87565131D01*
X153315009Y-87541870D01*
X153293916Y-87519574D01*
X153271742Y-87498230D01*
X153248571Y-87477827D01*
X153224483Y-87458352D01*
X153199561Y-87439793D01*
X153173888Y-87422137D01*
X153147545Y-87405374D01*
X153120615Y-87389489D01*
X153093179Y-87374472D01*
X153065321Y-87360309D01*
X153037122Y-87346989D01*
X153008664Y-87334500D01*
X152980030Y-87322828D01*
X152951302Y-87311963D01*
X152922561Y-87301891D01*
X152816728Y-87301891D01*
X152887835Y-87346540D01*
X152915450Y-87365740D01*
X152941809Y-87385330D01*
X152966974Y-87405354D01*
X152991006Y-87425857D01*
X153013968Y-87446882D01*
X153035922Y-87468473D01*
X153056929Y-87490675D01*
X153077051Y-87513531D01*
X153096351Y-87537086D01*
X153114889Y-87561383D01*
X153132728Y-87586467D01*
X153149930Y-87612381D01*
X153166557Y-87639170D01*
X153182670Y-87666877D01*
X153198331Y-87695547D01*
X153213603Y-87725224D01*
X153213603Y-87804599D01*
X153160686Y-87804599D01*
X153104462Y-87745068D01*
X153073318Y-87716683D01*
X153041841Y-87690760D01*
X153009979Y-87667206D01*
X152977680Y-87645928D01*
X152944894Y-87626835D01*
X152911569Y-87609832D01*
X152877654Y-87594828D01*
X152843096Y-87581730D01*
X152807846Y-87570445D01*
X152771851Y-87560881D01*
X152735060Y-87552944D01*
X152697421Y-87546542D01*
X152658884Y-87541584D01*
X152619396Y-87537974D01*
X152578907Y-87535623D01*
X152537365Y-87534435D01*
X152435304Y-87532161D01*
X152355451Y-87530631D01*
X152275592Y-87529397D01*
X152198115Y-87527977D01*
X152120647Y-87526167D01*
X152027377Y-87524578D01*
X152010815Y-87522171D01*
X151995087Y-87519414D01*
X151980101Y-87516289D01*
X151965767Y-87512779D01*
X151951992Y-87508866D01*
X151938687Y-87504532D01*
X151925758Y-87499760D01*
X151913116Y-87494532D01*
X151900668Y-87488830D01*
X151888323Y-87482638D01*
X151875991Y-87475936D01*
X151863579Y-87468709D01*
X151850996Y-87460937D01*
X151838152Y-87452604D01*
X151811312Y-87434183D01*
X151784853Y-87566474D01*
X151731936Y-87566474D01*
X151715983Y-87539557D01*
X151702043Y-87513051D01*
X151689977Y-87486864D01*
X151679647Y-87460903D01*
X151670917Y-87435075D01*
X151663648Y-87409288D01*
X151657702Y-87383448D01*
X151652941Y-87357463D01*
X151649228Y-87331240D01*
X151646424Y-87304687D01*
X151644392Y-87277709D01*
X151642994Y-87250215D01*
X151641549Y-87193307D01*
X151641327Y-87169599D01*
X151837770Y-87169599D01*
X151837770Y-87248975D01*
X151890686Y-87248975D01*
X151890686Y-87301891D01*
X151909100Y-87307805D01*
X151927339Y-87313198D01*
X151945435Y-87318060D01*
X151963417Y-87322381D01*
X151981318Y-87326151D01*
X151999168Y-87329360D01*
X152016999Y-87331997D01*
X152034842Y-87334053D01*
X152052727Y-87335517D01*
X152070686Y-87336379D01*
X152088750Y-87336630D01*
X152106949Y-87336258D01*
X152125316Y-87335255D01*
X152143881Y-87333609D01*
X152162674Y-87331311D01*
X152181728Y-87328350D01*
X152198808Y-87318557D01*
X152215069Y-87308589D01*
X152230529Y-87298384D01*
X152245205Y-87287882D01*
X152259117Y-87277022D01*
X152272283Y-87265744D01*
X152284721Y-87253988D01*
X152296449Y-87241693D01*
X152307487Y-87228799D01*
X152317851Y-87215245D01*
X152327561Y-87200971D01*
X152336635Y-87185917D01*
X152345091Y-87170021D01*
X152352948Y-87153224D01*
X152360223Y-87135464D01*
X152366936Y-87116683D01*
X152368024Y-87089000D01*
X152368652Y-87061300D01*
X152368835Y-87033592D01*
X152368590Y-87005889D01*
X152366936Y-86905016D01*
X152314020Y-86905016D01*
X152309576Y-86909693D01*
X152305468Y-86914485D01*
X152301683Y-86919388D01*
X152298206Y-86924399D01*
X152295023Y-86929512D01*
X152292120Y-86934724D01*
X152289483Y-86940029D01*
X152287097Y-86945423D01*
X152283023Y-86956461D01*
X152279787Y-86967802D01*
X152277273Y-86979410D01*
X152275370Y-86991250D01*
X152273965Y-87003286D01*
X152272943Y-87015482D01*
X152271600Y-87040211D01*
X152270435Y-87065151D01*
X152269637Y-87077612D01*
X152268545Y-87090018D01*
X152266037Y-87107708D01*
X152263829Y-87121970D01*
X152262714Y-87128301D01*
X152261524Y-87134357D01*
X152260212Y-87140333D01*
X152258726Y-87146423D01*
X152257017Y-87152820D01*
X152255036Y-87159718D01*
X152250057Y-87175797D01*
X152243392Y-87196212D01*
X152234645Y-87222516D01*
X152155699Y-87235108D01*
X152095045Y-87243959D01*
X152070307Y-87246940D01*
X152048615Y-87248936D01*
X152029462Y-87249928D01*
X152012339Y-87249901D01*
X151996737Y-87248837D01*
X151982147Y-87246720D01*
X151968060Y-87243532D01*
X151953969Y-87239257D01*
X151939364Y-87233877D01*
X151923736Y-87227375D01*
X151887379Y-87210941D01*
X151837770Y-87169599D01*
X151641327Y-87169599D01*
X151640986Y-87133219D01*
X151638353Y-87064459D01*
X151635087Y-87010849D01*
X151634229Y-86996762D01*
X151628557Y-86930042D01*
X151625790Y-86905016D01*
X152049436Y-86905016D01*
X152049436Y-87010849D01*
X152128811Y-87010849D01*
X152128811Y-86905016D01*
X152049436Y-86905016D01*
X151625790Y-86905016D01*
X151621279Y-86864209D01*
X151612338Y-86799176D01*
X151601678Y-86734853D01*
X151589242Y-86671152D01*
X151588279Y-86666891D01*
X151582302Y-86640433D01*
X152181728Y-86640433D01*
X152181728Y-86666891D01*
X152419853Y-86666891D01*
X152419853Y-86640433D01*
X152181728Y-86640433D01*
X151582302Y-86640433D01*
X151574972Y-86607985D01*
X151558812Y-86545264D01*
X151540705Y-86482900D01*
X151520594Y-86420805D01*
X151498421Y-86358890D01*
X151474130Y-86297067D01*
X151447664Y-86235248D01*
X151418966Y-86173344D01*
X151387978Y-86111266D01*
X151333201Y-86276527D01*
X151320485Y-86313723D01*
X151307489Y-86350822D01*
X151294223Y-86387827D01*
X151280698Y-86424735D01*
X151265607Y-86468328D01*
X151251909Y-86511588D01*
X151239555Y-86554586D01*
X151228493Y-86597391D01*
X151218672Y-86640076D01*
X151210041Y-86682708D01*
X151202549Y-86725359D01*
X151196145Y-86768099D01*
X151190779Y-86810998D01*
X151186398Y-86854127D01*
X151182952Y-86897555D01*
X151180391Y-86941352D01*
X151177716Y-87030337D01*
X151177965Y-87121644D01*
X151177568Y-87181431D01*
X151176450Y-87210883D01*
X151174622Y-87240040D01*
X151172009Y-87268901D01*
X151168538Y-87297464D01*
X151164136Y-87325728D01*
X151158729Y-87353692D01*
X151152244Y-87381356D01*
X151144607Y-87408717D01*
X151135744Y-87435775D01*
X151125583Y-87462528D01*
X151114049Y-87488976D01*
X151101069Y-87515117D01*
X151086570Y-87540950D01*
X151070478Y-87566474D01*
X150991103Y-87540016D01*
X151017562Y-87434183D01*
X150951415Y-87470563D01*
X150932408Y-87479167D01*
X150913571Y-87487262D01*
X150876262Y-87502061D01*
X150839195Y-87515238D01*
X150802073Y-87527069D01*
X150764603Y-87537831D01*
X150726488Y-87547802D01*
X150687434Y-87557257D01*
X150647145Y-87566474D01*
X150779436Y-87619391D01*
X150752978Y-87672308D01*
X150706489Y-87678729D01*
X150689101Y-87680883D01*
X150672906Y-87682592D01*
X150655867Y-87684048D01*
X150635950Y-87685447D01*
X150579345Y-87688844D01*
X150483330Y-87694839D01*
X150409020Y-87698766D01*
X150478680Y-87702694D01*
X150571077Y-87708688D01*
X150662234Y-87714269D01*
X150695203Y-87718825D01*
X150727140Y-87724380D01*
X150758306Y-87730924D01*
X150788963Y-87738448D01*
X150819372Y-87746941D01*
X150849795Y-87756394D01*
X150880494Y-87766798D01*
X150911728Y-87778141D01*
X150885270Y-87831058D01*
X150833552Y-87837582D01*
X150782036Y-87843258D01*
X150730460Y-87848208D01*
X150678564Y-87852555D01*
X150640510Y-87856557D01*
X150603193Y-87861315D01*
X150566543Y-87866846D01*
X150530486Y-87873165D01*
X150494952Y-87880288D01*
X150459868Y-87888231D01*
X150425163Y-87897010D01*
X150390763Y-87906641D01*
X150356599Y-87917140D01*
X150322597Y-87928522D01*
X150288686Y-87940804D01*
X150254794Y-87954002D01*
X150220849Y-87968131D01*
X150186780Y-87983208D01*
X150152513Y-87999247D01*
X150117978Y-88016266D01*
X150169551Y-87994045D01*
X150215305Y-87976401D01*
X150260942Y-87960233D01*
X150306504Y-87945581D01*
X150352035Y-87932482D01*
X150397578Y-87920976D01*
X150443176Y-87911099D01*
X150488874Y-87902892D01*
X150534713Y-87896391D01*
X150580737Y-87891635D01*
X150626990Y-87888663D01*
X150673514Y-87887513D01*
X150720354Y-87888223D01*
X150767552Y-87890832D01*
X150815151Y-87895378D01*
X150863196Y-87901898D01*
X150911728Y-87910433D01*
X150911728Y-87963349D01*
X150810132Y-87987637D01*
X150699085Y-88015151D01*
X150611918Y-88037753D01*
X150574949Y-88048093D01*
X150541140Y-88058261D01*
X150509556Y-88068609D01*
X150479259Y-88079489D01*
X150449315Y-88091254D01*
X150418786Y-88104255D01*
X150386736Y-88118844D01*
X150352228Y-88135373D01*
X150272095Y-88175660D01*
X150170895Y-88227933D01*
X150222468Y-88201784D01*
X150312801Y-88159182D01*
X150405428Y-88118915D01*
X150452501Y-88100307D01*
X150500025Y-88083061D01*
X150547959Y-88067439D01*
X150596263Y-88053699D01*
X150644896Y-88042101D01*
X150693816Y-88032906D01*
X150742984Y-88026372D01*
X150792359Y-88022760D01*
X150841898Y-88022330D01*
X150891563Y-88025340D01*
X150941312Y-88032052D01*
X150991103Y-88042725D01*
X150991103Y-88095641D01*
X150752978Y-88148558D01*
X150776299Y-88180770D01*
X150800717Y-88211460D01*
X150826225Y-88240632D01*
X150852811Y-88268290D01*
X150880466Y-88294440D01*
X150909181Y-88319084D01*
X150938946Y-88342229D01*
X150969751Y-88363877D01*
X151001587Y-88384033D01*
X151034444Y-88402703D01*
X151068312Y-88419889D01*
X151103181Y-88435597D01*
X151139043Y-88449831D01*
X151175886Y-88462595D01*
X151213703Y-88473893D01*
X151252482Y-88483731D01*
X151293718Y-88487824D01*
X151333651Y-88490207D01*
X151372429Y-88490910D01*
X151410196Y-88489960D01*
X151447099Y-88487387D01*
X151483285Y-88483221D01*
X151518898Y-88477488D01*
X151554085Y-88470220D01*
X151588992Y-88461443D01*
X151623766Y-88451188D01*
X151658551Y-88439484D01*
X151693494Y-88426358D01*
X151728742Y-88411840D01*
X151764440Y-88395960D01*
X151800734Y-88378745D01*
X151837770Y-88360224D01*
X151917145Y-88360224D01*
X151902380Y-88390803D01*
X151886336Y-88419620D01*
X151869040Y-88446762D01*
X151850522Y-88472314D01*
X151830810Y-88496361D01*
X151809934Y-88518989D01*
X151787921Y-88540283D01*
X151764801Y-88560328D01*
X151740602Y-88579210D01*
X151715353Y-88597015D01*
X151689083Y-88613827D01*
X151661820Y-88629733D01*
X151633594Y-88644816D01*
X151604433Y-88659164D01*
X151574365Y-88672861D01*
X151543421Y-88685993D01*
X151518124Y-88695273D01*
X151492992Y-88703897D01*
X151467987Y-88711879D01*
X151443069Y-88719232D01*
X151418198Y-88725971D01*
X151393337Y-88732110D01*
X151368445Y-88737664D01*
X151343485Y-88742645D01*
X151318416Y-88747069D01*
X151293200Y-88750950D01*
X151267797Y-88754301D01*
X151242169Y-88757137D01*
X151190082Y-88761320D01*
X151136624Y-88763611D01*
X151052772Y-88766117D01*
X150964645Y-88768675D01*
X150791117Y-88777327D01*
X150706428Y-88783748D01*
X150623022Y-88791932D01*
X150540824Y-88802152D01*
X150459756Y-88814684D01*
X150379744Y-88829802D01*
X150300712Y-88847780D01*
X150222584Y-88868893D01*
X150145284Y-88893416D01*
X150068737Y-88921622D01*
X149992867Y-88953786D01*
X149917599Y-88990183D01*
X149842856Y-89031088D01*
X149768563Y-89076774D01*
X149694645Y-89127516D01*
X149657000Y-89169519D01*
X149644075Y-89184412D01*
X149633428Y-89197300D01*
X149623818Y-89209734D01*
X149614006Y-89223263D01*
X149602750Y-89239437D01*
X149588812Y-89259808D01*
X149535895Y-89259808D01*
X149509436Y-89365641D01*
X149456520Y-89365641D01*
X149435022Y-89430133D01*
X149409647Y-89505483D01*
X149396655Y-89543053D01*
X149383346Y-89580511D01*
X149366766Y-89629665D01*
X149352036Y-89678162D01*
X149339072Y-89726339D01*
X149327788Y-89774532D01*
X149318101Y-89823076D01*
X149309926Y-89872309D01*
X149303177Y-89922566D01*
X149297770Y-89974183D01*
X149244853Y-89974183D01*
X149207546Y-89856452D01*
X149175362Y-89739509D01*
X149148412Y-89623288D01*
X149126806Y-89507725D01*
X149110653Y-89392754D01*
X149100063Y-89278311D01*
X149095145Y-89164330D01*
X149096009Y-89050746D01*
X149102765Y-88937493D01*
X149115522Y-88824508D01*
X149134389Y-88711725D01*
X149159478Y-88599078D01*
X149190896Y-88486503D01*
X149228754Y-88373935D01*
X149273162Y-88261308D01*
X149324228Y-88148558D01*
X149368567Y-88096468D01*
X149377733Y-88081427D01*
X149385530Y-88066597D01*
X149392062Y-88051922D01*
X149397430Y-88037349D01*
X149401737Y-88022825D01*
X149405087Y-88008296D01*
X149407583Y-87993708D01*
X149409326Y-87979007D01*
X149410421Y-87964140D01*
X149410970Y-87949053D01*
X149411077Y-87933692D01*
X149410843Y-87918004D01*
X149408564Y-87850901D01*
X149406394Y-87749616D01*
X149403603Y-87672308D01*
X149324228Y-87725224D01*
X149319541Y-87720197D01*
X149315256Y-87714914D01*
X149311357Y-87709387D01*
X149307828Y-87703631D01*
X149304652Y-87697659D01*
X149301811Y-87691484D01*
X149299290Y-87685120D01*
X149297072Y-87678580D01*
X149293476Y-87665025D01*
X149290890Y-87650927D01*
X149289180Y-87636393D01*
X149288213Y-87621530D01*
X149287854Y-87606445D01*
X149287970Y-87591245D01*
X149289093Y-87560930D01*
X149290511Y-87531441D01*
X149290997Y-87517275D01*
X149291155Y-87503636D01*
X149292455Y-87442453D01*
X149296015Y-87382347D01*
X149301798Y-87323245D01*
X149309768Y-87265078D01*
X149319886Y-87207772D01*
X149332115Y-87151259D01*
X149346419Y-87095465D01*
X149362760Y-87040320D01*
X149381101Y-86985753D01*
X149388528Y-86965975D01*
X150433366Y-86965975D01*
X150433377Y-86993939D01*
X150434263Y-87020478D01*
X150436147Y-87045783D01*
X150439151Y-87070043D01*
X150443399Y-87093448D01*
X150449013Y-87116188D01*
X150456117Y-87138452D01*
X150464832Y-87160431D01*
X150475282Y-87182314D01*
X150487589Y-87204290D01*
X150501876Y-87226550D01*
X150518267Y-87249284D01*
X150536883Y-87272681D01*
X150557848Y-87296930D01*
X150576179Y-87305516D01*
X150594481Y-87312960D01*
X150612775Y-87319318D01*
X150631081Y-87324644D01*
X150649417Y-87328994D01*
X150667804Y-87332425D01*
X150686261Y-87334991D01*
X150704809Y-87336748D01*
X150723467Y-87337752D01*
X150742255Y-87338058D01*
X150761192Y-87337722D01*
X150780298Y-87336798D01*
X150799593Y-87335344D01*
X150819098Y-87333414D01*
X150858811Y-87328350D01*
X150880887Y-87316755D01*
X150897954Y-87307499D01*
X150904997Y-87303457D01*
X150911253Y-87299651D01*
X150916878Y-87295964D01*
X150922026Y-87292281D01*
X150926851Y-87288484D01*
X150931511Y-87284458D01*
X150936158Y-87280087D01*
X150940949Y-87275253D01*
X150946038Y-87269841D01*
X150951580Y-87263735D01*
X150964645Y-87248975D01*
X150938186Y-87169599D01*
X150883616Y-87210941D01*
X150865228Y-87219507D01*
X150847775Y-87226746D01*
X150831114Y-87232716D01*
X150815099Y-87237480D01*
X150799586Y-87241096D01*
X150784431Y-87243627D01*
X150769488Y-87245131D01*
X150754612Y-87245671D01*
X150739660Y-87245307D01*
X150724486Y-87244098D01*
X150708946Y-87242106D01*
X150692895Y-87239392D01*
X150676188Y-87236015D01*
X150658681Y-87232036D01*
X150620687Y-87222516D01*
X150610308Y-87214540D01*
X150600783Y-87206917D01*
X150592059Y-87199553D01*
X150584083Y-87192349D01*
X150576803Y-87185210D01*
X150570168Y-87178039D01*
X150564125Y-87170739D01*
X150558621Y-87163214D01*
X150553606Y-87155367D01*
X150549026Y-87147101D01*
X150544829Y-87138319D01*
X150540964Y-87128926D01*
X150537378Y-87118824D01*
X150534019Y-87107917D01*
X150530834Y-87096108D01*
X150527772Y-87083300D01*
X150523121Y-87019118D01*
X150522449Y-87010849D01*
X150517850Y-86954316D01*
X150514853Y-86905016D01*
X150752978Y-86905016D01*
X150752978Y-87010849D01*
X150832353Y-86984391D01*
X150805895Y-86905016D01*
X150752978Y-86905016D01*
X150514853Y-86905016D01*
X150435478Y-86905016D01*
X150434107Y-86936398D01*
X150433366Y-86965975D01*
X149388528Y-86965975D01*
X149401404Y-86931692D01*
X149423633Y-86878066D01*
X149447749Y-86824805D01*
X149473717Y-86771836D01*
X149501498Y-86719089D01*
X149515963Y-86693349D01*
X150276728Y-86693349D01*
X150594228Y-86666891D01*
X150594228Y-86640433D01*
X150537184Y-86638560D01*
X150480126Y-86637125D01*
X150415945Y-86635265D01*
X150393573Y-86635701D01*
X150384245Y-86636097D01*
X150375883Y-86636726D01*
X150368285Y-86637671D01*
X150361246Y-86639019D01*
X150357872Y-86639871D01*
X150354561Y-86640855D01*
X150351289Y-86641982D01*
X150348028Y-86643263D01*
X150344754Y-86644708D01*
X150341442Y-86646329D01*
X150334599Y-86650137D01*
X150327295Y-86654773D01*
X150319327Y-86660322D01*
X150310490Y-86666869D01*
X150300580Y-86674500D01*
X150276728Y-86693349D01*
X149515963Y-86693349D01*
X149531056Y-86666492D01*
X149562353Y-86613974D01*
X149592814Y-86584458D01*
X149623629Y-86555307D01*
X149654813Y-86526551D01*
X149686377Y-86498219D01*
X149705252Y-86480766D01*
X149713006Y-86473435D01*
X149719810Y-86466797D01*
X149725791Y-86460671D01*
X149731079Y-86454878D01*
X149735800Y-86449239D01*
X149740084Y-86443576D01*
X149744059Y-86437708D01*
X149747854Y-86431456D01*
X149751597Y-86424641D01*
X149755415Y-86417084D01*
X149759439Y-86408606D01*
X149763795Y-86399027D01*
X149774020Y-86375849D01*
X149771488Y-86351253D01*
X149768426Y-86327002D01*
X149764857Y-86303059D01*
X149760806Y-86279387D01*
X149751359Y-86232706D01*
X149740284Y-86186662D01*
X149727779Y-86140954D01*
X149714044Y-86095285D01*
X149699277Y-86049356D01*
X149683677Y-86002868D01*
X149666730Y-85941803D01*
X149652909Y-85879337D01*
X149642095Y-85815679D01*
X149634170Y-85751034D01*
X149629014Y-85685610D01*
X149626509Y-85619612D01*
X149626536Y-85553248D01*
X149628976Y-85486724D01*
X149633710Y-85420246D01*
X149640620Y-85354022D01*
X149649586Y-85288257D01*
X149660489Y-85223158D01*
X149673211Y-85158933D01*
X149687634Y-85095786D01*
X149703637Y-85033926D01*
X149721103Y-84973558D01*
X149774020Y-84894183D01*
X149834435Y-84908627D01*
X149893519Y-84924552D01*
X149951344Y-84941983D01*
X150007981Y-84960948D01*
X150063499Y-84981471D01*
X150117971Y-85003579D01*
X150171467Y-85027297D01*
X150224057Y-85052652D01*
X150275813Y-85079669D01*
X150326805Y-85108375D01*
X150377104Y-85138795D01*
X150426781Y-85170955D01*
X150475907Y-85204881D01*
X150524553Y-85240599D01*
X150572789Y-85278136D01*
X150620687Y-85317516D01*
X150670606Y-85356790D01*
X150684563Y-85367990D01*
X150698394Y-85379347D01*
X150712111Y-85390843D01*
X150725727Y-85402462D01*
X150752707Y-85425995D01*
X150779436Y-85449808D01*
X150779436Y-85502725D01*
X150832353Y-85502725D01*
X150858811Y-85555641D01*
X150906341Y-85549970D01*
X150970361Y-85543467D01*
X151034210Y-85538113D01*
X151097960Y-85533834D01*
X151161683Y-85530551D01*
X151225451Y-85528190D01*
X151289336Y-85526675D01*
X151353410Y-85525929D01*
X151417744Y-85525876D01*
X151492881Y-85525565D01*
X151534791Y-85525796D01*
X151576114Y-85526493D01*
X151617015Y-85527837D01*
X151657657Y-85530013D01*
X151698205Y-85533202D01*
X151738822Y-85537588D01*
X151779674Y-85543353D01*
X151820923Y-85550680D01*
X151853406Y-85555621D01*
X151866812Y-85557377D01*
X151878654Y-85558564D01*
X151889174Y-85559111D01*
X151898618Y-85558949D01*
X151903013Y-85558580D01*
X151907230Y-85558008D01*
X151911299Y-85557223D01*
X151915252Y-85556218D01*
X151919119Y-85554982D01*
X151922930Y-85553508D01*
X151926716Y-85551787D01*
X151930508Y-85549810D01*
X151934335Y-85547568D01*
X151938229Y-85545052D01*
X151946337Y-85539166D01*
X151955077Y-85532080D01*
X151964693Y-85523726D01*
X151987528Y-85502931D01*
X152051090Y-85426657D01*
X152098893Y-85375702D01*
X152149192Y-85326623D01*
X152201833Y-85279522D01*
X152256659Y-85234502D01*
X152313515Y-85191667D01*
X152372245Y-85151120D01*
X152432693Y-85112964D01*
X152494705Y-85077302D01*
X152558124Y-85044238D01*
X152622795Y-85013874D01*
X152688562Y-84986314D01*
X152755270Y-84961661D01*
X152822763Y-84940018D01*
X152890885Y-84921489D01*
X152959481Y-84906176D01*
X153028395Y-84894183D01*
X153059897Y-84973177D01*
G37*
G36*
X158494909Y-103820613D02*
G01*
X158498436Y-104524405D01*
X158415534Y-104602016D01*
X158316453Y-104691010D01*
X158163959Y-104824487D01*
X157996582Y-104968878D01*
X157852853Y-105090613D01*
X157805256Y-105131100D01*
X157730042Y-105196226D01*
X157537117Y-105364016D01*
X157343310Y-105531806D01*
X157267490Y-105596932D01*
X157219617Y-105637419D01*
X156408228Y-106334155D01*
X155825704Y-106836422D01*
X155599099Y-107030671D01*
X155457492Y-107150836D01*
X155291907Y-107294152D01*
X155191145Y-107381905D01*
X154924797Y-107612975D01*
X154483825Y-107995738D01*
X154278332Y-108172127D01*
X154104589Y-108322058D01*
X154016119Y-108396996D01*
X153888954Y-108506164D01*
X153586006Y-108768322D01*
X153046256Y-109232224D01*
X152873395Y-109376863D01*
X152044367Y-109373335D01*
X151217103Y-109368044D01*
X151416423Y-109200475D01*
X152074794Y-108639117D01*
X152852228Y-107969280D01*
X153057280Y-107791789D01*
X153148892Y-107713048D01*
X153217353Y-107655308D01*
X153288047Y-107595584D01*
X153383379Y-107513535D01*
X153490949Y-107419911D01*
X153598353Y-107325461D01*
X153898655Y-107064846D01*
X154265103Y-106748669D01*
X154970659Y-106140127D01*
X155223336Y-105922949D01*
X155420451Y-105752072D01*
X155870242Y-105364016D01*
X157015006Y-104378002D01*
X157369768Y-104073070D01*
X157641186Y-103838252D01*
X157874847Y-103635378D01*
X158108176Y-103434983D01*
X158302480Y-103269977D01*
X158419062Y-103173266D01*
X158489617Y-103116822D01*
X158494909Y-103820613D01*
G37*
G36*
X158494909Y-108976460D02*
G01*
X158495873Y-109127742D01*
X158496011Y-109252730D01*
X158495718Y-109301281D01*
X158495157Y-109338361D01*
X158494306Y-109362336D01*
X158493766Y-109368898D01*
X158493145Y-109371572D01*
X158482548Y-109372733D01*
X158454670Y-109373584D01*
X158354680Y-109374438D01*
X158031006Y-109373335D01*
X157577687Y-109368044D01*
X157715270Y-109249864D01*
X157794838Y-109183525D01*
X157907313Y-109088247D01*
X158172117Y-108861807D01*
X158489617Y-108590169D01*
X158494909Y-108976460D01*
G37*
G36*
X152188082Y-87888052D02*
G01*
X152245849Y-87892372D01*
X152303024Y-87899623D01*
X152359599Y-87909804D01*
X152415566Y-87922915D01*
X152470915Y-87938955D01*
X152525637Y-87957923D01*
X152579724Y-87979820D01*
X152633168Y-88004644D01*
X152685958Y-88032394D01*
X152738087Y-88063072D01*
X152789546Y-88096675D01*
X152837884Y-88134368D01*
X152861653Y-88153343D01*
X152885122Y-88172567D01*
X152908264Y-88192162D01*
X152931055Y-88212250D01*
X152953468Y-88232952D01*
X152975478Y-88254391D01*
X152975478Y-88307308D01*
X152939880Y-88300592D01*
X152905052Y-88292995D01*
X152870820Y-88284519D01*
X152837011Y-88275164D01*
X152803450Y-88264930D01*
X152769965Y-88253819D01*
X152736381Y-88241831D01*
X152702523Y-88228966D01*
X152621339Y-88197754D01*
X152455355Y-88133055D01*
X152385742Y-88107110D01*
X152316077Y-88082648D01*
X152246246Y-88059602D01*
X152176137Y-88037908D01*
X152105639Y-88017501D01*
X152034640Y-87998316D01*
X151963026Y-87980287D01*
X151890686Y-87963349D01*
X151890686Y-87910433D01*
X151951278Y-87900091D01*
X152011322Y-87892682D01*
X152070810Y-87888206D01*
X152129733Y-87886663D01*
X152188082Y-87888052D01*
G37*
G36*
X150594228Y-89550849D02*
G01*
X150557745Y-89590124D01*
X150544231Y-89604334D01*
X150531803Y-89616995D01*
X150518910Y-89629656D01*
X150504001Y-89643867D01*
X150461936Y-89683141D01*
X150382561Y-89683141D01*
X150391421Y-89656850D01*
X150395253Y-89646036D01*
X150398865Y-89636529D01*
X150402390Y-89628146D01*
X150405961Y-89620703D01*
X150409711Y-89614016D01*
X150413774Y-89607900D01*
X150418282Y-89602172D01*
X150423370Y-89596647D01*
X150429169Y-89591142D01*
X150435814Y-89585472D01*
X150443438Y-89579454D01*
X150452173Y-89572902D01*
X150473512Y-89557464D01*
X150541311Y-89524391D01*
X150594228Y-89550849D01*
G37*
G36*
X150190520Y-100624447D02*
G01*
X150172685Y-100638981D01*
X150152679Y-100655728D01*
X150108719Y-100693459D01*
X150063768Y-100732843D01*
X150022950Y-100769086D01*
X149966013Y-100820207D01*
X149909097Y-100870482D01*
X149854371Y-100918069D01*
X149804008Y-100961129D01*
X149760176Y-100997823D01*
X149725046Y-101026310D01*
X149711423Y-101036902D01*
X149700789Y-101044752D01*
X149693416Y-101049631D01*
X149691037Y-101050884D01*
X149689575Y-101051308D01*
X149688584Y-101050027D01*
X149687601Y-101046268D01*
X149685689Y-101031822D01*
X149683901Y-101008985D01*
X149682299Y-100978768D01*
X149679902Y-100900247D01*
X149678992Y-100804363D01*
X149678992Y-100557419D01*
X149975325Y-100557419D01*
X150269895Y-100557419D01*
X150190520Y-100624447D01*
G37*
G36*
X152932292Y-100558025D02*
G01*
X153194202Y-100559624D01*
X153371115Y-100561884D01*
X153419274Y-100563158D01*
X153436076Y-100564474D01*
X153430236Y-100570831D01*
X153413503Y-100586551D01*
X153352070Y-100641865D01*
X153261202Y-100721984D01*
X153150325Y-100818474D01*
X153016132Y-100932796D01*
X152863914Y-101063655D01*
X152578825Y-101308836D01*
X151873270Y-101917377D01*
X151127145Y-102561197D01*
X150876232Y-102777273D01*
X150782856Y-102857365D01*
X150728506Y-102903391D01*
X150680385Y-102943878D01*
X150604152Y-103009004D01*
X150510721Y-103089674D01*
X150411006Y-103176794D01*
X149927700Y-103593072D01*
X149687811Y-103797683D01*
X149682520Y-103085072D01*
X149678992Y-102372461D01*
X149735436Y-102324835D01*
X149843475Y-102231349D01*
X150022950Y-102074363D01*
X150289739Y-101842632D01*
X150606798Y-101569891D01*
X151088339Y-101155377D01*
X151263846Y-101004565D01*
X151382027Y-100903362D01*
X151502853Y-100800835D01*
X151786839Y-100559183D01*
X152612339Y-100557419D01*
X152932292Y-100558025D01*
G37*
G36*
X153122662Y-89293108D02*
G01*
X153117288Y-89307760D01*
X153111994Y-89321266D01*
X153106633Y-89333766D01*
X153101063Y-89345402D01*
X153095137Y-89356312D01*
X153088712Y-89366638D01*
X153081642Y-89376519D01*
X153073782Y-89386096D01*
X153064989Y-89395508D01*
X153055116Y-89404897D01*
X153044019Y-89414402D01*
X153031553Y-89424163D01*
X153017574Y-89434321D01*
X153001936Y-89445016D01*
X152922561Y-89392099D01*
X152972171Y-89370602D01*
X152993433Y-89360462D01*
X153002208Y-89356049D01*
X153009960Y-89351859D01*
X153016847Y-89347728D01*
X153023031Y-89343494D01*
X153025909Y-89341288D01*
X153028670Y-89338996D01*
X153031336Y-89336596D01*
X153033925Y-89334070D01*
X153036458Y-89331396D01*
X153038955Y-89328555D01*
X153043921Y-89322287D01*
X153048982Y-89315106D01*
X153054298Y-89306849D01*
X153060029Y-89297352D01*
X153066335Y-89286455D01*
X153081311Y-89259808D01*
X153134228Y-89259808D01*
X153122662Y-89293108D01*
G37*
G36*
X150752978Y-88968766D02*
G01*
X150752978Y-89021683D01*
X150665025Y-89065194D01*
X150549580Y-89122555D01*
X150491754Y-89151132D01*
X150431003Y-89181721D01*
X150371030Y-89212992D01*
X150341307Y-89229070D01*
X150311746Y-89245541D01*
X150282334Y-89262480D01*
X150253060Y-89279961D01*
X150234569Y-89290776D01*
X150226884Y-89295151D01*
X150220028Y-89298902D01*
X150213840Y-89302078D01*
X150208163Y-89304726D01*
X150202837Y-89306893D01*
X150197702Y-89308629D01*
X150192600Y-89309981D01*
X150187372Y-89310997D01*
X150181858Y-89311724D01*
X150175899Y-89312212D01*
X150169337Y-89312508D01*
X150162012Y-89312660D01*
X150190520Y-89314391D01*
X150144436Y-89365641D01*
X150120581Y-89387894D01*
X150111488Y-89396148D01*
X150102811Y-89403752D01*
X150093446Y-89411657D01*
X150082289Y-89420812D01*
X150050179Y-89446670D01*
X149997940Y-89493521D01*
X149949003Y-89541527D01*
X149903304Y-89590737D01*
X149860778Y-89641203D01*
X149821361Y-89692975D01*
X149784987Y-89746102D01*
X149751592Y-89800637D01*
X149721112Y-89856629D01*
X149693482Y-89914129D01*
X149668638Y-89973188D01*
X149646514Y-90033856D01*
X149627046Y-90096183D01*
X149610170Y-90160221D01*
X149595821Y-90226019D01*
X149583934Y-90293628D01*
X149574445Y-90363100D01*
X149562353Y-90423975D01*
X149509436Y-90450433D01*
X149491925Y-90396513D01*
X149477741Y-90342826D01*
X149466768Y-90289352D01*
X149458887Y-90236069D01*
X149453979Y-90182955D01*
X149451925Y-90129989D01*
X149452609Y-90077150D01*
X149455910Y-90024416D01*
X149461710Y-89971766D01*
X149469892Y-89919179D01*
X149480336Y-89866632D01*
X149492925Y-89814105D01*
X149507539Y-89761577D01*
X149524061Y-89709025D01*
X149542372Y-89656428D01*
X149562353Y-89603766D01*
X149580061Y-89575132D01*
X149598357Y-89547425D01*
X149617251Y-89520492D01*
X149636756Y-89494181D01*
X149656883Y-89468338D01*
X149677642Y-89442812D01*
X149699045Y-89417450D01*
X149721103Y-89392099D01*
X149809520Y-89314391D01*
X149826937Y-89259808D01*
X149938547Y-89193095D01*
X149993383Y-89162142D01*
X150047862Y-89132965D01*
X150102203Y-89105695D01*
X150156623Y-89080460D01*
X150211338Y-89057393D01*
X150266567Y-89036622D01*
X150322527Y-89018278D01*
X150379436Y-89002492D01*
X150437510Y-88989392D01*
X150496967Y-88979111D01*
X150558025Y-88971777D01*
X150620901Y-88967522D01*
X150685813Y-88966475D01*
X150752978Y-88968766D01*
G37*
G36*
X158496672Y-101125391D02*
G01*
X158496672Y-101695127D01*
X158410242Y-101765683D01*
X158242452Y-101908999D01*
X157956923Y-102155502D01*
X157517053Y-102536061D01*
X156972673Y-103003933D01*
X155993714Y-103847072D01*
X155694735Y-104105040D01*
X155570547Y-104212197D01*
X155485715Y-104286280D01*
X155332918Y-104416146D01*
X155173506Y-104552627D01*
X155014315Y-104689329D01*
X154932404Y-104759994D01*
X154863061Y-104820738D01*
X154708942Y-104952810D01*
X154545562Y-105094142D01*
X153690076Y-105831447D01*
X152026508Y-107262843D01*
X151277075Y-107911072D01*
X151129570Y-108038733D01*
X151064995Y-108093882D01*
X151017784Y-108133322D01*
X149760131Y-109221642D01*
X149754514Y-109226537D01*
X149748931Y-109231288D01*
X149743415Y-109235873D01*
X149738000Y-109240273D01*
X149732719Y-109244465D01*
X149727606Y-109248430D01*
X149722694Y-109252148D01*
X149718018Y-109255596D01*
X149713610Y-109258755D01*
X149709505Y-109261604D01*
X149705736Y-109264123D01*
X149702336Y-109266289D01*
X149699339Y-109268084D01*
X149696779Y-109269486D01*
X149694689Y-109270475D01*
X149693103Y-109271030D01*
X149691491Y-109267390D01*
X149689965Y-109256709D01*
X149687178Y-109215660D01*
X149682740Y-109064876D01*
X149679957Y-108841661D01*
X149678992Y-108569003D01*
X149678992Y-107866975D01*
X149763659Y-107787599D01*
X149782944Y-107769368D01*
X149805827Y-107748243D01*
X149858909Y-107700287D01*
X149915959Y-107649686D01*
X149970034Y-107602391D01*
X149995252Y-107581476D01*
X150018982Y-107561408D01*
X150040727Y-107542705D01*
X150059992Y-107525883D01*
X150076280Y-107511458D01*
X150089096Y-107499948D01*
X150097943Y-107491869D01*
X150102325Y-107487738D01*
X150490381Y-107152600D01*
X152809895Y-105154113D01*
X153806492Y-104293336D01*
X154506094Y-103692731D01*
X155244062Y-103055086D01*
X155753385Y-102616539D01*
X155950003Y-102448611D01*
X156090728Y-102330127D01*
X156141192Y-102287160D01*
X156186199Y-102248327D01*
X156220953Y-102217762D01*
X156232987Y-102206872D01*
X156240659Y-102199600D01*
X156279216Y-102165066D01*
X156365234Y-102090018D01*
X156628714Y-101862697D01*
X157306047Y-101280613D01*
X157729381Y-100917252D01*
X157849546Y-100813183D01*
X157986909Y-100693238D01*
X158136840Y-100559183D01*
X158318520Y-100559183D01*
X158498436Y-100557419D01*
X158496672Y-101125391D01*
G37*
G36*
X150558542Y-87697118D02*
G01*
X150594228Y-87698766D01*
X150673603Y-87751683D01*
X150645523Y-87756031D01*
X150617419Y-87760218D01*
X150561155Y-87768219D01*
X150497903Y-87777521D01*
X150484985Y-87777447D01*
X150472775Y-87776959D01*
X150461189Y-87776053D01*
X150450146Y-87774729D01*
X150439561Y-87772983D01*
X150429352Y-87770813D01*
X150419435Y-87768216D01*
X150409728Y-87765189D01*
X150400147Y-87761731D01*
X150390609Y-87757839D01*
X150381032Y-87753510D01*
X150371333Y-87748741D01*
X150361427Y-87743531D01*
X150351233Y-87737876D01*
X150329645Y-87725224D01*
X150346931Y-87719739D01*
X150363808Y-87714934D01*
X150380342Y-87710772D01*
X150396601Y-87707218D01*
X150412649Y-87704235D01*
X150428554Y-87701787D01*
X150444380Y-87699838D01*
X150460195Y-87698351D01*
X150476065Y-87697291D01*
X150492054Y-87696621D01*
X150524660Y-87696307D01*
X150558542Y-87697118D01*
G37*
G36*
X152287561Y-86666891D02*
G01*
X152261155Y-86684358D01*
X152250064Y-86691424D01*
X152240019Y-86697484D01*
X152230750Y-86702612D01*
X152221984Y-86706889D01*
X152217705Y-86708731D01*
X152213451Y-86710390D01*
X152209187Y-86711874D01*
X152204879Y-86713193D01*
X152200494Y-86714358D01*
X152195997Y-86715377D01*
X152186534Y-86717017D01*
X152176218Y-86718193D01*
X152164778Y-86718981D01*
X152151943Y-86719459D01*
X152137441Y-86719704D01*
X152102353Y-86719808D01*
X152075895Y-86772724D01*
X152022978Y-86746266D01*
X152022978Y-86640433D01*
X152287561Y-86666891D01*
G37*
G36*
X158494909Y-106554641D02*
G01*
X158498436Y-107260197D01*
X158389076Y-107364266D01*
X158328332Y-107418919D01*
X158245760Y-107491928D01*
X158151943Y-107573866D01*
X158057464Y-107655308D01*
X156665756Y-108854753D01*
X156404039Y-109079869D01*
X156207145Y-109248100D01*
X156055450Y-109375099D01*
X155231715Y-109376863D01*
X154910742Y-109376229D01*
X154648308Y-109374438D01*
X154471202Y-109371654D01*
X154423019Y-109369942D01*
X154410485Y-109369015D01*
X154406214Y-109368044D01*
X154421445Y-109352713D01*
X154464560Y-109314190D01*
X154618983Y-109180631D01*
X155092367Y-108778905D01*
X155153552Y-108727449D01*
X155220690Y-108670206D01*
X155285844Y-108613954D01*
X155341075Y-108565475D01*
X155730895Y-108228571D01*
X156577561Y-107498322D01*
X157484641Y-106713391D01*
X158145658Y-106145419D01*
X158489617Y-105849086D01*
X158494909Y-106554641D01*
G37*
G36*
X152655213Y-89118085D02*
G01*
X152652914Y-89131547D01*
X152650769Y-89142683D01*
X152648470Y-89152734D01*
X152645705Y-89162940D01*
X152642165Y-89174542D01*
X152637540Y-89188779D01*
X152631520Y-89206891D01*
X152552145Y-89233349D01*
X152499228Y-89153974D01*
X152525686Y-89101058D01*
X152657978Y-89101058D01*
X152655213Y-89118085D01*
G37*
G36*
X156122175Y-100557998D02*
G01*
X156386400Y-100559403D01*
X156563643Y-100561139D01*
X156626950Y-100562710D01*
X155782048Y-101289433D01*
X155148812Y-101836238D01*
X152483575Y-104129294D01*
X151654548Y-104843669D01*
X151452582Y-105018790D01*
X151270461Y-105175721D01*
X151047770Y-105367544D01*
X150787376Y-105589794D01*
X150313992Y-105997252D01*
X149687811Y-106535238D01*
X149682520Y-105826155D01*
X149678992Y-105117072D01*
X149735436Y-105064155D01*
X149772451Y-105030586D01*
X149830466Y-104979488D01*
X149977089Y-104852489D01*
X150488617Y-104411516D01*
X153083298Y-102180197D01*
X154838367Y-100666780D01*
X154961839Y-100559183D01*
X155797922Y-100557419D01*
X156122175Y-100557998D01*
G37*
G36*
X151096936Y-89868349D02*
G01*
X150938186Y-89841891D01*
X150964645Y-89788974D01*
X151149853Y-89788974D01*
X151096936Y-89868349D01*
G37*
G36*
X151977541Y-88013286D02*
G01*
X152007344Y-88015965D01*
X152037204Y-88019804D01*
X152066952Y-88024618D01*
X152096415Y-88030219D01*
X152125424Y-88036420D01*
X152181398Y-88049878D01*
X152233508Y-88063498D01*
X152289701Y-88083456D01*
X152345771Y-88104781D01*
X152401332Y-88127821D01*
X152428801Y-88140092D01*
X152455998Y-88152921D01*
X152482874Y-88166352D01*
X152509381Y-88180427D01*
X152535472Y-88195191D01*
X152561097Y-88210687D01*
X152586208Y-88226957D01*
X152610758Y-88244046D01*
X152634697Y-88261995D01*
X152657978Y-88280849D01*
X152657978Y-88333766D01*
X152587573Y-88318534D01*
X152517584Y-88302315D01*
X152447940Y-88285182D01*
X152378568Y-88267203D01*
X152240351Y-88228992D01*
X152102353Y-88188245D01*
X152018327Y-88163544D01*
X151938642Y-88139463D01*
X151866398Y-88117810D01*
X151848164Y-88110389D01*
X151840684Y-88107183D01*
X151834138Y-88104167D01*
X151828405Y-88101230D01*
X151823365Y-88098263D01*
X151821068Y-88096734D01*
X151818900Y-88095155D01*
X151816846Y-88093515D01*
X151814890Y-88091798D01*
X151813018Y-88089990D01*
X151811216Y-88088079D01*
X151809467Y-88086051D01*
X151807757Y-88083891D01*
X151804395Y-88079122D01*
X151801010Y-88073663D01*
X151797483Y-88067404D01*
X151793694Y-88060234D01*
X151784853Y-88042725D01*
X151796999Y-88037067D01*
X151809479Y-88032049D01*
X151822272Y-88027648D01*
X151835357Y-88023841D01*
X151862315Y-88017915D01*
X151890183Y-88014083D01*
X151918790Y-88012158D01*
X151947967Y-88011955D01*
X151977541Y-88013286D01*
G37*
G36*
X149456520Y-87619391D02*
G01*
X149403603Y-87619391D01*
X149350686Y-87725224D01*
X149297770Y-87698766D01*
X149297770Y-87540016D01*
X149377145Y-87566474D01*
X149377145Y-87513558D01*
X149482978Y-87513558D01*
X149456520Y-87619391D01*
G37*
G36*
X152102353Y-85476266D02*
G01*
X152049436Y-85476266D01*
X152022978Y-85635016D01*
X151890686Y-85635016D01*
X151934560Y-85556416D01*
X151952717Y-85524616D01*
X151968821Y-85497350D01*
X151983219Y-85474270D01*
X151996261Y-85455027D01*
X152008295Y-85439272D01*
X152019671Y-85426657D01*
X152030736Y-85416832D01*
X152036261Y-85412857D01*
X152041840Y-85409449D01*
X152047516Y-85406564D01*
X152053332Y-85404158D01*
X152065559Y-85400612D01*
X152078873Y-85398461D01*
X152093620Y-85397356D01*
X152128811Y-85396891D01*
X152102353Y-85476266D01*
G37*
D11*
X151111281Y-78307448D02*
X151016043Y-78259829D01*
X151016043Y-78259829D02*
X150920805Y-78164591D01*
X150920805Y-78164591D02*
X150777948Y-78021733D01*
X150777948Y-78021733D02*
X150682710Y-77974114D01*
X150682710Y-77974114D02*
X150587472Y-77974114D01*
X150635091Y-78212210D02*
X150539853Y-78164591D01*
X150539853Y-78164591D02*
X150444615Y-78069352D01*
X150444615Y-78069352D02*
X150396996Y-77878876D01*
X150396996Y-77878876D02*
X150396996Y-77545543D01*
X150396996Y-77545543D02*
X150444615Y-77355067D01*
X150444615Y-77355067D02*
X150539853Y-77259829D01*
X150539853Y-77259829D02*
X150635091Y-77212210D01*
X150635091Y-77212210D02*
X150825567Y-77212210D01*
X150825567Y-77212210D02*
X150920805Y-77259829D01*
X150920805Y-77259829D02*
X151016043Y-77355067D01*
X151016043Y-77355067D02*
X151063662Y-77545543D01*
X151063662Y-77545543D02*
X151063662Y-77878876D01*
X151063662Y-77878876D02*
X151016043Y-78069352D01*
X151016043Y-78069352D02*
X150920805Y-78164591D01*
X150920805Y-78164591D02*
X150825567Y-78212210D01*
X150825567Y-78212210D02*
X150635091Y-78212210D01*
X152016043Y-78212210D02*
X151444615Y-78212210D01*
X151730329Y-78212210D02*
X151730329Y-77212210D01*
X151730329Y-77212210D02*
X151635091Y-77355067D01*
X151635091Y-77355067D02*
X151539853Y-77450305D01*
X151539853Y-77450305D02*
X151444615Y-77497924D01*
X107989339Y-107221295D02*
X108798862Y-107221295D01*
X108798862Y-107221295D02*
X108894100Y-107173676D01*
X108894100Y-107173676D02*
X108941720Y-107126057D01*
X108941720Y-107126057D02*
X108989339Y-107030819D01*
X108989339Y-107030819D02*
X108989339Y-106840343D01*
X108989339Y-106840343D02*
X108941720Y-106745105D01*
X108941720Y-106745105D02*
X108894100Y-106697486D01*
X108894100Y-106697486D02*
X108798862Y-106649867D01*
X108798862Y-106649867D02*
X107989339Y-106649867D01*
X107989339Y-105745105D02*
X107989339Y-105935581D01*
X107989339Y-105935581D02*
X108036958Y-106030819D01*
X108036958Y-106030819D02*
X108084577Y-106078438D01*
X108084577Y-106078438D02*
X108227434Y-106173676D01*
X108227434Y-106173676D02*
X108417910Y-106221295D01*
X108417910Y-106221295D02*
X108798862Y-106221295D01*
X108798862Y-106221295D02*
X108894100Y-106173676D01*
X108894100Y-106173676D02*
X108941720Y-106126057D01*
X108941720Y-106126057D02*
X108989339Y-106030819D01*
X108989339Y-106030819D02*
X108989339Y-105840343D01*
X108989339Y-105840343D02*
X108941720Y-105745105D01*
X108941720Y-105745105D02*
X108894100Y-105697486D01*
X108894100Y-105697486D02*
X108798862Y-105649867D01*
X108798862Y-105649867D02*
X108560767Y-105649867D01*
X108560767Y-105649867D02*
X108465529Y-105697486D01*
X108465529Y-105697486D02*
X108417910Y-105745105D01*
X108417910Y-105745105D02*
X108370291Y-105840343D01*
X108370291Y-105840343D02*
X108370291Y-106030819D01*
X108370291Y-106030819D02*
X108417910Y-106126057D01*
X108417910Y-106126057D02*
X108465529Y-106173676D01*
X108465529Y-106173676D02*
X108560767Y-106221295D01*
D12*
X193312693Y-70405909D02*
X193312693Y-71215432D01*
X193312693Y-71215432D02*
X193360312Y-71310670D01*
X193360312Y-71310670D02*
X193407931Y-71358290D01*
X193407931Y-71358290D02*
X193503169Y-71405909D01*
X193503169Y-71405909D02*
X193693645Y-71405909D01*
X193693645Y-71405909D02*
X193788883Y-71358290D01*
X193788883Y-71358290D02*
X193836502Y-71310670D01*
X193836502Y-71310670D02*
X193884121Y-71215432D01*
X193884121Y-71215432D02*
X193884121Y-70405909D01*
X194265074Y-70405909D02*
X194931740Y-70405909D01*
X194931740Y-70405909D02*
X194503169Y-71405909D01*
D11*
X89357615Y-58019210D02*
X89357615Y-57019210D01*
X89357615Y-57495400D02*
X89929043Y-57495400D01*
X89929043Y-58019210D02*
X89929043Y-57019210D01*
X90929043Y-58019210D02*
X90357615Y-58019210D01*
X90643329Y-58019210D02*
X90643329Y-57019210D01*
X90643329Y-57019210D02*
X90548091Y-57162067D01*
X90548091Y-57162067D02*
X90452853Y-57257305D01*
X90452853Y-57257305D02*
X90357615Y-57304924D01*
X150037122Y-65298210D02*
X150037122Y-64298210D01*
X150037122Y-64298210D02*
X150608550Y-65298210D01*
X150608550Y-65298210D02*
X150608550Y-64298210D01*
X151084741Y-64774400D02*
X151418074Y-64774400D01*
X151560931Y-65298210D02*
X151084741Y-65298210D01*
X151084741Y-65298210D02*
X151084741Y-64298210D01*
X151084741Y-64298210D02*
X151560931Y-64298210D01*
X151941884Y-64393448D02*
X151989503Y-64345829D01*
X151989503Y-64345829D02*
X152084741Y-64298210D01*
X152084741Y-64298210D02*
X152322836Y-64298210D01*
X152322836Y-64298210D02*
X152418074Y-64345829D01*
X152418074Y-64345829D02*
X152465693Y-64393448D01*
X152465693Y-64393448D02*
X152513312Y-64488686D01*
X152513312Y-64488686D02*
X152513312Y-64583924D01*
X152513312Y-64583924D02*
X152465693Y-64726781D01*
X152465693Y-64726781D02*
X151894265Y-65298210D01*
X151894265Y-65298210D02*
X152513312Y-65298210D01*
D12*
X107100347Y-70364810D02*
X107100347Y-71174333D01*
X107100347Y-71174333D02*
X107147966Y-71269571D01*
X107147966Y-71269571D02*
X107195585Y-71317191D01*
X107195585Y-71317191D02*
X107290823Y-71364810D01*
X107290823Y-71364810D02*
X107481299Y-71364810D01*
X107481299Y-71364810D02*
X107576537Y-71317191D01*
X107576537Y-71317191D02*
X107624156Y-71269571D01*
X107624156Y-71269571D02*
X107671775Y-71174333D01*
X107671775Y-71174333D02*
X107671775Y-70364810D01*
X108671775Y-71364810D02*
X108100347Y-71364810D01*
X108386061Y-71364810D02*
X108386061Y-70364810D01*
X108386061Y-70364810D02*
X108290823Y-70507667D01*
X108290823Y-70507667D02*
X108195585Y-70602905D01*
X108195585Y-70602905D02*
X108100347Y-70650524D01*
X109290823Y-70364810D02*
X109386061Y-70364810D01*
X109386061Y-70364810D02*
X109481299Y-70412429D01*
X109481299Y-70412429D02*
X109528918Y-70460048D01*
X109528918Y-70460048D02*
X109576537Y-70555286D01*
X109576537Y-70555286D02*
X109624156Y-70745762D01*
X109624156Y-70745762D02*
X109624156Y-70983857D01*
X109624156Y-70983857D02*
X109576537Y-71174333D01*
X109576537Y-71174333D02*
X109528918Y-71269571D01*
X109528918Y-71269571D02*
X109481299Y-71317191D01*
X109481299Y-71317191D02*
X109386061Y-71364810D01*
X109386061Y-71364810D02*
X109290823Y-71364810D01*
X109290823Y-71364810D02*
X109195585Y-71317191D01*
X109195585Y-71317191D02*
X109147966Y-71269571D01*
X109147966Y-71269571D02*
X109100347Y-71174333D01*
X109100347Y-71174333D02*
X109052728Y-70983857D01*
X109052728Y-70983857D02*
X109052728Y-70745762D01*
X109052728Y-70745762D02*
X109100347Y-70555286D01*
X109100347Y-70555286D02*
X109147966Y-70460048D01*
X109147966Y-70460048D02*
X109195585Y-70412429D01*
X109195585Y-70412429D02*
X109290823Y-70364810D01*
D11*
X214944615Y-64124210D02*
X214944615Y-63124210D01*
X214944615Y-63600400D02*
X215516043Y-63600400D01*
X215516043Y-64124210D02*
X215516043Y-63124210D01*
X215944615Y-63219448D02*
X215992234Y-63171829D01*
X215992234Y-63171829D02*
X216087472Y-63124210D01*
X216087472Y-63124210D02*
X216325567Y-63124210D01*
X216325567Y-63124210D02*
X216420805Y-63171829D01*
X216420805Y-63171829D02*
X216468424Y-63219448D01*
X216468424Y-63219448D02*
X216516043Y-63314686D01*
X216516043Y-63314686D02*
X216516043Y-63409924D01*
X216516043Y-63409924D02*
X216468424Y-63552781D01*
X216468424Y-63552781D02*
X215896996Y-64124210D01*
X215896996Y-64124210D02*
X216516043Y-64124210D01*
X149972234Y-76648210D02*
X149972234Y-75648210D01*
X149972234Y-75648210D02*
X150543662Y-76648210D01*
X150543662Y-76648210D02*
X150543662Y-75648210D01*
X151019853Y-76124400D02*
X151353186Y-76124400D01*
X151496043Y-76648210D02*
X151019853Y-76648210D01*
X151019853Y-76648210D02*
X151019853Y-75648210D01*
X151019853Y-75648210D02*
X151496043Y-75648210D01*
X152448424Y-76648210D02*
X151876996Y-76648210D01*
X152162710Y-76648210D02*
X152162710Y-75648210D01*
X152162710Y-75648210D02*
X152067472Y-75791067D01*
X152067472Y-75791067D02*
X151972234Y-75886305D01*
X151972234Y-75886305D02*
X151876996Y-75933924D01*
X193841339Y-107475295D02*
X194650862Y-107475295D01*
X194650862Y-107475295D02*
X194746100Y-107427676D01*
X194746100Y-107427676D02*
X194793720Y-107380057D01*
X194793720Y-107380057D02*
X194841339Y-107284819D01*
X194841339Y-107284819D02*
X194841339Y-107094343D01*
X194841339Y-107094343D02*
X194793720Y-106999105D01*
X194793720Y-106999105D02*
X194746100Y-106951486D01*
X194746100Y-106951486D02*
X194650862Y-106903867D01*
X194650862Y-106903867D02*
X193841339Y-106903867D01*
X193841339Y-106522914D02*
X193841339Y-105903867D01*
X193841339Y-105903867D02*
X194222291Y-106237200D01*
X194222291Y-106237200D02*
X194222291Y-106094343D01*
X194222291Y-106094343D02*
X194269910Y-105999105D01*
X194269910Y-105999105D02*
X194317529Y-105951486D01*
X194317529Y-105951486D02*
X194412767Y-105903867D01*
X194412767Y-105903867D02*
X194650862Y-105903867D01*
X194650862Y-105903867D02*
X194746100Y-105951486D01*
X194746100Y-105951486D02*
X194793720Y-105999105D01*
X194793720Y-105999105D02*
X194841339Y-106094343D01*
X194841339Y-106094343D02*
X194841339Y-106380057D01*
X194841339Y-106380057D02*
X194793720Y-106475295D01*
X194793720Y-106475295D02*
X194746100Y-106522914D01*
X133897339Y-107221295D02*
X134706862Y-107221295D01*
X134706862Y-107221295D02*
X134802100Y-107173676D01*
X134802100Y-107173676D02*
X134849720Y-107126057D01*
X134849720Y-107126057D02*
X134897339Y-107030819D01*
X134897339Y-107030819D02*
X134897339Y-106840343D01*
X134897339Y-106840343D02*
X134849720Y-106745105D01*
X134849720Y-106745105D02*
X134802100Y-106697486D01*
X134802100Y-106697486D02*
X134706862Y-106649867D01*
X134706862Y-106649867D02*
X133897339Y-106649867D01*
X133897339Y-105697486D02*
X133897339Y-106173676D01*
X133897339Y-106173676D02*
X134373529Y-106221295D01*
X134373529Y-106221295D02*
X134325910Y-106173676D01*
X134325910Y-106173676D02*
X134278291Y-106078438D01*
X134278291Y-106078438D02*
X134278291Y-105840343D01*
X134278291Y-105840343D02*
X134325910Y-105745105D01*
X134325910Y-105745105D02*
X134373529Y-105697486D01*
X134373529Y-105697486D02*
X134468767Y-105649867D01*
X134468767Y-105649867D02*
X134706862Y-105649867D01*
X134706862Y-105649867D02*
X134802100Y-105697486D01*
X134802100Y-105697486D02*
X134849720Y-105745105D01*
X134849720Y-105745105D02*
X134897339Y-105840343D01*
X134897339Y-105840343D02*
X134897339Y-106078438D01*
X134897339Y-106078438D02*
X134849720Y-106173676D01*
X134849720Y-106173676D02*
X134802100Y-106221295D01*
X160477615Y-115169210D02*
X160477615Y-114169210D01*
X160477615Y-114645400D02*
X161049043Y-114645400D01*
X161049043Y-115169210D02*
X161049043Y-114169210D01*
X161429996Y-114169210D02*
X162049043Y-114169210D01*
X162049043Y-114169210D02*
X161715710Y-114550162D01*
X161715710Y-114550162D02*
X161858567Y-114550162D01*
X161858567Y-114550162D02*
X161953805Y-114597781D01*
X161953805Y-114597781D02*
X162001424Y-114645400D01*
X162001424Y-114645400D02*
X162049043Y-114740638D01*
X162049043Y-114740638D02*
X162049043Y-114978733D01*
X162049043Y-114978733D02*
X162001424Y-115073971D01*
X162001424Y-115073971D02*
X161953805Y-115121591D01*
X161953805Y-115121591D02*
X161858567Y-115169210D01*
X161858567Y-115169210D02*
X161572853Y-115169210D01*
X161572853Y-115169210D02*
X161477615Y-115121591D01*
X161477615Y-115121591D02*
X161429996Y-115073971D01*
D12*
X167502382Y-70405909D02*
X167502382Y-71215432D01*
X167502382Y-71215432D02*
X167550001Y-71310670D01*
X167550001Y-71310670D02*
X167597620Y-71358290D01*
X167597620Y-71358290D02*
X167692858Y-71405909D01*
X167692858Y-71405909D02*
X167883334Y-71405909D01*
X167883334Y-71405909D02*
X167978572Y-71358290D01*
X167978572Y-71358290D02*
X168026191Y-71310670D01*
X168026191Y-71310670D02*
X168073810Y-71215432D01*
X168073810Y-71215432D02*
X168073810Y-70405909D01*
X168692858Y-70834480D02*
X168597620Y-70786861D01*
X168597620Y-70786861D02*
X168550001Y-70739242D01*
X168550001Y-70739242D02*
X168502382Y-70644004D01*
X168502382Y-70644004D02*
X168502382Y-70596385D01*
X168502382Y-70596385D02*
X168550001Y-70501147D01*
X168550001Y-70501147D02*
X168597620Y-70453528D01*
X168597620Y-70453528D02*
X168692858Y-70405909D01*
X168692858Y-70405909D02*
X168883334Y-70405909D01*
X168883334Y-70405909D02*
X168978572Y-70453528D01*
X168978572Y-70453528D02*
X169026191Y-70501147D01*
X169026191Y-70501147D02*
X169073810Y-70596385D01*
X169073810Y-70596385D02*
X169073810Y-70644004D01*
X169073810Y-70644004D02*
X169026191Y-70739242D01*
X169026191Y-70739242D02*
X168978572Y-70786861D01*
X168978572Y-70786861D02*
X168883334Y-70834480D01*
X168883334Y-70834480D02*
X168692858Y-70834480D01*
X168692858Y-70834480D02*
X168597620Y-70882099D01*
X168597620Y-70882099D02*
X168550001Y-70929718D01*
X168550001Y-70929718D02*
X168502382Y-71024956D01*
X168502382Y-71024956D02*
X168502382Y-71215432D01*
X168502382Y-71215432D02*
X168550001Y-71310670D01*
X168550001Y-71310670D02*
X168597620Y-71358290D01*
X168597620Y-71358290D02*
X168692858Y-71405909D01*
X168692858Y-71405909D02*
X168883334Y-71405909D01*
X168883334Y-71405909D02*
X168978572Y-71358290D01*
X168978572Y-71358290D02*
X169026191Y-71310670D01*
X169026191Y-71310670D02*
X169073810Y-71215432D01*
X169073810Y-71215432D02*
X169073810Y-71024956D01*
X169073810Y-71024956D02*
X169026191Y-70929718D01*
X169026191Y-70929718D02*
X168978572Y-70882099D01*
X168978572Y-70882099D02*
X168883334Y-70834480D01*
D11*
X167933339Y-107475295D02*
X168742862Y-107475295D01*
X168742862Y-107475295D02*
X168838100Y-107427676D01*
X168838100Y-107427676D02*
X168885720Y-107380057D01*
X168885720Y-107380057D02*
X168933339Y-107284819D01*
X168933339Y-107284819D02*
X168933339Y-107094343D01*
X168933339Y-107094343D02*
X168885720Y-106999105D01*
X168885720Y-106999105D02*
X168838100Y-106951486D01*
X168838100Y-106951486D02*
X168742862Y-106903867D01*
X168742862Y-106903867D02*
X167933339Y-106903867D01*
X168266672Y-105999105D02*
X168933339Y-105999105D01*
X167885720Y-106237200D02*
X168600005Y-106475295D01*
X168600005Y-106475295D02*
X168600005Y-105856248D01*
D12*
X133490095Y-70406328D02*
X133490095Y-71215851D01*
X133490095Y-71215851D02*
X133537714Y-71311089D01*
X133537714Y-71311089D02*
X133585333Y-71358709D01*
X133585333Y-71358709D02*
X133680571Y-71406328D01*
X133680571Y-71406328D02*
X133871047Y-71406328D01*
X133871047Y-71406328D02*
X133966285Y-71358709D01*
X133966285Y-71358709D02*
X134013904Y-71311089D01*
X134013904Y-71311089D02*
X134061523Y-71215851D01*
X134061523Y-71215851D02*
X134061523Y-70406328D01*
X134585333Y-71406328D02*
X134775809Y-71406328D01*
X134775809Y-71406328D02*
X134871047Y-71358709D01*
X134871047Y-71358709D02*
X134918666Y-71311089D01*
X134918666Y-71311089D02*
X135013904Y-71168232D01*
X135013904Y-71168232D02*
X135061523Y-70977756D01*
X135061523Y-70977756D02*
X135061523Y-70596804D01*
X135061523Y-70596804D02*
X135013904Y-70501566D01*
X135013904Y-70501566D02*
X134966285Y-70453947D01*
X134966285Y-70453947D02*
X134871047Y-70406328D01*
X134871047Y-70406328D02*
X134680571Y-70406328D01*
X134680571Y-70406328D02*
X134585333Y-70453947D01*
X134585333Y-70453947D02*
X134537714Y-70501566D01*
X134537714Y-70501566D02*
X134490095Y-70596804D01*
X134490095Y-70596804D02*
X134490095Y-70834899D01*
X134490095Y-70834899D02*
X134537714Y-70930137D01*
X134537714Y-70930137D02*
X134585333Y-70977756D01*
X134585333Y-70977756D02*
X134680571Y-71025375D01*
X134680571Y-71025375D02*
X134871047Y-71025375D01*
X134871047Y-71025375D02*
X134966285Y-70977756D01*
X134966285Y-70977756D02*
X135013904Y-70930137D01*
X135013904Y-70930137D02*
X135061523Y-70834899D01*
D13*
%TO.C,Q1*%
X149406520Y-81237391D02*
X153006520Y-81237391D01*
X149368042Y-81225869D02*
G75*
G02*
X151206520Y-76787390I1838478J1838478D01*
G01*
X151206520Y-76787391D02*
G75*
G02*
X153044998Y-81225869I0J-2600000D01*
G01*
D14*
%TO.C,U6*%
X105671442Y-85885391D02*
X105671442Y-106205391D01*
X105671442Y-85885391D02*
X111513442Y-85885391D01*
X105671442Y-106205391D02*
X107576442Y-106205391D01*
X111513442Y-106205391D02*
X109608442Y-106205391D01*
X111513442Y-106205391D02*
X111513442Y-85885391D01*
X107576442Y-106205391D02*
G75*
G02*
X109608442Y-106205391I1016000J0D01*
G01*
D12*
%TO.C,U7*%
X204074598Y-71448490D02*
G75*
G02*
X184074598Y-71448490I-10000000J0D01*
G01*
X184074598Y-71448490D02*
G75*
G02*
X204074598Y-71448490I10000000J0D01*
G01*
D13*
%TO.C,NE2*%
X149131408Y-65973391D02*
X153371408Y-65973391D01*
X149131408Y-66773391D02*
X149131408Y-65973391D01*
X149131408Y-68713391D02*
X149131408Y-67913391D01*
X153371408Y-65973391D02*
X153371408Y-66773391D01*
X153371408Y-67913391D02*
X153371408Y-68713391D01*
X153371408Y-68713391D02*
X149131408Y-68713391D01*
D12*
%TO.C,U10*%
X118338442Y-71407391D02*
G75*
G02*
X98338442Y-71407391I-10000000J0D01*
G01*
X98338442Y-71407391D02*
G75*
G02*
X118338442Y-71407391I10000000J0D01*
G01*
D13*
%TO.C,NE1*%
X149066520Y-72323391D02*
X153306520Y-72323391D01*
X149066520Y-73123391D02*
X149066520Y-72323391D01*
X149066520Y-75063391D02*
X149066520Y-74263391D01*
X153306520Y-72323391D02*
X153306520Y-73123391D01*
X153306520Y-74263391D02*
X153306520Y-75063391D01*
X153306520Y-75063391D02*
X149066520Y-75063391D01*
D14*
%TO.C,U3*%
X191348333Y-85911812D02*
X191348333Y-106231812D01*
X191348333Y-85911812D02*
X197190333Y-85911812D01*
X191348333Y-106231812D02*
X193253333Y-106231812D01*
X197190333Y-106231812D02*
X195285333Y-106231812D01*
X197190333Y-106231812D02*
X197190333Y-85911812D01*
X193253333Y-106231812D02*
G75*
G02*
X195285333Y-106231812I1016000J0D01*
G01*
%TO.C,U5*%
X131521520Y-85885391D02*
X131521520Y-106205391D01*
X131521520Y-85885391D02*
X137363520Y-85885391D01*
X131521520Y-106205391D02*
X133426520Y-106205391D01*
X137363520Y-106205391D02*
X135458520Y-106205391D01*
X137363520Y-106205391D02*
X137363520Y-85885391D01*
X133426520Y-106205391D02*
G75*
G02*
X135458520Y-106205391I1016000J0D01*
G01*
D12*
%TO.C,U8*%
X178264287Y-71448490D02*
G75*
G02*
X158264287Y-71448490I-10000000J0D01*
G01*
X158264287Y-71448490D02*
G75*
G02*
X178264287Y-71448490I10000000J0D01*
G01*
D14*
%TO.C,U4*%
X165557560Y-85905531D02*
X165557560Y-106225531D01*
X165557560Y-85905531D02*
X171399560Y-85905531D01*
X165557560Y-106225531D02*
X167462560Y-106225531D01*
X171399560Y-106225531D02*
X169494560Y-106225531D01*
X171399560Y-106225531D02*
X171399560Y-85905531D01*
X167462560Y-106225531D02*
G75*
G02*
X169494560Y-106225531I1016000J0D01*
G01*
D12*
%TO.C,U9*%
X144252000Y-71448909D02*
G75*
G02*
X124252000Y-71448909I-10000000J0D01*
G01*
X124252000Y-71448909D02*
G75*
G02*
X144252000Y-71448909I10000000J0D01*
G01*
%TD*%
M02*
