%TF.GenerationSoftware,KiCad,Pcbnew,9.0.7*%
%TF.CreationDate,2026-03-10T16:43:10+01:00*%
%TF.ProjectId,Digitronove hodiny LV,44696769-7472-46f6-9e6f-766520686f64,rev?*%
%TF.SameCoordinates,Original*%
%TF.FileFunction,Soldermask,Top*%
%TF.FilePolarity,Negative*%
%FSLAX46Y46*%
G04 Gerber Fmt 4.6, Leading zero omitted, Abs format (unit mm)*
G04 Created by KiCad (PCBNEW 9.0.7) date 2026-03-10 16:43:10*
%MOMM*%
%LPD*%
G01*
G04 APERTURE LIST*
G04 Aperture macros list*
%AMRoundRect*
0 Rectangle with rounded corners*
0 $1 Rounding radius*
0 $2 $3 $4 $5 $6 $7 $8 $9 X,Y pos of 4 corners*
0 Add a 4 corners polygon primitive as box body*
4,1,4,$2,$3,$4,$5,$6,$7,$8,$9,$2,$3,0*
0 Add four circle primitives for the rounded corners*
1,1,$1+$1,$2,$3*
1,1,$1+$1,$4,$5*
1,1,$1+$1,$6,$7*
1,1,$1+$1,$8,$9*
0 Add four rect primitives between the rounded corners*
20,1,$1+$1,$2,$3,$4,$5,0*
20,1,$1+$1,$4,$5,$6,$7,0*
20,1,$1+$1,$6,$7,$8,$9,0*
20,1,$1+$1,$8,$9,$2,$3,0*%
G04 Aperture macros list end*
%ADD10RoundRect,0.225000X-0.775000X-0.525000X0.775000X-0.525000X0.775000X0.525000X-0.775000X0.525000X0*%
%ADD11RoundRect,0.250000X-0.312500X-1.450000X0.312500X-1.450000X0.312500X1.450000X-0.312500X1.450000X0*%
%ADD12C,2.500000*%
%ADD13RoundRect,0.250000X0.625000X-0.400000X0.625000X0.400000X-0.625000X0.400000X-0.625000X-0.400000X0*%
%ADD14RoundRect,0.250000X0.412500X0.650000X-0.412500X0.650000X-0.412500X-0.650000X0.412500X-0.650000X0*%
%ADD15C,2.000000*%
%ADD16RoundRect,0.250000X-0.625000X0.400000X-0.625000X-0.400000X0.625000X-0.400000X0.625000X0.400000X0*%
%ADD17RoundRect,0.300000X1.200000X-0.700000X1.200000X0.700000X-1.200000X0.700000X-1.200000X-0.700000X0*%
%ADD18RoundRect,1.000000X0.000010X0.000010X-0.000010X0.000010X-0.000010X-0.000010X0.000010X-0.000010X0*%
%ADD19R,2.000000X2.000000*%
%ADD20RoundRect,0.249999X-0.850001X0.850001X-0.850001X-0.850001X0.850001X-0.850001X0.850001X0.850001X0*%
%ADD21C,2.200000*%
%ADD22RoundRect,0.250000X-0.550000X0.550000X-0.550000X-0.550000X0.550000X-0.550000X0.550000X0.550000X0*%
%ADD23C,1.600000*%
%ADD24RoundRect,0.250000X0.312500X1.450000X-0.312500X1.450000X-0.312500X-1.450000X0.312500X-1.450000X0*%
%ADD25C,3.000000*%
%ADD26RoundRect,0.102000X-1.000000X1.000000X-1.000000X-1.000000X1.000000X-1.000000X1.000000X1.000000X0*%
%ADD27C,2.204000*%
%ADD28RoundRect,0.250000X0.725000X-0.600000X0.725000X0.600000X-0.725000X0.600000X-0.725000X-0.600000X0*%
%ADD29O,1.950000X1.700000*%
%ADD30R,1.800000X1.800000*%
%ADD31C,1.800000*%
G04 APERTURE END LIST*
D10*
%TO.C,DS1*%
X219431000Y-86221200D03*
X219431000Y-76061200D03*
X219431000Y-88721200D03*
X219431000Y-81141200D03*
X219431000Y-83681200D03*
X219431000Y-78601200D03*
%TD*%
D11*
%TO.C,F2*%
X225161884Y-98759436D03*
X229436884Y-98759436D03*
%TD*%
D12*
%TO.C,H3*%
X194626000Y-123371200D03*
%TD*%
D13*
%TO.C,R8*%
X179554000Y-82193200D03*
X179554000Y-79093200D03*
%TD*%
D14*
%TO.C,C4*%
X187720500Y-84453200D03*
X184595500Y-84453200D03*
%TD*%
%TO.C,C2*%
X171972500Y-84453200D03*
X168847500Y-84453200D03*
%TD*%
D15*
%TO.C,J4*%
X183110000Y-107313200D03*
X193524000Y-114933200D03*
X183110000Y-109853200D03*
X183110000Y-112393200D03*
X183110000Y-114933200D03*
X193524000Y-112393200D03*
%TD*%
D13*
%TO.C,R2*%
X208256000Y-84987200D03*
X208256000Y-81887200D03*
%TD*%
D16*
%TO.C,R4*%
X213336000Y-81887200D03*
X213336000Y-84987200D03*
%TD*%
D17*
%TO.C,J1*%
X221718000Y-111631200D03*
X227814000Y-111631200D03*
%TD*%
D15*
%TO.C,SW4*%
X182928000Y-74443200D03*
X182928000Y-67943200D03*
X187428000Y-74443200D03*
X187428000Y-67943200D03*
%TD*%
D13*
%TO.C,R1*%
X203430000Y-84987200D03*
X203430000Y-81887200D03*
%TD*%
D18*
%TO.C,J2*%
X232935000Y-101290200D03*
X232935000Y-103830200D03*
D19*
X232935000Y-98750200D03*
%TD*%
D15*
%TO.C,SW3*%
X175054000Y-74443200D03*
X175054000Y-67943200D03*
X179554000Y-74443200D03*
X179554000Y-67943200D03*
%TD*%
D20*
%TO.C,D1*%
X206732000Y-114679200D03*
D21*
X206732000Y-124839200D03*
%TD*%
D16*
%TO.C,R7*%
X169140000Y-79093200D03*
X169140000Y-82193200D03*
%TD*%
D22*
%TO.C,C1*%
X177776000Y-121116821D03*
D23*
X177776000Y-123616821D03*
%TD*%
D16*
%TO.C,R11*%
X184888000Y-79093200D03*
X184888000Y-82193200D03*
%TD*%
D24*
%TO.C,F1*%
X221713318Y-106972909D03*
X217438318Y-106972909D03*
%TD*%
D12*
%TO.C,H1*%
X124126000Y-68371200D03*
%TD*%
D15*
%TO.C,SW2*%
X159263565Y-74451817D03*
X159263565Y-67951817D03*
X163763565Y-74451817D03*
X163763565Y-67951817D03*
%TD*%
D13*
%TO.C,R6*%
X171680000Y-82193200D03*
X171680000Y-79093200D03*
%TD*%
%TO.C,R9*%
X187428000Y-82193200D03*
X187428000Y-79093200D03*
%TD*%
D16*
%TO.C,R10*%
X177014000Y-79093200D03*
X177014000Y-82193200D03*
%TD*%
D14*
%TO.C,C3*%
X179846500Y-84453200D03*
X176721500Y-84453200D03*
%TD*%
D15*
%TO.C,SW1*%
X167101565Y-74451817D03*
X167101565Y-67951817D03*
X171601565Y-74451817D03*
X171601565Y-67951817D03*
%TD*%
D12*
%TO.C,H2*%
X253126000Y-68371200D03*
%TD*%
D25*
%TO.C,U2*%
X170496000Y-99859200D03*
X123546000Y-99859200D03*
X170496000Y-124369200D03*
X123546000Y-124369200D03*
D26*
X162536000Y-99439200D03*
D27*
X159996000Y-99439200D03*
X157456000Y-99439200D03*
X154916000Y-99439200D03*
X152376000Y-99439200D03*
X149836000Y-99439200D03*
X147296000Y-99439200D03*
X144756000Y-99439200D03*
X142216000Y-99439200D03*
X139676000Y-99439200D03*
X137136000Y-99439200D03*
X134596000Y-99439200D03*
X132056000Y-99439200D03*
X129516000Y-99439200D03*
X126976000Y-99439200D03*
X126976000Y-124839200D03*
X129516000Y-124839200D03*
X132056000Y-124839200D03*
X134596000Y-124839200D03*
X137136000Y-124839200D03*
X139676000Y-124839200D03*
X142216000Y-124839200D03*
X144756000Y-124839200D03*
X147296000Y-124839200D03*
X149836000Y-124839200D03*
X152376000Y-124839200D03*
X154916000Y-124839200D03*
X157456000Y-124839200D03*
X159996000Y-124839200D03*
X162536000Y-124839200D03*
%TD*%
D28*
%TO.C,Konektor1*%
X123343800Y-94394800D03*
D29*
X123343800Y-91894800D03*
X123343800Y-89394800D03*
X123343800Y-86894800D03*
X123343800Y-84394800D03*
X123343800Y-81894800D03*
X123343800Y-79394800D03*
X123343800Y-76894800D03*
X123343800Y-74394800D03*
%TD*%
D30*
%TO.C,U1*%
X216638000Y-124839200D03*
D31*
X214098000Y-124839200D03*
X211558000Y-124839200D03*
%TD*%
M02*
