M48
; DRILL file {KiCad 9.0.7} date 2026-03-10T16:43:22+0100
; FORMAT={-:-/ absolute / metric / decimal}
; #@! TF.CreationDate,2026-03-10T16:43:22+01:00
; #@! TF.GenerationSoftware,Kicad,Pcbnew,9.0.7
; #@! TF.FileFunction,MixedPlating,1,2
FMAT,2
METRIC
; #@! TA.AperFunction,Plated,PTH,ViaDrill
T1C0.300
; #@! TA.AperFunction,Plated,PTH,ComponentDrill
T2C0.800
; #@! TA.AperFunction,Plated,PTH,ComponentDrill
T3C0.950
; #@! TA.AperFunction,Plated,PTH,ComponentDrill
T4C1.000
; #@! TA.AperFunction,Plated,PTH,ComponentDrill
T5C1.020
; #@! TA.AperFunction,Plated,PTH,ComponentDrill
T6C1.100
; #@! TA.AperFunction,NonPlated,NPTH,ComponentDrill
T7C2.500
; #@! TA.AperFunction,NonPlated,NPTH,ComponentDrill
T8C3.000
%
G90
G05
T1
X147.064Y-79.395
X150.852Y-81.913
X158.726Y-107.567
X159.869Y-106.932
X163.298Y-104.628
X164.314Y-91.895
X165.33Y-88.771
X166.854Y-91.895
X168.632Y-89.533
X168.632Y-98.1
X169.648Y-89.533
X169.648Y-93.089
X170.664Y-89.533
X170.664Y-93.089
X171.68Y-89.533
X171.68Y-93.089
X173.204Y-82.167
X174.22Y-92.835
X177.776Y-108.837
X181.078Y-82.167
X188.952Y-82.167
X195.556Y-87.247
X202.414Y-86.221
X207.24Y-86.221
X212.32Y-86.221
T2
X177.776Y-121.117
X177.776Y-123.617
T3
X123.344Y-74.395
X123.344Y-76.895
X123.344Y-79.395
X123.344Y-81.895
X123.344Y-84.395
X123.344Y-86.895
X123.344Y-89.395
X123.344Y-91.895
X123.344Y-94.395
T4
X183.11Y-107.313
X183.11Y-109.853
X183.11Y-112.393
X183.11Y-114.933
X193.524Y-112.393
X193.524Y-114.933
X211.558Y-124.839
X214.098Y-124.839
X216.638Y-124.839
X219.431Y-76.061
X219.431Y-78.601
X219.431Y-81.141
X219.431Y-83.681
X219.431Y-86.221
X219.431Y-88.721
X221.718Y-111.631
X227.814Y-111.631
X232.935Y-98.75
X232.935Y-101.29
X232.935Y-103.83
T5
X126.976Y-99.439
X126.976Y-124.839
X129.516Y-99.439
X129.516Y-124.839
X132.056Y-99.439
X132.056Y-124.839
X134.596Y-99.439
X134.596Y-124.839
X137.136Y-99.439
X137.136Y-124.839
X139.676Y-99.439
X139.676Y-124.839
X142.216Y-99.439
X142.216Y-124.839
X144.756Y-99.439
X144.756Y-124.839
X147.296Y-99.439
X147.296Y-124.839
X149.836Y-99.439
X149.836Y-124.839
X152.376Y-99.439
X152.376Y-124.839
X154.916Y-99.439
X154.916Y-124.839
X157.456Y-99.439
X157.456Y-124.839
X159.996Y-99.439
X159.996Y-124.839
X162.536Y-99.439
X162.536Y-124.839
T6
X159.264Y-67.952
X159.264Y-74.452
X163.764Y-67.952
X163.764Y-74.452
X167.102Y-67.952
X167.102Y-74.452
X171.602Y-67.952
X171.602Y-74.452
X175.054Y-67.943
X175.054Y-74.443
X179.554Y-67.943
X179.554Y-74.443
X182.928Y-67.943
X182.928Y-74.443
X187.428Y-67.943
X187.428Y-74.443
X206.732Y-114.679
X206.732Y-124.839
T7
X124.126Y-68.371
X194.626Y-123.371
X253.126Y-68.371
T8
X123.546Y-99.859
X123.546Y-124.369
X170.496Y-99.859
X170.496Y-124.369
M30
