%TF.GenerationSoftware,KiCad,Pcbnew,9.0.7*%
%TF.CreationDate,2026-03-10T16:43:10+01:00*%
%TF.ProjectId,Digitronove hodiny LV,44696769-7472-46f6-9e6f-766520686f64,rev?*%
%TF.SameCoordinates,Original*%
%TF.FileFunction,Copper,L2,Bot*%
%TF.FilePolarity,Positive*%
%FSLAX46Y46*%
G04 Gerber Fmt 4.6, Leading zero omitted, Abs format (unit mm)*
G04 Created by KiCad (PCBNEW 9.0.7) date 2026-03-10 16:43:10*
%MOMM*%
%LPD*%
G01*
G04 APERTURE LIST*
G04 Aperture macros list*
%AMRoundRect*
0 Rectangle with rounded corners*
0 $1 Rounding radius*
0 $2 $3 $4 $5 $6 $7 $8 $9 X,Y pos of 4 corners*
0 Add a 4 corners polygon primitive as box body*
4,1,4,$2,$3,$4,$5,$6,$7,$8,$9,$2,$3,0*
0 Add four circle primitives for the rounded corners*
1,1,$1+$1,$2,$3*
1,1,$1+$1,$4,$5*
1,1,$1+$1,$6,$7*
1,1,$1+$1,$8,$9*
0 Add four rect primitives between the rounded corners*
20,1,$1+$1,$2,$3,$4,$5,0*
20,1,$1+$1,$4,$5,$6,$7,0*
20,1,$1+$1,$6,$7,$8,$9,0*
20,1,$1+$1,$8,$9,$2,$3,0*%
G04 Aperture macros list end*
%TA.AperFunction,ComponentPad*%
%ADD10RoundRect,0.225000X-0.775000X-0.525000X0.775000X-0.525000X0.775000X0.525000X-0.775000X0.525000X0*%
%TD*%
%TA.AperFunction,ComponentPad*%
%ADD11C,2.000000*%
%TD*%
%TA.AperFunction,ComponentPad*%
%ADD12RoundRect,0.300000X1.200000X-0.700000X1.200000X0.700000X-1.200000X0.700000X-1.200000X-0.700000X0*%
%TD*%
%TA.AperFunction,ComponentPad*%
%ADD13RoundRect,1.000000X0.000010X0.000010X-0.000010X0.000010X-0.000010X-0.000010X0.000010X-0.000010X0*%
%TD*%
%TA.AperFunction,ComponentPad*%
%ADD14R,2.000000X2.000000*%
%TD*%
%TA.AperFunction,ComponentPad*%
%ADD15RoundRect,0.249999X-0.850001X0.850001X-0.850001X-0.850001X0.850001X-0.850001X0.850001X0.850001X0*%
%TD*%
%TA.AperFunction,ComponentPad*%
%ADD16C,2.200000*%
%TD*%
%TA.AperFunction,ComponentPad*%
%ADD17RoundRect,0.250000X-0.550000X0.550000X-0.550000X-0.550000X0.550000X-0.550000X0.550000X0.550000X0*%
%TD*%
%TA.AperFunction,ComponentPad*%
%ADD18C,1.600000*%
%TD*%
%TA.AperFunction,ComponentPad*%
%ADD19RoundRect,0.250000X0.725000X-0.600000X0.725000X0.600000X-0.725000X0.600000X-0.725000X-0.600000X0*%
%TD*%
%TA.AperFunction,ComponentPad*%
%ADD20O,1.950000X1.700000*%
%TD*%
%TA.AperFunction,ComponentPad*%
%ADD21R,1.800000X1.800000*%
%TD*%
%TA.AperFunction,ComponentPad*%
%ADD22C,1.800000*%
%TD*%
%TA.AperFunction,SMDPad,CuDef*%
%ADD23RoundRect,0.250000X-0.400000X-0.625000X0.400000X-0.625000X0.400000X0.625000X-0.400000X0.625000X0*%
%TD*%
%TA.AperFunction,ViaPad*%
%ADD24C,0.600000*%
%TD*%
%TA.AperFunction,Conductor*%
%ADD25C,0.500000*%
%TD*%
%TA.AperFunction,Conductor*%
%ADD26C,0.400000*%
%TD*%
G04 APERTURE END LIST*
D10*
%TO.P,DS1,+3V3,+3V3*%
%TO.N,/+3V3*%
X219431000Y-86221200D03*
%TO.P,DS1,32K,32K*%
%TO.N,unconnected-(DS1-Pad32K)*%
X219431000Y-76061200D03*
%TO.P,DS1,GND,GND*%
%TO.N,GND*%
X219431000Y-88721200D03*
%TO.P,DS1,SCL,SCL*%
%TO.N,/SCL*%
X219431000Y-81141200D03*
%TO.P,DS1,SDA,SDA*%
%TO.N,/SDA*%
X219431000Y-83681200D03*
%TO.P,DS1,SQW,SQW*%
%TO.N,/SQW*%
X219431000Y-78601200D03*
%TD*%
D11*
%TO.P,J4,+3V3,+3V3*%
%TO.N,/+3V3*%
X183110000Y-107313200D03*
%TO.P,J4,B*%
%TO.N,N/C*%
X193524000Y-114933200D03*
%TO.P,J4,GND,GND*%
%TO.N,GND*%
X183110000Y-109853200D03*
%TO.P,J4,SCL,SCL*%
%TO.N,/SCL*%
X183110000Y-112393200D03*
%TO.P,J4,SDA,SDA*%
%TO.N,/SDA*%
X183110000Y-114933200D03*
%TO.P,J4,X*%
%TO.N,N/C*%
X193524000Y-112393200D03*
%TD*%
D12*
%TO.P,J1,1,Pin_1*%
%TO.N,/+9V*%
X221718000Y-111631200D03*
%TO.P,J1,2,Pin_2*%
%TO.N,GND*%
X227814000Y-111631200D03*
%TD*%
D11*
%TO.P,SW4,1,1*%
%TO.N,GND*%
X182928000Y-74443200D03*
X182928000Y-67943200D03*
%TO.P,SW4,2,2*%
%TO.N,/+3V3*%
X187428000Y-74443200D03*
X187428000Y-67943200D03*
%TD*%
D13*
%TO.P,J2,GND,Pin_2*%
%TO.N,GND*%
X232935000Y-101290200D03*
%TO.P,J2,SHDN,Pin_3*%
%TO.N,/SHDN*%
X232935000Y-103830200D03*
D14*
%TO.P,J2,VIN,Pin_1*%
%TO.N,/+9V*%
X232935000Y-98750200D03*
%TD*%
D11*
%TO.P,SW3,1,1*%
%TO.N,GND*%
X175054000Y-74443200D03*
X175054000Y-67943200D03*
%TO.P,SW3,2,2*%
%TO.N,/+3V3*%
X179554000Y-74443200D03*
X179554000Y-67943200D03*
%TD*%
D15*
%TO.P,D1,1,K*%
%TO.N,/+5V*%
X206732000Y-114679200D03*
D16*
%TO.P,D1,2,A*%
X206732000Y-124839200D03*
%TD*%
D17*
%TO.P,C1,1*%
%TO.N,/+5V*%
X177776000Y-121116821D03*
D18*
%TO.P,C1,2*%
%TO.N,GND*%
X177776000Y-123616821D03*
%TD*%
D11*
%TO.P,SW2,1,1*%
%TO.N,GND*%
X159263565Y-74451817D03*
X159263565Y-67951817D03*
%TO.P,SW2,2,2*%
%TO.N,/EN*%
X163763565Y-74451817D03*
X163763565Y-67951817D03*
%TD*%
%TO.P,SW1,1,1*%
%TO.N,GND*%
X167101565Y-74451817D03*
X167101565Y-67951817D03*
%TO.P,SW1,2,2*%
%TO.N,/+3V3*%
X171601565Y-74451817D03*
X171601565Y-67951817D03*
%TD*%
D14*
%TO.P,U2,1,3V3*%
%TO.N,/+3V3*%
X162536000Y-99439200D03*
D11*
%TO.P,U2,2,GND*%
%TO.N,GND*%
X159996000Y-99439200D03*
%TO.P,U2,3,D15*%
%TO.N,unconnected-(U2-D15-Pad3)*%
X157456000Y-99439200D03*
%TO.P,U2,4,D2*%
%TO.N,/NE1\u002C2*%
X154916000Y-99439200D03*
%TO.P,U2,5,D4*%
%TO.N,/SCL*%
X152376000Y-99439200D03*
%TO.P,U2,6,RX2*%
%TO.N,unconnected-(U2-RX2-Pad6)*%
X149836000Y-99439200D03*
%TO.P,U2,7,TX2*%
%TO.N,unconnected-(U2-TX2-Pad7)*%
X147296000Y-99439200D03*
%TO.P,U2,8,D5*%
%TO.N,unconnected-(U2-D5-Pad8)*%
X144756000Y-99439200D03*
%TO.P,U2,9,D18*%
%TO.N,/SDA*%
X142216000Y-99439200D03*
%TO.P,U2,10,D19*%
%TO.N,unconnected-(U2-D19-Pad10)*%
X139676000Y-99439200D03*
%TO.P,U2,11,D21*%
%TO.N,unconnected-(U2-D21-Pad11)*%
X137136000Y-99439200D03*
%TO.P,U2,12,RX0*%
%TO.N,unconnected-(U2-RX0-Pad12)*%
X134596000Y-99439200D03*
%TO.P,U2,13,TX0*%
%TO.N,unconnected-(U2-TX0-Pad13)*%
X132056000Y-99439200D03*
%TO.P,U2,14,D22*%
%TO.N,/OE*%
X129516000Y-99439200D03*
%TO.P,U2,15,D23*%
%TO.N,/START-STOP*%
X126976000Y-99439200D03*
%TO.P,U2,16,EN*%
%TO.N,/EN*%
X126976000Y-124839200D03*
%TO.P,U2,17,VP*%
%TO.N,unconnected-(U2-VP-Pad17)*%
X129516000Y-124839200D03*
%TO.P,U2,18,VN*%
%TO.N,unconnected-(U2-VN-Pad18)*%
X132056000Y-124839200D03*
%TO.P,U2,19,D34*%
%TO.N,unconnected-(U2-D34-Pad19)*%
X134596000Y-124839200D03*
%TO.P,U2,20,D35*%
%TO.N,/SQW*%
X137136000Y-124839200D03*
%TO.P,U2,21,D32*%
%TO.N,/+1*%
X139676000Y-124839200D03*
%TO.P,U2,22,D33*%
%TO.N,/SWITCH*%
X142216000Y-124839200D03*
%TO.P,U2,23,D25*%
%TO.N,/RLCK*%
X144756000Y-124839200D03*
%TO.P,U2,24,D26*%
%TO.N,/SRLCK*%
X147296000Y-124839200D03*
%TO.P,U2,25,D27*%
%TO.N,/SER1*%
X149836000Y-124839200D03*
%TO.P,U2,26,D14*%
%TO.N,unconnected-(U2-D14-Pad26)*%
X152376000Y-124839200D03*
%TO.P,U2,27,D12*%
%TO.N,unconnected-(U2-D12-Pad27)*%
X154916000Y-124839200D03*
%TO.P,U2,28,D13*%
%TO.N,/SHDN*%
X157456000Y-124839200D03*
%TO.P,U2,29,GND*%
%TO.N,GND*%
X159996000Y-124839200D03*
%TO.P,U2,30,VIN*%
%TO.N,/+5V*%
X162536000Y-124839200D03*
%TD*%
D19*
%TO.P,Konektor1,1,Pin_1*%
%TO.N,/NE1\u002C2*%
X123343800Y-94394800D03*
D20*
%TO.P,Konektor1,2,Pin_2*%
%TO.N,/+5V*%
X123343800Y-91894800D03*
%TO.P,Konektor1,3,Pin_3*%
%TO.N,/+3V3*%
X123343800Y-89394800D03*
%TO.P,Konektor1,4,Pin_4*%
%TO.N,GND*%
X123343800Y-86894800D03*
%TO.P,Konektor1,5,Pin_5*%
X123343800Y-84394800D03*
%TO.P,Konektor1,6,Pin_6*%
%TO.N,/SRLCK*%
X123343800Y-81894800D03*
%TO.P,Konektor1,7,Pin_7*%
%TO.N,/RLCK*%
X123343800Y-79394800D03*
%TO.P,Konektor1,8,Pin_8*%
%TO.N,/OE*%
X123343800Y-76894800D03*
%TO.P,Konektor1,9,Pin_9*%
%TO.N,/SER1*%
X123343800Y-74394800D03*
%TD*%
D21*
%TO.P,U1,1,IN*%
%TO.N,/+9V*%
X216638000Y-124839200D03*
D22*
%TO.P,U1,2,GND*%
%TO.N,GND*%
X214098000Y-124839200D03*
%TO.P,U1,3,OUT*%
%TO.N,/+5V*%
X211558000Y-124839200D03*
%TD*%
D23*
%TO.P,R5,1*%
%TO.N,/NE1\u002C2*%
X127966000Y-94359200D03*
%TO.P,R5,2*%
X131066000Y-94359200D03*
%TD*%
%TO.P,R3,1*%
%TO.N,/SHDN*%
X226010000Y-103757200D03*
%TO.P,R3,2*%
X229110000Y-103757200D03*
%TD*%
D24*
%TO.N,/+5V*%
X166854000Y-91894800D03*
X177776000Y-108837200D03*
X164314000Y-91894800D03*
%TO.N,/+1*%
X170664000Y-93089200D03*
X170664000Y-89533200D03*
%TO.N,/EN*%
X168632000Y-98099886D03*
X168632000Y-89533200D03*
%TO.N,/SWITCH*%
X171680000Y-93089200D03*
X171680000Y-89533200D03*
%TO.N,/SQW*%
X195556000Y-87247200D03*
X174220000Y-92835200D03*
X163298000Y-104628200D03*
%TO.N,/SRLCK*%
X150852000Y-81913200D03*
%TO.N,/SCL*%
X159869000Y-106932200D03*
%TO.N,/RLCK*%
X147063600Y-79394800D03*
%TO.N,/SDA*%
X158726000Y-107567200D03*
%TO.N,/+3V3*%
X165330000Y-88771200D03*
X173204000Y-82167200D03*
X188952000Y-82167200D03*
X212320000Y-86221200D03*
X181078000Y-82167200D03*
X207240000Y-86221200D03*
X202414000Y-86221200D03*
%TO.N,/START-STOP*%
X169648000Y-89533200D03*
X169648000Y-93089200D03*
%TD*%
D25*
%TO.N,/+5V*%
X177776000Y-108837200D02*
X177776000Y-121116821D01*
X166854000Y-91894800D02*
X164314000Y-91894800D01*
D26*
%TO.N,/+1*%
X170664000Y-89533200D02*
X170664000Y-93089200D01*
%TO.N,/SHDN*%
X226010000Y-103757200D02*
X169648000Y-103757200D01*
X169648000Y-103757200D02*
X157456000Y-115949200D01*
X157456000Y-115949200D02*
X157456000Y-124839200D01*
X232935000Y-103830200D02*
X229183000Y-103830200D01*
X229183000Y-103830200D02*
X229110000Y-103757200D01*
%TO.N,/EN*%
X168632000Y-98099886D02*
X168632000Y-89533200D01*
%TO.N,/SWITCH*%
X171680000Y-89533200D02*
X171680000Y-93089200D01*
%TO.N,/SQW*%
X175490000Y-87247200D02*
X174220000Y-88517200D01*
X158842786Y-109091200D02*
X152884000Y-109091200D01*
X174220000Y-88517200D02*
X174220000Y-92835200D01*
X163298000Y-104628200D02*
X163298000Y-104635986D01*
X163298000Y-104635986D02*
X158842786Y-109091200D01*
X195556000Y-87247200D02*
X175490000Y-87247200D01*
X152884000Y-109091200D02*
X137136000Y-124839200D01*
%TO.N,/SRLCK*%
X165838000Y-96899200D02*
X165838000Y-105027200D01*
X150852000Y-81913200D02*
X165838000Y-96899200D01*
X165838000Y-105027200D02*
X147296000Y-123569200D01*
X147296000Y-123569200D02*
X147296000Y-124839200D01*
%TO.N,/SCL*%
X152376000Y-99439200D02*
X159869000Y-106932200D01*
%TO.N,/RLCK*%
X147063600Y-79394800D02*
X165076000Y-97407200D01*
X165076000Y-97407200D02*
X165076000Y-104519200D01*
X165076000Y-104519200D02*
X144756000Y-124839200D01*
%TO.N,/SER1*%
X149836000Y-124839200D02*
X149836000Y-122299200D01*
X144603600Y-74394800D02*
X123343800Y-74394800D01*
X166600000Y-96391200D02*
X144603600Y-74394800D01*
X166600000Y-105535200D02*
X166600000Y-96391200D01*
X149836000Y-122299200D02*
X166600000Y-105535200D01*
%TO.N,/NE1\u002C2*%
X127966000Y-94359200D02*
X123379400Y-94359200D01*
X131066000Y-94359200D02*
X153646000Y-94359200D01*
X154916000Y-95629200D02*
X154916000Y-99439200D01*
X123379400Y-94359200D02*
X123343800Y-94394800D01*
X153646000Y-94359200D02*
X154916000Y-95629200D01*
%TO.N,/OE*%
X129516000Y-83067000D02*
X123343800Y-76894800D01*
X129516000Y-99439200D02*
X129516000Y-83067000D01*
%TO.N,/SDA*%
X150344000Y-107567200D02*
X142216000Y-99439200D01*
X158726000Y-107567200D02*
X150344000Y-107567200D01*
D25*
%TO.N,/+3V3*%
X173204000Y-82167200D02*
X181078000Y-82167200D01*
X202414000Y-86221200D02*
X207240000Y-86221200D01*
X203394000Y-84987200D02*
X203430000Y-84987200D01*
X165330000Y-88771200D02*
X165330000Y-83437200D01*
X181078000Y-82167200D02*
X188952000Y-82167200D01*
X188952000Y-82167200D02*
X193006000Y-86221200D01*
X166600000Y-82167200D02*
X173204000Y-82167200D01*
X200890000Y-86221200D02*
X202160000Y-86221200D01*
X165330000Y-83437200D02*
X166600000Y-82167200D01*
X193006000Y-86221200D02*
X200890000Y-86221200D01*
X212320000Y-86221200D02*
X219431000Y-86221200D01*
X207240000Y-86221200D02*
X212320000Y-86221200D01*
X202160000Y-86221200D02*
X202414000Y-86221200D01*
D26*
%TO.N,/START-STOP*%
X169648000Y-89533200D02*
X169648000Y-93089200D01*
%TD*%
%TA.AperFunction,Conductor*%
%TO.N,GND*%
G36*
X256068539Y-65391385D02*
G01*
X256114294Y-65444189D01*
X256125500Y-65495700D01*
X256125500Y-126246700D01*
X256105815Y-126313739D01*
X256053011Y-126359494D01*
X256001500Y-126370700D01*
X214692525Y-126370700D01*
X214625486Y-126351015D01*
X214579731Y-126298211D01*
X214569787Y-126229053D01*
X214598812Y-126165497D01*
X214636230Y-126136215D01*
X214831760Y-126036586D01*
X214895513Y-125990266D01*
X214895514Y-125990266D01*
X214227409Y-125322162D01*
X214290993Y-125305125D01*
X214405007Y-125239299D01*
X214498099Y-125146207D01*
X214563925Y-125032193D01*
X214580962Y-124968610D01*
X215249065Y-125636713D01*
X215303770Y-125632408D01*
X215372148Y-125646772D01*
X215421905Y-125695823D01*
X215437500Y-125756022D01*
X215437500Y-125784054D01*
X215437502Y-125784082D01*
X215440413Y-125809187D01*
X215440415Y-125809191D01*
X215485793Y-125911964D01*
X215485794Y-125911965D01*
X215565235Y-125991406D01*
X215668009Y-126036785D01*
X215693135Y-126039700D01*
X217582864Y-126039699D01*
X217582879Y-126039697D01*
X217582882Y-126039697D01*
X217607987Y-126036786D01*
X217607988Y-126036785D01*
X217607991Y-126036785D01*
X217710765Y-125991406D01*
X217790206Y-125911965D01*
X217835585Y-125809191D01*
X217838500Y-125784065D01*
X217838499Y-123894336D01*
X217837460Y-123885374D01*
X217835586Y-123869212D01*
X217835585Y-123869210D01*
X217835585Y-123869209D01*
X217790206Y-123766435D01*
X217710765Y-123686994D01*
X217695641Y-123680316D01*
X217607992Y-123641615D01*
X217582865Y-123638700D01*
X215693143Y-123638700D01*
X215693117Y-123638702D01*
X215668012Y-123641613D01*
X215668008Y-123641615D01*
X215565235Y-123686993D01*
X215485794Y-123766434D01*
X215440415Y-123869206D01*
X215440415Y-123869208D01*
X215437500Y-123894331D01*
X215437500Y-123922373D01*
X215417815Y-123989412D01*
X215365011Y-124035167D01*
X215303770Y-124045991D01*
X215249065Y-124041685D01*
X214580962Y-124709789D01*
X214563925Y-124646207D01*
X214498099Y-124532193D01*
X214405007Y-124439101D01*
X214290993Y-124373275D01*
X214227407Y-124356237D01*
X214895513Y-123688132D01*
X214831756Y-123641811D01*
X214635410Y-123541767D01*
X214425835Y-123473673D01*
X214208181Y-123439200D01*
X213987819Y-123439200D01*
X213770164Y-123473673D01*
X213560589Y-123541767D01*
X213364233Y-123641816D01*
X213300485Y-123688131D01*
X213300485Y-123688132D01*
X213968590Y-124356237D01*
X213905007Y-124373275D01*
X213790993Y-124439101D01*
X213697901Y-124532193D01*
X213632075Y-124646207D01*
X213615037Y-124709790D01*
X212946932Y-124041685D01*
X212946931Y-124041685D01*
X212900616Y-124105434D01*
X212900614Y-124105437D01*
X212826532Y-124250830D01*
X212778558Y-124301625D01*
X212710737Y-124318420D01*
X212644602Y-124295882D01*
X212605563Y-124250829D01*
X212584759Y-124210000D01*
X212546712Y-124157633D01*
X212473690Y-124057127D01*
X212340073Y-123923510D01*
X212219226Y-123835709D01*
X212219224Y-123835707D01*
X212187202Y-123812442D01*
X212187201Y-123812441D01*
X212187199Y-123812440D01*
X212134620Y-123785650D01*
X212018836Y-123726654D01*
X211839118Y-123668259D01*
X211652486Y-123638700D01*
X211652481Y-123638700D01*
X211463519Y-123638700D01*
X211463514Y-123638700D01*
X211276881Y-123668259D01*
X211097163Y-123726654D01*
X210928800Y-123812440D01*
X210850661Y-123869212D01*
X210775927Y-123923510D01*
X210775925Y-123923512D01*
X210775924Y-123923512D01*
X210642312Y-124057124D01*
X210642312Y-124057125D01*
X210642310Y-124057127D01*
X210607402Y-124105174D01*
X210531240Y-124210000D01*
X210445454Y-124378363D01*
X210387059Y-124558081D01*
X210357500Y-124744713D01*
X210357500Y-124933686D01*
X210387059Y-125120318D01*
X210445454Y-125300036D01*
X210510437Y-125427571D01*
X210531240Y-125468399D01*
X210642310Y-125621273D01*
X210775927Y-125754890D01*
X210928801Y-125865960D01*
X211008347Y-125906490D01*
X211097163Y-125951745D01*
X211097165Y-125951745D01*
X211097168Y-125951747D01*
X211193497Y-125983046D01*
X211276881Y-126010140D01*
X211463514Y-126039700D01*
X211463519Y-126039700D01*
X211652486Y-126039700D01*
X211839118Y-126010140D01*
X211876228Y-125998082D01*
X212018832Y-125951747D01*
X212187199Y-125865960D01*
X212340073Y-125754890D01*
X212473690Y-125621273D01*
X212584760Y-125468399D01*
X212605563Y-125427571D01*
X212653537Y-125376774D01*
X212721358Y-125359979D01*
X212787493Y-125382516D01*
X212826533Y-125427570D01*
X212900611Y-125572956D01*
X212946932Y-125636713D01*
X213615037Y-124968608D01*
X213632075Y-125032193D01*
X213697901Y-125146207D01*
X213790993Y-125239299D01*
X213905007Y-125305125D01*
X213968590Y-125322162D01*
X213300485Y-125990265D01*
X213300485Y-125990266D01*
X213364243Y-126036588D01*
X213559770Y-126136215D01*
X213610566Y-126184190D01*
X213627361Y-126252011D01*
X213604823Y-126318146D01*
X213550108Y-126361597D01*
X213503475Y-126370700D01*
X207327628Y-126370700D01*
X207260589Y-126351015D01*
X207214834Y-126298211D01*
X207204890Y-126229053D01*
X207233915Y-126165497D01*
X207271333Y-126136215D01*
X207287999Y-126127723D01*
X207466022Y-126037015D01*
X207644365Y-125907442D01*
X207800242Y-125751565D01*
X207929815Y-125573222D01*
X208029895Y-125376806D01*
X208098015Y-125167151D01*
X208132500Y-124949422D01*
X208132500Y-124728978D01*
X208098015Y-124511249D01*
X208053185Y-124373275D01*
X208029896Y-124301596D01*
X208029895Y-124301593D01*
X207995237Y-124233575D01*
X207929815Y-124105178D01*
X207891931Y-124053035D01*
X207800247Y-123926841D01*
X207800243Y-123926836D01*
X207644363Y-123770956D01*
X207644358Y-123770952D01*
X207466025Y-123641387D01*
X207466024Y-123641386D01*
X207466022Y-123641385D01*
X207371696Y-123593323D01*
X207269606Y-123541304D01*
X207269603Y-123541303D01*
X207059952Y-123473185D01*
X206951086Y-123455942D01*
X206842222Y-123438700D01*
X206621778Y-123438700D01*
X206556134Y-123449097D01*
X206404047Y-123473185D01*
X206194396Y-123541303D01*
X206194393Y-123541304D01*
X205997974Y-123641387D01*
X205819641Y-123770952D01*
X205819636Y-123770956D01*
X205663756Y-123926836D01*
X205663752Y-123926841D01*
X205534187Y-124105174D01*
X205434104Y-124301593D01*
X205434103Y-124301596D01*
X205365985Y-124511247D01*
X205331500Y-124728978D01*
X205331500Y-124949421D01*
X205365985Y-125167152D01*
X205434103Y-125376803D01*
X205434104Y-125376806D01*
X205480773Y-125468397D01*
X205534049Y-125572956D01*
X205534187Y-125573225D01*
X205663752Y-125751558D01*
X205663756Y-125751563D01*
X205819636Y-125907443D01*
X205819641Y-125907447D01*
X205975192Y-126020460D01*
X205997978Y-126037015D01*
X206176001Y-126127723D01*
X206192667Y-126136215D01*
X206243463Y-126184190D01*
X206260258Y-126252011D01*
X206237720Y-126318146D01*
X206183005Y-126361597D01*
X206136372Y-126370700D01*
X162755441Y-126370700D01*
X162688402Y-126351015D01*
X162642647Y-126298211D01*
X162632703Y-126229053D01*
X162661728Y-126165497D01*
X162720506Y-126127723D01*
X162736043Y-126124227D01*
X162749359Y-126122118D01*
X162840534Y-126107677D01*
X163035219Y-126044420D01*
X163217610Y-125951487D01*
X163335330Y-125865959D01*
X163383213Y-125831171D01*
X163383215Y-125831168D01*
X163383219Y-125831166D01*
X163527966Y-125686419D01*
X163527968Y-125686415D01*
X163527971Y-125686413D01*
X163583144Y-125610473D01*
X163648287Y-125520810D01*
X163741220Y-125338419D01*
X163804477Y-125143734D01*
X163836500Y-124941552D01*
X163836500Y-124736848D01*
X163804477Y-124534665D01*
X163762498Y-124405467D01*
X163741220Y-124339981D01*
X163741218Y-124339978D01*
X163741217Y-124339973D01*
X163724265Y-124306703D01*
X163724264Y-124306702D01*
X163697644Y-124254458D01*
X168745500Y-124254458D01*
X168745500Y-124483941D01*
X168766356Y-124642347D01*
X168775452Y-124711438D01*
X168809686Y-124839201D01*
X168834842Y-124933087D01*
X168922650Y-125145076D01*
X168922657Y-125145090D01*
X169037392Y-125343817D01*
X169177081Y-125525861D01*
X169177089Y-125525870D01*
X169339330Y-125688111D01*
X169339338Y-125688118D01*
X169339339Y-125688119D01*
X169365646Y-125708305D01*
X169521382Y-125827807D01*
X169521385Y-125827808D01*
X169521388Y-125827811D01*
X169720112Y-125942544D01*
X169720117Y-125942546D01*
X169720123Y-125942549D01*
X169811480Y-125980390D01*
X169932113Y-126030358D01*
X170153762Y-126089748D01*
X170381266Y-126119700D01*
X170381273Y-126119700D01*
X170610727Y-126119700D01*
X170610734Y-126119700D01*
X170838238Y-126089748D01*
X171059887Y-126030358D01*
X171271888Y-125942544D01*
X171470612Y-125827811D01*
X171652661Y-125688119D01*
X171652665Y-125688114D01*
X171652670Y-125688111D01*
X171814911Y-125525870D01*
X171814914Y-125525865D01*
X171814919Y-125525861D01*
X171954611Y-125343812D01*
X172069344Y-125145088D01*
X172157158Y-124933087D01*
X172216548Y-124711438D01*
X172246500Y-124483934D01*
X172246500Y-124254466D01*
X172216548Y-124026962D01*
X172157158Y-123805313D01*
X172089351Y-123641613D01*
X172069349Y-123593323D01*
X172069342Y-123593308D01*
X172056830Y-123571637D01*
X172023844Y-123514503D01*
X176476000Y-123514503D01*
X176476000Y-123719138D01*
X176508009Y-123921238D01*
X176571244Y-124115852D01*
X176664141Y-124298171D01*
X176664147Y-124298180D01*
X176696523Y-124342742D01*
X176696524Y-124342743D01*
X177376000Y-123663267D01*
X177376000Y-123669482D01*
X177403259Y-123771215D01*
X177455920Y-123862427D01*
X177530394Y-123936901D01*
X177621606Y-123989562D01*
X177723339Y-124016821D01*
X177729553Y-124016821D01*
X177050076Y-124696295D01*
X177094650Y-124728680D01*
X177276968Y-124821576D01*
X177471582Y-124884811D01*
X177673683Y-124916821D01*
X177878317Y-124916821D01*
X178080417Y-124884811D01*
X178275031Y-124821576D01*
X178457349Y-124728680D01*
X178501921Y-124696295D01*
X177822447Y-124016821D01*
X177828661Y-124016821D01*
X177930394Y-123989562D01*
X178021606Y-123936901D01*
X178096080Y-123862427D01*
X178148741Y-123771215D01*
X178176000Y-123669482D01*
X178176000Y-123663268D01*
X178855474Y-124342742D01*
X178887859Y-124298170D01*
X178980755Y-124115852D01*
X179043990Y-123921238D01*
X179076000Y-123719138D01*
X179076000Y-123514503D01*
X179043989Y-123312402D01*
X179043988Y-123312396D01*
X179035595Y-123286565D01*
X179035591Y-123286555D01*
X179024721Y-123253102D01*
X193125500Y-123253102D01*
X193125500Y-123489297D01*
X193162446Y-123722568D01*
X193235433Y-123947196D01*
X193321735Y-124116571D01*
X193342657Y-124157633D01*
X193481483Y-124348710D01*
X193648490Y-124515717D01*
X193839567Y-124654543D01*
X193921510Y-124696295D01*
X194050003Y-124761766D01*
X194050005Y-124761766D01*
X194050008Y-124761768D01*
X194170412Y-124800889D01*
X194274631Y-124834753D01*
X194507903Y-124871700D01*
X194507908Y-124871700D01*
X194744097Y-124871700D01*
X194977368Y-124834753D01*
X195201992Y-124761768D01*
X195412433Y-124654543D01*
X195603510Y-124515717D01*
X195770517Y-124348710D01*
X195909343Y-124157633D01*
X196016568Y-123947192D01*
X196089553Y-123722568D01*
X196095187Y-123686994D01*
X196126500Y-123489297D01*
X196126500Y-123253102D01*
X196089553Y-123019831D01*
X196016779Y-122795857D01*
X196016568Y-122795208D01*
X196016566Y-122795205D01*
X196016566Y-122795203D01*
X195960002Y-122684191D01*
X195909343Y-122584767D01*
X195770517Y-122393690D01*
X195603510Y-122226683D01*
X195412433Y-122087857D01*
X195201996Y-121980633D01*
X194977368Y-121907646D01*
X194744097Y-121870700D01*
X194744092Y-121870700D01*
X194507908Y-121870700D01*
X194507903Y-121870700D01*
X194274631Y-121907646D01*
X194050003Y-121980633D01*
X193839566Y-122087857D01*
X193752409Y-122151181D01*
X193648490Y-122226683D01*
X193648488Y-122226685D01*
X193648487Y-122226685D01*
X193481485Y-122393687D01*
X193481485Y-122393688D01*
X193481483Y-122393690D01*
X193440947Y-122449483D01*
X193342657Y-122584766D01*
X193235433Y-122795203D01*
X193162446Y-123019831D01*
X193125500Y-123253102D01*
X179024721Y-123253102D01*
X178980754Y-123117789D01*
X178887859Y-122935471D01*
X178855474Y-122890898D01*
X178855474Y-122890897D01*
X178176000Y-123570372D01*
X178176000Y-123564160D01*
X178148741Y-123462427D01*
X178096080Y-123371215D01*
X178021606Y-123296741D01*
X177930394Y-123244080D01*
X177828661Y-123216821D01*
X177822446Y-123216821D01*
X178501922Y-122537345D01*
X178501921Y-122537344D01*
X178457359Y-122504968D01*
X178457350Y-122504962D01*
X178346769Y-122448618D01*
X178295973Y-122400643D01*
X178279178Y-122332822D01*
X178301716Y-122266687D01*
X178356431Y-122223236D01*
X178388274Y-122215018D01*
X178457564Y-122206698D01*
X178598342Y-122151182D01*
X178718922Y-122059743D01*
X178810361Y-121939163D01*
X178865877Y-121798385D01*
X178876500Y-121709923D01*
X178876500Y-120523719D01*
X178865877Y-120435257D01*
X178810361Y-120294479D01*
X178810360Y-120294478D01*
X178810360Y-120294477D01*
X178718922Y-120173898D01*
X178598343Y-120082460D01*
X178525336Y-120053670D01*
X178457564Y-120026944D01*
X178457562Y-120026943D01*
X178457558Y-120026942D01*
X178435714Y-120024319D01*
X178371500Y-119996781D01*
X178332368Y-119938898D01*
X178326500Y-119901204D01*
X178326500Y-109735147D01*
X181610000Y-109735147D01*
X181610000Y-109971252D01*
X181646934Y-110204447D01*
X181719897Y-110429002D01*
X181827087Y-110639374D01*
X181887338Y-110722304D01*
X181887340Y-110722305D01*
X182627037Y-109982608D01*
X182644075Y-110046193D01*
X182709901Y-110160207D01*
X182802993Y-110253299D01*
X182917007Y-110319125D01*
X182980590Y-110336162D01*
X182240893Y-111075858D01*
X182323835Y-111136119D01*
X182327981Y-111138660D01*
X182327160Y-111139999D01*
X182372928Y-111183219D01*
X182389728Y-111251039D01*
X182367194Y-111317176D01*
X182338727Y-111346055D01*
X182262782Y-111401232D01*
X182118028Y-111545986D01*
X181997715Y-111711586D01*
X181904781Y-111893976D01*
X181841522Y-112088665D01*
X181809500Y-112290848D01*
X181809500Y-112495551D01*
X181841522Y-112697734D01*
X181904781Y-112892423D01*
X181997715Y-113074813D01*
X182118028Y-113240413D01*
X182262786Y-113385171D01*
X182417749Y-113497756D01*
X182428390Y-113505487D01*
X182519840Y-113552083D01*
X182521080Y-113552715D01*
X182571876Y-113600690D01*
X182588671Y-113668511D01*
X182566134Y-113734646D01*
X182521080Y-113773685D01*
X182428386Y-113820915D01*
X182262786Y-113941228D01*
X182118028Y-114085986D01*
X181997715Y-114251586D01*
X181904781Y-114433976D01*
X181841522Y-114628665D01*
X181809500Y-114830848D01*
X181809500Y-115035551D01*
X181841522Y-115237734D01*
X181904781Y-115432423D01*
X181997715Y-115614813D01*
X182118028Y-115780413D01*
X182262786Y-115925171D01*
X182404986Y-116028483D01*
X182428390Y-116045487D01*
X182495537Y-116079700D01*
X182610776Y-116138418D01*
X182610778Y-116138418D01*
X182610781Y-116138420D01*
X182655374Y-116152909D01*
X182805465Y-116201677D01*
X182844604Y-116207876D01*
X183007648Y-116233700D01*
X183007649Y-116233700D01*
X183212351Y-116233700D01*
X183212352Y-116233700D01*
X183414534Y-116201677D01*
X183609219Y-116138420D01*
X183791610Y-116045487D01*
X183884590Y-115977932D01*
X183957213Y-115925171D01*
X183957215Y-115925168D01*
X183957219Y-115925166D01*
X184101966Y-115780419D01*
X184101968Y-115780415D01*
X184101971Y-115780413D01*
X184154732Y-115707790D01*
X184222287Y-115614810D01*
X184315220Y-115432419D01*
X184378477Y-115237734D01*
X184410500Y-115035552D01*
X184410500Y-114830848D01*
X184378477Y-114628665D01*
X184349127Y-114538337D01*
X184315220Y-114433981D01*
X184315218Y-114433978D01*
X184315218Y-114433976D01*
X184281503Y-114367807D01*
X184222287Y-114251590D01*
X184214556Y-114240949D01*
X184101971Y-114085986D01*
X183957213Y-113941228D01*
X183791614Y-113820915D01*
X183785006Y-113817548D01*
X183698917Y-113773683D01*
X183648123Y-113725711D01*
X183631328Y-113657890D01*
X183653865Y-113591755D01*
X183698917Y-113552716D01*
X183791610Y-113505487D01*
X183812770Y-113490113D01*
X183957213Y-113385171D01*
X183957215Y-113385168D01*
X183957219Y-113385166D01*
X184101966Y-113240419D01*
X184101968Y-113240415D01*
X184101971Y-113240413D01*
X184154732Y-113167790D01*
X184222287Y-113074810D01*
X184315220Y-112892419D01*
X184378477Y-112697734D01*
X184410500Y-112495552D01*
X184410500Y-112294777D01*
X192273500Y-112294777D01*
X192273500Y-112491622D01*
X192304290Y-112686026D01*
X192365117Y-112873229D01*
X192454476Y-113048605D01*
X192570172Y-113207846D01*
X192709354Y-113347028D01*
X192868595Y-113462724D01*
X192952517Y-113505484D01*
X193045213Y-113552715D01*
X193096009Y-113600689D01*
X193112804Y-113668510D01*
X193090267Y-113734645D01*
X193045213Y-113773685D01*
X192868594Y-113863676D01*
X192835837Y-113887476D01*
X192709354Y-113979372D01*
X192709352Y-113979374D01*
X192709351Y-113979374D01*
X192570174Y-114118551D01*
X192570174Y-114118552D01*
X192570172Y-114118554D01*
X192520485Y-114186941D01*
X192454476Y-114277794D01*
X192365117Y-114453170D01*
X192304290Y-114640373D01*
X192273500Y-114834777D01*
X192273500Y-115031622D01*
X192304290Y-115226026D01*
X192365117Y-115413229D01*
X192446166Y-115572296D01*
X192454476Y-115588605D01*
X192570172Y-115747846D01*
X192709354Y-115887028D01*
X192868595Y-116002724D01*
X192951455Y-116044943D01*
X193043970Y-116092082D01*
X193043972Y-116092082D01*
X193043975Y-116092084D01*
X193118085Y-116116164D01*
X193231173Y-116152909D01*
X193425578Y-116183700D01*
X193425583Y-116183700D01*
X193622422Y-116183700D01*
X193816826Y-116152909D01*
X194004025Y-116092084D01*
X194179405Y-116002724D01*
X194338646Y-115887028D01*
X194477828Y-115747846D01*
X194593524Y-115588605D01*
X194682884Y-115413225D01*
X194743709Y-115226026D01*
X194774500Y-115031622D01*
X194774500Y-114834777D01*
X194743709Y-114640373D01*
X194682882Y-114453170D01*
X194593523Y-114277794D01*
X194477828Y-114118554D01*
X194338646Y-113979372D01*
X194179405Y-113863676D01*
X194027147Y-113786097D01*
X205331500Y-113786097D01*
X205331500Y-113786098D01*
X205331500Y-113786102D01*
X205331500Y-115572296D01*
X205336605Y-115614810D01*
X205342123Y-115660765D01*
X205342123Y-115660766D01*
X205342124Y-115660768D01*
X205397637Y-115801539D01*
X205397640Y-115801545D01*
X205489076Y-115922123D01*
X205595366Y-116002724D01*
X205609657Y-116013561D01*
X205750435Y-116069077D01*
X205838897Y-116079700D01*
X207625102Y-116079699D01*
X207713565Y-116069077D01*
X207854343Y-116013561D01*
X207974923Y-115922123D01*
X208066361Y-115801543D01*
X208121877Y-115660765D01*
X208132500Y-115572303D01*
X208132499Y-113786098D01*
X208121877Y-113697635D01*
X208066361Y-113556857D01*
X208062742Y-113552084D01*
X207974923Y-113436276D01*
X207854345Y-113344840D01*
X207854339Y-113344837D01*
X207713566Y-113289323D01*
X207700927Y-113287805D01*
X207625103Y-113278700D01*
X207625097Y-113278700D01*
X205838903Y-113278700D01*
X205750435Y-113289323D01*
X205750431Y-113289324D01*
X205609660Y-113344837D01*
X205609654Y-113344840D01*
X205489076Y-113436276D01*
X205397640Y-113556854D01*
X205397637Y-113556860D01*
X205342123Y-113697633D01*
X205342123Y-113697635D01*
X205331500Y-113786097D01*
X194027147Y-113786097D01*
X194004025Y-113774316D01*
X194003608Y-113774180D01*
X193999889Y-113772160D01*
X193976242Y-113748615D01*
X193951990Y-113725711D01*
X193951581Y-113724061D01*
X193950377Y-113722862D01*
X193943213Y-113690268D01*
X193935195Y-113657890D01*
X193935743Y-113656281D01*
X193935378Y-113654621D01*
X193946970Y-113623334D01*
X193957732Y-113591755D01*
X193959116Y-113590555D01*
X193959654Y-113589104D01*
X193968259Y-113582632D01*
X194002787Y-113552715D01*
X194179403Y-113462725D01*
X194179402Y-113462725D01*
X194179405Y-113462724D01*
X194338646Y-113347028D01*
X194477828Y-113207846D01*
X194593524Y-113048605D01*
X194682884Y-112873225D01*
X194743709Y-112686026D01*
X194751943Y-112634039D01*
X194774500Y-112491622D01*
X194774500Y-112294777D01*
X194743709Y-112100373D01*
X194682882Y-111913170D01*
X194593523Y-111737794D01*
X194477828Y-111578554D01*
X194338646Y-111439372D01*
X194179405Y-111323676D01*
X194114735Y-111290725D01*
X194004029Y-111234317D01*
X193816826Y-111173490D01*
X193622422Y-111142700D01*
X193622417Y-111142700D01*
X193425583Y-111142700D01*
X193425578Y-111142700D01*
X193231173Y-111173490D01*
X193043970Y-111234317D01*
X192868594Y-111323676D01*
X192789420Y-111381200D01*
X192709354Y-111439372D01*
X192709352Y-111439374D01*
X192709351Y-111439374D01*
X192570174Y-111578551D01*
X192570174Y-111578552D01*
X192570172Y-111578554D01*
X192520485Y-111646941D01*
X192454476Y-111737794D01*
X192365117Y-111913170D01*
X192304290Y-112100373D01*
X192273500Y-112294777D01*
X184410500Y-112294777D01*
X184410500Y-112290848D01*
X184385214Y-112131200D01*
X184378477Y-112088665D01*
X184329590Y-111938207D01*
X184315220Y-111893981D01*
X184315218Y-111893978D01*
X184315218Y-111893976D01*
X184279661Y-111824193D01*
X184222287Y-111711590D01*
X184211706Y-111697026D01*
X184101971Y-111545986D01*
X183957217Y-111401232D01*
X183957212Y-111401228D01*
X183881273Y-111346055D01*
X183838607Y-111290725D01*
X183832628Y-111221112D01*
X183865234Y-111159317D01*
X183892392Y-111139291D01*
X183892009Y-111138665D01*
X183896169Y-111136114D01*
X183979104Y-111075858D01*
X183979105Y-111075858D01*
X183878708Y-110975461D01*
X183795092Y-110891845D01*
X219917500Y-110891845D01*
X219917500Y-112370563D01*
X219932953Y-112487953D01*
X219932956Y-112487962D01*
X219993464Y-112634041D01*
X220089718Y-112759482D01*
X220215159Y-112855736D01*
X220361238Y-112916244D01*
X220478639Y-112931700D01*
X222957360Y-112931699D01*
X222957363Y-112931699D01*
X223074753Y-112916246D01*
X223074757Y-112916244D01*
X223074762Y-112916244D01*
X223220841Y-112855736D01*
X223346282Y-112759482D01*
X223442536Y-112634041D01*
X223503044Y-112487962D01*
X223518500Y-112370561D01*
X223518499Y-111578554D01*
X223518499Y-110891840D01*
X223518498Y-110891833D01*
X223518497Y-110891829D01*
X223517765Y-110886269D01*
X225814000Y-110886269D01*
X225814000Y-111381200D01*
X227380988Y-111381200D01*
X227348075Y-111438207D01*
X227314000Y-111565374D01*
X227314000Y-111697026D01*
X227348075Y-111824193D01*
X227380988Y-111881200D01*
X225814000Y-111881200D01*
X225814000Y-112376130D01*
X225829122Y-112510341D01*
X225888663Y-112680501D01*
X225984577Y-112833148D01*
X226112051Y-112960622D01*
X226264698Y-113056536D01*
X226434858Y-113116077D01*
X226569069Y-113131199D01*
X226569070Y-113131200D01*
X227564000Y-113131200D01*
X227564000Y-112064212D01*
X227621007Y-112097125D01*
X227748174Y-112131200D01*
X227879826Y-112131200D01*
X228006993Y-112097125D01*
X228064000Y-112064212D01*
X228064000Y-113131200D01*
X229058930Y-113131200D01*
X229058930Y-113131199D01*
X229193141Y-113116077D01*
X229363301Y-113056536D01*
X229515948Y-112960622D01*
X229643422Y-112833148D01*
X229739336Y-112680501D01*
X229798877Y-112510341D01*
X229813999Y-112376130D01*
X229814000Y-112376130D01*
X229814000Y-111881200D01*
X228247012Y-111881200D01*
X228279925Y-111824193D01*
X228314000Y-111697026D01*
X228314000Y-111565374D01*
X228279925Y-111438207D01*
X228247012Y-111381200D01*
X229814000Y-111381200D01*
X229814000Y-110886270D01*
X229813999Y-110886269D01*
X229798877Y-110752058D01*
X229739336Y-110581898D01*
X229643422Y-110429251D01*
X229515948Y-110301777D01*
X229363301Y-110205863D01*
X229193141Y-110146322D01*
X229058930Y-110131200D01*
X228064000Y-110131200D01*
X228064000Y-111198188D01*
X228006993Y-111165275D01*
X227879826Y-111131200D01*
X227748174Y-111131200D01*
X227621007Y-111165275D01*
X227564000Y-111198188D01*
X227564000Y-110131200D01*
X226569070Y-110131200D01*
X226434858Y-110146322D01*
X226264698Y-110205863D01*
X226112051Y-110301777D01*
X225984577Y-110429251D01*
X225888663Y-110581898D01*
X225829122Y-110752058D01*
X225814000Y-110886269D01*
X223517765Y-110886269D01*
X223517314Y-110882845D01*
X223503046Y-110774446D01*
X223503044Y-110774439D01*
X223503044Y-110774438D01*
X223442536Y-110628359D01*
X223346282Y-110502918D01*
X223220841Y-110406664D01*
X223074762Y-110346156D01*
X223074760Y-110346155D01*
X222957370Y-110330701D01*
X222957367Y-110330700D01*
X222957361Y-110330700D01*
X222957354Y-110330700D01*
X220478636Y-110330700D01*
X220361246Y-110346153D01*
X220361237Y-110346156D01*
X220215160Y-110406663D01*
X220089718Y-110502918D01*
X219993463Y-110628360D01*
X219932956Y-110774437D01*
X219932955Y-110774439D01*
X219917501Y-110891829D01*
X219917500Y-110891845D01*
X183795092Y-110891845D01*
X183239408Y-110336162D01*
X183302993Y-110319125D01*
X183417007Y-110253299D01*
X183510099Y-110160207D01*
X183575925Y-110046193D01*
X183592962Y-109982609D01*
X184332658Y-110722305D01*
X184332658Y-110722304D01*
X184392914Y-110639369D01*
X184392918Y-110639363D01*
X184500102Y-110429002D01*
X184573065Y-110204447D01*
X184610000Y-109971252D01*
X184610000Y-109735147D01*
X184573065Y-109501952D01*
X184500102Y-109277397D01*
X184392914Y-109067028D01*
X184332658Y-108984094D01*
X184332658Y-108984093D01*
X183592962Y-109723790D01*
X183575925Y-109660207D01*
X183510099Y-109546193D01*
X183417007Y-109453101D01*
X183302993Y-109387275D01*
X183239409Y-109370237D01*
X183979105Y-108630540D01*
X183979104Y-108630538D01*
X183896170Y-108570284D01*
X183892019Y-108567740D01*
X183892839Y-108566400D01*
X183847071Y-108523180D01*
X183830270Y-108455360D01*
X183852803Y-108389224D01*
X183881271Y-108360344D01*
X183957219Y-108305166D01*
X184101966Y-108160419D01*
X184101968Y-108160415D01*
X184101971Y-108160413D01*
X184194111Y-108033591D01*
X184222287Y-107994810D01*
X184315220Y-107812419D01*
X184378477Y-107617734D01*
X184410500Y-107415552D01*
X184410500Y-107210848D01*
X184403077Y-107163984D01*
X184378477Y-107008665D01*
X184315218Y-106813976D01*
X184281503Y-106747807D01*
X184222287Y-106631590D01*
X184172808Y-106563487D01*
X184101971Y-106465986D01*
X183957213Y-106321228D01*
X183791613Y-106200915D01*
X183791612Y-106200914D01*
X183791610Y-106200913D01*
X183734653Y-106171891D01*
X183609223Y-106107981D01*
X183414534Y-106044722D01*
X183239995Y-106017078D01*
X183212352Y-106012700D01*
X183007648Y-106012700D01*
X182983329Y-106016551D01*
X182805465Y-106044722D01*
X182610776Y-106107981D01*
X182428386Y-106200915D01*
X182262786Y-106321228D01*
X182118028Y-106465986D01*
X181997715Y-106631586D01*
X181904781Y-106813976D01*
X181841522Y-107008665D01*
X181809500Y-107210848D01*
X181809500Y-107415551D01*
X181841522Y-107617734D01*
X181904781Y-107812423D01*
X181997715Y-107994813D01*
X182118028Y-108160413D01*
X182118034Y-108160419D01*
X182262781Y-108305166D01*
X182338727Y-108360344D01*
X182381393Y-108415673D01*
X182387372Y-108485286D01*
X182354767Y-108547082D01*
X182327605Y-108567115D01*
X182327987Y-108567737D01*
X182323835Y-108570281D01*
X182240894Y-108630540D01*
X182980591Y-109370237D01*
X182917007Y-109387275D01*
X182802993Y-109453101D01*
X182709901Y-109546193D01*
X182644075Y-109660207D01*
X182627037Y-109723791D01*
X181887340Y-108984094D01*
X181827084Y-109067030D01*
X181719897Y-109277397D01*
X181646934Y-109501952D01*
X181610000Y-109735147D01*
X178326500Y-109735147D01*
X178326500Y-109115562D01*
X178334167Y-109077022D01*
X178333473Y-109076836D01*
X178335577Y-109068984D01*
X178376500Y-108916257D01*
X178376500Y-108758143D01*
X178335577Y-108605416D01*
X178325445Y-108587866D01*
X178256524Y-108468490D01*
X178256518Y-108468482D01*
X178144717Y-108356681D01*
X178144709Y-108356675D01*
X178007790Y-108277626D01*
X178007786Y-108277624D01*
X178007784Y-108277623D01*
X177855057Y-108236700D01*
X177696943Y-108236700D01*
X177544216Y-108277623D01*
X177544209Y-108277626D01*
X177407290Y-108356675D01*
X177407282Y-108356681D01*
X177295481Y-108468482D01*
X177295475Y-108468490D01*
X177216426Y-108605409D01*
X177216423Y-108605416D01*
X177175500Y-108758143D01*
X177175500Y-108916257D01*
X177216423Y-109068984D01*
X177218527Y-109076836D01*
X177217832Y-109077022D01*
X177225500Y-109115562D01*
X177225500Y-119901204D01*
X177205815Y-119968243D01*
X177153011Y-120013998D01*
X177116286Y-120024319D01*
X177094441Y-120026942D01*
X176953656Y-120082460D01*
X176833077Y-120173898D01*
X176741639Y-120294477D01*
X176686122Y-120435259D01*
X176680188Y-120484674D01*
X176675500Y-120523719D01*
X176675500Y-121709923D01*
X176681126Y-121756775D01*
X176686122Y-121798382D01*
X176741639Y-121939164D01*
X176833077Y-122059743D01*
X176953656Y-122151181D01*
X176953657Y-122151181D01*
X176953658Y-122151182D01*
X177094436Y-122206698D01*
X177163720Y-122215018D01*
X177227933Y-122242554D01*
X177267066Y-122300436D01*
X177268694Y-122370287D01*
X177232299Y-122429929D01*
X177205230Y-122448617D01*
X177094653Y-122504959D01*
X177094645Y-122504964D01*
X177050077Y-122537344D01*
X177050077Y-122537345D01*
X177729554Y-123216821D01*
X177723339Y-123216821D01*
X177621606Y-123244080D01*
X177530394Y-123296741D01*
X177455920Y-123371215D01*
X177403259Y-123462427D01*
X177376000Y-123564160D01*
X177376000Y-123570374D01*
X176696524Y-122890898D01*
X176696523Y-122890898D01*
X176664143Y-122935465D01*
X176571244Y-123117789D01*
X176508009Y-123312403D01*
X176476000Y-123514503D01*
X172023844Y-123514503D01*
X172009288Y-123489292D01*
X171954611Y-123394588D01*
X171954608Y-123394585D01*
X171954607Y-123394582D01*
X171814918Y-123212538D01*
X171814911Y-123212530D01*
X171652670Y-123050289D01*
X171652661Y-123050281D01*
X171470617Y-122910592D01*
X171271890Y-122795857D01*
X171271876Y-122795850D01*
X171059887Y-122708042D01*
X170838238Y-122648652D01*
X170800215Y-122643646D01*
X170610741Y-122618700D01*
X170610734Y-122618700D01*
X170381266Y-122618700D01*
X170381258Y-122618700D01*
X170164715Y-122647209D01*
X170153762Y-122648652D01*
X170060076Y-122673754D01*
X169932112Y-122708042D01*
X169720123Y-122795850D01*
X169720109Y-122795857D01*
X169521382Y-122910592D01*
X169339338Y-123050281D01*
X169177081Y-123212538D01*
X169037392Y-123394582D01*
X168922657Y-123593309D01*
X168922650Y-123593323D01*
X168834842Y-123805312D01*
X168813390Y-123885372D01*
X168777968Y-124017574D01*
X168775453Y-124026959D01*
X168775451Y-124026970D01*
X168745500Y-124254458D01*
X163697644Y-124254458D01*
X163695515Y-124250280D01*
X163648287Y-124157590D01*
X163617963Y-124115852D01*
X163527971Y-123991986D01*
X163383213Y-123847228D01*
X163217613Y-123726915D01*
X163217612Y-123726914D01*
X163217610Y-123726913D01*
X163139263Y-123686993D01*
X163035223Y-123633981D01*
X162840534Y-123570722D01*
X162654799Y-123541305D01*
X162638352Y-123538700D01*
X162433648Y-123538700D01*
X162417201Y-123541305D01*
X162231465Y-123570722D01*
X162036776Y-123633981D01*
X161854386Y-123726915D01*
X161688786Y-123847228D01*
X161544032Y-123991982D01*
X161488855Y-124067927D01*
X161433524Y-124110592D01*
X161363911Y-124116571D01*
X161302116Y-124083965D01*
X161282082Y-124056799D01*
X161281460Y-124057181D01*
X161278919Y-124053035D01*
X161218658Y-123970094D01*
X161218658Y-123970093D01*
X160487128Y-124701624D01*
X160471245Y-124642347D01*
X160404102Y-124526053D01*
X160309147Y-124431098D01*
X160192853Y-124363955D01*
X160133574Y-124348071D01*
X160865105Y-123616540D01*
X160865104Y-123616538D01*
X160782174Y-123556287D01*
X160571802Y-123449097D01*
X160347247Y-123376134D01*
X160347248Y-123376134D01*
X160114052Y-123339200D01*
X159877948Y-123339200D01*
X159644752Y-123376134D01*
X159420197Y-123449097D01*
X159209830Y-123556284D01*
X159126894Y-123616540D01*
X159858425Y-124348071D01*
X159799147Y-124363955D01*
X159682853Y-124431098D01*
X159587898Y-124526053D01*
X159520755Y-124642347D01*
X159504871Y-124701625D01*
X158773340Y-123970094D01*
X158713081Y-124053035D01*
X158710537Y-124057187D01*
X158709199Y-124056367D01*
X158665964Y-124102138D01*
X158598142Y-124118928D01*
X158532008Y-124096385D01*
X158503144Y-124067928D01*
X158447966Y-123991981D01*
X158303219Y-123847234D01*
X158137610Y-123726913D01*
X158021208Y-123667603D01*
X158018262Y-123665893D01*
X157996442Y-123642907D01*
X157973409Y-123621153D01*
X157972459Y-123617643D01*
X157970158Y-123615219D01*
X157966244Y-123594666D01*
X157956500Y-123558644D01*
X157956500Y-116207876D01*
X157976185Y-116140837D01*
X157992819Y-116120195D01*
X169818995Y-104294019D01*
X169880318Y-104260534D01*
X169906676Y-104257700D01*
X224935500Y-104257700D01*
X225002539Y-104277385D01*
X225048294Y-104330189D01*
X225059500Y-104381700D01*
X225059500Y-104425302D01*
X225065126Y-104472154D01*
X225070122Y-104513761D01*
X225125639Y-104654543D01*
X225217077Y-104775122D01*
X225337656Y-104866560D01*
X225337657Y-104866560D01*
X225337658Y-104866561D01*
X225478436Y-104922077D01*
X225566898Y-104932700D01*
X225566903Y-104932700D01*
X226453097Y-104932700D01*
X226453102Y-104932700D01*
X226541564Y-104922077D01*
X226682342Y-104866561D01*
X226802922Y-104775122D01*
X226894361Y-104654542D01*
X226949877Y-104513764D01*
X226960500Y-104425302D01*
X226960500Y-103089098D01*
X228159500Y-103089098D01*
X228159500Y-104425302D01*
X228165126Y-104472154D01*
X228170122Y-104513761D01*
X228225639Y-104654543D01*
X228317077Y-104775122D01*
X228437656Y-104866560D01*
X228437657Y-104866560D01*
X228437658Y-104866561D01*
X228578436Y-104922077D01*
X228666898Y-104932700D01*
X228666903Y-104932700D01*
X229553097Y-104932700D01*
X229553102Y-104932700D01*
X229641564Y-104922077D01*
X229782342Y-104866561D01*
X229902922Y-104775122D01*
X229994361Y-104654542D01*
X230049877Y-104513764D01*
X230058745Y-104439913D01*
X230086281Y-104375703D01*
X230144163Y-104336569D01*
X230181860Y-104330700D01*
X231654447Y-104330700D01*
X231721486Y-104350385D01*
X231766829Y-104402295D01*
X231804431Y-104482932D01*
X231804432Y-104482934D01*
X231934954Y-104669341D01*
X232095858Y-104830245D01*
X232095861Y-104830247D01*
X232282266Y-104960768D01*
X232488504Y-105056939D01*
X232708308Y-105115835D01*
X232878214Y-105130699D01*
X232878215Y-105130700D01*
X232878216Y-105130700D01*
X232991785Y-105130700D01*
X232991785Y-105130699D01*
X233161692Y-105115835D01*
X233381496Y-105056939D01*
X233587734Y-104960768D01*
X233774139Y-104830247D01*
X233935047Y-104669339D01*
X234065568Y-104482934D01*
X234161739Y-104276696D01*
X234220635Y-104056892D01*
X234235500Y-103886984D01*
X234235500Y-103773416D01*
X234220635Y-103603508D01*
X234161739Y-103383704D01*
X234065568Y-103177466D01*
X233941753Y-103000638D01*
X233935045Y-102991058D01*
X233774141Y-102830154D01*
X233704448Y-102781355D01*
X233660823Y-102726779D01*
X233653629Y-102657280D01*
X233685152Y-102594925D01*
X233712098Y-102573257D01*
X233809604Y-102515156D01*
X233809608Y-102515153D01*
X233999294Y-102354496D01*
X233999296Y-102354494D01*
X234159953Y-102164808D01*
X234287206Y-101951249D01*
X234377564Y-101719682D01*
X234377567Y-101719672D01*
X234415199Y-101540200D01*
X233368012Y-101540200D01*
X233400925Y-101483193D01*
X233435000Y-101356026D01*
X233435000Y-101224374D01*
X233400925Y-101097207D01*
X233368012Y-101040200D01*
X234415198Y-101040200D01*
X234377567Y-100860727D01*
X234377564Y-100860717D01*
X234287206Y-100629150D01*
X234159952Y-100415591D01*
X233998251Y-100224671D01*
X233969944Y-100160793D01*
X233980666Y-100091750D01*
X234027014Y-100039466D01*
X234042776Y-100031101D01*
X234107765Y-100002406D01*
X234187206Y-99922965D01*
X234232585Y-99820191D01*
X234235500Y-99795065D01*
X234235499Y-97705336D01*
X234235497Y-97705317D01*
X234232586Y-97680212D01*
X234232585Y-97680210D01*
X234232585Y-97680209D01*
X234187206Y-97577435D01*
X234107765Y-97497994D01*
X234107763Y-97497993D01*
X234004992Y-97452615D01*
X233979865Y-97449700D01*
X231890143Y-97449700D01*
X231890117Y-97449702D01*
X231865012Y-97452613D01*
X231865008Y-97452615D01*
X231762235Y-97497993D01*
X231682794Y-97577434D01*
X231637415Y-97680206D01*
X231637415Y-97680208D01*
X231634500Y-97705331D01*
X231634500Y-99795056D01*
X231634502Y-99795082D01*
X231637413Y-99820187D01*
X231637415Y-99820191D01*
X231682793Y-99922964D01*
X231682794Y-99922965D01*
X231762235Y-100002406D01*
X231827214Y-100031097D01*
X231880588Y-100076181D01*
X231901116Y-100142967D01*
X231882278Y-100210250D01*
X231871748Y-100224671D01*
X231710047Y-100415591D01*
X231582793Y-100629150D01*
X231492435Y-100860717D01*
X231492432Y-100860727D01*
X231454801Y-101040200D01*
X232501988Y-101040200D01*
X232469075Y-101097207D01*
X232435000Y-101224374D01*
X232435000Y-101356026D01*
X232469075Y-101483193D01*
X232501988Y-101540200D01*
X231454801Y-101540200D01*
X231492432Y-101719672D01*
X231492435Y-101719682D01*
X231582793Y-101951249D01*
X231710046Y-102164808D01*
X231870703Y-102354494D01*
X231870705Y-102354496D01*
X232060391Y-102515153D01*
X232157902Y-102573257D01*
X232205416Y-102624484D01*
X232217692Y-102693267D01*
X232190833Y-102757768D01*
X232165552Y-102781355D01*
X232095856Y-102830156D01*
X231934954Y-102991058D01*
X231804432Y-103177465D01*
X231804431Y-103177467D01*
X231766829Y-103258105D01*
X231720656Y-103310544D01*
X231654447Y-103329700D01*
X230184500Y-103329700D01*
X230117461Y-103310015D01*
X230071706Y-103257211D01*
X230060500Y-103205700D01*
X230060500Y-103089103D01*
X230060500Y-103089098D01*
X230049877Y-103000636D01*
X229994361Y-102859858D01*
X229994360Y-102859857D01*
X229994360Y-102859856D01*
X229902922Y-102739277D01*
X229782343Y-102647839D01*
X229641561Y-102592322D01*
X229595926Y-102586842D01*
X229553102Y-102581700D01*
X228666898Y-102581700D01*
X228627853Y-102586388D01*
X228578438Y-102592322D01*
X228437656Y-102647839D01*
X228317077Y-102739277D01*
X228225639Y-102859856D01*
X228170122Y-103000638D01*
X228164188Y-103050053D01*
X228159500Y-103089098D01*
X226960500Y-103089098D01*
X226949877Y-103000636D01*
X226894361Y-102859858D01*
X226894360Y-102859857D01*
X226894360Y-102859856D01*
X226802922Y-102739277D01*
X226682343Y-102647839D01*
X226541561Y-102592322D01*
X226495926Y-102586842D01*
X226453102Y-102581700D01*
X225566898Y-102581700D01*
X225527853Y-102586388D01*
X225478438Y-102592322D01*
X225337656Y-102647839D01*
X225217077Y-102739277D01*
X225125639Y-102859856D01*
X225070122Y-103000638D01*
X225064188Y-103050053D01*
X225059500Y-103089098D01*
X225059500Y-103089103D01*
X225059500Y-103132700D01*
X225039815Y-103199739D01*
X224987011Y-103245494D01*
X224935500Y-103256700D01*
X169582108Y-103256700D01*
X169454812Y-103290808D01*
X169340686Y-103356700D01*
X169340683Y-103356702D01*
X167262181Y-105435204D01*
X167200858Y-105468689D01*
X167131166Y-105463705D01*
X167075233Y-105421833D01*
X167050816Y-105356369D01*
X167050500Y-105347523D01*
X167050500Y-96331893D01*
X167050500Y-96331891D01*
X167019799Y-96217314D01*
X167019799Y-96217313D01*
X166960489Y-96114586D01*
X162661646Y-91815743D01*
X163713500Y-91815743D01*
X163713500Y-91973857D01*
X163716579Y-91985346D01*
X163754423Y-92126583D01*
X163754426Y-92126590D01*
X163833475Y-92263509D01*
X163833479Y-92263514D01*
X163833480Y-92263516D01*
X163945284Y-92375320D01*
X163945286Y-92375321D01*
X163945290Y-92375324D01*
X164066494Y-92445300D01*
X164082216Y-92454377D01*
X164234943Y-92495300D01*
X164234945Y-92495300D01*
X164393055Y-92495300D01*
X164393057Y-92495300D01*
X164545784Y-92454377D01*
X164545785Y-92454376D01*
X164553635Y-92452273D01*
X164553820Y-92452965D01*
X164592363Y-92445300D01*
X166575637Y-92445300D01*
X166614179Y-92452965D01*
X166614365Y-92452273D01*
X166622214Y-92454376D01*
X166622216Y-92454377D01*
X166774943Y-92495300D01*
X166774945Y-92495300D01*
X166933055Y-92495300D01*
X166933057Y-92495300D01*
X167085784Y-92454377D01*
X167222716Y-92375320D01*
X167334520Y-92263516D01*
X167413577Y-92126584D01*
X167454500Y-91973857D01*
X167454500Y-91815743D01*
X167413577Y-91663016D01*
X167413573Y-91663009D01*
X167334524Y-91526090D01*
X167334518Y-91526082D01*
X167222717Y-91414281D01*
X167222709Y-91414275D01*
X167085790Y-91335226D01*
X167085786Y-91335224D01*
X167085784Y-91335223D01*
X166933057Y-91294300D01*
X166774943Y-91294300D01*
X166622216Y-91335223D01*
X166622214Y-91335223D01*
X166614365Y-91337327D01*
X166614179Y-91336634D01*
X166575637Y-91344300D01*
X164592363Y-91344300D01*
X164553820Y-91336634D01*
X164553635Y-91337327D01*
X164545785Y-91335223D01*
X164545784Y-91335223D01*
X164393057Y-91294300D01*
X164234943Y-91294300D01*
X164082216Y-91335223D01*
X164082209Y-91335226D01*
X163945290Y-91414275D01*
X163945282Y-91414281D01*
X163833481Y-91526082D01*
X163833475Y-91526090D01*
X163754426Y-91663009D01*
X163754423Y-91663016D01*
X163713500Y-91815743D01*
X162661646Y-91815743D01*
X160300046Y-89454143D01*
X168031500Y-89454143D01*
X168031500Y-89612257D01*
X168054725Y-89698932D01*
X168072423Y-89764983D01*
X168072424Y-89764986D01*
X168114887Y-89838534D01*
X168131500Y-89900534D01*
X168131500Y-97732550D01*
X168114888Y-97794549D01*
X168072423Y-97868101D01*
X168072423Y-97868102D01*
X168031500Y-98020829D01*
X168031500Y-98178943D01*
X168071149Y-98326913D01*
X168072423Y-98331669D01*
X168072426Y-98331676D01*
X168151475Y-98468595D01*
X168151479Y-98468600D01*
X168151480Y-98468602D01*
X168263284Y-98580406D01*
X168263286Y-98580407D01*
X168263290Y-98580410D01*
X168339751Y-98624554D01*
X168400216Y-98659463D01*
X168552943Y-98700386D01*
X168552945Y-98700386D01*
X168711055Y-98700386D01*
X168711057Y-98700386D01*
X168863784Y-98659463D01*
X168945744Y-98612143D01*
X169013643Y-98595671D01*
X169079670Y-98618524D01*
X169122861Y-98673445D01*
X169129502Y-98742998D01*
X169106119Y-98795017D01*
X169037392Y-98884583D01*
X168922657Y-99083309D01*
X168922650Y-99083323D01*
X168834842Y-99295312D01*
X168775453Y-99516959D01*
X168775451Y-99516970D01*
X168745500Y-99744458D01*
X168745500Y-99973941D01*
X168761387Y-100094605D01*
X168775452Y-100201438D01*
X168804087Y-100308305D01*
X168834842Y-100423087D01*
X168922650Y-100635076D01*
X168922657Y-100635090D01*
X169037392Y-100833817D01*
X169177081Y-101015861D01*
X169177089Y-101015870D01*
X169339330Y-101178111D01*
X169339338Y-101178118D01*
X169521382Y-101317807D01*
X169521385Y-101317808D01*
X169521388Y-101317811D01*
X169720112Y-101432544D01*
X169720117Y-101432546D01*
X169720123Y-101432549D01*
X169811480Y-101470390D01*
X169932113Y-101520358D01*
X170153762Y-101579748D01*
X170381266Y-101609700D01*
X170381273Y-101609700D01*
X170610727Y-101609700D01*
X170610734Y-101609700D01*
X170838238Y-101579748D01*
X171059887Y-101520358D01*
X171271888Y-101432544D01*
X171470612Y-101317811D01*
X171652661Y-101178119D01*
X171652665Y-101178114D01*
X171652670Y-101178111D01*
X171814911Y-101015870D01*
X171814913Y-101015866D01*
X171814919Y-101015861D01*
X171954611Y-100833812D01*
X172069344Y-100635088D01*
X172157158Y-100423087D01*
X172216548Y-100201438D01*
X172246500Y-99973934D01*
X172246500Y-99744466D01*
X172216548Y-99516962D01*
X172157158Y-99295313D01*
X172069344Y-99083312D01*
X171954611Y-98884588D01*
X171954608Y-98884585D01*
X171954607Y-98884582D01*
X171814918Y-98702538D01*
X171814911Y-98702530D01*
X171652670Y-98540289D01*
X171652661Y-98540281D01*
X171470617Y-98400592D01*
X171459793Y-98394343D01*
X171351251Y-98331676D01*
X171271890Y-98285857D01*
X171271876Y-98285850D01*
X171059887Y-98198042D01*
X171018651Y-98186993D01*
X170838238Y-98138652D01*
X170800215Y-98133646D01*
X170610741Y-98108700D01*
X170610734Y-98108700D01*
X170381266Y-98108700D01*
X170381258Y-98108700D01*
X170164715Y-98137209D01*
X170153762Y-98138652D01*
X170142704Y-98141615D01*
X169932112Y-98198042D01*
X169720123Y-98285850D01*
X169720109Y-98285857D01*
X169521387Y-98400589D01*
X169352379Y-98530275D01*
X169287209Y-98555469D01*
X169218765Y-98541431D01*
X169168775Y-98492617D01*
X169153111Y-98424525D01*
X169169503Y-98369902D01*
X169191577Y-98331670D01*
X169232500Y-98178943D01*
X169232500Y-98020829D01*
X169191577Y-97868102D01*
X169149112Y-97794549D01*
X169132500Y-97732550D01*
X169132500Y-93699748D01*
X169152185Y-93632709D01*
X169204989Y-93586954D01*
X169274147Y-93577010D01*
X169318499Y-93592360D01*
X169416216Y-93648777D01*
X169568943Y-93689700D01*
X169568945Y-93689700D01*
X169727055Y-93689700D01*
X169727057Y-93689700D01*
X169879784Y-93648777D01*
X170016716Y-93569720D01*
X170068319Y-93518117D01*
X170129642Y-93484632D01*
X170199334Y-93489616D01*
X170243681Y-93518117D01*
X170295284Y-93569720D01*
X170295286Y-93569721D01*
X170295290Y-93569724D01*
X170352300Y-93602638D01*
X170432216Y-93648777D01*
X170584943Y-93689700D01*
X170584945Y-93689700D01*
X170743055Y-93689700D01*
X170743057Y-93689700D01*
X170895784Y-93648777D01*
X171032716Y-93569720D01*
X171084319Y-93518117D01*
X171145642Y-93484632D01*
X171215334Y-93489616D01*
X171259681Y-93518117D01*
X171311284Y-93569720D01*
X171311286Y-93569721D01*
X171311290Y-93569724D01*
X171368300Y-93602638D01*
X171448216Y-93648777D01*
X171600943Y-93689700D01*
X171600945Y-93689700D01*
X171759055Y-93689700D01*
X171759057Y-93689700D01*
X171911784Y-93648777D01*
X172048716Y-93569720D01*
X172160520Y-93457916D01*
X172239577Y-93320984D01*
X172280500Y-93168257D01*
X172280500Y-93010143D01*
X172239577Y-92857416D01*
X172197112Y-92783863D01*
X172180500Y-92721864D01*
X172180500Y-89900534D01*
X172197113Y-89838534D01*
X172208521Y-89818775D01*
X172239577Y-89764984D01*
X172280500Y-89612257D01*
X172280500Y-89454143D01*
X172239577Y-89301416D01*
X172173592Y-89187125D01*
X172160524Y-89164490D01*
X172160518Y-89164482D01*
X172048717Y-89052681D01*
X172048709Y-89052675D01*
X171911790Y-88973626D01*
X171911786Y-88973624D01*
X171911784Y-88973623D01*
X171759057Y-88932700D01*
X171600943Y-88932700D01*
X171448216Y-88973623D01*
X171448209Y-88973626D01*
X171311290Y-89052675D01*
X171311282Y-89052681D01*
X171259681Y-89104283D01*
X171198358Y-89137768D01*
X171128666Y-89132784D01*
X171084319Y-89104283D01*
X171032717Y-89052681D01*
X171032709Y-89052675D01*
X170895790Y-88973626D01*
X170895786Y-88973624D01*
X170895784Y-88973623D01*
X170743057Y-88932700D01*
X170584943Y-88932700D01*
X170432216Y-88973623D01*
X170432209Y-88973626D01*
X170295290Y-89052675D01*
X170295282Y-89052681D01*
X170243681Y-89104283D01*
X170182358Y-89137768D01*
X170112666Y-89132784D01*
X170068319Y-89104283D01*
X170016717Y-89052681D01*
X170016709Y-89052675D01*
X169879790Y-88973626D01*
X169879786Y-88973624D01*
X169879784Y-88973623D01*
X169727057Y-88932700D01*
X169568943Y-88932700D01*
X169416216Y-88973623D01*
X169416209Y-88973626D01*
X169279290Y-89052675D01*
X169279282Y-89052681D01*
X169227681Y-89104283D01*
X169166358Y-89137768D01*
X169096666Y-89132784D01*
X169052319Y-89104283D01*
X169000717Y-89052681D01*
X169000709Y-89052675D01*
X168863790Y-88973626D01*
X168863786Y-88973624D01*
X168863784Y-88973623D01*
X168711057Y-88932700D01*
X168552943Y-88932700D01*
X168400216Y-88973623D01*
X168400209Y-88973626D01*
X168263290Y-89052675D01*
X168263282Y-89052681D01*
X168151481Y-89164482D01*
X168151475Y-89164490D01*
X168072426Y-89301409D01*
X168072423Y-89301416D01*
X168031500Y-89454143D01*
X160300046Y-89454143D01*
X159538046Y-88692143D01*
X164729500Y-88692143D01*
X164729500Y-88850257D01*
X164751591Y-88932700D01*
X164770423Y-89002983D01*
X164770426Y-89002990D01*
X164849475Y-89139909D01*
X164849479Y-89139914D01*
X164849480Y-89139916D01*
X164961284Y-89251720D01*
X164961286Y-89251721D01*
X164961290Y-89251724D01*
X165052266Y-89304248D01*
X165098216Y-89330777D01*
X165250943Y-89371700D01*
X165250945Y-89371700D01*
X165409055Y-89371700D01*
X165409057Y-89371700D01*
X165561784Y-89330777D01*
X165561786Y-89330775D01*
X165561788Y-89330775D01*
X165698709Y-89251724D01*
X165698708Y-89251724D01*
X165698716Y-89251720D01*
X165810520Y-89139916D01*
X165889577Y-89002984D01*
X165930500Y-88850257D01*
X165930500Y-88692143D01*
X165889577Y-88539416D01*
X165889576Y-88539414D01*
X165887473Y-88531565D01*
X165888165Y-88531379D01*
X165880500Y-88492837D01*
X165880500Y-83716587D01*
X165900185Y-83649548D01*
X165916819Y-83628906D01*
X166791706Y-82754019D01*
X166853029Y-82720534D01*
X166879387Y-82717700D01*
X172925637Y-82717700D01*
X172964179Y-82725365D01*
X172964365Y-82724673D01*
X172972214Y-82726776D01*
X172972216Y-82726777D01*
X173124943Y-82767700D01*
X173124945Y-82767700D01*
X173283055Y-82767700D01*
X173283057Y-82767700D01*
X173435784Y-82726777D01*
X173435785Y-82726776D01*
X173443635Y-82724673D01*
X173443820Y-82725365D01*
X173482363Y-82717700D01*
X180799637Y-82717700D01*
X180838179Y-82725365D01*
X180838365Y-82724673D01*
X180846214Y-82726776D01*
X180846216Y-82726777D01*
X180998943Y-82767700D01*
X180998945Y-82767700D01*
X181157055Y-82767700D01*
X181157057Y-82767700D01*
X181309784Y-82726777D01*
X181309785Y-82726776D01*
X181317635Y-82724673D01*
X181317820Y-82725365D01*
X181356363Y-82717700D01*
X188672613Y-82717700D01*
X188739652Y-82737385D01*
X188760294Y-82754019D01*
X192541294Y-86535019D01*
X192574779Y-86596342D01*
X192569795Y-86666034D01*
X192527923Y-86721967D01*
X192462459Y-86746384D01*
X192453613Y-86746700D01*
X175424107Y-86746700D01*
X175349540Y-86766679D01*
X175349541Y-86766680D01*
X175296812Y-86780808D01*
X175296811Y-86780809D01*
X175182689Y-86846698D01*
X175182683Y-86846702D01*
X175089500Y-86939886D01*
X175089498Y-86939888D01*
X174494729Y-87534657D01*
X173895245Y-88134140D01*
X173895244Y-88134140D01*
X173895245Y-88134141D01*
X173819500Y-88209886D01*
X173753608Y-88324012D01*
X173719500Y-88451308D01*
X173719500Y-92467864D01*
X173702888Y-92529863D01*
X173660423Y-92603415D01*
X173660423Y-92603416D01*
X173619500Y-92756143D01*
X173619500Y-92914257D01*
X173643110Y-93002369D01*
X173660423Y-93066983D01*
X173660426Y-93066990D01*
X173739475Y-93203909D01*
X173739479Y-93203914D01*
X173739480Y-93203916D01*
X173851284Y-93315720D01*
X173851286Y-93315721D01*
X173851290Y-93315724D01*
X173895550Y-93341277D01*
X173988216Y-93394777D01*
X174140943Y-93435700D01*
X174140945Y-93435700D01*
X174299055Y-93435700D01*
X174299057Y-93435700D01*
X174451784Y-93394777D01*
X174588716Y-93315720D01*
X174700520Y-93203916D01*
X174779577Y-93066984D01*
X174820500Y-92914257D01*
X174820500Y-92756143D01*
X174779577Y-92603416D01*
X174737112Y-92529863D01*
X174720500Y-92467864D01*
X174720500Y-88775875D01*
X174740185Y-88708836D01*
X174756819Y-88688194D01*
X175660994Y-87784019D01*
X175722317Y-87750534D01*
X175748675Y-87747700D01*
X195188666Y-87747700D01*
X195250665Y-87764312D01*
X195324216Y-87806777D01*
X195476943Y-87847700D01*
X195476945Y-87847700D01*
X195635055Y-87847700D01*
X195635057Y-87847700D01*
X195787784Y-87806777D01*
X195924716Y-87727720D01*
X196036520Y-87615916D01*
X196115577Y-87478984D01*
X196156500Y-87326257D01*
X196156500Y-87168143D01*
X196115577Y-87015416D01*
X196082255Y-86957700D01*
X196065782Y-86889799D01*
X196088635Y-86823773D01*
X196143556Y-86780582D01*
X196189642Y-86771700D01*
X200817525Y-86771700D01*
X202087525Y-86771700D01*
X202135637Y-86771700D01*
X202174179Y-86779365D01*
X202174365Y-86778673D01*
X202182214Y-86780776D01*
X202182216Y-86780777D01*
X202334943Y-86821700D01*
X202334945Y-86821700D01*
X202493055Y-86821700D01*
X202493057Y-86821700D01*
X202645784Y-86780777D01*
X202645785Y-86780776D01*
X202653635Y-86778673D01*
X202653820Y-86779365D01*
X202692363Y-86771700D01*
X206961637Y-86771700D01*
X207000179Y-86779365D01*
X207000365Y-86778673D01*
X207008214Y-86780776D01*
X207008216Y-86780777D01*
X207160943Y-86821700D01*
X207160945Y-86821700D01*
X207319055Y-86821700D01*
X207319057Y-86821700D01*
X207471784Y-86780777D01*
X207471785Y-86780776D01*
X207479635Y-86778673D01*
X207479820Y-86779365D01*
X207518363Y-86771700D01*
X212041637Y-86771700D01*
X212080179Y-86779365D01*
X212080365Y-86778673D01*
X212088214Y-86780776D01*
X212088216Y-86780777D01*
X212240943Y-86821700D01*
X212240945Y-86821700D01*
X212399055Y-86821700D01*
X212399057Y-86821700D01*
X212551784Y-86780777D01*
X212551785Y-86780776D01*
X212559635Y-86778673D01*
X212559820Y-86779365D01*
X212598363Y-86771700D01*
X218018784Y-86771700D01*
X218085823Y-86791385D01*
X218131578Y-86844189D01*
X218139001Y-86865307D01*
X218140637Y-86871778D01*
X218140640Y-86871787D01*
X218140641Y-86871790D01*
X218143281Y-86878484D01*
X218193636Y-87006176D01*
X218280921Y-87121278D01*
X218396026Y-87208565D01*
X218505025Y-87251549D01*
X218560169Y-87294454D01*
X218583362Y-87360362D01*
X218567241Y-87428347D01*
X218516924Y-87476823D01*
X218498539Y-87484609D01*
X218347518Y-87534652D01*
X218347507Y-87534657D01*
X218203271Y-87623624D01*
X218203267Y-87623627D01*
X218083427Y-87743467D01*
X218083424Y-87743471D01*
X217994457Y-87887707D01*
X217994452Y-87887718D01*
X217941144Y-88048593D01*
X217931000Y-88147877D01*
X217931000Y-88471200D01*
X218997988Y-88471200D01*
X218965075Y-88528207D01*
X218931000Y-88655374D01*
X218931000Y-88787026D01*
X218965075Y-88914193D01*
X218997988Y-88971200D01*
X217931001Y-88971200D01*
X217931001Y-89294522D01*
X217941144Y-89393807D01*
X217994452Y-89554681D01*
X217994457Y-89554692D01*
X218083424Y-89698928D01*
X218083427Y-89698932D01*
X218203267Y-89818772D01*
X218203271Y-89818775D01*
X218347507Y-89907742D01*
X218347518Y-89907747D01*
X218508393Y-89961055D01*
X218607683Y-89971199D01*
X219180999Y-89971199D01*
X219181000Y-89971198D01*
X219181000Y-89154212D01*
X219238007Y-89187125D01*
X219365174Y-89221200D01*
X219496826Y-89221200D01*
X219623993Y-89187125D01*
X219681000Y-89154212D01*
X219681000Y-89971199D01*
X220254308Y-89971199D01*
X220254322Y-89971198D01*
X220353607Y-89961055D01*
X220514481Y-89907747D01*
X220514492Y-89907742D01*
X220658728Y-89818775D01*
X220658732Y-89818772D01*
X220778572Y-89698932D01*
X220778575Y-89698928D01*
X220867542Y-89554692D01*
X220867547Y-89554681D01*
X220920855Y-89393806D01*
X220930999Y-89294522D01*
X220931000Y-89294509D01*
X220931000Y-88971200D01*
X219864012Y-88971200D01*
X219896925Y-88914193D01*
X219931000Y-88787026D01*
X219931000Y-88655374D01*
X219896925Y-88528207D01*
X219864012Y-88471200D01*
X220930999Y-88471200D01*
X220930999Y-88147892D01*
X220930998Y-88147877D01*
X220920855Y-88048592D01*
X220867547Y-87887718D01*
X220867542Y-87887707D01*
X220778575Y-87743471D01*
X220778572Y-87743467D01*
X220658732Y-87623627D01*
X220658728Y-87623624D01*
X220514492Y-87534657D01*
X220514481Y-87534652D01*
X220363460Y-87484609D01*
X220306015Y-87444836D01*
X220279192Y-87380321D01*
X220291507Y-87311545D01*
X220339050Y-87260345D01*
X220356966Y-87251551D01*
X220465975Y-87208564D01*
X220581078Y-87121278D01*
X220668364Y-87006175D01*
X220721359Y-86871790D01*
X220731500Y-86787344D01*
X220731500Y-85655056D01*
X220721359Y-85570610D01*
X220668364Y-85436225D01*
X220668363Y-85436224D01*
X220668363Y-85436223D01*
X220581078Y-85321121D01*
X220465976Y-85233836D01*
X220331588Y-85180840D01*
X220288242Y-85175635D01*
X220247144Y-85170700D01*
X218614856Y-85170700D01*
X218576841Y-85175265D01*
X218530411Y-85180840D01*
X218396023Y-85233836D01*
X218280921Y-85321121D01*
X218193636Y-85436223D01*
X218157029Y-85529053D01*
X218145422Y-85558488D01*
X218140637Y-85570621D01*
X218139001Y-85577093D01*
X218103485Y-85637263D01*
X218041077Y-85668680D01*
X218018784Y-85670700D01*
X212598363Y-85670700D01*
X212559820Y-85663034D01*
X212559635Y-85663727D01*
X212551785Y-85661623D01*
X212551784Y-85661623D01*
X212399057Y-85620700D01*
X212240943Y-85620700D01*
X212088216Y-85661623D01*
X212088214Y-85661623D01*
X212080365Y-85663727D01*
X212080179Y-85663034D01*
X212041637Y-85670700D01*
X207518363Y-85670700D01*
X207479820Y-85663034D01*
X207479635Y-85663727D01*
X207471785Y-85661623D01*
X207471784Y-85661623D01*
X207319057Y-85620700D01*
X207160943Y-85620700D01*
X207008216Y-85661623D01*
X207008214Y-85661623D01*
X207000365Y-85663727D01*
X207000179Y-85663034D01*
X206961637Y-85670700D01*
X203809917Y-85670700D01*
X203742878Y-85651015D01*
X203697123Y-85598211D01*
X203687179Y-85529053D01*
X203716204Y-85465497D01*
X203747916Y-85439314D01*
X203768008Y-85427713D01*
X203768007Y-85427713D01*
X203768015Y-85427709D01*
X203870509Y-85325215D01*
X203942984Y-85199685D01*
X203980500Y-85059675D01*
X203980500Y-84914725D01*
X203942984Y-84774715D01*
X203912294Y-84721559D01*
X203870511Y-84649188D01*
X203870506Y-84649182D01*
X203768017Y-84546693D01*
X203768011Y-84546688D01*
X203642488Y-84474217D01*
X203642489Y-84474217D01*
X203631006Y-84471140D01*
X203502475Y-84436700D01*
X203321525Y-84436700D01*
X203192993Y-84471140D01*
X203181511Y-84474217D01*
X203055988Y-84546688D01*
X203055982Y-84546693D01*
X202953493Y-84649182D01*
X202953488Y-84649188D01*
X202881017Y-84774711D01*
X202881016Y-84774715D01*
X202843500Y-84914725D01*
X202843500Y-85059675D01*
X202875967Y-85180841D01*
X202881017Y-85199688D01*
X202953488Y-85325211D01*
X202953490Y-85325213D01*
X202953491Y-85325215D01*
X203055985Y-85427709D01*
X203055988Y-85427710D01*
X203055991Y-85427713D01*
X203076084Y-85439314D01*
X203124299Y-85489881D01*
X203137521Y-85558488D01*
X203111553Y-85623353D01*
X203054638Y-85663881D01*
X203014083Y-85670700D01*
X202692363Y-85670700D01*
X202653820Y-85663034D01*
X202653635Y-85663727D01*
X202645785Y-85661623D01*
X202645784Y-85661623D01*
X202493057Y-85620700D01*
X202334943Y-85620700D01*
X202182216Y-85661623D01*
X202182214Y-85661623D01*
X202174365Y-85663727D01*
X202174179Y-85663034D01*
X202135637Y-85670700D01*
X193285387Y-85670700D01*
X193218348Y-85651015D01*
X193197706Y-85634381D01*
X190678381Y-83115056D01*
X218130500Y-83115056D01*
X218130500Y-84247344D01*
X218135825Y-84291694D01*
X218140640Y-84331788D01*
X218193636Y-84466176D01*
X218280921Y-84581278D01*
X218396023Y-84668563D01*
X218396024Y-84668563D01*
X218396025Y-84668564D01*
X218530410Y-84721559D01*
X218614856Y-84731700D01*
X218614862Y-84731700D01*
X220247138Y-84731700D01*
X220247144Y-84731700D01*
X220331590Y-84721559D01*
X220465975Y-84668564D01*
X220581078Y-84581278D01*
X220668364Y-84466175D01*
X220721359Y-84331790D01*
X220731500Y-84247344D01*
X220731500Y-83115056D01*
X220721359Y-83030610D01*
X220668364Y-82896225D01*
X220668363Y-82896224D01*
X220668363Y-82896223D01*
X220581078Y-82781121D01*
X220465976Y-82693836D01*
X220331588Y-82640840D01*
X220288242Y-82635635D01*
X220247144Y-82630700D01*
X218614856Y-82630700D01*
X218576841Y-82635265D01*
X218530411Y-82640840D01*
X218396023Y-82693836D01*
X218280921Y-82781121D01*
X218193636Y-82896223D01*
X218140640Y-83030611D01*
X218135065Y-83077041D01*
X218130500Y-83115056D01*
X190678381Y-83115056D01*
X189538095Y-81974770D01*
X189516262Y-81942095D01*
X189515641Y-81942454D01*
X189432524Y-81798490D01*
X189432518Y-81798482D01*
X189320717Y-81686681D01*
X189320709Y-81686675D01*
X189183790Y-81607626D01*
X189183786Y-81607624D01*
X189183784Y-81607623D01*
X189031057Y-81566700D01*
X188872943Y-81566700D01*
X188720216Y-81607623D01*
X188720214Y-81607623D01*
X188712365Y-81609727D01*
X188712179Y-81609034D01*
X188673637Y-81616700D01*
X181356363Y-81616700D01*
X181317820Y-81609034D01*
X181317635Y-81609727D01*
X181309785Y-81607623D01*
X181309784Y-81607623D01*
X181157057Y-81566700D01*
X180998943Y-81566700D01*
X180846216Y-81607623D01*
X180846214Y-81607623D01*
X180838365Y-81609727D01*
X180838179Y-81609034D01*
X180799637Y-81616700D01*
X173482363Y-81616700D01*
X173443820Y-81609034D01*
X173443635Y-81609727D01*
X173435785Y-81607623D01*
X173435784Y-81607623D01*
X173283057Y-81566700D01*
X173124943Y-81566700D01*
X172972216Y-81607623D01*
X172972214Y-81607623D01*
X172964365Y-81609727D01*
X172964179Y-81609034D01*
X172925637Y-81616700D01*
X166527525Y-81616700D01*
X166451385Y-81637102D01*
X166387514Y-81654216D01*
X166261986Y-81726689D01*
X166261983Y-81726691D01*
X164889491Y-83099183D01*
X164889489Y-83099186D01*
X164817016Y-83224714D01*
X164817016Y-83224715D01*
X164779500Y-83364725D01*
X164779500Y-83364727D01*
X164779500Y-88492837D01*
X164778395Y-88498390D01*
X164775465Y-88524212D01*
X164772371Y-88536041D01*
X164770423Y-88539416D01*
X164729500Y-88692143D01*
X159538046Y-88692143D01*
X151420959Y-80575056D01*
X218130500Y-80575056D01*
X218130500Y-81707344D01*
X218135825Y-81751694D01*
X218140640Y-81791788D01*
X218193636Y-81926176D01*
X218280921Y-82041278D01*
X218396023Y-82128563D01*
X218396024Y-82128563D01*
X218396025Y-82128564D01*
X218530410Y-82181559D01*
X218614856Y-82191700D01*
X218614862Y-82191700D01*
X220247138Y-82191700D01*
X220247144Y-82191700D01*
X220331590Y-82181559D01*
X220465975Y-82128564D01*
X220581078Y-82041278D01*
X220668364Y-81926175D01*
X220721359Y-81791790D01*
X220731500Y-81707344D01*
X220731500Y-80575056D01*
X220721359Y-80490610D01*
X220668364Y-80356225D01*
X220668363Y-80356224D01*
X220668363Y-80356223D01*
X220581078Y-80241121D01*
X220465976Y-80153836D01*
X220331588Y-80100840D01*
X220288242Y-80095635D01*
X220247144Y-80090700D01*
X218614856Y-80090700D01*
X218576841Y-80095265D01*
X218530411Y-80100840D01*
X218396023Y-80153836D01*
X218280921Y-80241121D01*
X218193636Y-80356223D01*
X218140640Y-80490611D01*
X218135065Y-80537041D01*
X218130500Y-80575056D01*
X151420959Y-80575056D01*
X148880959Y-78035056D01*
X218130500Y-78035056D01*
X218130500Y-79167344D01*
X218132298Y-79182315D01*
X218140640Y-79251788D01*
X218193636Y-79386176D01*
X218280921Y-79501278D01*
X218396023Y-79588563D01*
X218396024Y-79588563D01*
X218396025Y-79588564D01*
X218530410Y-79641559D01*
X218614856Y-79651700D01*
X218614862Y-79651700D01*
X220247138Y-79651700D01*
X220247144Y-79651700D01*
X220331590Y-79641559D01*
X220465975Y-79588564D01*
X220581078Y-79501278D01*
X220668364Y-79386175D01*
X220721359Y-79251790D01*
X220731500Y-79167344D01*
X220731500Y-78035056D01*
X220721359Y-77950610D01*
X220668364Y-77816225D01*
X220668363Y-77816224D01*
X220668363Y-77816223D01*
X220581078Y-77701121D01*
X220465976Y-77613836D01*
X220331588Y-77560840D01*
X220288242Y-77555635D01*
X220247144Y-77550700D01*
X218614856Y-77550700D01*
X218576841Y-77555265D01*
X218530411Y-77560840D01*
X218396023Y-77613836D01*
X218280921Y-77701121D01*
X218193636Y-77816223D01*
X218140640Y-77950611D01*
X218138137Y-77971458D01*
X218130500Y-78035056D01*
X148880959Y-78035056D01*
X145179667Y-74333764D01*
X157763565Y-74333764D01*
X157763565Y-74569869D01*
X157800499Y-74803064D01*
X157873462Y-75027619D01*
X157980652Y-75237991D01*
X158040903Y-75320921D01*
X158040905Y-75320922D01*
X158739777Y-74622050D01*
X158751047Y-74664109D01*
X158823455Y-74789525D01*
X158925857Y-74891927D01*
X159051273Y-74964335D01*
X159093330Y-74975604D01*
X158394458Y-75674475D01*
X158477393Y-75734731D01*
X158687762Y-75841919D01*
X158912317Y-75914882D01*
X158912316Y-75914882D01*
X159145513Y-75951817D01*
X159381617Y-75951817D01*
X159614812Y-75914882D01*
X159839367Y-75841919D01*
X160049728Y-75734735D01*
X160049734Y-75734731D01*
X160132669Y-75674475D01*
X160132670Y-75674475D01*
X159433798Y-74975604D01*
X159475857Y-74964335D01*
X159601273Y-74891927D01*
X159703675Y-74789525D01*
X159776083Y-74664109D01*
X159787352Y-74622051D01*
X160486223Y-75320922D01*
X160486223Y-75320921D01*
X160546479Y-75237986D01*
X160546483Y-75237980D01*
X160653667Y-75027619D01*
X160726630Y-74803064D01*
X160763565Y-74569869D01*
X160763565Y-74349465D01*
X162463065Y-74349465D01*
X162463065Y-74554168D01*
X162495087Y-74756351D01*
X162558346Y-74951040D01*
X162584219Y-75001817D01*
X162646887Y-75124810D01*
X162651280Y-75133430D01*
X162771593Y-75299030D01*
X162916351Y-75443788D01*
X163030749Y-75526901D01*
X163081955Y-75564104D01*
X163198172Y-75623320D01*
X163264341Y-75657035D01*
X163264343Y-75657035D01*
X163264346Y-75657037D01*
X163318015Y-75674475D01*
X163459030Y-75720294D01*
X163550181Y-75734731D01*
X163661213Y-75752317D01*
X163661214Y-75752317D01*
X163865916Y-75752317D01*
X163865917Y-75752317D01*
X164068099Y-75720294D01*
X164262784Y-75657037D01*
X164445175Y-75564104D01*
X164610784Y-75443783D01*
X164755531Y-75299036D01*
X164755533Y-75299032D01*
X164755536Y-75299030D01*
X164808297Y-75226407D01*
X164875852Y-75133427D01*
X164968785Y-74951036D01*
X165032042Y-74756351D01*
X165064065Y-74554169D01*
X165064065Y-74349465D01*
X165061578Y-74333764D01*
X165601565Y-74333764D01*
X165601565Y-74569869D01*
X165638499Y-74803064D01*
X165711462Y-75027619D01*
X165818652Y-75237991D01*
X165878903Y-75320921D01*
X165878905Y-75320922D01*
X166577777Y-74622050D01*
X166589047Y-74664109D01*
X166661455Y-74789525D01*
X166763857Y-74891927D01*
X166889273Y-74964335D01*
X166931330Y-74975604D01*
X166232458Y-75674475D01*
X166315393Y-75734731D01*
X166525762Y-75841919D01*
X166750317Y-75914882D01*
X166750316Y-75914882D01*
X166983513Y-75951817D01*
X167219617Y-75951817D01*
X167452812Y-75914882D01*
X167677367Y-75841919D01*
X167887728Y-75734735D01*
X167887734Y-75734731D01*
X167970669Y-75674475D01*
X167970670Y-75674475D01*
X167271798Y-74975604D01*
X167313857Y-74964335D01*
X167439273Y-74891927D01*
X167541675Y-74789525D01*
X167614083Y-74664109D01*
X167625352Y-74622050D01*
X168324223Y-75320922D01*
X168324223Y-75320921D01*
X168384479Y-75237986D01*
X168384483Y-75237980D01*
X168491667Y-75027619D01*
X168564630Y-74803064D01*
X168601565Y-74569869D01*
X168601565Y-74349465D01*
X170301065Y-74349465D01*
X170301065Y-74554168D01*
X170333087Y-74756351D01*
X170396346Y-74951040D01*
X170422219Y-75001817D01*
X170484887Y-75124810D01*
X170489280Y-75133430D01*
X170609593Y-75299030D01*
X170754351Y-75443788D01*
X170868749Y-75526901D01*
X170919955Y-75564104D01*
X171036172Y-75623320D01*
X171102341Y-75657035D01*
X171102343Y-75657035D01*
X171102346Y-75657037D01*
X171156015Y-75674475D01*
X171297030Y-75720294D01*
X171388181Y-75734731D01*
X171499213Y-75752317D01*
X171499214Y-75752317D01*
X171703916Y-75752317D01*
X171703917Y-75752317D01*
X171906099Y-75720294D01*
X172100784Y-75657037D01*
X172283175Y-75564104D01*
X172346247Y-75518280D01*
X172346249Y-75518279D01*
X172448777Y-75443788D01*
X172448775Y-75443788D01*
X172448784Y-75443783D01*
X172593531Y-75299036D01*
X172593533Y-75299032D01*
X172593536Y-75299030D01*
X172646297Y-75226407D01*
X172713852Y-75133427D01*
X172806785Y-74951036D01*
X172870042Y-74756351D01*
X172902065Y-74554169D01*
X172902065Y-74349465D01*
X172898213Y-74325147D01*
X173554000Y-74325147D01*
X173554000Y-74561252D01*
X173590934Y-74794447D01*
X173663897Y-75019002D01*
X173771087Y-75229374D01*
X173831338Y-75312304D01*
X173831340Y-75312305D01*
X174530212Y-74613433D01*
X174541482Y-74655492D01*
X174613890Y-74780908D01*
X174716292Y-74883310D01*
X174841708Y-74955718D01*
X174883765Y-74966987D01*
X174184893Y-75665858D01*
X174267828Y-75726114D01*
X174478197Y-75833302D01*
X174702752Y-75906265D01*
X174702751Y-75906265D01*
X174935948Y-75943200D01*
X175172052Y-75943200D01*
X175405247Y-75906265D01*
X175629802Y-75833302D01*
X175840163Y-75726118D01*
X175840169Y-75726114D01*
X175923104Y-75665858D01*
X175923105Y-75665858D01*
X175224233Y-74966987D01*
X175266292Y-74955718D01*
X175391708Y-74883310D01*
X175494110Y-74780908D01*
X175566518Y-74655492D01*
X175577787Y-74613434D01*
X176276658Y-75312305D01*
X176276658Y-75312304D01*
X176336914Y-75229369D01*
X176336918Y-75229363D01*
X176444102Y-75019002D01*
X176517065Y-74794447D01*
X176554000Y-74561252D01*
X176554000Y-74340848D01*
X178253500Y-74340848D01*
X178253500Y-74545552D01*
X178257878Y-74573195D01*
X178285522Y-74747734D01*
X178348781Y-74942423D01*
X178409047Y-75060700D01*
X178436496Y-75114572D01*
X178441715Y-75124813D01*
X178562028Y-75290413D01*
X178706786Y-75435171D01*
X178821184Y-75518284D01*
X178872390Y-75555487D01*
X178988607Y-75614703D01*
X179054776Y-75648418D01*
X179054778Y-75648418D01*
X179054781Y-75648420D01*
X179108450Y-75665858D01*
X179249465Y-75711677D01*
X179340616Y-75726114D01*
X179451648Y-75743700D01*
X179451649Y-75743700D01*
X179656351Y-75743700D01*
X179656352Y-75743700D01*
X179858534Y-75711677D01*
X180053219Y-75648420D01*
X180235610Y-75555487D01*
X180401219Y-75435166D01*
X180545966Y-75290419D01*
X180545968Y-75290415D01*
X180545971Y-75290413D01*
X180660026Y-75133427D01*
X180666287Y-75124810D01*
X180759220Y-74942419D01*
X180822477Y-74747734D01*
X180854500Y-74545552D01*
X180854500Y-74340848D01*
X180852013Y-74325147D01*
X181428000Y-74325147D01*
X181428000Y-74561252D01*
X181464934Y-74794447D01*
X181537897Y-75019002D01*
X181645087Y-75229374D01*
X181705338Y-75312304D01*
X181705340Y-75312305D01*
X182404212Y-74613433D01*
X182415482Y-74655492D01*
X182487890Y-74780908D01*
X182590292Y-74883310D01*
X182715708Y-74955718D01*
X182757765Y-74966987D01*
X182058893Y-75665858D01*
X182141828Y-75726114D01*
X182352197Y-75833302D01*
X182576752Y-75906265D01*
X182576751Y-75906265D01*
X182809948Y-75943200D01*
X183046052Y-75943200D01*
X183279247Y-75906265D01*
X183503802Y-75833302D01*
X183714163Y-75726118D01*
X183714169Y-75726114D01*
X183797104Y-75665858D01*
X183797105Y-75665858D01*
X183098233Y-74966987D01*
X183140292Y-74955718D01*
X183265708Y-74883310D01*
X183368110Y-74780908D01*
X183440518Y-74655492D01*
X183451787Y-74613434D01*
X184150658Y-75312305D01*
X184150658Y-75312304D01*
X184210914Y-75229369D01*
X184210918Y-75229363D01*
X184318102Y-75019002D01*
X184391065Y-74794447D01*
X184428000Y-74561252D01*
X184428000Y-74340848D01*
X186127500Y-74340848D01*
X186127500Y-74545552D01*
X186131878Y-74573195D01*
X186159522Y-74747734D01*
X186222781Y-74942423D01*
X186283047Y-75060700D01*
X186310496Y-75114572D01*
X186315715Y-75124813D01*
X186436028Y-75290413D01*
X186580786Y-75435171D01*
X186695184Y-75518284D01*
X186746390Y-75555487D01*
X186862607Y-75614703D01*
X186928776Y-75648418D01*
X186928778Y-75648418D01*
X186928781Y-75648420D01*
X186982450Y-75665858D01*
X187123465Y-75711677D01*
X187214616Y-75726114D01*
X187325648Y-75743700D01*
X187325649Y-75743700D01*
X187530351Y-75743700D01*
X187530352Y-75743700D01*
X187732534Y-75711677D01*
X187927219Y-75648420D01*
X188109610Y-75555487D01*
X188198783Y-75490698D01*
X218180500Y-75490698D01*
X218180500Y-76631681D01*
X218180501Y-76631690D01*
X218186587Y-76688314D01*
X218231300Y-76808189D01*
X218234372Y-76816426D01*
X218316313Y-76925887D01*
X218425774Y-77007828D01*
X218553886Y-77055612D01*
X218610515Y-77061700D01*
X220251484Y-77061699D01*
X220308114Y-77055612D01*
X220436226Y-77007828D01*
X220545687Y-76925887D01*
X220627628Y-76816426D01*
X220675412Y-76688314D01*
X220680918Y-76637102D01*
X220681499Y-76631701D01*
X220681499Y-76631690D01*
X220681500Y-76631685D01*
X220681499Y-75490716D01*
X220675412Y-75434086D01*
X220668170Y-75414671D01*
X220638839Y-75336032D01*
X220627628Y-75305974D01*
X220545687Y-75196513D01*
X220479911Y-75147274D01*
X220436228Y-75114573D01*
X220436226Y-75114572D01*
X220308114Y-75066788D01*
X220308112Y-75066787D01*
X220308110Y-75066787D01*
X220251493Y-75060700D01*
X218610518Y-75060700D01*
X218610509Y-75060701D01*
X218553885Y-75066787D01*
X218425773Y-75114572D01*
X218316313Y-75196513D01*
X218234373Y-75305971D01*
X218186587Y-75434089D01*
X218180500Y-75490698D01*
X188198783Y-75490698D01*
X188202590Y-75487932D01*
X188275213Y-75435171D01*
X188275215Y-75435168D01*
X188275219Y-75435166D01*
X188419966Y-75290419D01*
X188419968Y-75290415D01*
X188419971Y-75290413D01*
X188534026Y-75133427D01*
X188540287Y-75124810D01*
X188633220Y-74942419D01*
X188696477Y-74747734D01*
X188728500Y-74545552D01*
X188728500Y-74340848D01*
X188696477Y-74138666D01*
X188680549Y-74089646D01*
X188662570Y-74034311D01*
X188633220Y-73943981D01*
X188633218Y-73943978D01*
X188633218Y-73943976D01*
X188594198Y-73867397D01*
X188540287Y-73761590D01*
X188479463Y-73677872D01*
X188419971Y-73595986D01*
X188275213Y-73451228D01*
X188109613Y-73330915D01*
X188109612Y-73330914D01*
X188109610Y-73330913D01*
X188037753Y-73294300D01*
X187927223Y-73237981D01*
X187732534Y-73174722D01*
X187557995Y-73147078D01*
X187530352Y-73142700D01*
X187325648Y-73142700D01*
X187301329Y-73146551D01*
X187123465Y-73174722D01*
X186928776Y-73237981D01*
X186746386Y-73330915D01*
X186580786Y-73451228D01*
X186436028Y-73595986D01*
X186315715Y-73761586D01*
X186222781Y-73943976D01*
X186159522Y-74138665D01*
X186143548Y-74239525D01*
X186127500Y-74340848D01*
X184428000Y-74340848D01*
X184428000Y-74325147D01*
X184391065Y-74091952D01*
X184318102Y-73867397D01*
X184210914Y-73657028D01*
X184150658Y-73574094D01*
X184150658Y-73574093D01*
X183451787Y-74272965D01*
X183440518Y-74230908D01*
X183368110Y-74105492D01*
X183265708Y-74003090D01*
X183140292Y-73930682D01*
X183098234Y-73919412D01*
X183797105Y-73220540D01*
X183797104Y-73220538D01*
X183714174Y-73160287D01*
X183503802Y-73053097D01*
X183279247Y-72980134D01*
X183279248Y-72980134D01*
X183046052Y-72943200D01*
X182809948Y-72943200D01*
X182576752Y-72980134D01*
X182352197Y-73053097D01*
X182141830Y-73160284D01*
X182058894Y-73220540D01*
X182757766Y-73919412D01*
X182715708Y-73930682D01*
X182590292Y-74003090D01*
X182487890Y-74105492D01*
X182415482Y-74230908D01*
X182404212Y-74272966D01*
X181705340Y-73574094D01*
X181645084Y-73657030D01*
X181537897Y-73867397D01*
X181464934Y-74091952D01*
X181428000Y-74325147D01*
X180852013Y-74325147D01*
X180822477Y-74138666D01*
X180806549Y-74089646D01*
X180788570Y-74034311D01*
X180759220Y-73943981D01*
X180759218Y-73943978D01*
X180759218Y-73943976D01*
X180720198Y-73867397D01*
X180666287Y-73761590D01*
X180605463Y-73677872D01*
X180545971Y-73595986D01*
X180401219Y-73451234D01*
X180312671Y-73386901D01*
X180286817Y-73368117D01*
X180286816Y-73368115D01*
X180235613Y-73330915D01*
X180235612Y-73330914D01*
X180235610Y-73330913D01*
X180163753Y-73294300D01*
X180053223Y-73237981D01*
X179858534Y-73174722D01*
X179683995Y-73147078D01*
X179656352Y-73142700D01*
X179451648Y-73142700D01*
X179427329Y-73146551D01*
X179249465Y-73174722D01*
X179054776Y-73237981D01*
X178872386Y-73330915D01*
X178706786Y-73451228D01*
X178562028Y-73595986D01*
X178441715Y-73761586D01*
X178348781Y-73943976D01*
X178285522Y-74138665D01*
X178269548Y-74239525D01*
X178253500Y-74340848D01*
X176554000Y-74340848D01*
X176554000Y-74325147D01*
X176517065Y-74091952D01*
X176444102Y-73867397D01*
X176336914Y-73657028D01*
X176276658Y-73574094D01*
X176276658Y-73574093D01*
X175577787Y-74272965D01*
X175566518Y-74230908D01*
X175494110Y-74105492D01*
X175391708Y-74003090D01*
X175266292Y-73930682D01*
X175224234Y-73919412D01*
X175923105Y-73220540D01*
X175923104Y-73220538D01*
X175840174Y-73160287D01*
X175629802Y-73053097D01*
X175405247Y-72980134D01*
X175405248Y-72980134D01*
X175172052Y-72943200D01*
X174935948Y-72943200D01*
X174702752Y-72980134D01*
X174478197Y-73053097D01*
X174267830Y-73160284D01*
X174184894Y-73220540D01*
X174883766Y-73919412D01*
X174841708Y-73930682D01*
X174716292Y-74003090D01*
X174613890Y-74105492D01*
X174541482Y-74230908D01*
X174530212Y-74272965D01*
X173831340Y-73574094D01*
X173771084Y-73657030D01*
X173663897Y-73867397D01*
X173590934Y-74091952D01*
X173554000Y-74325147D01*
X172898213Y-74325147D01*
X172870042Y-74147282D01*
X172811956Y-73968513D01*
X172806785Y-73952598D01*
X172806783Y-73952595D01*
X172806783Y-73952593D01*
X172763373Y-73867397D01*
X172713852Y-73770207D01*
X172706121Y-73759566D01*
X172593536Y-73604603D01*
X172448778Y-73459845D01*
X172322523Y-73368117D01*
X172283178Y-73339532D01*
X172283177Y-73339531D01*
X172283175Y-73339530D01*
X172226218Y-73310508D01*
X172100788Y-73246598D01*
X171906099Y-73183339D01*
X171731560Y-73155695D01*
X171703917Y-73151317D01*
X171499213Y-73151317D01*
X171474894Y-73155168D01*
X171297030Y-73183339D01*
X171102341Y-73246598D01*
X170919951Y-73339532D01*
X170754351Y-73459845D01*
X170609593Y-73604603D01*
X170489280Y-73770203D01*
X170396346Y-73952593D01*
X170333087Y-74147282D01*
X170301065Y-74349465D01*
X168601565Y-74349465D01*
X168601565Y-74333764D01*
X168564630Y-74100569D01*
X168491667Y-73876014D01*
X168384479Y-73665645D01*
X168324223Y-73582711D01*
X168324223Y-73582710D01*
X167625352Y-74281582D01*
X167614083Y-74239525D01*
X167541675Y-74114109D01*
X167439273Y-74011707D01*
X167313857Y-73939299D01*
X167271799Y-73928029D01*
X167970670Y-73229157D01*
X167970669Y-73229155D01*
X167887739Y-73168904D01*
X167677367Y-73061714D01*
X167452812Y-72988751D01*
X167452813Y-72988751D01*
X167219617Y-72951817D01*
X166983513Y-72951817D01*
X166750317Y-72988751D01*
X166525762Y-73061714D01*
X166315395Y-73168901D01*
X166232459Y-73229157D01*
X166931331Y-73928029D01*
X166889273Y-73939299D01*
X166763857Y-74011707D01*
X166661455Y-74114109D01*
X166589047Y-74239525D01*
X166577777Y-74281583D01*
X165878905Y-73582711D01*
X165818649Y-73665647D01*
X165711462Y-73876014D01*
X165638499Y-74100569D01*
X165601565Y-74333764D01*
X165061578Y-74333764D01*
X165032042Y-74147283D01*
X165016114Y-74098263D01*
X164973956Y-73968513D01*
X164968785Y-73952598D01*
X164968783Y-73952595D01*
X164968783Y-73952593D01*
X164925373Y-73867397D01*
X164875852Y-73770207D01*
X164868121Y-73759566D01*
X164755536Y-73604603D01*
X164610784Y-73459851D01*
X164598915Y-73451228D01*
X164496382Y-73376734D01*
X164496381Y-73376732D01*
X164445178Y-73339532D01*
X164445177Y-73339531D01*
X164445175Y-73339530D01*
X164388218Y-73310508D01*
X164262788Y-73246598D01*
X164068099Y-73183339D01*
X163893560Y-73155695D01*
X163865917Y-73151317D01*
X163661213Y-73151317D01*
X163636894Y-73155168D01*
X163459030Y-73183339D01*
X163264341Y-73246598D01*
X163081951Y-73339532D01*
X162916351Y-73459845D01*
X162771593Y-73604603D01*
X162651280Y-73770203D01*
X162558346Y-73952593D01*
X162495087Y-74147282D01*
X162463065Y-74349465D01*
X160763565Y-74349465D01*
X160763565Y-74333764D01*
X160726630Y-74100569D01*
X160653667Y-73876014D01*
X160546479Y-73665645D01*
X160486223Y-73582711D01*
X160486223Y-73582710D01*
X159787352Y-74281582D01*
X159776083Y-74239525D01*
X159703675Y-74114109D01*
X159601273Y-74011707D01*
X159475857Y-73939299D01*
X159433799Y-73928029D01*
X160132670Y-73229157D01*
X160132669Y-73229155D01*
X160049739Y-73168904D01*
X159839367Y-73061714D01*
X159614812Y-72988751D01*
X159614813Y-72988751D01*
X159381617Y-72951817D01*
X159145513Y-72951817D01*
X158912317Y-72988751D01*
X158687762Y-73061714D01*
X158477395Y-73168901D01*
X158394459Y-73229157D01*
X159093331Y-73928029D01*
X159051273Y-73939299D01*
X158925857Y-74011707D01*
X158823455Y-74114109D01*
X158751047Y-74239525D01*
X158739777Y-74281583D01*
X158040905Y-73582711D01*
X157980649Y-73665647D01*
X157873462Y-73876014D01*
X157800499Y-74100569D01*
X157763565Y-74333764D01*
X145179667Y-74333764D01*
X144880214Y-74034311D01*
X144826138Y-74003090D01*
X144777488Y-73975001D01*
X144765380Y-73971757D01*
X144753273Y-73968513D01*
X144753270Y-73968512D01*
X144715078Y-73958278D01*
X144662909Y-73944300D01*
X144662908Y-73944300D01*
X124550365Y-73944300D01*
X124483326Y-73924615D01*
X124439881Y-73876595D01*
X124410032Y-73818012D01*
X124410031Y-73818011D01*
X124410029Y-73818007D01*
X124380472Y-73777326D01*
X124308214Y-73677872D01*
X124185728Y-73555386D01*
X124045588Y-73453568D01*
X123914746Y-73386901D01*
X123914744Y-73386899D01*
X123891250Y-73374929D01*
X123891247Y-73374928D01*
X123891245Y-73374927D01*
X123726501Y-73321398D01*
X123726499Y-73321397D01*
X123726498Y-73321397D01*
X123595071Y-73300581D01*
X123555411Y-73294300D01*
X123132189Y-73294300D01*
X123092528Y-73300581D01*
X122961102Y-73321397D01*
X122796352Y-73374928D01*
X122642011Y-73453568D01*
X122562056Y-73511659D01*
X122501872Y-73555386D01*
X122501870Y-73555388D01*
X122501869Y-73555388D01*
X122379388Y-73677869D01*
X122379388Y-73677870D01*
X122379386Y-73677872D01*
X122335659Y-73738056D01*
X122277568Y-73818011D01*
X122198928Y-73972352D01*
X122145397Y-74137102D01*
X122118300Y-74308189D01*
X122118300Y-74481410D01*
X122130945Y-74561252D01*
X122145398Y-74652501D01*
X122194319Y-74803064D01*
X122198928Y-74817247D01*
X122236979Y-74891927D01*
X122277568Y-74971588D01*
X122379386Y-75111728D01*
X122501872Y-75234214D01*
X122642012Y-75336032D01*
X122796355Y-75414673D01*
X122961099Y-75468202D01*
X123132189Y-75495300D01*
X123132190Y-75495300D01*
X123555410Y-75495300D01*
X123555411Y-75495300D01*
X123726501Y-75468202D01*
X123891245Y-75414673D01*
X124045588Y-75336032D01*
X124185728Y-75234214D01*
X124308214Y-75111728D01*
X124410032Y-74971588D01*
X124439881Y-74913004D01*
X124487853Y-74862210D01*
X124550365Y-74845300D01*
X144365635Y-74845300D01*
X144432674Y-74864985D01*
X144453316Y-74881619D01*
X150749800Y-81178103D01*
X150783285Y-81239426D01*
X150778301Y-81309118D01*
X150736429Y-81365051D01*
X150694215Y-81385558D01*
X150639514Y-81400216D01*
X150639511Y-81400217D01*
X150513988Y-81472688D01*
X150513982Y-81472693D01*
X150411493Y-81575182D01*
X150411488Y-81575188D01*
X150339017Y-81700711D01*
X150339016Y-81700714D01*
X150324358Y-81755415D01*
X150287992Y-81815075D01*
X150225145Y-81845603D01*
X150155769Y-81837306D01*
X150116903Y-81811000D01*
X147632422Y-79326519D01*
X147600328Y-79270931D01*
X147576584Y-79182315D01*
X147567940Y-79167344D01*
X147504111Y-79056788D01*
X147504106Y-79056782D01*
X147401617Y-78954293D01*
X147401611Y-78954288D01*
X147276088Y-78881817D01*
X147276089Y-78881817D01*
X147243900Y-78873192D01*
X147136075Y-78844300D01*
X146991125Y-78844300D01*
X146883300Y-78873192D01*
X146851111Y-78881817D01*
X146725588Y-78954288D01*
X146725582Y-78954293D01*
X146623093Y-79056782D01*
X146623088Y-79056788D01*
X146550617Y-79182311D01*
X146550616Y-79182315D01*
X146513100Y-79322325D01*
X146513100Y-79467275D01*
X146545600Y-79588564D01*
X146550617Y-79607288D01*
X146623088Y-79732811D01*
X146623090Y-79732813D01*
X146623091Y-79732815D01*
X146725585Y-79835309D01*
X146851115Y-79907784D01*
X146939732Y-79931528D01*
X146995319Y-79963622D01*
X164589181Y-97557484D01*
X164622666Y-97618807D01*
X164625500Y-97645165D01*
X164625500Y-104281234D01*
X164605815Y-104348273D01*
X164589181Y-104368915D01*
X164096764Y-104861331D01*
X164035441Y-104894816D01*
X163965749Y-104889832D01*
X163909816Y-104847960D01*
X163885399Y-104782496D01*
X163889308Y-104741560D01*
X163898500Y-104707257D01*
X163898500Y-104549143D01*
X163857577Y-104396416D01*
X163849081Y-104381700D01*
X163778524Y-104259490D01*
X163778518Y-104259482D01*
X163666717Y-104147681D01*
X163666709Y-104147675D01*
X163529790Y-104068626D01*
X163529786Y-104068624D01*
X163529784Y-104068623D01*
X163377057Y-104027700D01*
X163218943Y-104027700D01*
X163066216Y-104068623D01*
X163066209Y-104068626D01*
X162929290Y-104147675D01*
X162929282Y-104147681D01*
X162817481Y-104259482D01*
X162817475Y-104259490D01*
X162738426Y-104396409D01*
X162738422Y-104396418D01*
X162713590Y-104489088D01*
X162681497Y-104544673D01*
X160578415Y-106647755D01*
X160517092Y-106681240D01*
X160447400Y-106676256D01*
X160391467Y-106634384D01*
X160383347Y-106622074D01*
X160349522Y-106563487D01*
X160349518Y-106563482D01*
X160237717Y-106451681D01*
X160237709Y-106451675D01*
X160100790Y-106372626D01*
X160100786Y-106372624D01*
X160100785Y-106372623D01*
X160100784Y-106372623D01*
X160018745Y-106350640D01*
X159963160Y-106318547D01*
X154573371Y-100928757D01*
X154539886Y-100867434D01*
X154544870Y-100797742D01*
X154586742Y-100741809D01*
X154652206Y-100717392D01*
X154680448Y-100718602D01*
X154813648Y-100739700D01*
X154813649Y-100739700D01*
X155018351Y-100739700D01*
X155018352Y-100739700D01*
X155220534Y-100707677D01*
X155415219Y-100644420D01*
X155597610Y-100551487D01*
X155690590Y-100483932D01*
X155763213Y-100431171D01*
X155763215Y-100431168D01*
X155763219Y-100431166D01*
X155907966Y-100286419D01*
X155907968Y-100286415D01*
X155907971Y-100286413D01*
X156028286Y-100120811D01*
X156028287Y-100120810D01*
X156103573Y-99973052D01*
X156151546Y-99922257D01*
X156219367Y-99905462D01*
X156285502Y-99927999D01*
X156324542Y-99973053D01*
X156385021Y-100091750D01*
X156386476Y-100094605D01*
X156502172Y-100253846D01*
X156641354Y-100393028D01*
X156800595Y-100508724D01*
X156883455Y-100550943D01*
X156975970Y-100598082D01*
X156975972Y-100598082D01*
X156975975Y-100598084D01*
X157071586Y-100629150D01*
X157163173Y-100658909D01*
X157357578Y-100689700D01*
X157357583Y-100689700D01*
X157554422Y-100689700D01*
X157748826Y-100658909D01*
X157753953Y-100657243D01*
X157936025Y-100598084D01*
X158111405Y-100508724D01*
X158270646Y-100393028D01*
X158409828Y-100253846D01*
X158477669Y-100160471D01*
X158532998Y-100117806D01*
X158602611Y-100111827D01*
X158664406Y-100144433D01*
X158688471Y-100177063D01*
X158713085Y-100225372D01*
X158773338Y-100308304D01*
X158773340Y-100308305D01*
X159504871Y-99576774D01*
X159520755Y-99636053D01*
X159587898Y-99752347D01*
X159682853Y-99847302D01*
X159799147Y-99914445D01*
X159858425Y-99930328D01*
X159126893Y-100661858D01*
X159209828Y-100722114D01*
X159420197Y-100829302D01*
X159644752Y-100902265D01*
X159644751Y-100902265D01*
X159877948Y-100939200D01*
X160114052Y-100939200D01*
X160347247Y-100902265D01*
X160571802Y-100829302D01*
X160782163Y-100722118D01*
X160782169Y-100722114D01*
X160865104Y-100661858D01*
X160865105Y-100661858D01*
X160133574Y-99930328D01*
X160192853Y-99914445D01*
X160309147Y-99847302D01*
X160404102Y-99752347D01*
X160471245Y-99636053D01*
X160487128Y-99576774D01*
X161199181Y-100288827D01*
X161232666Y-100350150D01*
X161235500Y-100376507D01*
X161235500Y-100484056D01*
X161235502Y-100484081D01*
X161238414Y-100509188D01*
X161238415Y-100509191D01*
X161283793Y-100611964D01*
X161283794Y-100611965D01*
X161363235Y-100691406D01*
X161466009Y-100736785D01*
X161491135Y-100739700D01*
X163580864Y-100739699D01*
X163580879Y-100739697D01*
X163580882Y-100739697D01*
X163605987Y-100736786D01*
X163605988Y-100736785D01*
X163605991Y-100736785D01*
X163708765Y-100691406D01*
X163788206Y-100611965D01*
X163833585Y-100509191D01*
X163836500Y-100484065D01*
X163836499Y-98394336D01*
X163836497Y-98394317D01*
X163833586Y-98369212D01*
X163833585Y-98369210D01*
X163833585Y-98369209D01*
X163788206Y-98266435D01*
X163708765Y-98186994D01*
X163671915Y-98170723D01*
X163605992Y-98141615D01*
X163580865Y-98138700D01*
X161491143Y-98138700D01*
X161491117Y-98138702D01*
X161466012Y-98141613D01*
X161466008Y-98141615D01*
X161363235Y-98186993D01*
X161283794Y-98266434D01*
X161238415Y-98369206D01*
X161238415Y-98369208D01*
X161235500Y-98394331D01*
X161235500Y-98501891D01*
X161215815Y-98568930D01*
X161199181Y-98589572D01*
X160487128Y-99301624D01*
X160471245Y-99242347D01*
X160404102Y-99126053D01*
X160309147Y-99031098D01*
X160192853Y-98963955D01*
X160133574Y-98948071D01*
X160865105Y-98216540D01*
X160865104Y-98216538D01*
X160782174Y-98156287D01*
X160571802Y-98049097D01*
X160347247Y-97976134D01*
X160347248Y-97976134D01*
X160114052Y-97939200D01*
X159877948Y-97939200D01*
X159644752Y-97976134D01*
X159420197Y-98049097D01*
X159209830Y-98156284D01*
X159126894Y-98216540D01*
X159858425Y-98948071D01*
X159799147Y-98963955D01*
X159682853Y-99031098D01*
X159587898Y-99126053D01*
X159520755Y-99242347D01*
X159504871Y-99301625D01*
X158773340Y-98570094D01*
X158713083Y-98653032D01*
X158688470Y-98701338D01*
X158640496Y-98752133D01*
X158572675Y-98768928D01*
X158506540Y-98746390D01*
X158477669Y-98717929D01*
X158409828Y-98624554D01*
X158270646Y-98485372D01*
X158111405Y-98369676D01*
X158110488Y-98369209D01*
X157936029Y-98280317D01*
X157748826Y-98219490D01*
X157554422Y-98188700D01*
X157554417Y-98188700D01*
X157357583Y-98188700D01*
X157357578Y-98188700D01*
X157163173Y-98219490D01*
X156975970Y-98280317D01*
X156800594Y-98369676D01*
X156725102Y-98424525D01*
X156641354Y-98485372D01*
X156641352Y-98485374D01*
X156641351Y-98485374D01*
X156502174Y-98624551D01*
X156502174Y-98624552D01*
X156502172Y-98624554D01*
X156452485Y-98692941D01*
X156386476Y-98783794D01*
X156324542Y-98905346D01*
X156276567Y-98956142D01*
X156208746Y-98972937D01*
X156142611Y-98950399D01*
X156103573Y-98905347D01*
X156028287Y-98757590D01*
X156028285Y-98757587D01*
X156028284Y-98757585D01*
X155907971Y-98591986D01*
X155763213Y-98447228D01*
X155597611Y-98326913D01*
X155484204Y-98269128D01*
X155433409Y-98221153D01*
X155416500Y-98158644D01*
X155416500Y-95563309D01*
X155416500Y-95563308D01*
X155408828Y-95534677D01*
X155382392Y-95436014D01*
X155316500Y-95321886D01*
X155223314Y-95228700D01*
X155223313Y-95228699D01*
X155218983Y-95224369D01*
X155218972Y-95224359D01*
X153953316Y-93958702D01*
X153953315Y-93958701D01*
X153953314Y-93958700D01*
X153896250Y-93925754D01*
X153839187Y-93892808D01*
X153775539Y-93875754D01*
X153711892Y-93858700D01*
X153711891Y-93858700D01*
X132140500Y-93858700D01*
X132073461Y-93839015D01*
X132027706Y-93786211D01*
X132016500Y-93734700D01*
X132016500Y-93691103D01*
X132016500Y-93691098D01*
X132005877Y-93602636D01*
X131950361Y-93461858D01*
X131950360Y-93461857D01*
X131950360Y-93461856D01*
X131858922Y-93341277D01*
X131738343Y-93249839D01*
X131642192Y-93211922D01*
X131597564Y-93194323D01*
X131597563Y-93194322D01*
X131597561Y-93194322D01*
X131551926Y-93188842D01*
X131509102Y-93183700D01*
X130622898Y-93183700D01*
X130583853Y-93188388D01*
X130534438Y-93194322D01*
X130393656Y-93249839D01*
X130273079Y-93341276D01*
X130189304Y-93451750D01*
X130133111Y-93493273D01*
X130063390Y-93497824D01*
X130002276Y-93463959D01*
X129969172Y-93402429D01*
X129966500Y-93376824D01*
X129966500Y-83007693D01*
X129966500Y-83007691D01*
X129935799Y-82893114D01*
X129935799Y-82893113D01*
X129876489Y-82790386D01*
X124521479Y-77435376D01*
X124487994Y-77374053D01*
X124491229Y-77309377D01*
X124542202Y-77152501D01*
X124569300Y-76981411D01*
X124569300Y-76808189D01*
X124542202Y-76637099D01*
X124488673Y-76472355D01*
X124410032Y-76318012D01*
X124308214Y-76177872D01*
X124185728Y-76055386D01*
X124045588Y-75953568D01*
X123891245Y-75874927D01*
X123726501Y-75821398D01*
X123726499Y-75821397D01*
X123726498Y-75821397D01*
X123595071Y-75800581D01*
X123555411Y-75794300D01*
X123132189Y-75794300D01*
X123092528Y-75800581D01*
X122961102Y-75821397D01*
X122796352Y-75874928D01*
X122642011Y-75953568D01*
X122562056Y-76011659D01*
X122501872Y-76055386D01*
X122501870Y-76055388D01*
X122501869Y-76055388D01*
X122379388Y-76177869D01*
X122379388Y-76177870D01*
X122379386Y-76177872D01*
X122335659Y-76238056D01*
X122277568Y-76318011D01*
X122198928Y-76472352D01*
X122145397Y-76637102D01*
X122118300Y-76808189D01*
X122118300Y-76981410D01*
X122131016Y-77061700D01*
X122145398Y-77152501D01*
X122198927Y-77317245D01*
X122277568Y-77471588D01*
X122379386Y-77611728D01*
X122501872Y-77734214D01*
X122642012Y-77836032D01*
X122796355Y-77914673D01*
X122961099Y-77968202D01*
X123132189Y-77995300D01*
X123132190Y-77995300D01*
X123555410Y-77995300D01*
X123555411Y-77995300D01*
X123710368Y-77970757D01*
X123715792Y-77971458D01*
X123720919Y-77969546D01*
X123750075Y-77975888D01*
X123779660Y-77979712D01*
X123785263Y-77983543D01*
X123789192Y-77984398D01*
X123817446Y-78005549D01*
X123963869Y-78151972D01*
X123997354Y-78213295D01*
X123992370Y-78282987D01*
X123950498Y-78338920D01*
X123885034Y-78363337D01*
X123837870Y-78357584D01*
X123726498Y-78321397D01*
X123595071Y-78300581D01*
X123555411Y-78294300D01*
X123132189Y-78294300D01*
X123092528Y-78300581D01*
X122961102Y-78321397D01*
X122796352Y-78374928D01*
X122642011Y-78453568D01*
X122562056Y-78511659D01*
X122501872Y-78555386D01*
X122501870Y-78555388D01*
X122501869Y-78555388D01*
X122379388Y-78677869D01*
X122379388Y-78677870D01*
X122379386Y-78677872D01*
X122335659Y-78738056D01*
X122277568Y-78818011D01*
X122198928Y-78972352D01*
X122145397Y-79137102D01*
X122138237Y-79182311D01*
X122118300Y-79308189D01*
X122118300Y-79481411D01*
X122145398Y-79652501D01*
X122171494Y-79732817D01*
X122198928Y-79817247D01*
X122245059Y-79907784D01*
X122277568Y-79971588D01*
X122379386Y-80111728D01*
X122501872Y-80234214D01*
X122642012Y-80336032D01*
X122796355Y-80414673D01*
X122961099Y-80468202D01*
X123132189Y-80495300D01*
X123132190Y-80495300D01*
X123555410Y-80495300D01*
X123555411Y-80495300D01*
X123726501Y-80468202D01*
X123891245Y-80414673D01*
X124045588Y-80336032D01*
X124185728Y-80234214D01*
X124308214Y-80111728D01*
X124410032Y-79971588D01*
X124488673Y-79817245D01*
X124542202Y-79652501D01*
X124569300Y-79481411D01*
X124569300Y-79308189D01*
X124542202Y-79137099D01*
X124506014Y-79025727D01*
X124504020Y-78955888D01*
X124540100Y-78896055D01*
X124602801Y-78865227D01*
X124672215Y-78873192D01*
X124711627Y-78899730D01*
X129029181Y-83217284D01*
X129062666Y-83278607D01*
X129065500Y-83304965D01*
X129065500Y-93376824D01*
X129045815Y-93443863D01*
X128993011Y-93489618D01*
X128923853Y-93499562D01*
X128860297Y-93470537D01*
X128842696Y-93451750D01*
X128805294Y-93402429D01*
X128758922Y-93341278D01*
X128758920Y-93341277D01*
X128758920Y-93341276D01*
X128638343Y-93249839D01*
X128542192Y-93211922D01*
X128497564Y-93194323D01*
X128497563Y-93194322D01*
X128497561Y-93194322D01*
X128451926Y-93188842D01*
X128409102Y-93183700D01*
X127522898Y-93183700D01*
X127483853Y-93188388D01*
X127434438Y-93194322D01*
X127293656Y-93249839D01*
X127173077Y-93341277D01*
X127081639Y-93461856D01*
X127026122Y-93602638D01*
X127020583Y-93648773D01*
X127015500Y-93691098D01*
X127015500Y-93691103D01*
X127015500Y-93734700D01*
X126995815Y-93801739D01*
X126943011Y-93847494D01*
X126891500Y-93858700D01*
X124742149Y-93858700D01*
X124675110Y-93839015D01*
X124629355Y-93786211D01*
X124619034Y-93749489D01*
X124608677Y-93663236D01*
X124553161Y-93522458D01*
X124553160Y-93522457D01*
X124553160Y-93522456D01*
X124461722Y-93401877D01*
X124341143Y-93310439D01*
X124200361Y-93254922D01*
X124154726Y-93249442D01*
X124111902Y-93244300D01*
X123821469Y-93244300D01*
X123754430Y-93224615D01*
X123708675Y-93171811D01*
X123698731Y-93102653D01*
X123727756Y-93039097D01*
X123783151Y-93002369D01*
X123910436Y-92961012D01*
X123910439Y-92961011D01*
X124071794Y-92878796D01*
X124218301Y-92772353D01*
X124346353Y-92644301D01*
X124452796Y-92497794D01*
X124535011Y-92336439D01*
X124590971Y-92164209D01*
X124605565Y-92072059D01*
X124619300Y-91985351D01*
X124619300Y-91804248D01*
X124596929Y-91663009D01*
X124590971Y-91625391D01*
X124535011Y-91453161D01*
X124535011Y-91453160D01*
X124475637Y-91336634D01*
X124452796Y-91291806D01*
X124439196Y-91273087D01*
X124346358Y-91145305D01*
X124346354Y-91145300D01*
X124218299Y-91017245D01*
X124218294Y-91017241D01*
X124071797Y-90910806D01*
X124071796Y-90910805D01*
X124071794Y-90910804D01*
X124020100Y-90884464D01*
X123910439Y-90828588D01*
X123910436Y-90828587D01*
X123738210Y-90772629D01*
X123704394Y-90767273D01*
X123641259Y-90737344D01*
X123604328Y-90678032D01*
X123605326Y-90608170D01*
X123643936Y-90549937D01*
X123704394Y-90522327D01*
X123712188Y-90521092D01*
X123738209Y-90516971D01*
X123910439Y-90461011D01*
X124071794Y-90378796D01*
X124218301Y-90272353D01*
X124346353Y-90144301D01*
X124452796Y-89997794D01*
X124535011Y-89836439D01*
X124590971Y-89664209D01*
X124608317Y-89554692D01*
X124619300Y-89485351D01*
X124619300Y-89304248D01*
X124600749Y-89187125D01*
X124590971Y-89125391D01*
X124551199Y-89002983D01*
X124535012Y-88953163D01*
X124535011Y-88953160D01*
X124482577Y-88850255D01*
X124452796Y-88791806D01*
X124386068Y-88699962D01*
X124346358Y-88645305D01*
X124346354Y-88645300D01*
X124218299Y-88517245D01*
X124218294Y-88517241D01*
X124071793Y-88410803D01*
X124071792Y-88410802D01*
X123986288Y-88367235D01*
X123935492Y-88319261D01*
X123918697Y-88251440D01*
X123941235Y-88185305D01*
X123986288Y-88146266D01*
X124176358Y-88049420D01*
X124348259Y-87924527D01*
X124348264Y-87924523D01*
X124498523Y-87774264D01*
X124498527Y-87774259D01*
X124623420Y-87602357D01*
X124719895Y-87413017D01*
X124785557Y-87210929D01*
X124785557Y-87210926D01*
X124796031Y-87144800D01*
X123747946Y-87144800D01*
X123786430Y-87078143D01*
X123818800Y-86957335D01*
X123818800Y-86832265D01*
X123786430Y-86711457D01*
X123747946Y-86644800D01*
X124796031Y-86644800D01*
X124785557Y-86578673D01*
X124785557Y-86578670D01*
X124719895Y-86376582D01*
X124623420Y-86187242D01*
X124498527Y-86015340D01*
X124498523Y-86015335D01*
X124348260Y-85865072D01*
X124183155Y-85745118D01*
X124140489Y-85689789D01*
X124134510Y-85620175D01*
X124167115Y-85558380D01*
X124183155Y-85544482D01*
X124348260Y-85424527D01*
X124498523Y-85274264D01*
X124498527Y-85274259D01*
X124623420Y-85102357D01*
X124719895Y-84913017D01*
X124785557Y-84710929D01*
X124785557Y-84710926D01*
X124796031Y-84644800D01*
X123747946Y-84644800D01*
X123786430Y-84578143D01*
X123818800Y-84457335D01*
X123818800Y-84332265D01*
X123786430Y-84211457D01*
X123747946Y-84144800D01*
X124796031Y-84144800D01*
X124785557Y-84078673D01*
X124785557Y-84078670D01*
X124719895Y-83876582D01*
X124623420Y-83687242D01*
X124498527Y-83515340D01*
X124498523Y-83515335D01*
X124348264Y-83365076D01*
X124348259Y-83365072D01*
X124176357Y-83240179D01*
X123987017Y-83143704D01*
X123938776Y-83128030D01*
X123881101Y-83088593D01*
X123853902Y-83024234D01*
X123865816Y-82955388D01*
X123913061Y-82903912D01*
X123920800Y-82899614D01*
X123927452Y-82896225D01*
X124045588Y-82836032D01*
X124185728Y-82734214D01*
X124308214Y-82611728D01*
X124410032Y-82471588D01*
X124488673Y-82317245D01*
X124542202Y-82152501D01*
X124569300Y-81981411D01*
X124569300Y-81808189D01*
X124542202Y-81637099D01*
X124488673Y-81472355D01*
X124410032Y-81318012D01*
X124308214Y-81177872D01*
X124185728Y-81055386D01*
X124045588Y-80953568D01*
X123891245Y-80874927D01*
X123726501Y-80821398D01*
X123726499Y-80821397D01*
X123726498Y-80821397D01*
X123595071Y-80800581D01*
X123555411Y-80794300D01*
X123132189Y-80794300D01*
X123092528Y-80800581D01*
X122961102Y-80821397D01*
X122796352Y-80874928D01*
X122642011Y-80953568D01*
X122562056Y-81011659D01*
X122501872Y-81055386D01*
X122501870Y-81055388D01*
X122501869Y-81055388D01*
X122379388Y-81177869D01*
X122379388Y-81177870D01*
X122379386Y-81177872D01*
X122335659Y-81238056D01*
X122277568Y-81318011D01*
X122198928Y-81472352D01*
X122145397Y-81637102D01*
X122118300Y-81808189D01*
X122118300Y-81981410D01*
X122141606Y-82128564D01*
X122145398Y-82152501D01*
X122198927Y-82317245D01*
X122277568Y-82471588D01*
X122379386Y-82611728D01*
X122501872Y-82734214D01*
X122579182Y-82790383D01*
X122642013Y-82836033D01*
X122766799Y-82899614D01*
X122817596Y-82947588D01*
X122834391Y-83015409D01*
X122811854Y-83081544D01*
X122757139Y-83124996D01*
X122748824Y-83128030D01*
X122700581Y-83143705D01*
X122511242Y-83240179D01*
X122339340Y-83365072D01*
X122339335Y-83365076D01*
X122189076Y-83515335D01*
X122189072Y-83515340D01*
X122064179Y-83687242D01*
X121967704Y-83876582D01*
X121902042Y-84078670D01*
X121902042Y-84078673D01*
X121891569Y-84144800D01*
X122939654Y-84144800D01*
X122901170Y-84211457D01*
X122868800Y-84332265D01*
X122868800Y-84457335D01*
X122901170Y-84578143D01*
X122939654Y-84644800D01*
X121891569Y-84644800D01*
X121902042Y-84710926D01*
X121902042Y-84710929D01*
X121967704Y-84913017D01*
X122064179Y-85102357D01*
X122189072Y-85274259D01*
X122189076Y-85274264D01*
X122339335Y-85424523D01*
X122339340Y-85424527D01*
X122504444Y-85544482D01*
X122547110Y-85599812D01*
X122553089Y-85669425D01*
X122520484Y-85731220D01*
X122504444Y-85745118D01*
X122339340Y-85865072D01*
X122339335Y-85865076D01*
X122189076Y-86015335D01*
X122189072Y-86015340D01*
X122064179Y-86187242D01*
X121967704Y-86376582D01*
X121902042Y-86578670D01*
X121902042Y-86578673D01*
X121891569Y-86644800D01*
X122939654Y-86644800D01*
X122901170Y-86711457D01*
X122868800Y-86832265D01*
X122868800Y-86957335D01*
X122901170Y-87078143D01*
X122939654Y-87144800D01*
X121891569Y-87144800D01*
X121902042Y-87210926D01*
X121902042Y-87210929D01*
X121967704Y-87413017D01*
X122064179Y-87602357D01*
X122189072Y-87774259D01*
X122189076Y-87774264D01*
X122339335Y-87924523D01*
X122339340Y-87924527D01*
X122511242Y-88049420D01*
X122701311Y-88146266D01*
X122752107Y-88194241D01*
X122768902Y-88262062D01*
X122746365Y-88328197D01*
X122701312Y-88367235D01*
X122615804Y-88410804D01*
X122469305Y-88517241D01*
X122469300Y-88517245D01*
X122341245Y-88645300D01*
X122341241Y-88645305D01*
X122234806Y-88791802D01*
X122152588Y-88953160D01*
X122152587Y-88953163D01*
X122096629Y-89125389D01*
X122068300Y-89304248D01*
X122068300Y-89485351D01*
X122096629Y-89664210D01*
X122152587Y-89836436D01*
X122152588Y-89836439D01*
X122185247Y-89900534D01*
X122216084Y-89961055D01*
X122234806Y-89997797D01*
X122341241Y-90144294D01*
X122341245Y-90144299D01*
X122469300Y-90272354D01*
X122469305Y-90272358D01*
X122597087Y-90365196D01*
X122615806Y-90378796D01*
X122721284Y-90432540D01*
X122777160Y-90461011D01*
X122777163Y-90461012D01*
X122863276Y-90488991D01*
X122949391Y-90516971D01*
X122974091Y-90520883D01*
X122983206Y-90522327D01*
X123046340Y-90552257D01*
X123083271Y-90611568D01*
X123082273Y-90681431D01*
X123043663Y-90739663D01*
X122983206Y-90767273D01*
X122949389Y-90772629D01*
X122777163Y-90828587D01*
X122777160Y-90828588D01*
X122615802Y-90910806D01*
X122469305Y-91017241D01*
X122469300Y-91017245D01*
X122341245Y-91145300D01*
X122341241Y-91145305D01*
X122234806Y-91291802D01*
X122152588Y-91453160D01*
X122152587Y-91453163D01*
X122096629Y-91625389D01*
X122068300Y-91804248D01*
X122068300Y-91985351D01*
X122096629Y-92164210D01*
X122152587Y-92336436D01*
X122152588Y-92336439D01*
X122208057Y-92445300D01*
X122233533Y-92495300D01*
X122234806Y-92497797D01*
X122341241Y-92644294D01*
X122341245Y-92644299D01*
X122469300Y-92772354D01*
X122469305Y-92772358D01*
X122586377Y-92857415D01*
X122615806Y-92878796D01*
X122685398Y-92914255D01*
X122777160Y-92961011D01*
X122777163Y-92961012D01*
X122904449Y-93002369D01*
X122962124Y-93041806D01*
X122989323Y-93106164D01*
X122977409Y-93175011D01*
X122930165Y-93226487D01*
X122866131Y-93244300D01*
X122575698Y-93244300D01*
X122536653Y-93248988D01*
X122487238Y-93254922D01*
X122346456Y-93310439D01*
X122225877Y-93401877D01*
X122134439Y-93522456D01*
X122078922Y-93663238D01*
X122074538Y-93699748D01*
X122068300Y-93751698D01*
X122068300Y-95037902D01*
X122073926Y-95084754D01*
X122078922Y-95126361D01*
X122134439Y-95267143D01*
X122225877Y-95387722D01*
X122346456Y-95479160D01*
X122346457Y-95479160D01*
X122346458Y-95479161D01*
X122487236Y-95534677D01*
X122575698Y-95545300D01*
X122575703Y-95545300D01*
X124111897Y-95545300D01*
X124111902Y-95545300D01*
X124200364Y-95534677D01*
X124341142Y-95479161D01*
X124461722Y-95387722D01*
X124553161Y-95267142D01*
X124608677Y-95126364D01*
X124619300Y-95037902D01*
X124619300Y-94983700D01*
X124638985Y-94916661D01*
X124691789Y-94870906D01*
X124743300Y-94859700D01*
X126891500Y-94859700D01*
X126958539Y-94879385D01*
X127004294Y-94932189D01*
X127015500Y-94983700D01*
X127015500Y-95027302D01*
X127016773Y-95037902D01*
X127026122Y-95115761D01*
X127081639Y-95256543D01*
X127173077Y-95377122D01*
X127293656Y-95468560D01*
X127293657Y-95468560D01*
X127293658Y-95468561D01*
X127434436Y-95524077D01*
X127522898Y-95534700D01*
X127522903Y-95534700D01*
X128409097Y-95534700D01*
X128409102Y-95534700D01*
X128497564Y-95524077D01*
X128638342Y-95468561D01*
X128758922Y-95377122D01*
X128842696Y-95266650D01*
X128898889Y-95225126D01*
X128968610Y-95220575D01*
X129029724Y-95254440D01*
X129062828Y-95315970D01*
X129065500Y-95341575D01*
X129065500Y-98189285D01*
X129045815Y-98256324D01*
X128997794Y-98299770D01*
X128860596Y-98369674D01*
X128785102Y-98424525D01*
X128701354Y-98485372D01*
X128701352Y-98485374D01*
X128701351Y-98485374D01*
X128562174Y-98624551D01*
X128562174Y-98624552D01*
X128562172Y-98624554D01*
X128512485Y-98692941D01*
X128446476Y-98783794D01*
X128384542Y-98905346D01*
X128336567Y-98956142D01*
X128268746Y-98972937D01*
X128202611Y-98950399D01*
X128163573Y-98905347D01*
X128088287Y-98757590D01*
X128088285Y-98757587D01*
X128088284Y-98757585D01*
X127967971Y-98591986D01*
X127823213Y-98447228D01*
X127657613Y-98326915D01*
X127657612Y-98326914D01*
X127657610Y-98326913D01*
X127600653Y-98297891D01*
X127475223Y-98233981D01*
X127280534Y-98170722D01*
X127096756Y-98141615D01*
X127078352Y-98138700D01*
X126873648Y-98138700D01*
X126855244Y-98141615D01*
X126671465Y-98170722D01*
X126476776Y-98233981D01*
X126294386Y-98326915D01*
X126128786Y-98447228D01*
X125984028Y-98591986D01*
X125863715Y-98757586D01*
X125770781Y-98939976D01*
X125707522Y-99134665D01*
X125675500Y-99336848D01*
X125675500Y-99541551D01*
X125707522Y-99743734D01*
X125770781Y-99938423D01*
X125827990Y-100050700D01*
X125862182Y-100117806D01*
X125863715Y-100120813D01*
X125984028Y-100286413D01*
X126128786Y-100431171D01*
X126283749Y-100543756D01*
X126294390Y-100551487D01*
X126385838Y-100598082D01*
X126476776Y-100644418D01*
X126476778Y-100644418D01*
X126476781Y-100644420D01*
X126521374Y-100658909D01*
X126671465Y-100707677D01*
X126732803Y-100717392D01*
X126873648Y-100739700D01*
X126873649Y-100739700D01*
X127078351Y-100739700D01*
X127078352Y-100739700D01*
X127280534Y-100707677D01*
X127475219Y-100644420D01*
X127657610Y-100551487D01*
X127750590Y-100483932D01*
X127823213Y-100431171D01*
X127823215Y-100431168D01*
X127823219Y-100431166D01*
X127967966Y-100286419D01*
X127967968Y-100286415D01*
X127967971Y-100286413D01*
X128088286Y-100120811D01*
X128088287Y-100120810D01*
X128163573Y-99973052D01*
X128211546Y-99922257D01*
X128279367Y-99905462D01*
X128345502Y-99927999D01*
X128384542Y-99973053D01*
X128445021Y-100091750D01*
X128446476Y-100094605D01*
X128562172Y-100253846D01*
X128701354Y-100393028D01*
X128860595Y-100508724D01*
X128943455Y-100550943D01*
X129035970Y-100598082D01*
X129035972Y-100598082D01*
X129035975Y-100598084D01*
X129131586Y-100629150D01*
X129223173Y-100658909D01*
X129417578Y-100689700D01*
X129417583Y-100689700D01*
X129614422Y-100689700D01*
X129808826Y-100658909D01*
X129813953Y-100657243D01*
X129996025Y-100598084D01*
X130171405Y-100508724D01*
X130330646Y-100393028D01*
X130469828Y-100253846D01*
X130585524Y-100094605D01*
X130617884Y-100031095D01*
X130675515Y-99917987D01*
X130723489Y-99867190D01*
X130791310Y-99850395D01*
X130857445Y-99872932D01*
X130896485Y-99917987D01*
X130986474Y-100094603D01*
X131005515Y-100120810D01*
X131102172Y-100253846D01*
X131241354Y-100393028D01*
X131400595Y-100508724D01*
X131483455Y-100550943D01*
X131575970Y-100598082D01*
X131575972Y-100598082D01*
X131575975Y-100598084D01*
X131671586Y-100629150D01*
X131763173Y-100658909D01*
X131957578Y-100689700D01*
X131957583Y-100689700D01*
X132154422Y-100689700D01*
X132348826Y-100658909D01*
X132353953Y-100657243D01*
X132536025Y-100598084D01*
X132711405Y-100508724D01*
X132870646Y-100393028D01*
X133009828Y-100253846D01*
X133125524Y-100094605D01*
X133157884Y-100031095D01*
X133215515Y-99917987D01*
X133263489Y-99867190D01*
X133331310Y-99850395D01*
X133397445Y-99872932D01*
X133436485Y-99917987D01*
X133526474Y-100094603D01*
X133545515Y-100120810D01*
X133642172Y-100253846D01*
X133781354Y-100393028D01*
X133940595Y-100508724D01*
X134023455Y-100550943D01*
X134115970Y-100598082D01*
X134115972Y-100598082D01*
X134115975Y-100598084D01*
X134211586Y-100629150D01*
X134303173Y-100658909D01*
X134497578Y-100689700D01*
X134497583Y-100689700D01*
X134694422Y-100689700D01*
X134888826Y-100658909D01*
X134893953Y-100657243D01*
X135076025Y-100598084D01*
X135251405Y-100508724D01*
X135410646Y-100393028D01*
X135549828Y-100253846D01*
X135665524Y-100094605D01*
X135697884Y-100031095D01*
X135755515Y-99917987D01*
X135803489Y-99867190D01*
X135871310Y-99850395D01*
X135937445Y-99872932D01*
X135976485Y-99917987D01*
X136066474Y-100094603D01*
X136085515Y-100120810D01*
X136182172Y-100253846D01*
X136321354Y-100393028D01*
X136480595Y-100508724D01*
X136563455Y-100550943D01*
X136655970Y-100598082D01*
X136655972Y-100598082D01*
X136655975Y-100598084D01*
X136751586Y-100629150D01*
X136843173Y-100658909D01*
X137037578Y-100689700D01*
X137037583Y-100689700D01*
X137234422Y-100689700D01*
X137428826Y-100658909D01*
X137433953Y-100657243D01*
X137616025Y-100598084D01*
X137791405Y-100508724D01*
X137950646Y-100393028D01*
X138089828Y-100253846D01*
X138205524Y-100094605D01*
X138237884Y-100031095D01*
X138295515Y-99917987D01*
X138343489Y-99867190D01*
X138411310Y-99850395D01*
X138477445Y-99872932D01*
X138516485Y-99917987D01*
X138606474Y-100094603D01*
X138625515Y-100120810D01*
X138722172Y-100253846D01*
X138861354Y-100393028D01*
X139020595Y-100508724D01*
X139103455Y-100550943D01*
X139195970Y-100598082D01*
X139195972Y-100598082D01*
X139195975Y-100598084D01*
X139291586Y-100629150D01*
X139383173Y-100658909D01*
X139577578Y-100689700D01*
X139577583Y-100689700D01*
X139774422Y-100689700D01*
X139968826Y-100658909D01*
X139973953Y-100657243D01*
X140156025Y-100598084D01*
X140331405Y-100508724D01*
X140490646Y-100393028D01*
X140629828Y-100253846D01*
X140745524Y-100094605D01*
X140792501Y-100002406D01*
X140807457Y-99973054D01*
X140855431Y-99922257D01*
X140923252Y-99905462D01*
X140989387Y-99927999D01*
X141028426Y-99973052D01*
X141028872Y-99973927D01*
X141103715Y-100120814D01*
X141224028Y-100286413D01*
X141368786Y-100431171D01*
X141523749Y-100543756D01*
X141534390Y-100551487D01*
X141625838Y-100598082D01*
X141716776Y-100644418D01*
X141716778Y-100644418D01*
X141716781Y-100644420D01*
X141761374Y-100658909D01*
X141911465Y-100707677D01*
X141972803Y-100717392D01*
X142113648Y-100739700D01*
X142113649Y-100739700D01*
X142318351Y-100739700D01*
X142318352Y-100739700D01*
X142520534Y-100707677D01*
X142641584Y-100668344D01*
X142711422Y-100666350D01*
X142767581Y-100698595D01*
X149943500Y-107874514D01*
X150036686Y-107967700D01*
X150150814Y-108033592D01*
X150278108Y-108067700D01*
X158358666Y-108067700D01*
X158420665Y-108084312D01*
X158494216Y-108126777D01*
X158646943Y-108167700D01*
X158646945Y-108167700D01*
X158759110Y-108167700D01*
X158780355Y-108173938D01*
X158802444Y-108175518D01*
X158813227Y-108183590D01*
X158826149Y-108187385D01*
X158840648Y-108204118D01*
X158858377Y-108217390D01*
X158863084Y-108230010D01*
X158871904Y-108240189D01*
X158875055Y-108262106D01*
X158882794Y-108282854D01*
X158879931Y-108296014D01*
X158881848Y-108309347D01*
X158872648Y-108329490D01*
X158867942Y-108351127D01*
X158854673Y-108368852D01*
X158852823Y-108372903D01*
X158846791Y-108379381D01*
X158671791Y-108554381D01*
X158610468Y-108587866D01*
X158584110Y-108590700D01*
X152818107Y-108590700D01*
X152732270Y-108613699D01*
X152732270Y-108613700D01*
X152690814Y-108624808D01*
X152690813Y-108624808D01*
X152690811Y-108624809D01*
X152576686Y-108690700D01*
X152576683Y-108690702D01*
X152483498Y-108783888D01*
X137687581Y-123579803D01*
X137626258Y-123613288D01*
X137561582Y-123610053D01*
X137440537Y-123570723D01*
X137288897Y-123546705D01*
X137238352Y-123538700D01*
X137033648Y-123538700D01*
X137017201Y-123541305D01*
X136831465Y-123570722D01*
X136636776Y-123633981D01*
X136454386Y-123726915D01*
X136288786Y-123847228D01*
X136144028Y-123991986D01*
X136023715Y-124157586D01*
X135948427Y-124305346D01*
X135900452Y-124356142D01*
X135832631Y-124372937D01*
X135766496Y-124350399D01*
X135727457Y-124305346D01*
X135699679Y-124250829D01*
X135665524Y-124183795D01*
X135549828Y-124024554D01*
X135410646Y-123885372D01*
X135251405Y-123769676D01*
X135244981Y-123766403D01*
X135076029Y-123680317D01*
X134888826Y-123619490D01*
X134694422Y-123588700D01*
X134694417Y-123588700D01*
X134497583Y-123588700D01*
X134497578Y-123588700D01*
X134303173Y-123619490D01*
X134115970Y-123680317D01*
X133940594Y-123769676D01*
X133881733Y-123812442D01*
X133781354Y-123885372D01*
X133781352Y-123885374D01*
X133781351Y-123885374D01*
X133642174Y-124024551D01*
X133642174Y-124024552D01*
X133642172Y-124024554D01*
X133599007Y-124083965D01*
X133526476Y-124183794D01*
X133436485Y-124360413D01*
X133388511Y-124411209D01*
X133320690Y-124428004D01*
X133254555Y-124405467D01*
X133215515Y-124360413D01*
X133159679Y-124250829D01*
X133125524Y-124183795D01*
X133009828Y-124024554D01*
X132870646Y-123885372D01*
X132711405Y-123769676D01*
X132704981Y-123766403D01*
X132536029Y-123680317D01*
X132348826Y-123619490D01*
X132154422Y-123588700D01*
X132154417Y-123588700D01*
X131957583Y-123588700D01*
X131957578Y-123588700D01*
X131763173Y-123619490D01*
X131575970Y-123680317D01*
X131400594Y-123769676D01*
X131341733Y-123812442D01*
X131241354Y-123885372D01*
X131241352Y-123885374D01*
X131241351Y-123885374D01*
X131102174Y-124024551D01*
X131102174Y-124024552D01*
X131102172Y-124024554D01*
X131059007Y-124083965D01*
X130986476Y-124183794D01*
X130896485Y-124360413D01*
X130848511Y-124411209D01*
X130780690Y-124428004D01*
X130714555Y-124405467D01*
X130675515Y-124360413D01*
X130619679Y-124250829D01*
X130585524Y-124183795D01*
X130469828Y-124024554D01*
X130330646Y-123885372D01*
X130171405Y-123769676D01*
X130164981Y-123766403D01*
X129996029Y-123680317D01*
X129808826Y-123619490D01*
X129614422Y-123588700D01*
X129614417Y-123588700D01*
X129417583Y-123588700D01*
X129417578Y-123588700D01*
X129223173Y-123619490D01*
X129035970Y-123680317D01*
X128860594Y-123769676D01*
X128801733Y-123812442D01*
X128701354Y-123885372D01*
X128701352Y-123885374D01*
X128701351Y-123885374D01*
X128562174Y-124024551D01*
X128562174Y-124024552D01*
X128562172Y-124024554D01*
X128519007Y-124083965D01*
X128446476Y-124183794D01*
X128384542Y-124305346D01*
X128336567Y-124356142D01*
X128268746Y-124372937D01*
X128202611Y-124350399D01*
X128163573Y-124305347D01*
X128088287Y-124157590D01*
X128088285Y-124157587D01*
X128088284Y-124157585D01*
X127967971Y-123991986D01*
X127823213Y-123847228D01*
X127657613Y-123726915D01*
X127657612Y-123726914D01*
X127657610Y-123726913D01*
X127579263Y-123686993D01*
X127475223Y-123633981D01*
X127280534Y-123570722D01*
X127094799Y-123541305D01*
X127078352Y-123538700D01*
X126873648Y-123538700D01*
X126857201Y-123541305D01*
X126671465Y-123570722D01*
X126476776Y-123633981D01*
X126294386Y-123726915D01*
X126128786Y-123847228D01*
X125984028Y-123991986D01*
X125863715Y-124157586D01*
X125770781Y-124339976D01*
X125707522Y-124534665D01*
X125675500Y-124736848D01*
X125675500Y-124941551D01*
X125707522Y-125143734D01*
X125770781Y-125338423D01*
X125863715Y-125520813D01*
X125984028Y-125686413D01*
X126128786Y-125831171D01*
X126239992Y-125911965D01*
X126294390Y-125951487D01*
X126385838Y-125998082D01*
X126476776Y-126044418D01*
X126476778Y-126044418D01*
X126476781Y-126044420D01*
X126521374Y-126058909D01*
X126671465Y-126107677D01*
X126775957Y-126124227D01*
X126839092Y-126154156D01*
X126876023Y-126213468D01*
X126875025Y-126283330D01*
X126836415Y-126341563D01*
X126772451Y-126369677D01*
X126756559Y-126370700D01*
X121250500Y-126370700D01*
X121183461Y-126351015D01*
X121137706Y-126298211D01*
X121126500Y-126246700D01*
X121126500Y-124254458D01*
X121795500Y-124254458D01*
X121795500Y-124483941D01*
X121816356Y-124642347D01*
X121825452Y-124711438D01*
X121859686Y-124839201D01*
X121884842Y-124933087D01*
X121972650Y-125145076D01*
X121972657Y-125145090D01*
X122087392Y-125343817D01*
X122227081Y-125525861D01*
X122227089Y-125525870D01*
X122389330Y-125688111D01*
X122389338Y-125688118D01*
X122389339Y-125688119D01*
X122415646Y-125708305D01*
X122571382Y-125827807D01*
X122571385Y-125827808D01*
X122571388Y-125827811D01*
X122770112Y-125942544D01*
X122770117Y-125942546D01*
X122770123Y-125942549D01*
X122861480Y-125980390D01*
X122982113Y-126030358D01*
X123203762Y-126089748D01*
X123431266Y-126119700D01*
X123431273Y-126119700D01*
X123660727Y-126119700D01*
X123660734Y-126119700D01*
X123888238Y-126089748D01*
X124109887Y-126030358D01*
X124321888Y-125942544D01*
X124520612Y-125827811D01*
X124702661Y-125688119D01*
X124702665Y-125688114D01*
X124702670Y-125688111D01*
X124864911Y-125525870D01*
X124864914Y-125525865D01*
X124864919Y-125525861D01*
X125004611Y-125343812D01*
X125119344Y-125145088D01*
X125207158Y-124933087D01*
X125266548Y-124711438D01*
X125296500Y-124483934D01*
X125296500Y-124254466D01*
X125266548Y-124026962D01*
X125207158Y-123805313D01*
X125139351Y-123641613D01*
X125119349Y-123593323D01*
X125119346Y-123593317D01*
X125119344Y-123593312D01*
X125004611Y-123394588D01*
X125004608Y-123394585D01*
X125004607Y-123394582D01*
X124864918Y-123212538D01*
X124864911Y-123212530D01*
X124702670Y-123050289D01*
X124702661Y-123050281D01*
X124520617Y-122910592D01*
X124321890Y-122795857D01*
X124321876Y-122795850D01*
X124109887Y-122708042D01*
X123888238Y-122648652D01*
X123850215Y-122643646D01*
X123660741Y-122618700D01*
X123660734Y-122618700D01*
X123431266Y-122618700D01*
X123431258Y-122618700D01*
X123214715Y-122647209D01*
X123203762Y-122648652D01*
X123110076Y-122673754D01*
X122982112Y-122708042D01*
X122770123Y-122795850D01*
X122770109Y-122795857D01*
X122571382Y-122910592D01*
X122389338Y-123050281D01*
X122227081Y-123212538D01*
X122087392Y-123394582D01*
X121972657Y-123593309D01*
X121972650Y-123593323D01*
X121884842Y-123805312D01*
X121863390Y-123885372D01*
X121827968Y-124017574D01*
X121825453Y-124026959D01*
X121825451Y-124026970D01*
X121795500Y-124254458D01*
X121126500Y-124254458D01*
X121126500Y-120919200D01*
X121546000Y-120919200D01*
X128036000Y-120919200D01*
X128036000Y-103229200D01*
X121546000Y-103229200D01*
X121546000Y-120919200D01*
X121126500Y-120919200D01*
X121126500Y-99744458D01*
X121795500Y-99744458D01*
X121795500Y-99973941D01*
X121811387Y-100094605D01*
X121825452Y-100201438D01*
X121854087Y-100308305D01*
X121884842Y-100423087D01*
X121972650Y-100635076D01*
X121972657Y-100635090D01*
X122087392Y-100833817D01*
X122227081Y-101015861D01*
X122227089Y-101015870D01*
X122389330Y-101178111D01*
X122389338Y-101178118D01*
X122571382Y-101317807D01*
X122571385Y-101317808D01*
X122571388Y-101317811D01*
X122770112Y-101432544D01*
X122770117Y-101432546D01*
X122770123Y-101432549D01*
X122861480Y-101470390D01*
X122982113Y-101520358D01*
X123203762Y-101579748D01*
X123431266Y-101609700D01*
X123431273Y-101609700D01*
X123660727Y-101609700D01*
X123660734Y-101609700D01*
X123888238Y-101579748D01*
X124109887Y-101520358D01*
X124321888Y-101432544D01*
X124520612Y-101317811D01*
X124702661Y-101178119D01*
X124702665Y-101178114D01*
X124702670Y-101178111D01*
X124864911Y-101015870D01*
X124864914Y-101015865D01*
X124864919Y-101015861D01*
X125004611Y-100833812D01*
X125119344Y-100635088D01*
X125207158Y-100423087D01*
X125266548Y-100201438D01*
X125296500Y-99973934D01*
X125296500Y-99744466D01*
X125266548Y-99516962D01*
X125207158Y-99295313D01*
X125119344Y-99083312D01*
X125004611Y-98884588D01*
X125004608Y-98884585D01*
X125004607Y-98884582D01*
X124864918Y-98702538D01*
X124864911Y-98702530D01*
X124702670Y-98540289D01*
X124702661Y-98540281D01*
X124520617Y-98400592D01*
X124509793Y-98394343D01*
X124401251Y-98331676D01*
X124321890Y-98285857D01*
X124321876Y-98285850D01*
X124109887Y-98198042D01*
X124068651Y-98186993D01*
X123888238Y-98138652D01*
X123850215Y-98133646D01*
X123660741Y-98108700D01*
X123660734Y-98108700D01*
X123431266Y-98108700D01*
X123431258Y-98108700D01*
X123214715Y-98137209D01*
X123203762Y-98138652D01*
X123192704Y-98141615D01*
X122982112Y-98198042D01*
X122770123Y-98285850D01*
X122770109Y-98285857D01*
X122571382Y-98400592D01*
X122389338Y-98540281D01*
X122227081Y-98702538D01*
X122087392Y-98884582D01*
X121972657Y-99083309D01*
X121972650Y-99083323D01*
X121884842Y-99295312D01*
X121825453Y-99516959D01*
X121825451Y-99516970D01*
X121795500Y-99744458D01*
X121126500Y-99744458D01*
X121126500Y-68253102D01*
X122625500Y-68253102D01*
X122625500Y-68489297D01*
X122662446Y-68722568D01*
X122735433Y-68947196D01*
X122798475Y-69070921D01*
X122842657Y-69157633D01*
X122981483Y-69348710D01*
X123148490Y-69515717D01*
X123339567Y-69654543D01*
X123438991Y-69705202D01*
X123550003Y-69761766D01*
X123550005Y-69761766D01*
X123550008Y-69761768D01*
X123670412Y-69800889D01*
X123774631Y-69834753D01*
X124007903Y-69871700D01*
X124007908Y-69871700D01*
X124244097Y-69871700D01*
X124477368Y-69834753D01*
X124701992Y-69761768D01*
X124912433Y-69654543D01*
X125103510Y-69515717D01*
X125270517Y-69348710D01*
X125409343Y-69157633D01*
X125461391Y-69055484D01*
X125516566Y-68947196D01*
X125516566Y-68947195D01*
X125516568Y-68947192D01*
X125589553Y-68722568D01*
X125603671Y-68633430D01*
X125626500Y-68489297D01*
X125626500Y-68253102D01*
X125589553Y-68019831D01*
X125539963Y-67867211D01*
X125531014Y-67839668D01*
X125529096Y-67833764D01*
X157763565Y-67833764D01*
X157763565Y-68069869D01*
X157800499Y-68303064D01*
X157873462Y-68527619D01*
X157980652Y-68737991D01*
X158040903Y-68820921D01*
X158040905Y-68820922D01*
X158739777Y-68122050D01*
X158751047Y-68164109D01*
X158823455Y-68289525D01*
X158925857Y-68391927D01*
X159051273Y-68464335D01*
X159093330Y-68475604D01*
X158394458Y-69174475D01*
X158477393Y-69234731D01*
X158687762Y-69341919D01*
X158912317Y-69414882D01*
X158912316Y-69414882D01*
X159145513Y-69451817D01*
X159381617Y-69451817D01*
X159614812Y-69414882D01*
X159839367Y-69341919D01*
X160049728Y-69234735D01*
X160049734Y-69234731D01*
X160132669Y-69174475D01*
X160132670Y-69174475D01*
X159433798Y-68475604D01*
X159475857Y-68464335D01*
X159601273Y-68391927D01*
X159703675Y-68289525D01*
X159776083Y-68164109D01*
X159787352Y-68122051D01*
X160486223Y-68820922D01*
X160486223Y-68820921D01*
X160546479Y-68737986D01*
X160546483Y-68737980D01*
X160653667Y-68527619D01*
X160726630Y-68303064D01*
X160763565Y-68069869D01*
X160763565Y-67849465D01*
X162463065Y-67849465D01*
X162463065Y-68054168D01*
X162495087Y-68256351D01*
X162558346Y-68451040D01*
X162584219Y-68501817D01*
X162646887Y-68624810D01*
X162651280Y-68633430D01*
X162771593Y-68799030D01*
X162916351Y-68943788D01*
X163030749Y-69026901D01*
X163081955Y-69064104D01*
X163198172Y-69123320D01*
X163264341Y-69157035D01*
X163264343Y-69157035D01*
X163264346Y-69157037D01*
X163318015Y-69174475D01*
X163459030Y-69220294D01*
X163550181Y-69234731D01*
X163661213Y-69252317D01*
X163661214Y-69252317D01*
X163865916Y-69252317D01*
X163865917Y-69252317D01*
X164068099Y-69220294D01*
X164262784Y-69157037D01*
X164445175Y-69064104D01*
X164610784Y-68943783D01*
X164755531Y-68799036D01*
X164755533Y-68799032D01*
X164755536Y-68799030D01*
X164811088Y-68722568D01*
X164875852Y-68633427D01*
X164968785Y-68451036D01*
X165032042Y-68256351D01*
X165064065Y-68054169D01*
X165064065Y-67849465D01*
X165061578Y-67833764D01*
X165601565Y-67833764D01*
X165601565Y-68069869D01*
X165638499Y-68303064D01*
X165711462Y-68527619D01*
X165818652Y-68737991D01*
X165878903Y-68820921D01*
X165878905Y-68820922D01*
X166577777Y-68122050D01*
X166589047Y-68164109D01*
X166661455Y-68289525D01*
X166763857Y-68391927D01*
X166889273Y-68464335D01*
X166931330Y-68475604D01*
X166232458Y-69174475D01*
X166315393Y-69234731D01*
X166525762Y-69341919D01*
X166750317Y-69414882D01*
X166750316Y-69414882D01*
X166983513Y-69451817D01*
X167219617Y-69451817D01*
X167452812Y-69414882D01*
X167677367Y-69341919D01*
X167887728Y-69234735D01*
X167887734Y-69234731D01*
X167970669Y-69174475D01*
X167970670Y-69174475D01*
X167271798Y-68475604D01*
X167313857Y-68464335D01*
X167439273Y-68391927D01*
X167541675Y-68289525D01*
X167614083Y-68164109D01*
X167625352Y-68122050D01*
X168324223Y-68820922D01*
X168324223Y-68820921D01*
X168384479Y-68737986D01*
X168384483Y-68737980D01*
X168491667Y-68527619D01*
X168564630Y-68303064D01*
X168601565Y-68069869D01*
X168601565Y-67849465D01*
X170301065Y-67849465D01*
X170301065Y-68054168D01*
X170333087Y-68256351D01*
X170396346Y-68451040D01*
X170422219Y-68501817D01*
X170484887Y-68624810D01*
X170489280Y-68633430D01*
X170609593Y-68799030D01*
X170754351Y-68943788D01*
X170868749Y-69026901D01*
X170919955Y-69064104D01*
X171036172Y-69123320D01*
X171102341Y-69157035D01*
X171102343Y-69157035D01*
X171102346Y-69157037D01*
X171156015Y-69174475D01*
X171297030Y-69220294D01*
X171388181Y-69234731D01*
X171499213Y-69252317D01*
X171499214Y-69252317D01*
X171703916Y-69252317D01*
X171703917Y-69252317D01*
X171906099Y-69220294D01*
X172100784Y-69157037D01*
X172283175Y-69064104D01*
X172346247Y-69018280D01*
X172346249Y-69018279D01*
X172448777Y-68943788D01*
X172448775Y-68943788D01*
X172448784Y-68943783D01*
X172593531Y-68799036D01*
X172593533Y-68799032D01*
X172593536Y-68799030D01*
X172649088Y-68722568D01*
X172713852Y-68633427D01*
X172806785Y-68451036D01*
X172870042Y-68256351D01*
X172902065Y-68054169D01*
X172902065Y-67849465D01*
X172898213Y-67825147D01*
X173554000Y-67825147D01*
X173554000Y-68061252D01*
X173590934Y-68294447D01*
X173663897Y-68519002D01*
X173771087Y-68729374D01*
X173831338Y-68812304D01*
X173831340Y-68812305D01*
X174530212Y-68113433D01*
X174541482Y-68155492D01*
X174613890Y-68280908D01*
X174716292Y-68383310D01*
X174841708Y-68455718D01*
X174883765Y-68466987D01*
X174184893Y-69165858D01*
X174267828Y-69226114D01*
X174478197Y-69333302D01*
X174702752Y-69406265D01*
X174702751Y-69406265D01*
X174935948Y-69443200D01*
X175172052Y-69443200D01*
X175405247Y-69406265D01*
X175629802Y-69333302D01*
X175840163Y-69226118D01*
X175840169Y-69226114D01*
X175923104Y-69165858D01*
X175923105Y-69165858D01*
X175224233Y-68466987D01*
X175266292Y-68455718D01*
X175391708Y-68383310D01*
X175494110Y-68280908D01*
X175566518Y-68155492D01*
X175577787Y-68113434D01*
X176276658Y-68812305D01*
X176276658Y-68812304D01*
X176336914Y-68729369D01*
X176336918Y-68729363D01*
X176444102Y-68519002D01*
X176517065Y-68294447D01*
X176554000Y-68061252D01*
X176554000Y-67840848D01*
X178253500Y-67840848D01*
X178253500Y-68045552D01*
X178257878Y-68073195D01*
X178285522Y-68247734D01*
X178348781Y-68442423D01*
X178441715Y-68624813D01*
X178562028Y-68790413D01*
X178706786Y-68935171D01*
X178821184Y-69018284D01*
X178872390Y-69055487D01*
X178988607Y-69114703D01*
X179054776Y-69148418D01*
X179054778Y-69148418D01*
X179054781Y-69148420D01*
X179108450Y-69165858D01*
X179249465Y-69211677D01*
X179340616Y-69226114D01*
X179451648Y-69243700D01*
X179451649Y-69243700D01*
X179656351Y-69243700D01*
X179656352Y-69243700D01*
X179858534Y-69211677D01*
X180053219Y-69148420D01*
X180235610Y-69055487D01*
X180401219Y-68935166D01*
X180545966Y-68790419D01*
X180545968Y-68790415D01*
X180545971Y-68790413D01*
X180660026Y-68633427D01*
X180666287Y-68624810D01*
X180759220Y-68442419D01*
X180822477Y-68247734D01*
X180854500Y-68045552D01*
X180854500Y-67840848D01*
X180852013Y-67825147D01*
X181428000Y-67825147D01*
X181428000Y-68061252D01*
X181464934Y-68294447D01*
X181537897Y-68519002D01*
X181645087Y-68729374D01*
X181705338Y-68812304D01*
X181705340Y-68812305D01*
X182404212Y-68113433D01*
X182415482Y-68155492D01*
X182487890Y-68280908D01*
X182590292Y-68383310D01*
X182715708Y-68455718D01*
X182757765Y-68466987D01*
X182058893Y-69165858D01*
X182141828Y-69226114D01*
X182352197Y-69333302D01*
X182576752Y-69406265D01*
X182576751Y-69406265D01*
X182809948Y-69443200D01*
X183046052Y-69443200D01*
X183279247Y-69406265D01*
X183503802Y-69333302D01*
X183714163Y-69226118D01*
X183714169Y-69226114D01*
X183797104Y-69165858D01*
X183797105Y-69165858D01*
X183098233Y-68466987D01*
X183140292Y-68455718D01*
X183265708Y-68383310D01*
X183368110Y-68280908D01*
X183440518Y-68155492D01*
X183451787Y-68113434D01*
X184150658Y-68812305D01*
X184150658Y-68812304D01*
X184210914Y-68729369D01*
X184210918Y-68729363D01*
X184318102Y-68519002D01*
X184391065Y-68294447D01*
X184428000Y-68061252D01*
X184428000Y-67840848D01*
X186127500Y-67840848D01*
X186127500Y-68045552D01*
X186131878Y-68073195D01*
X186159522Y-68247734D01*
X186222781Y-68442423D01*
X186315715Y-68624813D01*
X186436028Y-68790413D01*
X186580786Y-68935171D01*
X186695184Y-69018284D01*
X186746390Y-69055487D01*
X186862607Y-69114703D01*
X186928776Y-69148418D01*
X186928778Y-69148418D01*
X186928781Y-69148420D01*
X186982450Y-69165858D01*
X187123465Y-69211677D01*
X187214616Y-69226114D01*
X187325648Y-69243700D01*
X187325649Y-69243700D01*
X187530351Y-69243700D01*
X187530352Y-69243700D01*
X187732534Y-69211677D01*
X187927219Y-69148420D01*
X188109610Y-69055487D01*
X188202590Y-68987932D01*
X188275213Y-68935171D01*
X188275215Y-68935168D01*
X188275219Y-68935166D01*
X188419966Y-68790419D01*
X188419968Y-68790415D01*
X188419971Y-68790413D01*
X188534026Y-68633427D01*
X188540287Y-68624810D01*
X188633220Y-68442419D01*
X188694733Y-68253102D01*
X251625500Y-68253102D01*
X251625500Y-68489297D01*
X251662446Y-68722568D01*
X251735433Y-68947196D01*
X251798475Y-69070921D01*
X251842657Y-69157633D01*
X251981483Y-69348710D01*
X252148490Y-69515717D01*
X252339567Y-69654543D01*
X252438991Y-69705202D01*
X252550003Y-69761766D01*
X252550005Y-69761766D01*
X252550008Y-69761768D01*
X252670412Y-69800889D01*
X252774631Y-69834753D01*
X253007903Y-69871700D01*
X253007908Y-69871700D01*
X253244097Y-69871700D01*
X253477368Y-69834753D01*
X253701992Y-69761768D01*
X253912433Y-69654543D01*
X254103510Y-69515717D01*
X254270517Y-69348710D01*
X254409343Y-69157633D01*
X254516568Y-68947192D01*
X254589553Y-68722568D01*
X254603671Y-68633430D01*
X254626500Y-68489297D01*
X254626500Y-68253102D01*
X254589553Y-68019831D01*
X254531014Y-67839668D01*
X254516568Y-67795208D01*
X254516566Y-67795205D01*
X254516566Y-67795203D01*
X254419903Y-67605492D01*
X254409343Y-67584767D01*
X254270517Y-67393690D01*
X254103510Y-67226683D01*
X253912433Y-67087857D01*
X253902333Y-67082711D01*
X253701996Y-66980633D01*
X253477368Y-66907646D01*
X253244097Y-66870700D01*
X253244092Y-66870700D01*
X253007908Y-66870700D01*
X253007903Y-66870700D01*
X252774631Y-66907646D01*
X252550003Y-66980633D01*
X252339566Y-67087857D01*
X252244359Y-67157030D01*
X252148490Y-67226683D01*
X252148488Y-67226685D01*
X252148487Y-67226685D01*
X251981485Y-67393687D01*
X251981485Y-67393688D01*
X251981483Y-67393690D01*
X251938687Y-67452593D01*
X251842657Y-67584766D01*
X251735433Y-67795203D01*
X251662446Y-68019831D01*
X251625500Y-68253102D01*
X188694733Y-68253102D01*
X188696477Y-68247734D01*
X188728500Y-68045552D01*
X188728500Y-67840848D01*
X188696477Y-67638666D01*
X188680549Y-67589646D01*
X188667127Y-67548337D01*
X188633220Y-67443981D01*
X188633218Y-67443978D01*
X188633218Y-67443976D01*
X188594198Y-67367397D01*
X188540287Y-67261590D01*
X188514926Y-67226683D01*
X188419971Y-67095986D01*
X188275213Y-66951228D01*
X188109613Y-66830915D01*
X188109612Y-66830914D01*
X188109610Y-66830913D01*
X188052653Y-66801891D01*
X187927223Y-66737981D01*
X187732534Y-66674722D01*
X187557995Y-66647078D01*
X187530352Y-66642700D01*
X187325648Y-66642700D01*
X187301329Y-66646551D01*
X187123465Y-66674722D01*
X186928776Y-66737981D01*
X186746386Y-66830915D01*
X186580786Y-66951228D01*
X186436028Y-67095986D01*
X186315715Y-67261586D01*
X186222781Y-67443976D01*
X186159522Y-67638665D01*
X186134729Y-67795208D01*
X186127500Y-67840848D01*
X184428000Y-67840848D01*
X184428000Y-67825147D01*
X184391065Y-67591952D01*
X184318102Y-67367397D01*
X184210914Y-67157028D01*
X184150658Y-67074094D01*
X184150658Y-67074093D01*
X183451787Y-67772965D01*
X183440518Y-67730908D01*
X183368110Y-67605492D01*
X183265708Y-67503090D01*
X183140292Y-67430682D01*
X183098234Y-67419412D01*
X183797105Y-66720540D01*
X183797104Y-66720538D01*
X183714174Y-66660287D01*
X183503802Y-66553097D01*
X183279247Y-66480134D01*
X183279248Y-66480134D01*
X183046052Y-66443200D01*
X182809948Y-66443200D01*
X182576752Y-66480134D01*
X182352197Y-66553097D01*
X182141830Y-66660284D01*
X182058894Y-66720540D01*
X182757766Y-67419412D01*
X182715708Y-67430682D01*
X182590292Y-67503090D01*
X182487890Y-67605492D01*
X182415482Y-67730908D01*
X182404212Y-67772966D01*
X181705340Y-67074094D01*
X181645084Y-67157030D01*
X181537897Y-67367397D01*
X181464934Y-67591952D01*
X181428000Y-67825147D01*
X180852013Y-67825147D01*
X180847271Y-67795208D01*
X180822477Y-67638665D01*
X180793127Y-67548337D01*
X180759220Y-67443981D01*
X180759218Y-67443978D01*
X180759218Y-67443976D01*
X180720198Y-67367397D01*
X180666287Y-67261590D01*
X180640926Y-67226683D01*
X180545971Y-67095986D01*
X180401219Y-66951234D01*
X180341226Y-66907647D01*
X180286817Y-66868117D01*
X180286816Y-66868115D01*
X180235613Y-66830915D01*
X180235612Y-66830914D01*
X180235610Y-66830913D01*
X180178653Y-66801891D01*
X180053223Y-66737981D01*
X179858534Y-66674722D01*
X179683995Y-66647078D01*
X179656352Y-66642700D01*
X179451648Y-66642700D01*
X179427329Y-66646551D01*
X179249465Y-66674722D01*
X179054776Y-66737981D01*
X178872386Y-66830915D01*
X178706786Y-66951228D01*
X178562028Y-67095986D01*
X178441715Y-67261586D01*
X178348781Y-67443976D01*
X178285522Y-67638665D01*
X178260729Y-67795208D01*
X178253500Y-67840848D01*
X176554000Y-67840848D01*
X176554000Y-67825147D01*
X176517065Y-67591952D01*
X176444102Y-67367397D01*
X176336914Y-67157028D01*
X176276658Y-67074094D01*
X176276658Y-67074093D01*
X175577787Y-67772965D01*
X175566518Y-67730908D01*
X175494110Y-67605492D01*
X175391708Y-67503090D01*
X175266292Y-67430682D01*
X175224234Y-67419412D01*
X175923105Y-66720540D01*
X175923104Y-66720538D01*
X175840174Y-66660287D01*
X175629802Y-66553097D01*
X175405247Y-66480134D01*
X175405248Y-66480134D01*
X175172052Y-66443200D01*
X174935948Y-66443200D01*
X174702752Y-66480134D01*
X174478197Y-66553097D01*
X174267830Y-66660284D01*
X174184894Y-66720540D01*
X174883766Y-67419412D01*
X174841708Y-67430682D01*
X174716292Y-67503090D01*
X174613890Y-67605492D01*
X174541482Y-67730908D01*
X174530212Y-67772965D01*
X173831340Y-67074094D01*
X173771084Y-67157030D01*
X173663897Y-67367397D01*
X173590934Y-67591952D01*
X173554000Y-67825147D01*
X172898213Y-67825147D01*
X172870042Y-67647283D01*
X172854114Y-67598263D01*
X172806783Y-67452593D01*
X172763373Y-67367397D01*
X172713852Y-67270207D01*
X172682232Y-67226685D01*
X172593536Y-67104603D01*
X172448778Y-66959845D01*
X172322523Y-66868117D01*
X172283178Y-66839532D01*
X172283177Y-66839531D01*
X172283175Y-66839530D01*
X172226218Y-66810508D01*
X172100788Y-66746598D01*
X171906099Y-66683339D01*
X171731560Y-66655695D01*
X171703917Y-66651317D01*
X171499213Y-66651317D01*
X171474894Y-66655168D01*
X171297030Y-66683339D01*
X171102341Y-66746598D01*
X170919951Y-66839532D01*
X170754351Y-66959845D01*
X170609593Y-67104603D01*
X170489280Y-67270203D01*
X170396346Y-67452593D01*
X170333087Y-67647282D01*
X170301065Y-67849465D01*
X168601565Y-67849465D01*
X168601565Y-67833764D01*
X168564630Y-67600569D01*
X168491667Y-67376014D01*
X168384479Y-67165645D01*
X168324223Y-67082711D01*
X168324223Y-67082710D01*
X167625352Y-67781582D01*
X167614083Y-67739525D01*
X167541675Y-67614109D01*
X167439273Y-67511707D01*
X167313857Y-67439299D01*
X167271799Y-67428029D01*
X167970670Y-66729157D01*
X167970669Y-66729155D01*
X167887739Y-66668904D01*
X167677367Y-66561714D01*
X167452812Y-66488751D01*
X167452813Y-66488751D01*
X167219617Y-66451817D01*
X166983513Y-66451817D01*
X166750317Y-66488751D01*
X166525762Y-66561714D01*
X166315395Y-66668901D01*
X166232459Y-66729157D01*
X166931331Y-67428029D01*
X166889273Y-67439299D01*
X166763857Y-67511707D01*
X166661455Y-67614109D01*
X166589047Y-67739525D01*
X166577777Y-67781583D01*
X165878905Y-67082711D01*
X165818649Y-67165647D01*
X165711462Y-67376014D01*
X165638499Y-67600569D01*
X165601565Y-67833764D01*
X165061578Y-67833764D01*
X165032042Y-67647283D01*
X165016114Y-67598263D01*
X164968783Y-67452593D01*
X164925373Y-67367397D01*
X164875852Y-67270207D01*
X164844232Y-67226685D01*
X164755536Y-67104603D01*
X164610784Y-66959851D01*
X164598915Y-66951228D01*
X164496382Y-66876734D01*
X164496381Y-66876732D01*
X164445178Y-66839532D01*
X164445177Y-66839531D01*
X164445175Y-66839530D01*
X164388218Y-66810508D01*
X164262788Y-66746598D01*
X164068099Y-66683339D01*
X163893560Y-66655695D01*
X163865917Y-66651317D01*
X163661213Y-66651317D01*
X163636894Y-66655168D01*
X163459030Y-66683339D01*
X163264341Y-66746598D01*
X163081951Y-66839532D01*
X162916351Y-66959845D01*
X162771593Y-67104603D01*
X162651280Y-67270203D01*
X162558346Y-67452593D01*
X162495087Y-67647282D01*
X162463065Y-67849465D01*
X160763565Y-67849465D01*
X160763565Y-67833764D01*
X160726630Y-67600569D01*
X160653667Y-67376014D01*
X160546479Y-67165645D01*
X160486223Y-67082711D01*
X160486223Y-67082710D01*
X159787352Y-67781582D01*
X159776083Y-67739525D01*
X159703675Y-67614109D01*
X159601273Y-67511707D01*
X159475857Y-67439299D01*
X159433799Y-67428029D01*
X160132670Y-66729157D01*
X160132669Y-66729155D01*
X160049739Y-66668904D01*
X159839367Y-66561714D01*
X159614812Y-66488751D01*
X159614813Y-66488751D01*
X159381617Y-66451817D01*
X159145513Y-66451817D01*
X158912317Y-66488751D01*
X158687762Y-66561714D01*
X158477395Y-66668901D01*
X158394459Y-66729157D01*
X159093331Y-67428029D01*
X159051273Y-67439299D01*
X158925857Y-67511707D01*
X158823455Y-67614109D01*
X158751047Y-67739525D01*
X158739777Y-67781583D01*
X158040905Y-67082711D01*
X157980649Y-67165647D01*
X157873462Y-67376014D01*
X157800499Y-67600569D01*
X157763565Y-67833764D01*
X125529096Y-67833764D01*
X125516568Y-67795208D01*
X125516566Y-67795205D01*
X125516566Y-67795203D01*
X125419903Y-67605492D01*
X125409343Y-67584767D01*
X125270517Y-67393690D01*
X125103510Y-67226683D01*
X124912433Y-67087857D01*
X124902333Y-67082711D01*
X124701996Y-66980633D01*
X124477368Y-66907646D01*
X124422074Y-66898889D01*
X124244097Y-66870700D01*
X124244092Y-66870700D01*
X124007908Y-66870700D01*
X124007903Y-66870700D01*
X123774631Y-66907646D01*
X123550003Y-66980633D01*
X123339566Y-67087857D01*
X123244359Y-67157030D01*
X123148490Y-67226683D01*
X123148488Y-67226685D01*
X123148487Y-67226685D01*
X122981485Y-67393687D01*
X122981485Y-67393688D01*
X122981483Y-67393690D01*
X122938687Y-67452593D01*
X122842657Y-67584766D01*
X122735433Y-67795203D01*
X122662446Y-68019831D01*
X122625500Y-68253102D01*
X121126500Y-68253102D01*
X121126500Y-65495700D01*
X121146185Y-65428661D01*
X121198989Y-65382906D01*
X121250500Y-65371700D01*
X256001500Y-65371700D01*
X256068539Y-65391385D01*
G37*
%TD.AperFunction*%
%TA.AperFunction,Conductor*%
G36*
X159520755Y-125036053D02*
G01*
X159587898Y-125152347D01*
X159682853Y-125247302D01*
X159799147Y-125314445D01*
X159858425Y-125330328D01*
X159126893Y-126061858D01*
X159209828Y-126122114D01*
X159237502Y-126136215D01*
X159288298Y-126184190D01*
X159305093Y-126252011D01*
X159282556Y-126318146D01*
X159227840Y-126361597D01*
X159181207Y-126370700D01*
X157675441Y-126370700D01*
X157608402Y-126351015D01*
X157562647Y-126298211D01*
X157552703Y-126229053D01*
X157581728Y-126165497D01*
X157640506Y-126127723D01*
X157656043Y-126124227D01*
X157669359Y-126122118D01*
X157760534Y-126107677D01*
X157955219Y-126044420D01*
X158137610Y-125951487D01*
X158255330Y-125865959D01*
X158303213Y-125831171D01*
X158303215Y-125831168D01*
X158303219Y-125831166D01*
X158447966Y-125686419D01*
X158503144Y-125610472D01*
X158558472Y-125567807D01*
X158628085Y-125561826D01*
X158689881Y-125594431D01*
X158709917Y-125621600D01*
X158710540Y-125621219D01*
X158713084Y-125625370D01*
X158773338Y-125708304D01*
X158773340Y-125708305D01*
X159504871Y-124976774D01*
X159520755Y-125036053D01*
G37*
%TD.AperFunction*%
%TA.AperFunction,Conductor*%
G36*
X161218658Y-125708305D02*
G01*
X161218658Y-125708304D01*
X161278914Y-125625369D01*
X161281465Y-125621209D01*
X161282810Y-125622033D01*
X161326003Y-125576281D01*
X161393820Y-125559471D01*
X161459960Y-125581994D01*
X161488855Y-125610473D01*
X161544028Y-125686412D01*
X161544032Y-125686417D01*
X161688786Y-125831171D01*
X161799992Y-125911965D01*
X161854390Y-125951487D01*
X161945838Y-125998082D01*
X162036776Y-126044418D01*
X162036778Y-126044418D01*
X162036781Y-126044420D01*
X162081374Y-126058909D01*
X162231465Y-126107677D01*
X162335957Y-126124227D01*
X162399092Y-126154156D01*
X162436023Y-126213468D01*
X162435025Y-126283330D01*
X162396415Y-126341563D01*
X162332451Y-126369677D01*
X162316559Y-126370700D01*
X160810793Y-126370700D01*
X160743754Y-126351015D01*
X160697999Y-126298211D01*
X160688055Y-126229053D01*
X160717080Y-126165497D01*
X160754498Y-126136215D01*
X160782163Y-126122118D01*
X160782169Y-126122114D01*
X160865104Y-126061858D01*
X160865105Y-126061858D01*
X160133574Y-125330328D01*
X160192853Y-125314445D01*
X160309147Y-125247302D01*
X160404102Y-125152347D01*
X160471245Y-125036053D01*
X160487128Y-124976775D01*
X161218658Y-125708305D01*
G37*
%TD.AperFunction*%
%TA.AperFunction,Conductor*%
G36*
X123593800Y-86490654D02*
G01*
X123527143Y-86452170D01*
X123406335Y-86419800D01*
X123281265Y-86419800D01*
X123160457Y-86452170D01*
X123093800Y-86490654D01*
X123093800Y-84798945D01*
X123160457Y-84837430D01*
X123281265Y-84869800D01*
X123406335Y-84869800D01*
X123527143Y-84837430D01*
X123593800Y-84798945D01*
X123593800Y-86490654D01*
G37*
%TD.AperFunction*%
%TD*%
%TA.AperFunction,NonConductor*%
G36*
X153454363Y-94879385D02*
G01*
X153475005Y-94896019D01*
X154379181Y-95800194D01*
X154412666Y-95861517D01*
X154415500Y-95887875D01*
X154415500Y-98158644D01*
X154395815Y-98225683D01*
X154347796Y-98269128D01*
X154234388Y-98326913D01*
X154068786Y-98447228D01*
X153924028Y-98591986D01*
X153803715Y-98757586D01*
X153756485Y-98850280D01*
X153708510Y-98901076D01*
X153640689Y-98917871D01*
X153574554Y-98895334D01*
X153535515Y-98850280D01*
X153534883Y-98849040D01*
X153488287Y-98757590D01*
X153459471Y-98717928D01*
X153367971Y-98591986D01*
X153223213Y-98447228D01*
X153057613Y-98326915D01*
X153057612Y-98326914D01*
X153057610Y-98326913D01*
X153000653Y-98297891D01*
X152875223Y-98233981D01*
X152680534Y-98170722D01*
X152496756Y-98141615D01*
X152478352Y-98138700D01*
X152273648Y-98138700D01*
X152255244Y-98141615D01*
X152071465Y-98170722D01*
X151876776Y-98233981D01*
X151694386Y-98326915D01*
X151528786Y-98447228D01*
X151384028Y-98591986D01*
X151263715Y-98757586D01*
X151188427Y-98905346D01*
X151140452Y-98956142D01*
X151072631Y-98972937D01*
X151006496Y-98950399D01*
X150967457Y-98905346D01*
X150956877Y-98884582D01*
X150905524Y-98783795D01*
X150789828Y-98624554D01*
X150650646Y-98485372D01*
X150491405Y-98369676D01*
X150490488Y-98369209D01*
X150316029Y-98280317D01*
X150128826Y-98219490D01*
X149934422Y-98188700D01*
X149934417Y-98188700D01*
X149737583Y-98188700D01*
X149737578Y-98188700D01*
X149543173Y-98219490D01*
X149355970Y-98280317D01*
X149180594Y-98369676D01*
X149105102Y-98424525D01*
X149021354Y-98485372D01*
X149021352Y-98485374D01*
X149021351Y-98485374D01*
X148882174Y-98624551D01*
X148882174Y-98624552D01*
X148882172Y-98624554D01*
X148832485Y-98692941D01*
X148766476Y-98783794D01*
X148676485Y-98960413D01*
X148628511Y-99011209D01*
X148560690Y-99028004D01*
X148494555Y-99005467D01*
X148455515Y-98960413D01*
X148416877Y-98884582D01*
X148365524Y-98783795D01*
X148249828Y-98624554D01*
X148110646Y-98485372D01*
X147951405Y-98369676D01*
X147950488Y-98369209D01*
X147776029Y-98280317D01*
X147588826Y-98219490D01*
X147394422Y-98188700D01*
X147394417Y-98188700D01*
X147197583Y-98188700D01*
X147197578Y-98188700D01*
X147003173Y-98219490D01*
X146815970Y-98280317D01*
X146640594Y-98369676D01*
X146565102Y-98424525D01*
X146481354Y-98485372D01*
X146481352Y-98485374D01*
X146481351Y-98485374D01*
X146342174Y-98624551D01*
X146342174Y-98624552D01*
X146342172Y-98624554D01*
X146292485Y-98692941D01*
X146226476Y-98783794D01*
X146136485Y-98960413D01*
X146088511Y-99011209D01*
X146020690Y-99028004D01*
X145954555Y-99005467D01*
X145915515Y-98960413D01*
X145876877Y-98884582D01*
X145825524Y-98783795D01*
X145709828Y-98624554D01*
X145570646Y-98485372D01*
X145411405Y-98369676D01*
X145410488Y-98369209D01*
X145236029Y-98280317D01*
X145048826Y-98219490D01*
X144854422Y-98188700D01*
X144854417Y-98188700D01*
X144657583Y-98188700D01*
X144657578Y-98188700D01*
X144463173Y-98219490D01*
X144275970Y-98280317D01*
X144100594Y-98369676D01*
X144025102Y-98424525D01*
X143941354Y-98485372D01*
X143941352Y-98485374D01*
X143941351Y-98485374D01*
X143802174Y-98624551D01*
X143802174Y-98624552D01*
X143802172Y-98624554D01*
X143752485Y-98692941D01*
X143686476Y-98783794D01*
X143624542Y-98905346D01*
X143576567Y-98956142D01*
X143508746Y-98972937D01*
X143442611Y-98950399D01*
X143403573Y-98905347D01*
X143328287Y-98757590D01*
X143328285Y-98757587D01*
X143328284Y-98757585D01*
X143207971Y-98591986D01*
X143063213Y-98447228D01*
X142897613Y-98326915D01*
X142897612Y-98326914D01*
X142897610Y-98326913D01*
X142840653Y-98297891D01*
X142715223Y-98233981D01*
X142520534Y-98170722D01*
X142336756Y-98141615D01*
X142318352Y-98138700D01*
X142113648Y-98138700D01*
X142095244Y-98141615D01*
X141911465Y-98170722D01*
X141716776Y-98233981D01*
X141534386Y-98326915D01*
X141368786Y-98447228D01*
X141224028Y-98591986D01*
X141103715Y-98757586D01*
X141028427Y-98905346D01*
X140980452Y-98956142D01*
X140912631Y-98972937D01*
X140846496Y-98950399D01*
X140807457Y-98905346D01*
X140796877Y-98884582D01*
X140745524Y-98783795D01*
X140629828Y-98624554D01*
X140490646Y-98485372D01*
X140331405Y-98369676D01*
X140330488Y-98369209D01*
X140156029Y-98280317D01*
X139968826Y-98219490D01*
X139774422Y-98188700D01*
X139774417Y-98188700D01*
X139577583Y-98188700D01*
X139577578Y-98188700D01*
X139383173Y-98219490D01*
X139195970Y-98280317D01*
X139020594Y-98369676D01*
X138945102Y-98424525D01*
X138861354Y-98485372D01*
X138861352Y-98485374D01*
X138861351Y-98485374D01*
X138722174Y-98624551D01*
X138722174Y-98624552D01*
X138722172Y-98624554D01*
X138672485Y-98692941D01*
X138606476Y-98783794D01*
X138516485Y-98960413D01*
X138468511Y-99011209D01*
X138400690Y-99028004D01*
X138334555Y-99005467D01*
X138295515Y-98960413D01*
X138256877Y-98884582D01*
X138205524Y-98783795D01*
X138089828Y-98624554D01*
X137950646Y-98485372D01*
X137791405Y-98369676D01*
X137790488Y-98369209D01*
X137616029Y-98280317D01*
X137428826Y-98219490D01*
X137234422Y-98188700D01*
X137234417Y-98188700D01*
X137037583Y-98188700D01*
X137037578Y-98188700D01*
X136843173Y-98219490D01*
X136655970Y-98280317D01*
X136480594Y-98369676D01*
X136405102Y-98424525D01*
X136321354Y-98485372D01*
X136321352Y-98485374D01*
X136321351Y-98485374D01*
X136182174Y-98624551D01*
X136182174Y-98624552D01*
X136182172Y-98624554D01*
X136132485Y-98692941D01*
X136066476Y-98783794D01*
X135976485Y-98960413D01*
X135928511Y-99011209D01*
X135860690Y-99028004D01*
X135794555Y-99005467D01*
X135755515Y-98960413D01*
X135716877Y-98884582D01*
X135665524Y-98783795D01*
X135549828Y-98624554D01*
X135410646Y-98485372D01*
X135251405Y-98369676D01*
X135250488Y-98369209D01*
X135076029Y-98280317D01*
X134888826Y-98219490D01*
X134694422Y-98188700D01*
X134694417Y-98188700D01*
X134497583Y-98188700D01*
X134497578Y-98188700D01*
X134303173Y-98219490D01*
X134115970Y-98280317D01*
X133940594Y-98369676D01*
X133865102Y-98424525D01*
X133781354Y-98485372D01*
X133781352Y-98485374D01*
X133781351Y-98485374D01*
X133642174Y-98624551D01*
X133642174Y-98624552D01*
X133642172Y-98624554D01*
X133592485Y-98692941D01*
X133526476Y-98783794D01*
X133436485Y-98960413D01*
X133388511Y-99011209D01*
X133320690Y-99028004D01*
X133254555Y-99005467D01*
X133215515Y-98960413D01*
X133176877Y-98884582D01*
X133125524Y-98783795D01*
X133009828Y-98624554D01*
X132870646Y-98485372D01*
X132711405Y-98369676D01*
X132710488Y-98369209D01*
X132536029Y-98280317D01*
X132348826Y-98219490D01*
X132154422Y-98188700D01*
X132154417Y-98188700D01*
X131957583Y-98188700D01*
X131957578Y-98188700D01*
X131763173Y-98219490D01*
X131575970Y-98280317D01*
X131400594Y-98369676D01*
X131325102Y-98424525D01*
X131241354Y-98485372D01*
X131241352Y-98485374D01*
X131241351Y-98485374D01*
X131102174Y-98624551D01*
X131102174Y-98624552D01*
X131102172Y-98624554D01*
X131052485Y-98692941D01*
X130986476Y-98783794D01*
X130896485Y-98960413D01*
X130848511Y-99011209D01*
X130780690Y-99028004D01*
X130714555Y-99005467D01*
X130675515Y-98960413D01*
X130636877Y-98884582D01*
X130585524Y-98783795D01*
X130469828Y-98624554D01*
X130330646Y-98485372D01*
X130205356Y-98394343D01*
X130171403Y-98369674D01*
X130034206Y-98299770D01*
X129983409Y-98251796D01*
X129966500Y-98189285D01*
X129966500Y-95341575D01*
X129986185Y-95274536D01*
X130038989Y-95228781D01*
X130108147Y-95218837D01*
X130171703Y-95247862D01*
X130189304Y-95266650D01*
X130273077Y-95377122D01*
X130393656Y-95468560D01*
X130393657Y-95468560D01*
X130393658Y-95468561D01*
X130534436Y-95524077D01*
X130622898Y-95534700D01*
X130622903Y-95534700D01*
X131509097Y-95534700D01*
X131509102Y-95534700D01*
X131597564Y-95524077D01*
X131738342Y-95468561D01*
X131858922Y-95377122D01*
X131950361Y-95256542D01*
X132005877Y-95115764D01*
X132016500Y-95027302D01*
X132016500Y-94983700D01*
X132036185Y-94916661D01*
X132088989Y-94870906D01*
X132140500Y-94859700D01*
X153387324Y-94859700D01*
X153454363Y-94879385D01*
G37*
%TD.AperFunction*%
%TA.AperFunction,NonConductor*%
G36*
X148637445Y-99872932D02*
G01*
X148676485Y-99917987D01*
X148766474Y-100094603D01*
X148785515Y-100120810D01*
X148882172Y-100253846D01*
X149021354Y-100393028D01*
X149180595Y-100508724D01*
X149263455Y-100550943D01*
X149355970Y-100598082D01*
X149355972Y-100598082D01*
X149355975Y-100598084D01*
X149451586Y-100629150D01*
X149543173Y-100658909D01*
X149737578Y-100689700D01*
X149737583Y-100689700D01*
X149934422Y-100689700D01*
X150128826Y-100658909D01*
X150133953Y-100657243D01*
X150316025Y-100598084D01*
X150491405Y-100508724D01*
X150650646Y-100393028D01*
X150789828Y-100253846D01*
X150905524Y-100094605D01*
X150952501Y-100002406D01*
X150967457Y-99973054D01*
X151015431Y-99922257D01*
X151083252Y-99905462D01*
X151149387Y-99927999D01*
X151188426Y-99973052D01*
X151188872Y-99973927D01*
X151263715Y-100120814D01*
X151384028Y-100286413D01*
X151528786Y-100431171D01*
X151683749Y-100543756D01*
X151694390Y-100551487D01*
X151785838Y-100598082D01*
X151876776Y-100644418D01*
X151876778Y-100644418D01*
X151876781Y-100644420D01*
X151921374Y-100658909D01*
X152071465Y-100707677D01*
X152132803Y-100717392D01*
X152273648Y-100739700D01*
X152273649Y-100739700D01*
X152478351Y-100739700D01*
X152478352Y-100739700D01*
X152680534Y-100707677D01*
X152801584Y-100668344D01*
X152871422Y-100666350D01*
X152927581Y-100698595D01*
X156002402Y-103773416D01*
X159011437Y-106782450D01*
X159044922Y-106843773D01*
X159039938Y-106913465D01*
X158998066Y-106969398D01*
X158932602Y-106993815D01*
X158891663Y-106989906D01*
X158805057Y-106966700D01*
X158646943Y-106966700D01*
X158494216Y-107007623D01*
X158494213Y-107007624D01*
X158420666Y-107050087D01*
X158358666Y-107066700D01*
X150602676Y-107066700D01*
X150535637Y-107047015D01*
X150514995Y-107030381D01*
X144353222Y-100868608D01*
X144319737Y-100807285D01*
X144324721Y-100737593D01*
X144366593Y-100681660D01*
X144432057Y-100657243D01*
X144460301Y-100658454D01*
X144657578Y-100689700D01*
X144657583Y-100689700D01*
X144854422Y-100689700D01*
X145048826Y-100658909D01*
X145053953Y-100657243D01*
X145236025Y-100598084D01*
X145411405Y-100508724D01*
X145570646Y-100393028D01*
X145709828Y-100253846D01*
X145825524Y-100094605D01*
X145857884Y-100031095D01*
X145915515Y-99917987D01*
X145963489Y-99867190D01*
X146031310Y-99850395D01*
X146097445Y-99872932D01*
X146136485Y-99917987D01*
X146226474Y-100094603D01*
X146245515Y-100120810D01*
X146342172Y-100253846D01*
X146481354Y-100393028D01*
X146640595Y-100508724D01*
X146723455Y-100550943D01*
X146815970Y-100598082D01*
X146815972Y-100598082D01*
X146815975Y-100598084D01*
X146911586Y-100629150D01*
X147003173Y-100658909D01*
X147197578Y-100689700D01*
X147197583Y-100689700D01*
X147394422Y-100689700D01*
X147588826Y-100658909D01*
X147593953Y-100657243D01*
X147776025Y-100598084D01*
X147951405Y-100508724D01*
X148110646Y-100393028D01*
X148249828Y-100253846D01*
X148365524Y-100094605D01*
X148397884Y-100031095D01*
X148455515Y-99917987D01*
X148503489Y-99867190D01*
X148571310Y-99850395D01*
X148637445Y-99872932D01*
G37*
%TD.AperFunction*%
%TA.AperFunction,NonConductor*%
G36*
X159216703Y-109536946D02*
G01*
X159259895Y-109591867D01*
X159266538Y-109661420D01*
X159234522Y-109723523D01*
X159232459Y-109725636D01*
X145321271Y-123636824D01*
X145259948Y-123670309D01*
X145195272Y-123667074D01*
X145048828Y-123619491D01*
X144854422Y-123588700D01*
X144854417Y-123588700D01*
X144657583Y-123588700D01*
X144657578Y-123588700D01*
X144463173Y-123619490D01*
X144275970Y-123680317D01*
X144100594Y-123769676D01*
X144041733Y-123812442D01*
X143941354Y-123885372D01*
X143941352Y-123885374D01*
X143941351Y-123885374D01*
X143802174Y-124024551D01*
X143802174Y-124024552D01*
X143802172Y-124024554D01*
X143759007Y-124083965D01*
X143686476Y-124183794D01*
X143624542Y-124305346D01*
X143576567Y-124356142D01*
X143508746Y-124372937D01*
X143442611Y-124350399D01*
X143403573Y-124305347D01*
X143328287Y-124157590D01*
X143328285Y-124157587D01*
X143328284Y-124157585D01*
X143207971Y-123991986D01*
X143063213Y-123847228D01*
X142897613Y-123726915D01*
X142897612Y-123726914D01*
X142897610Y-123726913D01*
X142819263Y-123686993D01*
X142715223Y-123633981D01*
X142520534Y-123570722D01*
X142334799Y-123541305D01*
X142318352Y-123538700D01*
X142113648Y-123538700D01*
X142097201Y-123541305D01*
X141911465Y-123570722D01*
X141716776Y-123633981D01*
X141534386Y-123726915D01*
X141368786Y-123847228D01*
X141224028Y-123991986D01*
X141103715Y-124157586D01*
X141056485Y-124250280D01*
X141008510Y-124301076D01*
X140940689Y-124317871D01*
X140874554Y-124295334D01*
X140835515Y-124250280D01*
X140834883Y-124249040D01*
X140788287Y-124157590D01*
X140757963Y-124115852D01*
X140667971Y-123991986D01*
X140523213Y-123847228D01*
X140357613Y-123726915D01*
X140357612Y-123726914D01*
X140357610Y-123726913D01*
X140279263Y-123686993D01*
X140175223Y-123633981D01*
X139980534Y-123570722D01*
X139794799Y-123541305D01*
X139778352Y-123538700D01*
X139573648Y-123538700D01*
X139440448Y-123559796D01*
X139371155Y-123550841D01*
X139317703Y-123505845D01*
X139297064Y-123439093D01*
X139315789Y-123371779D01*
X139333366Y-123349646D01*
X153054994Y-109628019D01*
X153116317Y-109594534D01*
X153142675Y-109591700D01*
X158908676Y-109591700D01*
X158908678Y-109591700D01*
X159035972Y-109557592D01*
X159082777Y-109530568D01*
X159150676Y-109514095D01*
X159216703Y-109536946D01*
G37*
%TD.AperFunction*%
%TA.AperFunction,NonConductor*%
G36*
X156874834Y-115999982D02*
G01*
X156930767Y-116041854D01*
X156955184Y-116107318D01*
X156955500Y-116116164D01*
X156955500Y-123558644D01*
X156935815Y-123625683D01*
X156887796Y-123669128D01*
X156774388Y-123726913D01*
X156608786Y-123847228D01*
X156464028Y-123991986D01*
X156343715Y-124157586D01*
X156268427Y-124305346D01*
X156220452Y-124356142D01*
X156152631Y-124372937D01*
X156086496Y-124350399D01*
X156047457Y-124305346D01*
X156019679Y-124250829D01*
X155985524Y-124183795D01*
X155869828Y-124024554D01*
X155730646Y-123885372D01*
X155571405Y-123769676D01*
X155564981Y-123766403D01*
X155396029Y-123680317D01*
X155208826Y-123619490D01*
X155014422Y-123588700D01*
X155014417Y-123588700D01*
X154817583Y-123588700D01*
X154817578Y-123588700D01*
X154623173Y-123619490D01*
X154435970Y-123680317D01*
X154260594Y-123769676D01*
X154201733Y-123812442D01*
X154101354Y-123885372D01*
X154101352Y-123885374D01*
X154101351Y-123885374D01*
X153962174Y-124024551D01*
X153962174Y-124024552D01*
X153962172Y-124024554D01*
X153919007Y-124083965D01*
X153846476Y-124183794D01*
X153756485Y-124360413D01*
X153708511Y-124411209D01*
X153640690Y-124428004D01*
X153574555Y-124405467D01*
X153535515Y-124360413D01*
X153479679Y-124250829D01*
X153445524Y-124183795D01*
X153329828Y-124024554D01*
X153190646Y-123885372D01*
X153031405Y-123769676D01*
X153024981Y-123766403D01*
X152856029Y-123680317D01*
X152668826Y-123619490D01*
X152474422Y-123588700D01*
X152474417Y-123588700D01*
X152277583Y-123588700D01*
X152277578Y-123588700D01*
X152083173Y-123619490D01*
X151895970Y-123680317D01*
X151720594Y-123769676D01*
X151661733Y-123812442D01*
X151561354Y-123885372D01*
X151561352Y-123885374D01*
X151561351Y-123885374D01*
X151422174Y-124024551D01*
X151422174Y-124024552D01*
X151422172Y-124024554D01*
X151379007Y-124083965D01*
X151306476Y-124183794D01*
X151216485Y-124360413D01*
X151168511Y-124411209D01*
X151100690Y-124428004D01*
X151034555Y-124405467D01*
X150995515Y-124360413D01*
X150939679Y-124250829D01*
X150905524Y-124183795D01*
X150789828Y-124024554D01*
X150650646Y-123885372D01*
X150540455Y-123805313D01*
X150491403Y-123769674D01*
X150354206Y-123699770D01*
X150303409Y-123651796D01*
X150286500Y-123589285D01*
X150286500Y-122537164D01*
X150306185Y-122470125D01*
X150322814Y-122449488D01*
X156743819Y-116028482D01*
X156805142Y-115994998D01*
X156874834Y-115999982D01*
G37*
%TD.AperFunction*%
%TA.AperFunction,NonConductor*%
G36*
X149304834Y-122299982D02*
G01*
X149360767Y-122341854D01*
X149385184Y-122407318D01*
X149385500Y-122416164D01*
X149385500Y-123589285D01*
X149365815Y-123656324D01*
X149317794Y-123699770D01*
X149180596Y-123769674D01*
X149089709Y-123835709D01*
X149021354Y-123885372D01*
X149021352Y-123885374D01*
X149021351Y-123885374D01*
X148882174Y-124024551D01*
X148882174Y-124024552D01*
X148882172Y-124024554D01*
X148839007Y-124083965D01*
X148766476Y-124183794D01*
X148676485Y-124360413D01*
X148628511Y-124411209D01*
X148560690Y-124428004D01*
X148494555Y-124405467D01*
X148455515Y-124360413D01*
X148399679Y-124250829D01*
X148365524Y-124183795D01*
X148249828Y-124024554D01*
X148110646Y-123885372D01*
X148000455Y-123805313D01*
X147951403Y-123769674D01*
X147949868Y-123768734D01*
X147949406Y-123768224D01*
X147947463Y-123766812D01*
X147947759Y-123766403D01*
X147902992Y-123716922D01*
X147891569Y-123647993D01*
X147919226Y-123583830D01*
X147926965Y-123575336D01*
X149173819Y-122328483D01*
X149235142Y-122294998D01*
X149304834Y-122299982D01*
G37*
%TD.AperFunction*%
%TA.AperFunction,NonConductor*%
G36*
X153717445Y-125272932D02*
G01*
X153756485Y-125317987D01*
X153846474Y-125494603D01*
X153865515Y-125520810D01*
X153962172Y-125653846D01*
X154101354Y-125793028D01*
X154260595Y-125908724D01*
X154326967Y-125942542D01*
X154435970Y-125998082D01*
X154435972Y-125998082D01*
X154435975Y-125998084D01*
X154535304Y-126030358D01*
X154623173Y-126058909D01*
X154817578Y-126089700D01*
X154817583Y-126089700D01*
X155014422Y-126089700D01*
X155208826Y-126058909D01*
X155253424Y-126044418D01*
X155396025Y-125998084D01*
X155571405Y-125908724D01*
X155730646Y-125793028D01*
X155869828Y-125653846D01*
X155985524Y-125494605D01*
X156047457Y-125373054D01*
X156095431Y-125322257D01*
X156163252Y-125305462D01*
X156229387Y-125327999D01*
X156268426Y-125373052D01*
X156270323Y-125376774D01*
X156343715Y-125520814D01*
X156464028Y-125686413D01*
X156608786Y-125831171D01*
X156719992Y-125911965D01*
X156774390Y-125951487D01*
X156865838Y-125998082D01*
X156956776Y-126044418D01*
X156956778Y-126044418D01*
X156956781Y-126044420D01*
X157001374Y-126058909D01*
X157151465Y-126107677D01*
X157255957Y-126124227D01*
X157319092Y-126154156D01*
X157356023Y-126213468D01*
X157355025Y-126283330D01*
X157316415Y-126341563D01*
X157252451Y-126369677D01*
X157236559Y-126370700D01*
X142435441Y-126370700D01*
X142368402Y-126351015D01*
X142322647Y-126298211D01*
X142312703Y-126229053D01*
X142341728Y-126165497D01*
X142400506Y-126127723D01*
X142416043Y-126124227D01*
X142429359Y-126122118D01*
X142520534Y-126107677D01*
X142715219Y-126044420D01*
X142897610Y-125951487D01*
X143015330Y-125865959D01*
X143063213Y-125831171D01*
X143063215Y-125831168D01*
X143063219Y-125831166D01*
X143207966Y-125686419D01*
X143207968Y-125686415D01*
X143207971Y-125686413D01*
X143300198Y-125559471D01*
X143328287Y-125520810D01*
X143403573Y-125373052D01*
X143451546Y-125322257D01*
X143519367Y-125305462D01*
X143585502Y-125327999D01*
X143624542Y-125373053D01*
X143652600Y-125428119D01*
X143686476Y-125494605D01*
X143802172Y-125653846D01*
X143941354Y-125793028D01*
X144100595Y-125908724D01*
X144166967Y-125942542D01*
X144275970Y-125998082D01*
X144275972Y-125998082D01*
X144275975Y-125998084D01*
X144375304Y-126030358D01*
X144463173Y-126058909D01*
X144657578Y-126089700D01*
X144657583Y-126089700D01*
X144854422Y-126089700D01*
X145048826Y-126058909D01*
X145093424Y-126044418D01*
X145236025Y-125998084D01*
X145411405Y-125908724D01*
X145570646Y-125793028D01*
X145709828Y-125653846D01*
X145825524Y-125494605D01*
X145887457Y-125373054D01*
X145915515Y-125317987D01*
X145963489Y-125267190D01*
X146031310Y-125250395D01*
X146097445Y-125272932D01*
X146136485Y-125317987D01*
X146226474Y-125494603D01*
X146245515Y-125520810D01*
X146342172Y-125653846D01*
X146481354Y-125793028D01*
X146640595Y-125908724D01*
X146706967Y-125942542D01*
X146815970Y-125998082D01*
X146815972Y-125998082D01*
X146815975Y-125998084D01*
X146915304Y-126030358D01*
X147003173Y-126058909D01*
X147197578Y-126089700D01*
X147197583Y-126089700D01*
X147394422Y-126089700D01*
X147588826Y-126058909D01*
X147633424Y-126044418D01*
X147776025Y-125998084D01*
X147951405Y-125908724D01*
X148110646Y-125793028D01*
X148249828Y-125653846D01*
X148365524Y-125494605D01*
X148427457Y-125373054D01*
X148455515Y-125317987D01*
X148503489Y-125267190D01*
X148571310Y-125250395D01*
X148637445Y-125272932D01*
X148676485Y-125317987D01*
X148766474Y-125494603D01*
X148785515Y-125520810D01*
X148882172Y-125653846D01*
X149021354Y-125793028D01*
X149180595Y-125908724D01*
X149246967Y-125942542D01*
X149355970Y-125998082D01*
X149355972Y-125998082D01*
X149355975Y-125998084D01*
X149455304Y-126030358D01*
X149543173Y-126058909D01*
X149737578Y-126089700D01*
X149737583Y-126089700D01*
X149934422Y-126089700D01*
X150128826Y-126058909D01*
X150173424Y-126044418D01*
X150316025Y-125998084D01*
X150491405Y-125908724D01*
X150650646Y-125793028D01*
X150789828Y-125653846D01*
X150905524Y-125494605D01*
X150967457Y-125373054D01*
X150995515Y-125317987D01*
X151043489Y-125267190D01*
X151111310Y-125250395D01*
X151177445Y-125272932D01*
X151216485Y-125317987D01*
X151306474Y-125494603D01*
X151325515Y-125520810D01*
X151422172Y-125653846D01*
X151561354Y-125793028D01*
X151720595Y-125908724D01*
X151786967Y-125942542D01*
X151895970Y-125998082D01*
X151895972Y-125998082D01*
X151895975Y-125998084D01*
X151995304Y-126030358D01*
X152083173Y-126058909D01*
X152277578Y-126089700D01*
X152277583Y-126089700D01*
X152474422Y-126089700D01*
X152668826Y-126058909D01*
X152713424Y-126044418D01*
X152856025Y-125998084D01*
X153031405Y-125908724D01*
X153190646Y-125793028D01*
X153329828Y-125653846D01*
X153445524Y-125494605D01*
X153507457Y-125373054D01*
X153535515Y-125317987D01*
X153583489Y-125267190D01*
X153651310Y-125250395D01*
X153717445Y-125272932D01*
G37*
%TD.AperFunction*%
%TA.AperFunction,NonConductor*%
G36*
X141017445Y-125383065D02*
G01*
X141056485Y-125428119D01*
X141103715Y-125520814D01*
X141224028Y-125686413D01*
X141368786Y-125831171D01*
X141479992Y-125911965D01*
X141534390Y-125951487D01*
X141625838Y-125998082D01*
X141716776Y-126044418D01*
X141716778Y-126044418D01*
X141716781Y-126044420D01*
X141761374Y-126058909D01*
X141911465Y-126107677D01*
X142015957Y-126124227D01*
X142079092Y-126154156D01*
X142116023Y-126213468D01*
X142115025Y-126283330D01*
X142076415Y-126341563D01*
X142012451Y-126369677D01*
X141996559Y-126370700D01*
X139895441Y-126370700D01*
X139828402Y-126351015D01*
X139782647Y-126298211D01*
X139772703Y-126229053D01*
X139801728Y-126165497D01*
X139860506Y-126127723D01*
X139876043Y-126124227D01*
X139889359Y-126122118D01*
X139980534Y-126107677D01*
X140175219Y-126044420D01*
X140357610Y-125951487D01*
X140475330Y-125865959D01*
X140523213Y-125831171D01*
X140523215Y-125831168D01*
X140523219Y-125831166D01*
X140667966Y-125686419D01*
X140667968Y-125686415D01*
X140667971Y-125686413D01*
X140788284Y-125520814D01*
X140788286Y-125520811D01*
X140788287Y-125520810D01*
X140835516Y-125428117D01*
X140883489Y-125377323D01*
X140951310Y-125360528D01*
X141017445Y-125383065D01*
G37*
%TD.AperFunction*%
%TA.AperFunction,NonConductor*%
G36*
X138477445Y-125383065D02*
G01*
X138516485Y-125428119D01*
X138563715Y-125520814D01*
X138684028Y-125686413D01*
X138828786Y-125831171D01*
X138939992Y-125911965D01*
X138994390Y-125951487D01*
X139085838Y-125998082D01*
X139176776Y-126044418D01*
X139176778Y-126044418D01*
X139176781Y-126044420D01*
X139221374Y-126058909D01*
X139371465Y-126107677D01*
X139475957Y-126124227D01*
X139539092Y-126154156D01*
X139576023Y-126213468D01*
X139575025Y-126283330D01*
X139536415Y-126341563D01*
X139472451Y-126369677D01*
X139456559Y-126370700D01*
X137355441Y-126370700D01*
X137288402Y-126351015D01*
X137242647Y-126298211D01*
X137232703Y-126229053D01*
X137261728Y-126165497D01*
X137320506Y-126127723D01*
X137336043Y-126124227D01*
X137349359Y-126122118D01*
X137440534Y-126107677D01*
X137635219Y-126044420D01*
X137817610Y-125951487D01*
X137935330Y-125865959D01*
X137983213Y-125831171D01*
X137983215Y-125831168D01*
X137983219Y-125831166D01*
X138127966Y-125686419D01*
X138127968Y-125686415D01*
X138127971Y-125686413D01*
X138248284Y-125520814D01*
X138248286Y-125520811D01*
X138248287Y-125520810D01*
X138295516Y-125428117D01*
X138343489Y-125377323D01*
X138411310Y-125360528D01*
X138477445Y-125383065D01*
G37*
%TD.AperFunction*%
%TA.AperFunction,NonConductor*%
G36*
X133397445Y-125272932D02*
G01*
X133436485Y-125317987D01*
X133526474Y-125494603D01*
X133545515Y-125520810D01*
X133642172Y-125653846D01*
X133781354Y-125793028D01*
X133940595Y-125908724D01*
X134006967Y-125942542D01*
X134115970Y-125998082D01*
X134115972Y-125998082D01*
X134115975Y-125998084D01*
X134215304Y-126030358D01*
X134303173Y-126058909D01*
X134497578Y-126089700D01*
X134497583Y-126089700D01*
X134694422Y-126089700D01*
X134888826Y-126058909D01*
X134933424Y-126044418D01*
X135076025Y-125998084D01*
X135251405Y-125908724D01*
X135410646Y-125793028D01*
X135549828Y-125653846D01*
X135665524Y-125494605D01*
X135727457Y-125373054D01*
X135775431Y-125322257D01*
X135843252Y-125305462D01*
X135909387Y-125327999D01*
X135948426Y-125373052D01*
X135950323Y-125376774D01*
X136023715Y-125520814D01*
X136144028Y-125686413D01*
X136288786Y-125831171D01*
X136399992Y-125911965D01*
X136454390Y-125951487D01*
X136545838Y-125998082D01*
X136636776Y-126044418D01*
X136636778Y-126044418D01*
X136636781Y-126044420D01*
X136681374Y-126058909D01*
X136831465Y-126107677D01*
X136935957Y-126124227D01*
X136999092Y-126154156D01*
X137036023Y-126213468D01*
X137035025Y-126283330D01*
X136996415Y-126341563D01*
X136932451Y-126369677D01*
X136916559Y-126370700D01*
X127195441Y-126370700D01*
X127128402Y-126351015D01*
X127082647Y-126298211D01*
X127072703Y-126229053D01*
X127101728Y-126165497D01*
X127160506Y-126127723D01*
X127176043Y-126124227D01*
X127189359Y-126122118D01*
X127280534Y-126107677D01*
X127475219Y-126044420D01*
X127657610Y-125951487D01*
X127775330Y-125865959D01*
X127823213Y-125831171D01*
X127823215Y-125831168D01*
X127823219Y-125831166D01*
X127967966Y-125686419D01*
X127967968Y-125686415D01*
X127967971Y-125686413D01*
X128060198Y-125559471D01*
X128088287Y-125520810D01*
X128163573Y-125373052D01*
X128211546Y-125322257D01*
X128279367Y-125305462D01*
X128345502Y-125327999D01*
X128384542Y-125373053D01*
X128412600Y-125428119D01*
X128446476Y-125494605D01*
X128562172Y-125653846D01*
X128701354Y-125793028D01*
X128860595Y-125908724D01*
X128926967Y-125942542D01*
X129035970Y-125998082D01*
X129035972Y-125998082D01*
X129035975Y-125998084D01*
X129135304Y-126030358D01*
X129223173Y-126058909D01*
X129417578Y-126089700D01*
X129417583Y-126089700D01*
X129614422Y-126089700D01*
X129808826Y-126058909D01*
X129853424Y-126044418D01*
X129996025Y-125998084D01*
X130171405Y-125908724D01*
X130330646Y-125793028D01*
X130469828Y-125653846D01*
X130585524Y-125494605D01*
X130647457Y-125373054D01*
X130675515Y-125317987D01*
X130723489Y-125267190D01*
X130791310Y-125250395D01*
X130857445Y-125272932D01*
X130896485Y-125317987D01*
X130986474Y-125494603D01*
X131005515Y-125520810D01*
X131102172Y-125653846D01*
X131241354Y-125793028D01*
X131400595Y-125908724D01*
X131466967Y-125942542D01*
X131575970Y-125998082D01*
X131575972Y-125998082D01*
X131575975Y-125998084D01*
X131675304Y-126030358D01*
X131763173Y-126058909D01*
X131957578Y-126089700D01*
X131957583Y-126089700D01*
X132154422Y-126089700D01*
X132348826Y-126058909D01*
X132393424Y-126044418D01*
X132536025Y-125998084D01*
X132711405Y-125908724D01*
X132870646Y-125793028D01*
X133009828Y-125653846D01*
X133125524Y-125494605D01*
X133187457Y-125373054D01*
X133215515Y-125317987D01*
X133263489Y-125267190D01*
X133331310Y-125250395D01*
X133397445Y-125272932D01*
G37*
%TD.AperFunction*%
M02*
